<svg width="40" height="24" viewBox="0 0 40 24" fill="none" xmlns="http://www.w3.org/2000/svg">
<rect width="40" height="24" rx="6" fill="#151515"/>
<path d="M8.92366 6.7207C7.04423 6.7207 6.1068 7.33377 5.3543 7.82452L5.33157 7.83907C5.29284 7.86456 5.26553 7.90319 5.25518 7.94719C5.24469 7.99121 5.25195 8.03735 5.27549 8.07644L6.01884 9.30546C6.03269 9.32846 6.05179 9.34823 6.07452 9.36333C6.09738 9.37843 6.12334 9.38852 6.15078 9.39284C6.17754 9.39748 6.20498 9.39635 6.23121 9.38955C6.25743 9.38274 6.28178 9.37047 6.30249 9.35351L6.36153 9.30693C6.74834 8.9953 7.36876 8.57881 8.87053 8.46523C9.70628 8.40117 10.4284 8.61086 10.9609 9.08849C11.5463 9.60691 11.8968 10.4442 11.8968 11.3281C11.8968 12.9547 10.8986 13.977 9.29527 13.9974C7.97399 13.9901 7.08659 13.329 7.08659 12.3519C7.08659 11.8334 7.33084 11.4956 7.80722 11.1578C7.84353 11.1328 7.86922 11.096 7.87957 11.0543C7.88993 11.0125 7.88415 10.9686 7.8633 10.9306L7.19594 9.71902C7.18356 9.69735 7.16689 9.67821 7.14685 9.66272C7.12681 9.64722 7.10381 9.63568 7.07906 9.62875C7.05378 9.62153 7.02728 9.61949 7.00119 9.62273C6.97496 9.626 6.94981 9.63449 6.92735 9.64769C6.17808 10.0743 5.25881 10.8549 5.30884 12.3548C5.3695 14.2639 7.02298 15.7215 9.17234 15.7812H9.28007H9.42721C11.9815 15.7011 13.8261 13.8809 13.8261 11.4126C13.8261 9.14673 12.1059 6.7207 8.92366 6.7207Z" fill="#BABABA"/>
<path d="M30.8643 9.96484C30.8926 9.96513 30.9199 9.97379 30.9434 9.98926C30.9668 10.0048 30.9857 10.0263 30.9961 10.0518L32.5498 14.0332C32.5602 14.0592 32.5787 14.0819 32.6025 14.0977C32.6265 14.1134 32.6546 14.1221 32.6836 14.1221C32.7123 14.1221 32.741 14.1134 32.7646 14.0977C32.7885 14.0819 32.8074 14.0592 32.8174 14.0332L34.166 10.0625C34.1749 10.0356 34.1929 10.0117 34.2168 9.99512C34.2407 9.97864 34.2694 9.96948 34.2988 9.96973H35.4395C35.4613 9.96963 35.4831 9.97499 35.5029 9.98438C35.5224 9.99379 35.5396 10.0076 35.5527 10.0244C35.5659 10.0414 35.5753 10.0612 35.5791 10.082C35.583 10.1028 35.5816 10.1243 35.5752 10.1445V10.1406L33.127 16.4102C32.5705 17.8665 31.5967 18.2402 30.5303 18.2402C30.3295 18.2449 30.1284 18.2216 29.9346 18.1709C29.9045 18.163 29.8777 18.1458 29.8584 18.1221C29.8396 18.0983 29.8294 18.069 29.8291 18.0391V17.0869C29.8291 17.067 29.8341 17.0473 29.8428 17.0293C29.8516 17.0113 29.864 16.9952 29.8799 16.9824C29.896 16.9697 29.9145 16.9601 29.9346 16.9551C29.9546 16.9501 29.9757 16.9495 29.9961 16.9531C30.1642 16.9837 30.3348 16.9988 30.5059 16.999C30.8007 17.0132 31.0927 16.9322 31.334 16.7686C31.5747 16.6049 31.7516 16.3682 31.8359 16.0967L31.9082 15.8779C31.9194 15.8487 31.9194 15.8164 31.9082 15.7871L29.6191 10.1426C29.6123 10.1225 29.611 10.101 29.6143 10.0801C29.6177 10.0591 29.6262 10.0388 29.6387 10.0215C29.6516 10.0044 29.6682 9.9903 29.6875 9.98047C29.707 9.97061 29.729 9.96518 29.751 9.96484H30.8643ZM26.2607 9.81348C28.0672 9.81348 28.7178 10.6201 28.7178 12.1602L28.7236 15.4326C28.724 15.4503 28.7209 15.468 28.7139 15.4844C28.707 15.5008 28.6964 15.5157 28.6836 15.5283C28.6706 15.5407 28.6556 15.5508 28.6387 15.5576C28.622 15.5644 28.6033 15.5683 28.585 15.5684H27.4844C27.4662 15.5683 27.4483 15.5643 27.4316 15.5576C27.4145 15.5508 27.3986 15.5409 27.3857 15.5283C27.3729 15.5157 27.3622 15.5008 27.3555 15.4844C27.3486 15.468 27.3454 15.4503 27.3457 15.4326V15.1885C27.3473 15.1672 27.342 15.146 27.3301 15.1279C27.3185 15.1098 27.3012 15.0957 27.2803 15.0879C27.2596 15.0801 27.2364 15.0783 27.2148 15.084C27.193 15.0897 27.1738 15.1022 27.1602 15.1191C26.8318 15.4627 26.2976 15.7119 25.4463 15.7119C24.1929 15.7118 23.3633 15.0854 23.3633 14.0029C23.3513 13.739 23.4088 13.4759 23.5293 13.2383C23.6497 13.001 23.8299 12.7961 24.0537 12.6426C24.5061 12.3167 25.2076 12.1476 26.248 12.1084L27.3516 12.0732V11.7627C27.3514 11.1381 26.9136 10.8731 26.2109 10.873C25.5083 10.873 25.0647 11.1113 24.9609 11.501C24.9526 11.5285 24.9345 11.5526 24.9102 11.5693C24.8862 11.5861 24.8571 11.5949 24.8271 11.5938H23.7383C23.7183 11.5942 23.698 11.5907 23.6797 11.583C23.6618 11.5753 23.6451 11.5641 23.6318 11.5498C23.6187 11.5354 23.6091 11.5175 23.6035 11.499C23.5979 11.4807 23.5965 11.4613 23.5996 11.4424C23.763 10.5167 24.5602 9.81352 26.2607 9.81348ZM20.0068 7.14453C21.7613 7.14456 23.0165 8.37119 23.0166 10.0928C23.0166 11.8144 21.7707 13.0428 20.0166 13.043L20.0068 13.04H18.3525C18.3157 13.04 18.2802 13.0541 18.2539 13.0791C18.2282 13.104 18.213 13.1377 18.2129 13.1729V15.4346C18.2128 15.4699 18.1988 15.5043 18.1729 15.5293C18.1467 15.5543 18.111 15.5684 18.0742 15.5684H16.9092C16.8728 15.5678 16.8374 15.5532 16.8115 15.5283C16.7856 15.5035 16.7712 15.4698 16.7705 15.4346V7.27832C16.7705 7.24293 16.7852 7.20865 16.8115 7.18359C16.8374 7.15865 16.8725 7.1446 16.9092 7.14453H20.0068ZM25.9336 13.1113C25.1806 13.1469 24.7414 13.4477 24.7412 13.9531C24.7412 14.4107 25.1437 14.666 25.8447 14.666C26.7978 14.6659 27.3613 14.1706 27.3613 13.293V13.04L25.9336 13.1113ZM18.3623 8.37988C18.3259 8.38041 18.2906 8.39506 18.2646 8.41992C18.2387 8.44483 18.2238 8.47855 18.2236 8.51367V11.667C18.2239 11.7019 18.2388 11.7352 18.2646 11.7598C18.2906 11.7844 18.3259 11.7988 18.3623 11.7988H19.9277C20.881 11.7988 21.584 11.077 21.584 10.0889C21.5839 9.10084 20.8809 8.37988 19.9277 8.37988H18.3623Z" fill="#BABABA"/>
</svg>
