<svg width="64" height="64" viewBox="0 0 64 64" fill="none" xmlns="http://www.w3.org/2000/svg">
<path d="M45.3334 23.2H18.6667C17.4885 23.2 16.5334 24.1551 16.5334 25.3333V37.3333C16.5334 38.5115 17.4885 39.4667 18.6667 39.4667H26V42.6667H18.6667C15.7212 42.6667 13.3334 40.2789 13.3334 37.3333V25.3333C13.3334 22.3878 15.7212 20 18.6667 20H45.3334C48.2789 20 50.6667 22.3878 50.6667 25.3333V37.3333C50.6667 40.2789 48.2789 42.6667 45.3334 42.6667H37.3334V45.1823L30.6667 41.3333L37.3334 37.4843V39.4667H45.3334C46.5116 39.4667 47.4667 38.5115 47.4667 37.3333V25.3333C47.4667 24.1551 46.5116 23.2 45.3334 23.2Z" fill="#DEDEDE"/>
</svg>
