<svg width="33" height="20" viewBox="0 0 33 20" fill="none" xmlns="http://www.w3.org/2000/svg">
<rect x="0.5" width="32" height="20" rx="4" fill="#151515"/>
<path d="M12.8309 5.5L12.7225 5.5185C12.3834 5.56166 12.0564 5.69043 11.7847 5.89885C11.724 5.93569 11.6697 5.98507 11.6095 6.03454C11.6033 6.02243 11.5974 6.00964 11.5974 5.99753C11.5849 5.92964 11.5789 5.85675 11.567 5.78886C11.5488 5.67833 11.4885 5.62233 11.3796 5.62233H11.095C10.9198 5.62233 10.8894 5.65993 10.8894 5.83203V11.161C10.8957 11.241 10.9436 11.2832 11.0099 11.2895H11.5366C11.6092 11.2895 11.6514 11.241 11.6571 11.161C11.6633 11.1362 11.6632 11.1117 11.6632 11.087V9.23561C11.6876 9.26035 11.7059 9.27285 11.7179 9.28495C12.1597 9.65969 12.668 9.78199 13.2249 9.67146C13.733 9.56725 14.0835 9.25411 14.3075 8.79359C14.4828 8.44359 14.5545 8.08771 14.5607 7.70086C14.5726 7.27718 14.5365 6.86934 14.3612 6.4704C14.1553 5.97934 13.8049 5.6537 13.2786 5.54317C13.1997 5.52475 13.1153 5.51827 13.0365 5.50617C12.9639 5.49985 12.8973 5.5 12.8309 5.5ZM16.8607 5.5C16.8363 5.50632 16.8132 5.51234 16.7888 5.51234C16.5466 5.52444 16.3102 5.55511 16.0748 5.61616C15.9234 5.653 15.7784 5.70804 15.6332 5.75699C15.5425 5.78752 15.4996 5.85544 15.4996 5.95333C15.5058 6.03333 15.4996 6.11901 15.4996 6.19901C15.5058 6.32165 15.5546 6.35342 15.6697 6.32237C15.8631 6.27342 16.0566 6.21838 16.25 6.18154C16.5523 6.12628 16.8611 6.10137 17.1696 6.14453C17.3329 6.17506 17.4842 6.21832 17.5869 6.35938C17.6776 6.47622 17.7143 6.62319 17.7206 6.77056C17.7268 6.97951 17.7266 7.14499 17.7266 7.35341C17.7266 7.36552 17.7268 7.37743 17.7206 7.38322H17.6902C17.4299 7.31586 17.1642 7.27932 16.8982 7.2609C16.6197 7.24879 16.3418 7.26116 16.0758 7.35958C15.7554 7.47011 15.4945 7.66614 15.3436 7.98561C15.2285 8.2314 15.2101 8.48981 15.2464 8.7535C15.3008 9.10981 15.4705 9.37961 15.7791 9.55119C16.0757 9.71698 16.3902 9.7348 16.7169 9.68586C17.0918 9.63059 17.4241 9.47112 17.7145 9.22533C17.7264 9.21322 17.739 9.20762 17.7509 9.19552C17.7691 9.29394 17.7814 9.38625 17.7996 9.47204C17.8115 9.55204 17.8606 9.60039 17.9332 9.6067H18.3383C18.399 9.6067 18.4538 9.55174 18.4538 9.48438C18.46 9.46595 18.4599 9.44074 18.4599 9.41653V6.79626C18.4583 6.69152 18.4517 6.58077 18.4335 6.47656C18.3853 6.1513 18.252 5.88078 17.9616 5.70868C17.7983 5.61026 17.6172 5.56137 17.4238 5.53084C17.3331 5.51821 17.2482 5.51211 17.1575 5.5H16.8607ZM18.9582 5.50103C18.8975 5.50103 18.8672 5.55561 18.8792 5.61719C18.8911 5.66666 18.9096 5.72243 18.9278 5.77138C19.4116 6.98717 19.9012 8.20215 20.3912 9.42373C20.4337 9.52794 20.4394 9.61454 20.3912 9.71875C20.3129 9.90243 20.2458 10.0927 20.1613 10.2769C20.0887 10.4427 19.9681 10.5662 19.7866 10.6151C19.6658 10.6462 19.5328 10.6582 19.4058 10.6398C19.3451 10.6335 19.2842 10.6214 19.2235 10.6151C19.1385 10.6088 19.0971 10.6454 19.0908 10.7375V10.9842C19.0971 11.1257 19.1392 11.1866 19.2782 11.2113C19.4115 11.2356 19.5503 11.2533 19.6955 11.2597C20.1186 11.2655 20.452 11.0947 20.6697 10.72C20.7605 10.5726 20.8333 10.4189 20.8996 10.2595C21.4861 8.75525 22.0669 7.25724 22.6477 5.74671C22.6658 5.70355 22.6769 5.65997 22.6831 5.61102C22.695 5.53734 22.6588 5.501 22.593 5.50206H22.1038C22.0193 5.49574 21.9405 5.55055 21.9104 5.63055C21.8985 5.66739 21.8858 5.69753 21.8739 5.73438L21.009 8.24568C20.9483 8.42358 20.8813 8.60755 20.8206 8.80387C20.8082 8.77281 20.8026 8.76061 20.7963 8.74219C20.4759 7.84587 20.1617 6.95039 19.8413 6.05407C19.7931 5.9067 19.7388 5.76441 19.6843 5.62336C19.6605 5.55546 19.6051 5.5072 19.5263 5.5072C19.3386 5.50088 19.1516 5.50103 18.9582 5.50103ZM12.8248 6.13836C13.194 6.16889 13.4962 6.35327 13.6533 6.78906C13.7502 7.05906 13.7748 7.31955 13.7748 7.60218C13.7748 7.86639 13.7569 8.09998 13.6786 8.35156C13.509 8.88577 13.1216 9.09432 12.6253 9.07011C12.2743 9.05169 11.9781 8.91589 11.6996 8.71957C11.6696 8.70115 11.6514 8.67147 11.6571 8.64042V6.55572C11.6514 6.51887 11.6696 6.48882 11.6996 6.4704C12.0382 6.23092 12.4131 6.10784 12.8248 6.13836ZM16.7493 7.79646C16.8529 7.78725 16.9573 7.78924 17.0602 7.8016C17.2661 7.82002 17.4722 7.8564 17.678 7.88692C17.7205 7.89324 17.7317 7.91176 17.7317 7.9486C17.7255 8.07176 17.7317 8.18831 17.7317 8.31147C17.7317 8.4341 17.7256 8.54502 17.7256 8.66817C17.7318 8.6987 17.7135 8.72274 17.6892 8.74116C17.4107 8.94379 17.1083 9.07952 16.7635 9.11637C16.6245 9.12847 16.485 9.12845 16.3523 9.07319C16.2009 9.01793 16.0869 8.88868 16.0444 8.73499C15.9962 8.57552 15.9963 8.40979 16.0383 8.24979C16.1047 8.04085 16.2495 7.92501 16.4435 7.85711C16.5433 7.82632 16.6457 7.80567 16.7493 7.79646ZM23.2898 11.8168C22.8058 11.8237 22.2345 11.9337 21.801 12.2424C21.6672 12.3366 21.6907 12.4674 21.8395 12.45C22.3269 12.3906 23.4118 12.2571 23.6058 12.5086C23.8002 12.7602 23.3907 13.7981 23.2098 14.2623C23.1538 14.4008 23.2722 14.4581 23.3971 14.3528C24.2081 13.6633 24.4188 12.218 24.2529 12.0101C24.1697 11.9061 23.7738 11.81 23.2898 11.8168ZM8.86187 12.3431C8.74879 12.3589 8.70009 12.5044 8.81832 12.6197C10.8494 14.5533 13.5333 15.5 16.5133 15.5C18.6388 15.5 21.1063 14.7961 22.8097 13.4698C23.0913 13.2493 22.8514 12.9188 22.5626 13.0493C20.6528 13.9046 18.5786 14.3168 16.6906 14.3168C13.8925 14.3168 11.1839 13.7239 8.99251 12.3771C8.94455 12.3476 8.89956 12.3379 8.86187 12.3431Z" fill="#BABABA"/>
</svg>
