<svg width="40" height="24" viewBox="0 0 40 24" fill="none" xmlns="http://www.w3.org/2000/svg">
<rect width="40" height="24" rx="6" fill="#151515"/>
<path d="M6.69637 7.15137L5.20349 10.6433H6.17543L6.45089 9.94405H8.05224L8.32627 10.6433H9.31962L7.82816 7.15137H6.69637ZM7.24871 7.96404L7.73682 9.18593H6.75917L7.24871 7.96404Z" fill="#BABABA"/>
<path d="M9.42224 10.6433V7.15137L10.8034 7.15653L11.6068 9.4079L12.3909 7.15137H13.761V10.6433H12.8933V8.0703L11.9734 10.6433H11.2124L10.29 8.0703V10.6433H9.42224Z" fill="#BABABA"/>
<path d="M14.3568 10.6433V7.15137H17.1884V7.93246H15.2337V8.52976H17.1428V9.2649H15.2337V9.88518H17.1884V10.6433H14.3568Z" fill="#BABABA"/>
<path d="M17.6908 7.15234V10.6443H18.5586V9.40372H18.9239L19.9644 10.6443H21.0248L19.883 9.35777C20.3516 9.31799 20.835 8.91338 20.835 8.28521C20.835 7.55039 20.2617 7.15234 19.6218 7.15234H17.6908ZM18.5586 7.93343H19.5505C19.7884 7.93343 19.9615 8.12068 19.9615 8.301C19.9615 8.53299 19.7372 8.66858 19.5633 8.66858H18.5586V7.93343Z" fill="#BABABA"/>
<path d="M22.0761 10.6433H21.1901V7.15137H22.0761V10.6433Z" fill="#BABABA"/>
<path d="M24.1766 10.6433H23.9853C23.06 10.6433 22.4982 9.90988 22.4982 8.91169C22.4982 7.88884 23.0537 7.15137 24.2223 7.15137H25.1814V7.9784H24.1872C23.7128 7.9784 23.3773 8.35083 23.3773 8.9203C23.3773 9.59656 23.761 9.88058 24.3136 9.88058H24.542L24.1766 10.6433Z" fill="#BABABA"/>
<path d="M26.0641 7.15234L24.5712 10.6443H25.5432L25.8186 9.94502H27.42L27.694 10.6443H28.6874L27.1959 7.15234H26.0641ZM26.6164 7.96502L27.1046 9.18691H26.1269L26.6164 7.96502Z" fill="#BABABA"/>
<path d="M28.79 10.6433V7.15137H29.8932L31.3019 9.34531V7.15137H32.1697V10.6433H31.1021L29.6577 8.39192V10.6433H28.79Z" fill="#BABABA"/>
<path d="M11.5244 16.7536V13.2617H14.356V14.0428H12.4012V14.6401H14.3103V15.3753H12.4012V15.9955H14.356V16.7536H11.5244Z" fill="#BABABA"/>
<path d="M25.4016 16.7536V13.2617H28.2332V14.0428H26.2784V14.6401H28.1784V15.3753H26.2784V15.9955H28.2332V16.7536H25.4016Z" fill="#BABABA"/>
<path d="M14.466 16.7536L15.8447 15.0292L14.4332 13.2617H15.5264L16.3671 14.3544L17.2106 13.2617H18.261L16.868 15.0077L18.2493 16.7536H17.1562L16.3399 15.6782L15.5436 16.7536H14.466Z" fill="#BABABA"/>
<path d="M18.3557 13.2627V16.7546H19.2463V15.6519H20.1597C20.9326 15.6519 21.5185 15.2394 21.5185 14.4372C21.5185 13.7727 21.059 13.2627 20.2725 13.2627H18.3557ZM19.2463 14.0524H20.2083C20.4579 14.0524 20.6364 14.2064 20.6364 14.4544C20.6364 14.6875 20.4588 14.8565 20.2054 14.8565H19.2463V14.0524Z" fill="#BABABA"/>
<path d="M21.8932 13.2617V16.7536H22.7609V15.5131H23.1263L24.1668 16.7536H25.2272L24.0854 15.4671C24.554 15.4274 25.0374 15.0228 25.0374 14.3946C25.0374 13.6598 24.4641 13.2617 23.8242 13.2617H21.8932ZM22.7609 14.0428H23.7529C23.9908 14.0428 24.1639 14.2301 24.1639 14.4104C24.1639 14.6424 23.9396 14.7779 23.7657 14.7779H22.7609V14.0428Z" fill="#BABABA"/>
<path d="M28.6312 16.7536V15.9955H30.3679C30.6249 15.9955 30.7361 15.8558 30.7361 15.7026C30.7361 15.5558 30.6252 15.4074 30.3679 15.4074H29.5831C28.901 15.4074 28.5211 14.9893 28.5211 14.3616C28.5211 13.8017 28.869 13.2617 29.8826 13.2617H31.5725L31.2071 14.0474H29.7456C29.4662 14.0474 29.3802 14.1949 29.3802 14.3357C29.3802 14.4805 29.4865 14.6401 29.6999 14.6401H30.522C31.2825 14.6401 31.6124 15.0741 31.6124 15.6423C31.6124 16.2533 31.2447 16.7536 30.4806 16.7536H28.6312Z" fill="#BABABA"/>
<path d="M31.818 16.7536V15.9955H33.5547C33.8116 15.9955 33.9229 15.8558 33.9229 15.7026C33.9229 15.5558 33.812 15.4074 33.5547 15.4074H32.7699C32.0877 15.4074 31.7078 14.9893 31.7078 14.3616C31.7078 13.8017 32.0557 13.2617 33.0694 13.2617H34.7592L34.3939 14.0474H32.9324C32.653 14.0474 32.567 14.1949 32.567 14.3357C32.567 14.4805 32.6733 14.6401 32.8867 14.6401H33.7088C34.4692 14.6401 34.7992 15.0741 34.7992 15.6423C34.7992 16.2533 34.4315 16.7536 33.6674 16.7536H31.818Z" fill="#BABABA"/>
</svg>
