<svg width="125" height="42" viewBox="0 0 125 42" fill="none" xmlns="http://www.w3.org/2000/svg">
<path d="M115.046 0.00013682H9.95992C9.57686 0.00013682 9.19835 0.000136827 8.81633 0.00223618C8.49653 0.00433626 8.17928 0.0104368 7.85645 0.0155713C7.15497 0.0238685 6.45522 0.0858964 5.76316 0.201116C5.07209 0.318845 4.40266 0.540794 3.77752 0.859465C3.15315 1.18083 2.58264 1.59841 2.08669 2.09705C1.58814 2.5943 1.17256 3.16905 0.855938 3.79919C0.538434 4.42809 0.318275 5.10201 0.203068 5.79767C0.0867596 6.49246 0.0241778 7.19525 0.0158745 7.89976C0.00617924 8.22173 0.00515944 8.54472 5.34058e-05 8.86668V33.1366C0.00515944 33.4626 0.00617924 33.7784 0.0158745 34.1046C0.0241778 34.809 0.0867665 35.5118 0.203068 36.2066C0.317958 36.9026 0.538131 37.5769 0.855938 38.206C1.17242 38.8341 1.58806 39.4066 2.08669 39.9011C2.58076 40.4019 3.15164 40.8198 3.77752 41.1387C4.40265 41.4582 5.07201 41.6815 5.76316 41.801C6.45535 41.9153 7.15504 41.9774 7.85645 41.9867C8.17928 41.9938 8.49653 41.9979 8.81633 41.9979C9.19835 42 9.57686 42 9.95992 42H115.046C115.421 42 115.803 42 116.178 41.9979C116.496 41.9979 116.823 41.9938 117.141 41.9867C117.841 41.9779 118.539 41.9158 119.23 41.801C119.924 41.6807 120.596 41.4574 121.223 41.1387C121.849 40.8196 122.419 40.4017 122.913 39.9011C123.41 39.4046 123.827 38.8326 124.147 38.206C124.463 37.5764 124.681 36.9022 124.794 36.2066C124.91 35.5117 124.975 34.8091 124.988 34.1046C124.992 33.7784 124.992 33.4626 124.992 33.1366C125 32.7551 125 32.3758 125 31.9881V10.013C125 9.62849 125 9.24711 124.992 8.86668C124.992 8.54472 124.992 8.22173 124.988 7.89969C124.975 7.19518 124.91 6.49251 124.794 5.79763C124.68 5.10237 124.463 4.4285 124.147 3.79915C123.503 2.53609 122.48 1.50796 121.223 0.85937C120.596 0.541482 119.924 0.319588 119.23 0.201022C118.54 0.0852941 117.841 0.0232443 117.141 0.0154243C116.823 0.0103006 116.496 0.00414748 116.178 0.00210008C115.803 -4.77038e-09 115.421 0 115.046 0V0.00013682Z" fill="#A6A6A6"/>
<path d="M8.89822 40.9979C8.58039 40.9979 8.27027 40.9938 7.95492 40.9867C7.30172 40.9782 6.65004 40.9212 6.00524 40.8161C5.40399 40.7124 4.82153 40.5192 4.2771 40.2432C3.73765 39.9695 3.24563 39.6106 2.81989 39.1802C2.38799 38.7549 2.02841 38.2616 1.7554 37.7199C1.47939 37.1746 1.28837 36.5902 1.189 35.9869C1.08169 35.3387 1.02363 34.6833 1.01532 34.0262C1.00871 33.8057 1.00005 33.0715 1.00005 33.0715V8.91525C1.00005 8.91525 1.00928 8.19226 1.01538 7.97984C1.02333 7.32382 1.08105 6.66941 1.18804 6.0222C1.28759 5.41729 1.47876 4.83117 1.75492 4.28415C2.02692 3.7428 2.38451 3.24915 2.81381 2.82232C3.24263 2.39143 3.73622 2.03064 4.27658 1.75312C4.81977 1.47798 5.40112 1.28624 6.00116 1.18433C6.64811 1.07826 7.302 1.02091 7.95753 1.01277L8.8987 1H116.096L117.049 1.01328C117.699 1.02102 118.346 1.07785 118.987 1.1833C119.593 1.2865 120.181 1.47958 120.73 1.75618C121.813 2.31547 122.693 3.20032 123.249 4.2867C123.521 4.82994 123.709 5.41128 123.807 6.01097C123.915 6.66348 123.976 7.32302 123.989 7.98443C123.992 8.28059 123.992 8.59868 123.992 8.91525C124 9.30738 124 9.68064 124 10.0569V31.942C124 32.3219 124 32.6926 123.992 33.0663C123.992 33.4064 123.992 33.7178 123.988 34.0385C123.975 34.688 123.916 35.3359 123.81 35.9766C123.712 36.5843 123.522 37.1733 123.246 37.723C122.971 38.2588 122.613 38.7478 122.187 39.172C121.761 39.6047 121.267 39.9658 120.727 40.2412C120.179 40.5194 119.593 40.7132 118.987 40.8161C118.342 40.9217 117.691 40.9787 117.038 40.9867C116.732 40.9938 116.412 40.9979 116.101 40.9979L114.971 41L8.89822 40.9979Z" fill="black"/>
<path d="M25.6436 20.4601C25.6543 19.6342 25.8737 18.8243 26.2814 18.1059C26.6892 17.3874 27.272 16.7839 27.9757 16.3512C27.5286 15.7128 26.9389 15.1874 26.2533 14.8167C25.5677 14.446 24.8051 14.2403 24.026 14.216C22.3642 14.0415 20.7532 15.2103 19.9064 15.2103C19.0431 15.2103 17.7393 14.2333 16.3353 14.2621C15.4272 14.2915 14.5422 14.5556 13.7664 15.0287C12.9906 15.5018 12.3507 16.1677 11.9089 16.9617C9.99499 20.2753 11.4226 25.1452 13.256 27.8238C14.1732 29.1354 15.2453 30.6004 16.648 30.5485C18.0206 30.4915 18.5333 29.6732 20.1902 29.6732C21.8318 29.6732 22.3127 30.5485 23.7439 30.5154C25.2168 30.4915 26.1449 29.198 27.0299 27.874C27.689 26.9394 28.1961 25.9066 28.5326 24.8137C27.6769 24.4517 26.9466 23.8459 26.4329 23.0717C25.9191 22.2975 25.6446 21.3893 25.6436 20.4601Z" fill="white"/>
<path d="M22.9404 12.4543C23.7435 11.4903 24.1392 10.2511 24.0434 9C22.8164 9.1289 21.6831 9.71531 20.8691 10.6424C20.4711 11.0953 20.1664 11.6222 19.9722 12.193C19.7779 12.7638 19.6982 13.3672 19.7373 13.9688C20.351 13.9752 20.9581 13.8421 21.513 13.5798C22.0678 13.3175 22.5559 12.9327 22.9404 12.4543Z" fill="white"/>
<path d="M46.1545 27.5791H41.8542L40.8215 30.6285H39.0001L43.0732 19.3467H44.9656L49.0388 30.6285H47.1863L46.1545 27.5791ZM42.2996 26.172H45.7083L44.0279 21.2231H43.9809L42.2996 26.172Z" fill="white"/>
<path d="M57.8357 26.5171C57.8357 29.0732 56.4677 30.7154 54.4032 30.7154C53.8801 30.7427 53.36 30.6222 52.9023 30.3677C52.4446 30.1132 52.0679 29.735 51.8152 29.2763H51.7761V33.3503H50.0878V22.404H51.722V23.7721H51.7531C52.0174 23.3155 52.4005 22.9393 52.8617 22.6832C53.3229 22.4271 53.8449 22.3009 54.3721 22.3179C56.4596 22.3179 57.8357 23.9681 57.8357 26.5171ZM56.1004 26.5171C56.1004 24.8518 55.2398 23.757 53.9267 23.757C52.6367 23.757 51.769 24.8749 51.769 26.5171C51.769 28.1744 52.6367 29.2843 53.9267 29.2843C55.2398 29.2843 56.1004 28.1975 56.1004 26.5171Z" fill="white"/>
<path d="M66.8888 26.5171C66.8888 29.0732 65.5207 30.7154 63.4562 30.7154C62.9332 30.7427 62.4131 30.6222 61.9554 30.3677C61.4977 30.1132 61.1209 29.735 60.8682 29.2763H60.8292V33.3503H59.1408V22.404H60.775V23.772H60.8061C61.0704 23.3155 61.4536 22.9393 61.9147 22.6832C62.3759 22.4271 62.8979 22.3009 63.4251 22.3179C65.5127 22.3179 66.8888 23.9681 66.8888 26.5171ZM65.1534 26.5171C65.1534 24.8518 64.2928 23.757 62.9798 23.757C61.6898 23.757 60.8221 24.8749 60.8221 26.5171C60.8221 28.1744 61.6898 29.2843 62.9798 29.2843C64.2928 29.2843 65.1534 28.1975 65.1534 26.5171Z" fill="white"/>
<path d="M72.8723 27.4857C72.997 28.6044 74.0841 29.339 75.5694 29.339C76.9921 29.339 78.0158 28.6044 78.0158 27.5957C78.0158 26.72 77.3985 26.1956 75.9366 25.8363L74.4741 25.4841C72.4025 24.9837 71.4408 24.0149 71.4408 22.4428C71.4408 20.4962 73.1376 19.1592 75.546 19.1592C77.9297 19.1592 79.5645 20.4962 79.6189 22.4428H77.9152C77.8126 21.3169 76.8819 20.6373 75.5219 20.6373C74.162 20.6373 73.2313 21.3249 73.2313 22.3256C73.2313 23.1233 73.8258 23.5926 75.2801 23.9519L76.5229 24.2571C78.8376 24.8045 79.7994 25.7343 79.7994 27.3845C79.7994 29.4951 78.1178 30.8171 75.4441 30.8171C72.9419 30.8171 71.2528 29.5262 71.1439 27.4856L72.8723 27.4857Z" fill="white"/>
<path d="M83.4432 20.457V22.4035H85.0076V23.7406H83.4432V28.2751C83.4432 28.9795 83.7566 29.3078 84.4441 29.3078C84.6297 29.3046 84.8152 29.2915 84.9994 29.2687V30.5978C84.6904 30.6555 84.3764 30.6817 84.0617 30.6758C82.3966 30.6758 81.747 30.0504 81.747 28.4552V23.7406H80.551V22.4035H81.747V20.457H83.4432Z" fill="white"/>
<path d="M85.9131 26.5179C85.9131 23.93 87.4377 22.3037 89.8145 22.3037C92.1988 22.3037 93.7164 23.9299 93.7164 26.5179C93.7164 29.113 92.2071 30.7322 89.8145 30.7322C87.4225 30.7322 85.9131 29.113 85.9131 26.5179ZM91.9956 26.5179C91.9956 24.7426 91.182 23.6948 89.8145 23.6948C88.4463 23.6948 87.6333 24.7506 87.6333 26.5179C87.6333 28.3003 88.4463 29.3401 89.8145 29.3401C91.182 29.3401 91.9956 28.3003 91.9956 26.5179Z" fill="white"/>
<path d="M95.1078 22.4039H96.7185V23.8039H96.7571C96.866 23.3666 97.1225 22.9802 97.4827 22.7096C97.843 22.439 98.2855 22.3006 98.7357 22.3178C98.9307 22.3171 99.1244 22.3383 99.3143 22.3808V23.96C99.0687 23.885 98.8123 23.8505 98.5559 23.858C98.3102 23.848 98.0658 23.8913 97.8392 23.9848C97.6119 24.0783 97.408 24.2198 97.2408 24.3995C97.0737 24.5793 96.9471 24.7931 96.8705 25.0263C96.7939 25.2595 96.7685 25.5065 96.7964 25.7504V30.6292H95.1078V22.4039Z" fill="white"/>
<path d="M107.099 28.2143C106.871 29.7075 105.418 30.7322 103.557 30.7322C101.164 30.7322 99.679 29.129 99.679 26.5569C99.679 23.9769 101.172 22.3037 103.486 22.3037C105.761 22.3037 107.193 23.867 107.193 26.3609V26.9393H101.383V27.0413C101.357 27.3441 101.394 27.649 101.495 27.936C101.595 28.2229 101.754 28.4853 101.964 28.7057C102.173 28.926 102.427 29.0993 102.708 29.2141C102.99 29.3288 103.292 29.3823 103.596 29.3712C103.995 29.4085 104.395 29.3162 104.738 29.1077C105.08 28.8993 105.345 28.5859 105.496 28.2143H107.099ZM101.392 25.7594H105.504C105.519 25.4872 105.477 25.2148 105.382 24.9593C105.287 24.7038 105.14 24.4708 104.951 24.2748C104.762 24.0787 104.534 23.9239 104.281 23.8202C104.029 23.7165 103.759 23.6659 103.486 23.6718C103.211 23.6701 102.938 23.7229 102.684 23.8272C102.43 23.9314 102.198 24.085 102.004 24.2791C101.809 24.4732 101.654 24.704 101.549 24.958C101.444 25.212 101.39 25.4844 101.392 25.7594Z" fill="white"/>
<path d="M39.1929 14.9139H41.3195C43.1159 14.9139 44.1729 13.8156 44.1729 11.9467V11.9385C44.1729 10.0779 43.1076 9 41.3195 9H39.1929V14.9139ZM40.1288 14.1189V9.79098H41.2317C42.5018 9.79098 43.2162 10.5574 43.2162 11.9467V11.9549C43.2162 13.3525 42.5102 14.1189 41.2317 14.1189H40.1288Z" fill="white"/>
<path d="M47.1035 15C48.361 15 49.1882 14.1475 49.1882 12.7582V12.75C49.1882 11.3689 48.3527 10.5205 47.0993 10.5205C45.8501 10.5205 45.0187 11.373 45.0187 12.75V12.7582C45.0187 14.1434 45.8418 15 47.1035 15ZM47.1077 14.2582C46.4016 14.2582 45.942 13.7131 45.942 12.7582V12.75C45.942 11.8074 46.4058 11.2623 47.0993 11.2623C47.8054 11.2623 48.2649 11.8074 48.2649 12.75V12.7582C48.2649 13.709 47.8137 14.2582 47.1077 14.2582Z" fill="white"/>
<path d="M50.9907 14.9139H51.9224L52.8374 11.6844H52.8582L53.7815 14.9139H54.7216L55.9248 10.6025H55.0307L54.2286 13.9959H54.2077L53.2886 10.6025H52.4196L51.5046 13.9959H51.4879L50.6857 10.6025H49.7833L50.9907 14.9139Z" fill="white"/>
<path d="M56.733 14.9139H57.6354V12.4016C57.6354 11.7295 58.0448 11.2787 58.6799 11.2787C59.3065 11.2787 59.6157 11.6434 59.6157 12.291V14.9139H60.5223V12.123C60.5223 11.1311 59.9666 10.5205 59.0016 10.5205C58.3373 10.5205 57.8861 10.8156 57.6563 11.2541H57.6354V10.6025H56.733V14.9139Z" fill="white"/>
<path d="M61.6856 14.9139H62.588V9H61.6856V14.9139Z" fill="white"/>
<path d="M65.6606 15C66.9181 15 67.7453 14.1475 67.7453 12.7582V12.75C67.7453 11.3689 66.9098 10.5205 65.6564 10.5205C64.4072 10.5205 63.5758 11.373 63.5758 12.75V12.7582C63.5758 14.1434 64.3989 15 65.6606 15ZM65.6648 14.2582C64.9587 14.2582 64.4991 13.7131 64.4991 12.7582V12.75C64.4991 11.8074 64.9629 11.2623 65.6564 11.2623C66.3625 11.2623 66.822 11.8074 66.822 12.75V12.7582C66.822 13.709 66.3708 14.2582 65.6648 14.2582Z" fill="white"/>
<path d="M69.9907 14.9918C70.5714 14.9918 71.0811 14.6967 71.336 14.2336H71.3527V14.9139H72.2593V11.9426C72.2593 11.0779 71.5783 10.5205 70.5046 10.5205C69.4225 10.5205 68.7666 11.0902 68.7039 11.832L68.6997 11.877H69.552L69.5604 11.8402C69.6356 11.4959 69.9573 11.2541 70.4795 11.2541C71.0393 11.2541 71.3527 11.541 71.3527 12.0164V12.3402L70.1578 12.4098C69.1175 12.4713 68.5243 12.9303 68.5243 13.6803V13.6885C68.5243 14.4631 69.1133 14.9918 69.9907 14.9918ZM69.435 13.668V13.6598C69.435 13.2951 69.7358 13.0615 70.279 13.0287L71.3527 12.9631V13.2992C71.3527 13.8607 70.8722 14.2828 70.2372 14.2828C69.7526 14.2828 69.435 14.0451 69.435 13.668Z" fill="white"/>
<path d="M75.0352 15C75.6661 15 76.1507 14.6885 76.4139 14.1844H76.4306V14.9139H77.3372V9H76.4306V11.3361H76.4139C76.1507 10.8279 75.6494 10.5205 75.0269 10.5205C73.9239 10.5205 73.197 11.3811 73.197 12.7541V12.7582C73.197 14.1311 73.9156 15 75.0352 15ZM75.2734 14.2377C74.5589 14.2377 74.1203 13.6762 74.1203 12.7582V12.7541C74.1203 11.8443 74.5631 11.2787 75.2734 11.2787C75.9502 11.2787 76.4348 11.8607 76.4348 12.7541V12.7582C76.4348 13.6557 75.9543 14.2377 75.2734 14.2377Z" fill="white"/>
<path d="M82.4045 15C83.662 15 84.4892 14.1475 84.4892 12.7582V12.75C84.4892 11.3689 83.6537 10.5205 82.4003 10.5205C81.1511 10.5205 80.3197 11.373 80.3197 12.75V12.7582C80.3197 14.1434 81.1428 15 82.4045 15ZM82.4087 14.2582C81.7026 14.2582 81.243 13.7131 81.243 12.7582V12.75C81.243 11.8074 81.7068 11.2623 82.4003 11.2623C83.1064 11.2623 83.5659 11.8074 83.5659 12.75V12.7582C83.5659 13.709 83.1147 14.2582 82.4087 14.2582Z" fill="white"/>
<path d="M85.4436 14.9139H86.3461V12.4016C86.3461 11.7295 86.7555 11.2787 87.3905 11.2787C88.0172 11.2787 88.3264 11.6434 88.3264 12.291V14.9139H89.233V12.123C89.233 11.1311 88.6773 10.5205 87.7122 10.5205C87.0479 10.5205 86.5967 10.8156 86.3669 11.2541H86.3461V10.6025H85.4436V14.9139Z" fill="white"/>
<path d="M93.8991 15C94.083 15 94.2543 14.9795 94.3587 14.9631V14.2787C94.2919 14.2869 94.2125 14.2951 94.1164 14.2951C93.7362 14.2951 93.5357 14.1639 93.5357 13.7254V11.3074H94.3587V10.6025H93.5357V9.47951H92.6124V10.6025H91.9815V11.3074H92.6124V13.7787C92.6124 14.6393 93.0301 15 93.8991 15Z" fill="white"/>
<path d="M95.3967 14.9139H96.2991V12.418C96.2991 11.7459 96.7127 11.2787 97.3352 11.2787C97.9702 11.2787 98.3379 11.7049 98.3379 12.418V14.9139H99.2403V12.25C99.2403 11.209 98.622 10.5205 97.682 10.5205C97.026 10.5205 96.5539 10.8115 96.32 11.3115H96.2991V9H95.3967V14.9139Z" fill="white"/>
<path d="M102.25 15C103.316 15 103.992 14.377 104.134 13.6926L104.143 13.6475H103.286L103.274 13.6803C103.161 14.0041 102.806 14.2746 102.271 14.2746C101.553 14.2746 101.097 13.7992 101.08 12.9836H104.193V12.6844C104.193 11.3893 103.437 10.5205 102.204 10.5205C100.972 10.5205 100.178 11.4221 100.178 12.7705V12.7746C100.178 14.1352 100.959 15 102.25 15ZM102.208 11.2459C102.798 11.2459 103.224 11.6107 103.299 12.3566H101.093C101.172 11.6352 101.624 11.2459 102.208 11.2459Z" fill="white"/>
</svg>
