<svg width="40" height="24" viewBox="0 0 40 24" fill="none" xmlns="http://www.w3.org/2000/svg">
<rect width="40" height="24" rx="6" fill="#151515"/>
<path d="M10.9137 8.23588C10.5781 8.6331 10.0411 8.94641 9.50412 8.90165C9.43699 8.36456 9.6999 7.7939 10.0076 7.44144C10.3432 7.03303 10.9305 6.74211 11.406 6.71973C11.4619 7.27919 11.2438 7.82747 10.9137 8.23588ZM11.4004 9.00795C10.6229 8.96319 9.95721 9.44993 9.58802 9.44993C9.21324 9.44993 8.64827 9.03033 8.03296 9.04152C7.23306 9.0527 6.48909 9.50587 6.08074 10.2276C5.24168 11.671 5.86259 13.8082 6.67368 14.9831C7.07084 15.5649 7.54631 16.2027 8.17281 16.1803C8.76574 16.1579 9.00068 15.7943 9.71668 15.7943C10.4383 15.7943 10.6452 16.1803 11.2717 16.1691C11.9206 16.1579 12.329 15.5873 12.7261 15.0054C13.1792 14.3453 13.3638 13.7019 13.375 13.6683C13.3638 13.6571 12.122 13.1816 12.1108 11.7493C12.0996 10.5521 13.0897 9.98142 13.1345 9.94785C12.5751 9.11984 11.7025 9.03033 11.4004 9.00795ZM15.8922 7.38549V16.1076H17.2459V13.1256H19.1198C20.8315 13.1256 22.0341 11.9507 22.0341 10.25C22.0341 8.54918 20.8538 7.38549 19.1645 7.38549H15.8922ZM17.2459 8.52681H18.8065C19.9812 8.52681 20.6525 9.15341 20.6525 10.2556C20.6525 11.3577 19.9812 11.9899 18.8009 11.9899H17.2459V8.52681ZM24.5066 16.1747C25.3568 16.1747 26.1455 15.7439 26.5035 15.0614H26.5315V16.1076H27.7845V11.7661C27.7845 10.5073 26.7776 9.69609 25.2281 9.69609C23.7906 9.69609 22.7277 10.5185 22.6886 11.6486H23.908C24.0087 11.1115 24.5066 10.7591 25.189 10.7591C26.0169 10.7591 26.4811 11.1451 26.4811 11.8556V12.3368L24.7918 12.4375C23.22 12.5326 22.3697 13.176 22.3697 14.2949C22.3697 15.425 23.248 16.1747 24.5066 16.1747ZM24.8701 15.1397C24.1486 15.1397 23.6899 14.7928 23.6899 14.2613C23.6899 13.7131 24.1318 13.3942 24.9764 13.3438L26.4811 13.2487V13.741C26.4811 14.5579 25.7875 15.1397 24.8701 15.1397ZM29.457 18.4797C30.7771 18.4797 31.3981 17.9762 31.9406 16.4489L34.318 9.78001H32.9419L31.3477 14.9327H31.3197L29.7255 9.78001H28.3103L30.6037 16.13L30.4807 16.516C30.2737 17.1706 29.9381 17.4223 29.3396 17.4223C29.2333 17.4223 29.0263 17.4111 28.9424 17.4V18.4462C29.0207 18.4685 29.3563 18.4797 29.457 18.4797Z" fill="#BABABA"/>
</svg>
