<svg width="32" height="20" viewBox="0 0 32 20" fill="none" xmlns="http://www.w3.org/2000/svg">
<rect width="32" height="20" rx="4" fill="#151515"/>
<path d="M8.73138 6.86307C8.46288 7.19409 8.03328 7.45518 7.60368 7.41788C7.54998 6.9703 7.76031 6.49476 8.00643 6.20104C8.27494 5.86069 8.74481 5.61826 9.12519 5.59961C9.16993 6.06583 8.99541 6.52273 8.73138 6.86307ZM9.12071 7.50646C8.49868 7.46916 7.96616 7.87478 7.67081 7.87478C7.37099 7.87478 6.91901 7.52511 6.42676 7.53443C5.78684 7.54376 5.19166 7.9214 4.86499 8.52283C4.19374 9.72568 4.69046 11.5066 5.33934 12.4857C5.65706 12.9706 6.03744 13.5021 6.53864 13.4834C7.01298 13.4648 7.20093 13.1617 7.77373 13.1617C8.35101 13.1617 8.51658 13.4834 9.01778 13.4741C9.53688 13.4648 9.86356 12.9892 10.1813 12.5044C10.5438 11.9542 10.6914 11.4181 10.7004 11.3901C10.6914 11.3808 9.69798 10.9845 9.68903 9.79095C9.68008 8.79323 10.4722 8.31769 10.508 8.28971C10.0605 7.5997 9.36236 7.52511 9.12071 7.50646ZM12.7141 6.15441V13.4228H13.7971V10.9379H15.2962C16.6656 10.9379 17.6277 9.95879 17.6277 8.54147C17.6277 7.12416 16.6835 6.15441 15.332 6.15441H12.7141ZM13.7971 7.10551H15.0456C15.9854 7.10551 16.5224 7.62768 16.5224 8.54614C16.5224 9.46459 15.9854 9.99143 15.0411 9.99143H13.7971V7.10551ZM19.6056 13.4788C20.2858 13.4788 20.9168 13.1198 21.2032 12.551H21.2256V13.4228H22.228V9.80494C22.228 8.75594 21.4225 8.07991 20.1829 8.07991C19.0328 8.07991 18.1826 8.76526 18.1513 9.70703H19.1268C19.2074 9.25946 19.6056 8.96574 20.1516 8.96574C20.8139 8.96574 21.1853 9.28743 21.1853 9.87953V10.2805L19.8339 10.3644C18.5764 10.4437 17.8962 10.9798 17.8962 11.9123C17.8962 12.854 18.5988 13.4788 19.6056 13.4788ZM19.8965 12.6163C19.3192 12.6163 18.9523 12.3272 18.9523 11.8843C18.9523 11.4274 19.3058 11.1616 19.9815 11.1197L21.1853 11.0404V11.4507C21.1853 12.1314 20.6304 12.6163 19.8965 12.6163ZM23.566 15.3996C24.6221 15.3996 25.1188 14.98 25.5529 13.7072L27.4548 8.14985H26.3539L25.0786 12.4438H25.0562L23.7808 8.14985H22.6486L24.4834 13.4415L24.3849 13.7632C24.2194 14.3086 23.9509 14.5184 23.472 14.5184C23.387 14.5184 23.2214 14.5091 23.1543 14.4998V15.3716C23.217 15.3903 23.4855 15.3996 23.566 15.3996Z" fill="#BABABA"/>
</svg>
