<svg width="23" height="12" viewBox="0 0 23 12" fill="none" xmlns="http://www.w3.org/2000/svg">
<rect width="23" height="12" fill="#E5E5E5"/>
<g clip-path="url(#clip0_2511_2416)">
<rect width="1366" height="1039" transform="translate(-80 -327)" fill="white"/>
<circle cx="-144" cy="-101" r="237" stroke="#F4F6FA" stroke-width="56"/>
<path d="M20.8008 2.79942H21.6008C21.813 2.79942 22.0164 2.8837 22.1665 3.03373C22.3165 3.18376 22.4008 3.38724 22.4008 3.59942V8.39942C22.4008 8.61159 22.3165 8.81507 22.1665 8.9651C22.0164 9.11513 21.813 9.19942 21.6008 9.19942H20.8008V2.79942Z" fill="#3374FB"/>
<path d="M18.4686 0.400002H1.6C1.17565 0.400002 0.768687 0.568572 0.468629 0.868631C0.168571 1.16869 0 1.57566 0 2V10C0 10.4243 0.168571 10.8313 0.468629 11.1314C0.768687 11.4314 1.17565 11.6 1.6 11.6H18.4686C18.893 11.6 19.2999 11.4314 19.6 11.1314C19.9001 10.8313 20.0686 10.4243 20.0686 10V2C20.0686 1.57566 19.9001 1.16869 19.6 0.868631C19.2999 0.568572 18.893 0.400002 18.4686 0.400002ZM11.2017 6.3816V9.12C11.2013 9.19665 11.1789 9.27158 11.1372 9.33587C11.0954 9.40015 11.0361 9.45109 10.9662 9.48261C10.8963 9.51413 10.8189 9.52491 10.743 9.51367C10.6672 9.50243 10.5962 9.46964 10.5385 9.4192L4.8017 4.4L8.8017 5.6176V2.88C8.80178 2.80321 8.82396 2.72807 8.86559 2.66355C8.90722 2.59902 8.96655 2.54784 9.03648 2.51613C9.10641 2.48441 9.184 2.47349 9.25996 2.48467C9.33593 2.49586 9.40708 2.52867 9.4649 2.5792L15.2017 7.6L11.2017 6.3816Z" fill="#3374FB"/>
</g>
<defs>
<clipPath id="clip0_2511_2416">
<rect width="1366" height="1039" fill="white" transform="translate(-80 -327)"/>
</clipPath>
</defs>
</svg>
