<svg width="24" height="24" viewBox="0 0 24 24" fill="none" xmlns="http://www.w3.org/2000/svg">
<path d="M10.0923 8.55028L13.2841 12.0003L10.0923 15.4504C10.031 15.515 10.0003 15.5905 10.0003 15.6767C10.0003 15.763 10.031 15.8384 10.0923 15.9031C10.1536 15.9677 10.2252 16 10.3071 16C10.3889 16 10.4571 15.9712 10.5117 15.9137L13.908 12.2374C13.9693 12.1727 14 12.0936 14 12C14 11.9064 13.9693 11.8273 13.908 11.7626L10.5218 8.08625C10.4605 8.02875 10.3872 8 10.3018 8C10.2165 8 10.1449 8.03232 10.0871 8.09695C10.0292 8.16158 10.0002 8.23702 10 8.32327C9.99978 8.40952 10.0304 8.48496 10.092 8.54959L10.0923 8.55028Z" fill="white" stroke="white" stroke-width="0.8"/>
</svg>
