<svg width="12" height="20" viewBox="0 0 12 20" fill="none" xmlns="http://www.w3.org/2000/svg">
<path d="M1.66833 6.95742C1.55587 6.85541 1.41904 6.79961 1.26465 6.80002C1.10278 6.80045 0.958678 6.85988 0.840968 6.97089M1.66833 6.95742L0.840969 6.97089L0.977479 7.11564L0.840968 6.97089M1.66833 6.95742L1.67037 6.95844L1.69268 6.98019L5.92806 11.1097L10.1626 6.98101C10.2794 6.86464 10.4247 6.80045 10.5901 6.80045C10.7559 6.80045 10.9015 6.86499 11.0185 6.98197C11.1355 7.09895 11.2 7.24456 11.2 7.41039C11.2 7.56924 11.1449 7.71238 11.032 7.82525L11.0321 7.82526L11.0301 7.82713L6.36902 12.3653C6.24872 12.4851 6.09746 12.5458 5.92762 12.5458C5.75784 12.5458 5.60662 12.4852 5.48634 12.3654L0.825318 7.8409L0.820066 7.8358L0.8152 7.83033C0.708319 7.7102 0.655249 7.56432 0.655249 7.40339C0.655249 7.23504 0.718385 7.08649 0.840968 6.97089M1.66833 6.95742L0.840968 6.97089" fill="black" stroke="black" stroke-width="0.4"/>
</svg>
