<svg width="24" height="24" viewBox="0 0 24 24" fill="none" xmlns="http://www.w3.org/2000/svg">
<path d="M13.9077 8.55028L10.7159 12.0003L13.9077 15.4504C13.969 15.515 13.9997 15.5905 13.9997 15.6767C13.9997 15.763 13.969 15.8384 13.9077 15.9031C13.8464 15.9677 13.7748 16 13.6929 16C13.6111 16 13.5429 15.9712 13.4883 15.9137L10.092 12.2374C10.0307 12.1727 10 12.0936 10 12C10 11.9064 10.0307 11.8273 10.092 11.7626L13.4782 8.08625C13.5395 8.02875 13.6128 8 13.6982 8C13.7835 8 13.8551 8.03232 13.9129 8.09695C13.9708 8.16158 13.9998 8.23702 14 8.32327C14.0002 8.40952 13.9696 8.48496 13.908 8.54959L13.9077 8.55028Z" fill="white" stroke="white" stroke-width="0.8"/>
</svg>
