<svg width="16" height="32" viewBox="0 0 16 32" fill="none" xmlns="http://www.w3.org/2000/svg">
<g clip-path="url(#clip0_4898_1605)">
<path d="M5.13848 21.1746L9.9261 15.9995L5.13847 10.8244C5.04649 10.7274 5.00049 10.6143 5.00049 10.4849C5.00049 10.3555 5.04649 10.2424 5.13847 10.1454C5.23046 10.0485 5.33784 10 5.4606 10C5.58336 10 5.68566 10.0431 5.76749 10.1294L10.862 15.644C10.954 15.7409 11 15.8596 11 16C11 16.1404 10.954 16.2591 10.862 16.356L5.78272 21.8706C5.69073 21.9569 5.58074 22 5.45274 22C5.32474 22 5.21737 21.9515 5.13062 21.8546C5.04387 21.7576 5.00033 21.6445 5 21.5151C4.99968 21.3857 5.04567 21.2726 5.13799 21.1756L5.13848 21.1746Z" fill="#1657FC" stroke="#1657FC" stroke-width="0.4"/>
</g>
<defs>
<clipPath id="clip0_4898_1605">
<rect width="32" height="16" fill="white" transform="translate(0 32) rotate(-90)"/>
</clipPath>
</defs>
</svg>
