<svg width="40" height="24" viewBox="0 0 40 24" fill="none" xmlns="http://www.w3.org/2000/svg">
<rect width="40" height="24" rx="6" fill="#151515"/>
<path d="M7.49214 13.3837C7.19033 13.6542 6.79827 13.7722 6.17762 13.7722H5.91982V10.5402H6.17762C6.79827 10.5402 7.17489 10.6504 7.49214 10.9355C7.82434 11.2291 8.02419 11.684 8.02419 12.1522C8.02419 12.6214 7.82434 13.0902 7.49214 13.3837ZM6.37003 9.71214H4.96002V14.5996H6.36259C7.10842 14.5996 7.64695 14.425 8.11969 14.0354C8.68143 13.574 9.01362 12.8786 9.01362 12.1593C9.01362 10.7169 7.92783 9.71214 6.37003 9.71214Z" fill="#BABABA"/>
<path d="M9.45679 14.5996H10.4173V9.71214H9.45679V14.5996Z" fill="#BABABA"/>
<path d="M12.7646 11.5882C12.1882 11.3765 12.0189 11.2369 12.0189 10.9728C12.0189 10.665 12.3204 10.4311 12.7345 10.4311C13.0223 10.4311 13.2588 10.5484 13.5091 10.8269L14.0117 10.1737C13.5986 9.8152 13.1045 9.63188 12.5646 9.63188C11.6933 9.63188 11.0287 10.2324 11.0287 11.0323C11.0287 11.7057 11.3382 12.0504 12.2403 12.3727C12.6163 12.5043 12.8077 12.592 12.9043 12.651C13.0962 12.7754 13.1923 12.9515 13.1923 13.1567C13.1923 13.5527 12.8751 13.8461 12.4465 13.8461C11.9884 13.8461 11.6193 13.6187 11.3982 13.1943L10.7776 13.7873C11.2202 14.432 11.7517 14.7178 12.4825 14.7178C13.4808 14.7178 14.181 14.0591 14.181 13.1129C14.181 12.3364 13.8573 11.9848 12.7646 11.5882Z" fill="#BABABA"/>
<path d="M14.4858 12.1584C14.4858 13.595 15.6224 14.709 17.0851 14.709C17.4986 14.709 17.8527 14.6283 18.2894 14.4241V13.3019C17.9054 13.6834 17.5653 13.8372 17.1298 13.8372C16.1624 13.8372 15.4758 13.1411 15.4758 12.1514C15.4758 11.213 16.1841 10.4728 17.0851 10.4728C17.5433 10.4728 17.8901 10.635 18.2894 11.0227V9.90103C17.8678 9.68873 17.5211 9.60081 17.1078 9.60081C15.6525 9.60081 14.4858 10.7373 14.4858 12.1584Z" fill="#BABABA"/>
<path d="M25.9036 12.9956L24.5904 9.71272H23.5411L25.6308 14.7256H26.1477L28.2752 9.71272H27.234L25.9036 12.9956Z" fill="#BABABA"/>
<path d="M28.7119 14.5996H31.436V13.7722H29.6716V12.4529H31.3709V11.625H29.6716V10.5402H31.436V9.71214H28.7119V14.5996Z" fill="#BABABA"/>
<path d="M33.3112 11.9623H33.0306V10.482H33.3264C33.9246 10.482 34.2498 10.7307 34.2498 11.2064C34.2498 11.6977 33.9246 11.9623 33.3112 11.9623ZM35.2384 11.155C35.2384 10.2401 34.6033 9.71214 33.4955 9.71214H32.0712V14.5996H33.0306V12.6362H33.1559L34.4855 14.5996H35.6668L34.1165 12.5406C34.84 12.3946 35.2384 11.9034 35.2384 11.155Z" fill="#BABABA"/>
<path d="M23.761 12.2407C23.761 13.6545 22.6148 14.8007 21.201 14.8007C19.7871 14.8007 18.641 13.6545 18.641 12.2407C18.641 10.8268 19.7871 9.68066 21.201 9.68066C22.6148 9.68066 23.761 10.8268 23.761 12.2407Z" fill="url(#paint0_radial_4898_1667)"/>
<path d="M23.761 12.2407C23.761 13.6545 22.6148 14.8007 21.201 14.8007C19.7871 14.8007 18.641 13.6545 18.641 12.2407C18.641 10.8268 19.7871 9.68066 21.201 9.68066C22.6148 9.68066 23.761 10.8268 23.761 12.2407Z" fill="#BABABA"/>
<defs>
<radialGradient id="paint0_radial_4898_1667" cx="0" cy="0" r="1" gradientUnits="userSpaceOnUse" gradientTransform="translate(22.961 14.0407) rotate(-132.818) scale(5.94401 4.16468)">
<stop stop-color="#F59314"/>
<stop offset="0.693537" stop-color="#DF461F"/>
<stop offset="1" stop-color="#82261A"/>
</radialGradient>
</defs>
</svg>
