<svg width="64" height="64" viewBox="0 0 64 64" fill="none" xmlns="http://www.w3.org/2000/svg">
<path d="M22.5133 26.277L32.0009 35.8522L41.4886 26.2769C41.6664 26.093 41.8738 26.001 42.111 26.001C42.3482 26.001 42.5557 26.093 42.7334 26.2769C42.9111 26.4609 43 26.6757 43 26.9212C43 27.1667 42.9209 27.3713 42.7628 27.535L32.6528 37.724C32.475 37.908 32.2574 38 32 38C31.7426 38 31.525 37.908 31.3472 37.724L21.2372 27.5654C21.0791 27.3815 21 27.1615 21 26.9055C21 26.6495 21.0889 26.4347 21.2666 26.2612C21.4443 26.0877 21.6518 26.0007 21.889 26C22.1262 25.9994 22.3336 26.0913 22.5114 26.276L22.5133 26.277Z" fill="#686F70"/>
</svg>
