<svg width="20" height="20" viewBox="0 0 20 20" fill="none" xmlns="http://www.w3.org/2000/svg">
<path d="M12.9815 2.81863L14.6482 3.69326C16.4412 4.63421 17.3378 5.10469 17.8356 5.95011C18.3334 6.79553 18.3334 7.84755 18.3334 9.95158V10.0491C18.3334 12.1531 18.3334 13.2051 17.8356 14.0505C17.3378 14.896 16.4412 15.3664 14.6482 16.3074L12.9815 17.182C11.5185 17.9498 10.787 18.3337 10.0001 18.3337C9.21319 18.3337 8.48168 17.9498 7.01866 17.182L5.35199 16.3074C3.55894 15.3664 2.66241 14.896 2.16458 14.0505C1.66675 13.2051 1.66675 12.1531 1.66675 10.0491V9.95158C1.66675 7.84755 1.66675 6.79553 2.16458 5.95011C2.66241 5.10469 3.55894 4.63421 5.35199 3.69326L7.01866 2.81863C8.48168 2.05087 9.21319 1.66699 10.0001 1.66699C10.787 1.66699 11.5185 2.05087 12.9815 2.81863Z" stroke="#1657FC" stroke-width="1.2" stroke-linecap="round"/>
<path d="M17.5001 6.25L14.1667 7.91667M10.0001 10L2.50006 6.25M10.0001 10V17.9167M10.0001 10C10.0001 10 12.2856 8.85723 13.7501 8.125C13.9128 8.04364 14.1667 7.91667 14.1667 7.91667M14.1667 7.91667V10.8333M14.1667 7.91667L6.25006 3.75" stroke="#1657FC" stroke-width="1.2" stroke-linecap="round"/>
</svg>
