<svg width="20" height="20" viewBox="0 0 20 20" fill="none" xmlns="http://www.w3.org/2000/svg">
<path fill-rule="evenodd" clip-rule="evenodd" d="M8.2823 2.70801H11.7178C13.2532 2.70799 14.4691 2.70798 15.4206 2.83559C16.3996 2.96689 17.1919 3.24347 17.8168 3.86683C18.6747 4.72265 18.8833 5.90121 18.949 7.46465L18.9499 7.48479C18.9556 7.62133 18.9615 7.76074 18.9563 7.87817C18.9508 8.00308 18.9315 8.18346 18.8318 8.36164C18.7628 8.48495 18.6703 8.57019 18.6087 8.62121C18.5419 8.67654 18.4678 8.72667 18.3971 8.77128C18.2606 8.85735 18.0761 8.96039 17.8598 9.08119L17.8439 9.09007C17.5224 9.26956 17.3083 9.61048 17.3083 9.99968C17.3083 10.3889 17.5224 10.7298 17.8439 10.9093L17.8598 10.9182C18.0761 11.039 18.2606 11.142 18.3971 11.2281C18.4678 11.2727 18.5419 11.3228 18.6087 11.3781C18.6703 11.4292 18.7628 11.5144 18.8318 11.6377C18.9315 11.8159 18.9508 11.9963 18.9563 12.1212C18.9615 12.2386 18.9556 12.378 18.9499 12.5146L18.949 12.5347C18.8833 14.0981 18.6747 15.2767 17.8168 16.1325C17.1919 16.7559 16.3996 17.0325 15.4206 17.1638C14.4691 17.2914 13.2532 17.2914 11.7178 17.2913H8.2823C6.74684 17.2914 5.53096 17.2914 4.57946 17.1638C3.60046 17.0325 2.80821 16.7559 2.18329 16.1325C1.32534 15.2767 1.1168 14.0981 1.05107 12.5347L1.05022 12.5146C1.04446 12.378 1.03857 12.2386 1.04373 12.1212C1.04923 11.9963 1.06855 11.8159 1.16829 11.6377C1.23732 11.5144 1.32975 11.4292 1.39134 11.3781C1.45813 11.3228 1.5323 11.2727 1.60302 11.2281C1.73946 11.142 1.92399 11.039 2.1403 10.9182L2.15621 10.9093C2.47763 10.7298 2.69176 10.3889 2.69176 9.99968C2.69176 9.61048 2.47763 9.26956 2.15621 9.09007L2.14029 9.08118C1.92398 8.96039 1.73945 8.85735 1.60302 8.77128C1.5323 8.72667 1.45813 8.67654 1.39134 8.62121C1.32975 8.57019 1.23732 8.48496 1.16829 8.36165C1.06855 8.18346 1.04923 8.00308 1.04373 7.87817C1.03857 7.76074 1.04446 7.62133 1.05022 7.4848C1.0505 7.47807 1.05079 7.47136 1.05107 7.46465C1.1168 5.90121 1.32534 4.72265 2.18329 3.86683C2.80821 3.24347 3.60046 2.96689 4.57946 2.83559C5.53096 2.70798 6.74684 2.70799 8.2823 2.70801ZM17.7058 12.1532C17.7058 12.1532 17.7059 12.154 17.7061 12.156L17.7058 12.1532ZM17.7078 12.2713C17.7077 12.2768 17.7075 12.2825 17.7074 12.2884C17.706 12.3417 17.7034 12.4036 17.7001 12.4822C17.6351 14.0289 17.4238 14.7589 16.934 15.2475C16.5802 15.6005 16.0954 15.8121 15.2545 15.9248C14.3957 16.04 13.2637 16.0413 11.6709 16.0413H8.32922C6.73633 16.0413 5.60438 16.04 4.74561 15.9248C3.90466 15.8121 3.41991 15.6005 3.06608 15.2475C2.57626 14.7589 2.36499 14.0289 2.29997 12.4822C2.29666 12.4036 2.29408 12.3417 2.2927 12.2884C2.29255 12.2825 2.29242 12.2768 2.2923 12.2713C2.39619 12.2072 2.54539 12.1236 2.76567 12.0006C3.46554 11.6098 3.94176 10.861 3.94176 9.99968C3.94176 9.13833 3.46554 8.38955 2.76567 7.99871C2.54539 7.8757 2.39619 7.79216 2.2923 7.72801C2.29242 7.72256 2.29255 7.71689 2.2927 7.71099C2.29408 7.65768 2.29666 7.59574 2.29997 7.51715C2.36499 5.97046 2.57626 5.24041 3.06608 4.75181C3.41991 4.39886 3.90466 4.18728 4.74561 4.0745C5.60438 3.95933 6.73633 3.95801 8.32922 3.95801H11.6709C13.2637 3.95801 14.3957 3.95933 15.2545 4.0745C16.0954 4.18728 16.5802 4.39886 16.934 4.75181C17.4238 5.24041 17.6351 5.97046 17.7001 7.51715C17.7034 7.59574 17.706 7.65768 17.7074 7.71099C17.7075 7.71688 17.7077 7.72256 17.7078 7.72801C17.6039 7.79216 17.4547 7.8757 17.2344 7.99871C16.5345 8.38955 16.0583 9.13833 16.0583 9.99968C16.0583 10.861 16.5345 11.6098 17.2344 12.0006C17.4547 12.1237 17.6039 12.2072 17.7078 12.2713ZM17.8113 7.65861L17.8104 7.65938C17.8139 7.65616 17.8146 7.65591 17.8113 7.65861ZM17.7058 7.84616C17.7058 7.84616 17.7058 7.84518 17.7061 7.84341L17.7058 7.84616ZM2.18877 7.65861C2.18551 7.65591 2.18619 7.65616 2.18972 7.65938L2.18877 7.65861ZM2.29394 7.8434C2.29424 7.84518 2.29432 7.84616 2.29432 7.84616L2.29394 7.8434ZM2.29432 12.1532C2.29432 12.1532 2.29424 12.1542 2.29394 12.1559L2.29432 12.1532ZM2.18972 12.34C2.18619 12.3432 2.18551 12.3434 2.18877 12.3407L2.18972 12.34ZM17.8104 12.34L17.8113 12.3407C17.8146 12.3434 17.8139 12.3432 17.8104 12.34ZM12.942 7.05773C13.1861 7.30181 13.1861 7.69754 12.942 7.94162L7.94198 12.9416C7.6979 13.1857 7.30217 13.1857 7.0581 12.9416C6.81402 12.6975 6.81402 12.3018 7.0581 12.0577L12.0581 7.05773C12.3022 6.81366 12.6979 6.81366 12.942 7.05773Z" fill="#1657FC"/>
<path d="M12.9167 12.083C12.9167 12.5432 12.5436 12.9163 12.0834 12.9163C11.6231 12.9163 11.25 12.5432 11.25 12.083C11.25 11.6228 11.6231 11.2497 12.0834 11.2497C12.5436 11.2497 12.9167 11.6228 12.9167 12.083Z" fill="#1657FC"/>
<path d="M8.75004 7.91634C8.75004 8.37658 8.37694 8.74968 7.9167 8.74968C7.45647 8.74968 7.08337 8.37658 7.08337 7.91634C7.08337 7.4561 7.45647 7.08301 7.9167 7.08301C8.37694 7.08301 8.75004 7.4561 8.75004 7.91634Z" fill="#1657FC"/>
</svg>
