<svg width="132" height="42" viewBox="0 0 132 42" fill="none" xmlns="http://www.w3.org/2000/svg">
<g clip-path="url(#clip0_4898_1772)">
<path d="M121.488 0.00013682H10.5177C10.1132 0.00013682 9.71346 0.000136827 9.31005 0.00223618C8.97234 0.00433626 8.63732 0.0104368 8.29641 0.0155713C7.55565 0.0238685 6.81671 0.0858964 6.0859 0.201116C5.35613 0.318845 4.64921 0.540794 3.98906 0.859465C3.32973 1.18083 2.72727 1.59841 2.20355 2.09705C1.67708 2.5943 1.23823 3.16905 0.903876 3.79919C0.568591 4.42809 0.336103 5.10201 0.214445 5.79767C0.0916228 6.49246 0.0255364 7.19525 0.0167681 7.89976C0.00652991 8.22173 0.00545301 8.54472 6.10352e-05 8.86668V33.1366C0.00545301 33.4626 0.00652991 33.7784 0.0167681 34.1046C0.0255364 34.809 0.0916301 35.5118 0.214445 36.2066C0.335768 36.9026 0.568271 37.5769 0.903876 38.206C1.23808 38.8341 1.67699 39.4066 2.20355 39.9011C2.72529 40.4019 3.32813 40.8198 3.98906 41.1387C4.6492 41.4582 5.35605 41.6815 6.0859 41.801C6.81686 41.9153 7.55573 41.9774 8.29641 41.9867C8.63732 41.9938 8.97234 41.9979 9.31005 41.9979C9.71346 42 10.1132 42 10.5177 42H121.488C121.885 42 122.288 42 122.684 41.9979C123.02 41.9979 123.365 41.9938 123.701 41.9867C124.44 41.9779 125.178 41.9158 125.907 41.801C126.639 41.6807 127.349 41.4574 128.012 41.1387C128.672 40.8196 129.275 40.4017 129.796 39.9011C130.321 39.4046 130.761 38.8326 131.099 38.206C131.432 37.5764 131.663 36.9022 131.782 36.2066C131.905 35.5117 131.974 34.8091 131.987 34.1046C131.991 33.7784 131.991 33.4626 131.991 33.1366C132 32.7551 132 32.3758 132 31.9881V10.013C132 9.62849 132 9.24711 131.991 8.86668C131.991 8.54472 131.991 8.22173 131.987 7.89969C131.974 7.19518 131.905 6.49251 131.782 5.79763C131.662 5.10237 131.432 4.4285 131.099 3.79915C130.419 2.53609 129.339 1.50796 128.012 0.85937C127.349 0.541482 126.639 0.319588 125.907 0.201022C125.178 0.0852941 124.44 0.0232443 123.701 0.0154243C123.365 0.0103006 123.02 0.00414748 122.684 0.00210008C122.288 -4.77038e-09 121.885 0 121.488 0V0.00013682Z" fill="#A6A6A6"/>
<path d="M9.34772 40.9979C9.0118 40.9979 8.68403 40.9938 8.35073 40.9867C7.66036 40.9782 6.97159 40.9211 6.29009 40.8161C5.65463 40.7124 5.03902 40.5192 4.46361 40.2432C3.89346 39.9695 3.37344 39.6106 2.92347 39.1802C2.46698 38.7549 2.08694 38.2616 1.79839 37.7199C1.50668 37.1746 1.30478 36.5902 1.19976 35.9869C1.08634 35.3387 1.02498 34.6833 1.0162 34.0262C1.00921 33.8057 1.00006 33.0715 1.00006 33.0715V8.91525C1.00006 8.91525 1.00981 8.19226 1.01626 7.97984C1.02466 7.32382 1.08567 6.66941 1.19875 6.0222C1.30396 5.41729 1.50601 4.83117 1.79789 4.28415C2.08537 3.7428 2.4633 3.24915 2.91704 2.82232C3.37026 2.39143 3.89195 2.03064 4.46306 1.75312C5.03716 1.47798 5.6516 1.28624 6.28578 1.18433C6.96956 1.07826 7.66065 1.02091 8.35349 1.01277L9.34823 1H122.646L123.653 1.01328C124.34 1.02102 125.025 1.07785 125.702 1.1833C126.343 1.2865 126.963 1.47958 127.544 1.75618C128.688 2.31547 129.619 3.20032 130.206 4.2867C130.493 4.82994 130.693 5.41128 130.797 6.01097C130.911 6.66348 130.975 7.32302 130.988 7.98443C130.991 8.28059 130.991 8.59868 130.991 8.91525C131 9.30738 131 9.68064 131 10.0569V31.942C131 32.3219 131 32.6926 130.991 33.0663C130.991 33.4064 130.991 33.7178 130.987 34.0385C130.974 34.688 130.911 35.3359 130.799 35.9766C130.695 36.5843 130.495 37.1733 130.203 37.723C129.913 38.2588 129.535 38.7478 129.084 39.172C128.633 39.6047 128.112 39.9658 127.541 40.2412C126.962 40.5194 126.342 40.7132 125.702 40.8161C125.02 40.9217 124.332 40.9787 123.641 40.9867C123.319 40.9938 122.98 40.9979 122.652 40.9979L121.457 41L9.34772 40.9979Z" fill="black"/>
<path d="M63.8872 22.4194C61.64 22.4194 59.8084 24.1003 59.8084 26.4153C59.8084 28.7162 61.64 30.411 63.8872 30.411C66.1357 30.411 67.9669 28.7162 67.9669 26.4153C67.9662 24.1003 66.1344 22.4194 63.8872 22.4194ZM63.8872 28.8383C62.6556 28.8383 61.5941 27.8396 61.5941 26.4162C61.5941 24.9778 62.6566 23.9941 63.8872 23.9941C65.1189 23.9941 66.1805 24.9778 66.1805 26.4162C66.1805 27.8386 65.1189 28.8383 63.8872 28.8383ZM54.9881 22.4194C52.7408 22.4194 50.9093 24.1003 50.9093 26.4153C50.9093 28.7162 52.7408 30.411 54.9881 30.411C57.2363 30.411 59.0679 28.7162 59.0679 26.4153C59.0679 24.1003 57.2363 22.4194 54.9881 22.4194ZM54.9881 28.8383C53.7565 28.8383 52.695 27.8396 52.695 26.4162C52.695 24.9778 53.7574 23.9941 54.9881 23.9941C56.2197 23.9941 57.2812 24.9778 57.2812 26.4162C57.2822 27.8386 56.2197 28.8383 54.9881 28.8383ZM44.4035 23.6465V25.3414H48.5292C48.406 26.295 48.083 26.9912 47.59 27.475C46.99 28.0651 46.0507 28.7161 44.4035 28.7161C41.8639 28.7161 39.8785 26.7028 39.8785 24.2055C39.8785 21.7083 41.8639 19.6948 44.4035 19.6948C45.7736 19.6948 46.774 20.2247 47.5126 20.9059L48.7289 19.7099C47.697 18.7413 46.3278 18 44.4035 18C40.9247 18 38.0001 20.7847 38.0001 24.2055C38.0001 27.6263 40.9247 30.411 44.4035 30.411C46.281 30.411 47.6979 29.8051 48.8053 28.6701C49.9443 27.5502 50.2987 25.9756 50.2987 24.7044C50.2987 24.3116 50.2681 23.9481 50.206 23.6456H44.4035V23.6465ZM87.6934 24.9628C87.3554 24.0702 86.3235 22.4194 84.2142 22.4194C82.1214 22.4194 80.3812 24.0393 80.3812 26.4153C80.3812 28.6551 82.1056 30.411 84.4145 30.411C86.2767 30.411 87.354 29.2912 87.8015 28.6401L86.4157 27.7315C85.9545 28.3977 85.3225 28.8364 84.4145 28.8364C83.5065 28.8364 82.8594 28.4277 82.4443 27.6254L87.8779 25.4156L87.6934 24.9628ZM82.1517 26.295C82.1056 24.7504 83.3681 23.964 84.2768 23.964C84.9845 23.964 85.5848 24.3126 85.7851 24.8115L82.1517 26.295ZM77.7349 30.1696H79.5193V18.4247H77.7349V30.1696ZM74.8092 23.313H74.748C74.3473 22.8432 73.5777 22.4194 72.6084 22.4194C70.5762 22.4194 68.7141 24.1754 68.7141 26.4312C68.7141 28.671 70.5762 30.412 72.6084 30.412C73.5783 30.412 74.3473 29.9882 74.748 29.5044H74.8092V30.0794C74.8092 31.608 73.9777 32.4254 72.6394 32.4254C71.5462 32.4254 70.8688 31.654 70.5914 31.0029L69.037 31.639C69.4831 32.6978 70.6678 34 72.6394 34C74.7328 34 76.5034 32.789 76.5034 29.837V22.6628H74.8099V23.313H74.8092ZM72.7626 28.8383C71.531 28.8383 70.4998 27.8236 70.4998 26.4312C70.4998 25.0229 71.531 23.9941 72.7626 23.9941C73.9777 23.9941 74.9325 25.0229 74.9325 26.4312C74.9325 27.8236 73.9777 28.8383 72.7626 28.8383ZM96.0573 18.4247H91.7854V30.1696H93.5678V25.72H96.0566C98.0321 25.72 99.9759 24.3135 99.9759 22.0728C99.9759 19.832 98.0334 18.4247 96.0573 18.4247ZM96.1034 24.0853H93.5678V20.0594H96.1034C97.4364 20.0594 98.1929 21.1445 98.1929 22.0728C98.1929 22.9823 97.4364 24.0853 96.1034 24.0853ZM107.121 22.3988C105.831 22.3988 104.494 22.9578 103.941 24.1971L105.523 24.8463C105.862 24.197 106.492 23.9847 107.152 23.9847C108.074 23.9847 109.011 24.5287 109.027 25.4955V25.6167C108.704 25.4353 108.012 25.1638 107.168 25.1638C105.462 25.1638 103.725 26.0855 103.725 27.8076C103.725 29.3794 105.124 30.3913 106.69 30.3913C107.889 30.3913 108.55 29.8623 108.964 29.2423H109.026V30.1489H110.748V25.6458C110.748 23.562 109.164 22.3988 107.121 22.3988ZM106.906 28.8355C106.323 28.8355 105.508 28.548 105.508 27.8377C105.508 26.9311 106.522 26.5834 107.399 26.5834C108.181 26.5834 108.551 26.7497 109.027 26.9762C108.888 28.0651 107.936 28.8355 106.906 28.8355ZM117.017 22.6553L114.973 27.7475H114.913L112.792 22.6553H110.871L114.051 29.7721L112.238 33.7313H114.098L119 22.6553H117.017ZM100.96 30.1696H102.742V18.4247H100.96V30.1696Z" fill="white"/>
<path d="M42.4893 13.1551C42.4893 13.6898 42.3054 14.1159 41.9375 14.4332C41.5241 14.8111 40.9805 15 40.3067 15C39.6618 15 39.1162 14.8075 38.6697 14.4225C38.2233 14.0374 38.0001 13.5633 38.0001 13C38.0001 12.4367 38.2233 11.9626 38.6697 11.5775C39.1162 11.1925 39.6618 11 40.3067 11C40.6333 11 40.9412 11.0499 41.2306 11.1497C41.52 11.2496 41.7576 11.3904 41.9437 11.5722L41.5344 11.9251C41.398 11.7825 41.2203 11.672 41.0012 11.5936C40.7862 11.5116 40.5547 11.4706 40.3067 11.4706C39.823 11.4706 39.4138 11.615 39.079 11.9037C38.7483 12.1961 38.5829 12.5615 38.5829 13C38.5829 13.4385 38.7483 13.8039 39.079 14.0963C39.4138 14.385 39.823 14.5294 40.3067 14.5294C40.749 14.5294 41.1169 14.4225 41.4104 14.2086C41.7039 13.9947 41.8734 13.7005 41.9189 13.3262H40.3067V12.8663H42.4583C42.479 12.9661 42.4893 13.0624 42.4893 13.1551Z" fill="white"/>
<path d="M45.8053 11.0856V11.5561H43.7839V12.7701H45.6069V13.2299H43.7839V14.4439H45.8053V14.9144H43.2134V11.0856H45.8053Z" fill="white"/>
<path d="M48.1181 11.5561V14.9144H47.5476V11.5561H46.3075V11.0856H49.3582V11.5561H48.1181Z" fill="white"/>
<path d="M51.9486 14.9144H51.3782V11.0856H51.9486V14.9144Z" fill="white"/>
<path d="M54.3875 11.5561V14.9144H53.817V11.5561H52.5769V11.0856H55.6276V11.5561H54.3875Z" fill="white"/>
<path d="M61.8731 13C61.8731 13.5668 61.654 14.041 61.2158 14.4225C60.7735 14.8075 60.232 15 59.5913 15C58.9464 15 58.4049 14.8075 57.9667 14.4225C57.5285 14.041 57.3094 13.5668 57.3094 13C57.3094 12.4332 57.5285 11.959 57.9667 11.5775C58.4049 11.1925 58.9464 11 59.5913 11C60.2361 11 60.7777 11.1943 61.2158 11.5829C61.654 11.9643 61.8731 12.4367 61.8731 13ZM57.8923 13C57.8923 13.4421 58.0535 13.8075 58.376 14.0963C58.7025 14.385 59.1076 14.5294 59.5913 14.5294C60.0749 14.5294 60.478 14.385 60.8004 14.0963C61.127 13.8111 61.2902 13.4456 61.2902 13C61.2902 12.5544 61.127 12.1889 60.8004 11.9037C60.478 11.615 60.0749 11.4706 59.5913 11.4706C59.1076 11.4706 58.7025 11.615 58.376 11.9037C58.0535 12.1925 57.8923 12.5579 57.8923 13Z" fill="white"/>
<path d="M63.1478 14.9144H62.5773V11.0856H63.2718L65.4296 14.0642H65.4544L65.4296 13.3262V11.0856H66.0001V14.9144H65.4048L63.1478 11.7914H63.123L63.1478 12.5294V14.9144Z" fill="white"/>
<path fill-rule="evenodd" clip-rule="evenodd" d="M13.0139 10.334C12.7665 10.6006 12.6236 11.0081 12.6236 11.5413V30.4552C12.6236 30.9885 12.7665 31.3959 13.0225 31.6519L13.0886 31.7095L23.6857 21.1124V20.8756L13.0801 10.2764L13.0139 10.334Z" fill="url(#paint0_linear_4898_1772)"/>
<path fill-rule="evenodd" clip-rule="evenodd" d="M27.2118 24.6563L23.6773 21.1217V20.8743L27.2118 17.3398L27.2886 17.3868L31.4694 19.763C32.666 20.437 32.666 21.5505 31.4694 22.2331L27.2886 24.6093L27.2118 24.6563Z" fill="url(#paint1_linear_4898_1772)"/>
<path fill-rule="evenodd" clip-rule="evenodd" d="M27.2888 24.6083L23.6775 20.9971L13.0143 31.6603C13.4046 32.0783 14.0595 32.1253 14.7911 31.7179L27.2888 24.6083Z" fill="url(#paint2_linear_4898_1772)"/>
<path fill-rule="evenodd" clip-rule="evenodd" d="M27.2888 17.3851L14.7911 10.2862C14.0595 9.86815 13.4025 9.92577 13.0143 10.3439L23.6775 20.9964L27.2888 17.3851Z" fill="url(#paint3_linear_4898_1772)"/>
</g>
<defs>
<linearGradient id="paint0_linear_4898_1772" x1="22.7352" y1="11.3372" x2="5.76044" y2="15.8601" gradientUnits="userSpaceOnUse">
<stop stop-color="#00A0FF"/>
<stop offset="0.00657" stop-color="#00A1FF"/>
<stop offset="0.2601" stop-color="#00BEFF"/>
<stop offset="0.5122" stop-color="#00D2FF"/>
<stop offset="0.7604" stop-color="#00DFFF"/>
<stop offset="1" stop-color="#00E3FF"/>
</linearGradient>
<linearGradient id="paint1_linear_4898_1772" x1="33.03" y1="20.9981" x2="12.3329" y2="20.9981" gradientUnits="userSpaceOnUse">
<stop stop-color="#FFE000"/>
<stop offset="0.4087" stop-color="#FFBD00"/>
<stop offset="0.7754" stop-color="#FFA500"/>
<stop offset="1" stop-color="#FF9C00"/>
</linearGradient>
<linearGradient id="paint2_linear_4898_1772" x1="25.3251" y1="22.9621" x2="11.6979" y2="45.8978" gradientUnits="userSpaceOnUse">
<stop stop-color="#FF3A44"/>
<stop offset="1" stop-color="#C31162"/>
</linearGradient>
<linearGradient id="paint3_linear_4898_1772" x1="10.3292" y1="4.04212" x2="16.4088" y2="14.2856" gradientUnits="userSpaceOnUse">
<stop stop-color="#32A071"/>
<stop offset="0.0685" stop-color="#2DA771"/>
<stop offset="0.4762" stop-color="#15CF74"/>
<stop offset="0.8009" stop-color="#06E775"/>
<stop offset="1" stop-color="#00F076"/>
</linearGradient>
<clipPath id="clip0_4898_1772">
<rect width="132" height="42" fill="white"/>
</clipPath>
</defs>
</svg>
