<svg width="40" height="24" viewBox="0 0 40 24" fill="none" xmlns="http://www.w3.org/2000/svg">
<rect width="40" height="24" rx="6" fill="#151515"/>
<path d="M19.1931 12.7852V16.2325H18.0941V7.71932H21.0089C21.3568 7.71209 21.7027 7.77349 22.0267 7.89999C22.3506 8.02648 22.6462 8.21556 22.8963 8.45632C23.149 8.68246 23.35 8.95979 23.486 9.26968C23.622 9.57957 23.6898 9.91484 23.6847 10.253C23.692 10.5929 23.6253 10.9303 23.4892 11.2422C23.3531 11.5541 23.1509 11.833 22.8963 12.0598C22.3866 12.5434 21.7575 12.785 21.0089 12.7846H19.1931V12.7852ZM19.1931 8.76742V11.7392H21.0362C21.2382 11.7451 21.4393 11.7091 21.6266 11.6333C21.8138 11.5575 21.9831 11.4436 22.1236 11.299C22.2634 11.1638 22.3745 11.0021 22.4503 10.8234C22.5262 10.6447 22.5653 10.4527 22.5653 10.2587C22.5653 10.0648 22.5262 9.87275 22.4503 9.69407C22.3745 9.51539 22.2634 9.35366 22.1236 9.21845C21.9849 9.07078 21.8162 8.95414 21.6287 8.87627C21.4412 8.79839 21.2393 8.76106 21.0362 8.76674H19.1931V8.76742Z" fill="#BABABA"/>
<path d="M26.2195 10.2178C27.0319 10.2178 27.6731 10.4338 28.1431 10.8658C28.6132 11.2978 28.8481 11.8901 28.8476 12.6427V16.2326H27.7964V15.4243H27.7486C27.2935 16.09 26.6883 16.4228 25.9328 16.4228C25.288 16.4228 24.7485 16.2326 24.3144 15.8522C24.106 15.6776 23.9394 15.459 23.8268 15.2122C23.7141 14.9654 23.6582 14.6968 23.6631 14.4258C23.6631 13.823 23.892 13.3437 24.3499 12.9878C24.8077 12.6319 25.4188 12.4534 26.1834 12.4525C26.8359 12.4525 27.3734 12.5714 27.7957 12.8091V12.5592C27.7969 12.3744 27.7569 12.1917 27.6783 12.0243C27.5998 11.8569 27.4849 11.709 27.3418 11.5912C27.0511 11.3303 26.6724 11.1879 26.281 11.1925C25.6671 11.1925 25.1813 11.4502 24.8236 11.9655L23.8556 11.3589C24.3881 10.5982 25.176 10.2178 26.2195 10.2178ZM24.7976 14.4496C24.7969 14.5887 24.8296 14.7261 24.893 14.8501C24.9564 14.9742 25.0487 15.0814 25.1622 15.1628C25.4052 15.353 25.7069 15.4538 26.0161 15.4481C26.4799 15.4473 26.9244 15.2636 27.2523 14.9373C27.6164 14.5963 27.7984 14.1962 27.7984 13.737C27.4558 13.4653 26.9779 13.3295 26.3649 13.3295C25.9185 13.3295 25.5463 13.4366 25.2482 13.6507C24.9471 13.8681 24.7976 14.1323 24.7976 14.4496Z" fill="#BABABA"/>
<path d="M34.8816 10.4082L31.2119 18.8004H30.0774L31.4392 15.864L29.0261 10.4082H30.2207L31.9648 14.5924H31.9887L33.685 10.4082H34.8816Z" fill="#BABABA"/>
<path d="M14.756 12.0423C14.7564 11.709 14.7281 11.3763 14.6713 11.0479H10.0364V12.9314H12.6911C12.6367 13.2323 12.5218 13.519 12.3531 13.7745C12.1844 14.0299 11.9654 14.2487 11.7095 14.4177V15.6403H13.2938C14.2215 14.7892 14.756 13.5305 14.756 12.0423Z" fill="#BABABA"/>
<path d="M10.0345 16.8218C11.3608 16.8218 12.4775 16.3885 13.2919 15.6413L11.7075 14.4186C11.2666 14.7161 10.6986 14.8859 10.0345 14.8859C8.7525 14.8859 7.66441 14.026 7.27532 12.8672H5.64319V14.1272C6.05226 14.9372 6.67952 15.6181 7.45495 16.094C8.23037 16.5698 9.12345 16.8218 10.0345 16.8218Z" fill="#BABABA"/>
<path d="M7.27535 12.8664C7.06965 12.2592 7.06965 11.6016 7.27535 10.9944V9.73438H5.64322C5.29909 10.4158 5.11987 11.1678 5.11987 11.9304C5.11987 12.693 5.29909 13.4451 5.64322 14.1265L7.27535 12.8664Z" fill="#BABABA"/>
<path d="M10.0345 8.97527C10.7354 8.96388 11.4126 9.22739 11.9198 9.70887L13.3226 8.31299C12.4331 7.48163 11.2547 7.0252 10.0345 7.03938C9.12345 7.03942 8.23037 7.29143 7.45495 7.76725C6.67952 8.24308 6.05226 8.924 5.64319 9.734L7.27532 10.994C7.66441 9.83521 8.7525 8.97527 10.0345 8.97527Z" fill="#BABABA"/>
</svg>
