<svg width="33" height="20" viewBox="0 0 33 20" fill="none" xmlns="http://www.w3.org/2000/svg">
<rect x="0.5" width="32" height="20" rx="4" fill="#151515"/>
<path d="M15.8543 10.6547V13.5274H14.9751V6.43309H17.3069C17.5852 6.42707 17.862 6.47824 18.1211 6.58365C18.3803 6.68906 18.6168 6.84663 18.8169 7.04726C19.019 7.23571 19.1798 7.46682 19.2886 7.72506C19.3974 7.9833 19.4516 8.2627 19.4476 8.54446C19.4534 8.82772 19.4 9.10894 19.2911 9.36883C19.1823 9.62871 19.0205 9.86113 18.8169 10.0501C18.4091 10.4532 17.9058 10.6545 17.3069 10.6541H15.8543V10.6547ZM15.8543 7.30651V9.78297H17.3288C17.4904 9.78794 17.6513 9.75788 17.8011 9.69472C17.9509 9.63156 18.0863 9.53669 18.1987 9.41617C18.3105 9.30349 18.3994 9.16872 18.4601 9.01982C18.5208 8.87091 18.552 8.71091 18.552 8.54927C18.552 8.38762 18.5208 8.22762 18.4601 8.07872C18.3994 7.92982 18.3105 7.79504 18.1987 7.68236C18.0877 7.55931 17.9527 7.46211 17.8028 7.39722C17.6528 7.33232 17.4912 7.30121 17.3288 7.30594H15.8543V7.30651Z" fill="#BABABA"/>
<path d="M21.4755 8.51465C22.1254 8.51465 22.6383 8.69465 23.0144 9.05466C23.3905 9.41467 23.5784 9.90826 23.578 10.5354V13.527H22.737V12.8534H22.6988C22.3347 13.4081 21.8505 13.6855 21.2462 13.6855C20.7303 13.6855 20.2987 13.527 19.9514 13.21C19.7847 13.0645 19.6515 12.8823 19.5613 12.6767C19.4712 12.471 19.4265 12.2471 19.4304 12.0213C19.4304 11.519 19.6135 11.1196 19.9798 10.823C20.346 10.5264 20.835 10.3777 21.4466 10.3769C21.9687 10.3769 22.3986 10.476 22.7365 10.6741V10.4658C22.7375 10.3119 22.7054 10.1596 22.6426 10.0201C22.5798 9.88058 22.4878 9.7573 22.3733 9.6592C22.1408 9.44177 21.8378 9.32313 21.5247 9.32693C21.0336 9.32693 20.6449 9.54165 20.3588 9.97109L19.5844 9.46561C20.0104 8.83164 20.6407 8.51465 21.4755 8.51465ZM20.338 12.0411C20.3374 12.1571 20.3636 12.2716 20.4143 12.375C20.465 12.4783 20.5389 12.5677 20.6296 12.6355C20.8241 12.794 21.0654 12.878 21.3128 12.8732C21.6838 12.8726 22.0394 12.7195 22.3018 12.4476C22.593 12.1634 22.7386 11.83 22.7386 11.4473C22.4645 11.2209 22.0822 11.1077 21.5919 11.1077C21.2347 11.1077 20.9369 11.197 20.6984 11.3755C20.4576 11.5566 20.338 11.7768 20.338 12.0411Z" fill="#BABABA"/>
<path d="M28.4051 8.67383L25.4693 15.6674H24.5617L25.6511 13.2203L23.7207 8.67383H24.6764L26.0716 12.1607H26.0907L27.4478 8.67383H28.4051Z" fill="#BABABA"/>
<path d="M12.305 10.0357C12.3053 9.758 12.2827 9.48075 12.2373 9.20703H8.5293V10.7767H10.6531C10.6096 11.0274 10.5176 11.2664 10.3826 11.4792C10.2477 11.6921 10.0725 11.8744 9.86777 12.0152V13.0341H11.1353C11.8774 12.3248 12.305 11.2759 12.305 10.0357Z" fill="#BABABA"/>
<path d="M8.52766 14.0182C9.58872 14.0182 10.4821 13.6571 11.1336 13.0344L9.86614 12.0155C9.51336 12.2634 9.05901 12.405 8.52766 12.405C7.5021 12.405 6.63163 11.6883 6.32036 10.7227H5.01465V11.7727C5.3419 12.4477 5.84371 13.0151 6.46406 13.4116C7.0844 13.8082 7.79885 14.0182 8.52766 14.0182Z" fill="#BABABA"/>
<path d="M6.32008 10.7224C6.15553 10.2163 6.15553 9.66835 6.32008 9.16232V8.1123H5.01438C4.73908 8.68014 4.5957 9.30684 4.5957 9.94234C4.5957 10.5778 4.73908 11.2045 5.01438 11.7724L6.32008 10.7224Z" fill="#BABABA"/>
<path d="M8.52766 7.47972C9.08838 7.47022 9.63019 7.68982 10.036 8.09105L11.1582 6.92782C10.4466 6.23502 9.50387 5.85466 8.52766 5.86648C7.79885 5.86651 7.0844 6.07651 6.46406 6.47303C5.84371 6.86956 5.3419 7.43699 5.01465 8.11199L6.32036 9.16201C6.63163 8.19633 7.5021 7.47972 8.52766 7.47972Z" fill="#BABABA"/>
</svg>
