<svg width="19" height="16" viewBox="0 0 19 16" fill="none" xmlns="http://www.w3.org/2000/svg">
<path d="M7.00638 12V7.672C7.00638 7.26133 6.96904 6.86667 6.89438 6.488C6.82504 6.10933 6.69971 5.77067 6.51838 5.472C6.34238 5.168 6.10238 4.928 5.79838 4.752C5.49971 4.576 5.12104 4.488 4.66238 4.488C4.30504 4.488 3.97971 4.54933 3.68638 4.672C3.39838 4.78933 3.15038 4.97067 2.94238 5.216C2.73438 5.46133 2.57171 5.77067 2.45438 6.144C2.34238 6.512 2.28638 6.94667 2.28638 7.448L1.35038 7.16C1.35038 6.32267 1.49971 5.60533 1.79838 5.008C2.10238 4.40533 2.52638 3.944 3.07038 3.624C3.61971 3.29867 4.26504 3.136 5.00638 3.136C5.56638 3.136 6.04371 3.224 6.43838 3.4C6.83304 3.576 7.16104 3.81067 7.42238 4.104C7.68371 4.392 7.88904 4.71733 8.03838 5.08C8.18771 5.43733 8.29171 5.80267 8.35038 6.176C8.41438 6.544 8.44638 6.89333 8.44638 7.224V12H7.00638ZM0.846375 12V0.48H2.12638V6.84H2.28638V12H0.846375ZM14.4943 12.24C13.6836 12.24 13.0009 12.04 12.4463 11.64C11.8916 11.2347 11.4703 10.688 11.1823 10C10.8996 9.30667 10.7583 8.53067 10.7583 7.672C10.7583 6.80267 10.8996 6.024 11.1823 5.336C11.4703 4.648 11.8916 4.10667 12.4463 3.712C13.0063 3.31733 13.6916 3.12 14.5023 3.12C15.3023 3.12 15.9903 3.32 16.5663 3.72C17.1476 4.11467 17.5929 4.656 17.9023 5.344C18.2116 6.032 18.3663 6.808 18.3663 7.672C18.3663 8.536 18.2116 9.312 17.9023 10C17.5929 10.688 17.1476 11.2347 16.5663 11.64C15.9903 12.04 15.2996 12.24 14.4943 12.24ZM10.5183 15.84V3.36H11.7903V9.72H11.9503V15.84H10.5183ZM14.3183 10.936C14.8889 10.936 15.3609 10.792 15.7343 10.504C16.1076 10.216 16.3876 9.82667 16.5743 9.336C16.7609 8.84 16.8543 8.28533 16.8543 7.672C16.8543 7.064 16.7609 6.51467 16.5743 6.024C16.3929 5.53333 16.1103 5.144 15.7263 4.856C15.3476 4.568 14.8649 4.424 14.2783 4.424C13.7183 4.424 13.2543 4.56267 12.8863 4.84C12.5183 5.112 12.2436 5.49333 12.0623 5.984C11.8809 6.46933 11.7903 7.032 11.7903 7.672C11.7903 8.30133 11.8783 8.864 12.0543 9.36C12.2356 9.85067 12.5129 10.2373 12.8863 10.52C13.2596 10.7973 13.7369 10.936 14.3183 10.936Z" fill="#4F4F4F"/>
</svg>
