<svg width="68" height="10" viewBox="0 0 68 10" fill="none" xmlns="http://www.w3.org/2000/svg">
<path d="M1.33906 9L0.619063 8.28L8.55106 0.36L9.27106 1.08L1.33906 9ZM7.47106 9.18C7.07506 9.18 6.71306 9.084 6.38506 8.892C6.06106 8.696 5.80106 8.436 5.60506 8.112C5.40906 7.784 5.31106 7.42 5.31106 7.02C5.31106 6.628 5.41106 6.268 5.61106 5.94C5.81106 5.612 6.07506 5.35 6.40306 5.154C6.73106 4.958 7.08706 4.86 7.47106 4.86C7.86706 4.86 8.22906 4.958 8.55706 5.154C8.88506 5.346 9.14506 5.606 9.33706 5.934C9.53306 6.258 9.63106 6.62 9.63106 7.02C9.63106 7.42 9.53306 7.784 9.33706 8.112C9.14506 8.436 8.88506 8.696 8.55706 8.892C8.22906 9.084 7.86706 9.18 7.47106 9.18ZM7.47106 8.238C7.69106 8.238 7.89306 8.182 8.07706 8.07C8.26506 7.958 8.41306 7.81 8.52106 7.626C8.63306 7.442 8.68906 7.24 8.68906 7.02C8.68906 6.8 8.63306 6.598 8.52106 6.414C8.41306 6.226 8.26506 6.078 8.07706 5.97C7.89306 5.858 7.69106 5.802 7.47106 5.802C7.25106 5.802 7.04906 5.858 6.86506 5.97C6.68106 6.078 6.53306 6.226 6.42106 6.414C6.30906 6.598 6.25306 6.8 6.25306 7.02C6.25306 7.24 6.30906 7.442 6.42106 7.626C6.53306 7.81 6.68106 7.958 6.86506 8.07C7.04906 8.182 7.25106 8.238 7.47106 8.238ZM2.41906 4.5C2.02306 4.5 1.66106 4.404 1.33306 4.212C1.00506 4.016 0.743063 3.756 0.547063 3.432C0.355063 3.104 0.259063 2.74 0.259063 2.34C0.259063 1.948 0.359063 1.588 0.559063 1.26C0.759063 0.931999 1.02306 0.669999 1.35106 0.473999C1.67906 0.278 2.03506 0.18 2.41906 0.18C2.81506 0.18 3.17506 0.278 3.49906 0.473999C3.82706 0.666 4.08906 0.926 4.28506 1.254C4.48106 1.578 4.57906 1.94 4.57906 2.34C4.57906 2.74 4.48106 3.104 4.28506 3.432C4.08906 3.756 3.82706 4.016 3.49906 4.212C3.17506 4.404 2.81506 4.5 2.41906 4.5ZM2.41906 3.558C2.63906 3.558 2.84106 3.502 3.02506 3.39C3.21306 3.278 3.36106 3.13 3.46906 2.946C3.58106 2.762 3.63706 2.56 3.63706 2.34C3.63706 2.12 3.58106 1.918 3.46906 1.734C3.36106 1.546 3.21306 1.398 3.02506 1.29C2.84106 1.178 2.63906 1.122 2.41906 1.122C2.19906 1.122 1.99706 1.178 1.81306 1.29C1.62906 1.398 1.48106 1.546 1.36906 1.734C1.25706 1.918 1.20106 2.12 1.20106 2.34C1.20106 2.56 1.25706 2.762 1.36906 2.946C1.48106 3.13 1.62906 3.278 1.81306 3.39C1.99706 3.502 2.19906 3.558 2.41906 3.558ZM14.2158 5.94C14.0118 5.94 13.8378 5.872 13.6938 5.736C13.5498 5.596 13.4778 5.424 13.4778 5.22C13.4778 5.012 13.5498 4.84 13.6938 4.704C13.8378 4.568 14.0118 4.5 14.2158 4.5C14.4078 4.5 14.5718 4.568 14.7078 4.704C14.8478 4.84 14.9178 5.012 14.9178 5.22C14.9178 5.424 14.8478 5.596 14.7078 5.736C14.5718 5.872 14.4078 5.94 14.2158 5.94ZM18.877 9L18.883 0.36H19.963V5.64L22.681 2.52H24.067L21.205 5.76L24.403 9H22.909L19.963 5.88V9H18.877ZM26.8422 9L24.3402 0.36H25.4562L27.3762 7.194L29.2902 0.366L30.4122 0.36L32.3322 7.194L34.2462 0.36H35.3682L32.8662 9H31.7982L29.8542 2.226L27.9102 9H26.8422ZM41.0048 9V5.754C41.0048 5.446 40.9768 5.15 40.9208 4.866C40.8688 4.582 40.7748 4.328 40.6388 4.104C40.5068 3.876 40.3268 3.696 40.0988 3.564C39.8748 3.432 39.5908 3.366 39.2468 3.366C38.9788 3.366 38.7348 3.412 38.5148 3.504C38.2988 3.592 38.1128 3.728 37.9568 3.912C37.8008 4.096 37.6788 4.328 37.5908 4.608C37.5068 4.884 37.4648 5.21 37.4648 5.586L36.7628 5.37C36.7628 4.742 36.8748 4.204 37.0988 3.756C37.3268 3.304 37.6448 2.958 38.0528 2.718C38.4648 2.474 38.9488 2.352 39.5048 2.352C39.9248 2.352 40.2828 2.418 40.5788 2.55C40.8748 2.682 41.1208 2.858 41.3168 3.078C41.5128 3.294 41.6668 3.538 41.7788 3.81C41.8908 4.078 41.9688 4.352 42.0128 4.632C42.0608 4.908 42.0848 5.17 42.0848 5.418V9H41.0048ZM36.3848 9V0.36H37.3448V5.13H37.4648V9H36.3848ZM46.665 5.94C46.461 5.94 46.287 5.872 46.143 5.736C45.999 5.596 45.927 5.424 45.927 5.22C45.927 5.012 45.999 4.84 46.143 4.704C46.287 4.568 46.461 4.5 46.665 4.5C46.857 4.5 47.021 4.568 47.157 4.704C47.297 4.84 47.367 5.012 47.367 5.22C47.367 5.424 47.297 5.596 47.157 5.736C47.021 5.872 46.857 5.94 46.665 5.94ZM51.3262 9L51.3322 0.36H52.4122V5.64L55.1302 2.52H56.5162L53.6542 5.76L56.8522 9H55.3582L52.4122 5.88V9H51.3262ZM59.2914 9L56.7894 0.36H57.9054L59.8254 7.194L61.7394 0.366L62.8614 0.36L64.7814 7.194L66.6954 0.36H67.8174L65.3154 9H64.2474L62.3034 2.226L60.3594 9H59.2914Z" fill="white"/>
</svg>
