<svg width="24" height="24" viewBox="0 0 24 24" fill="none" xmlns="http://www.w3.org/2000/svg">
<path d="M7.19995 17.3999C4.37152 17.3999 2.95731 17.3999 2.07863 16.5212C1.19995 15.6425 1.19995 14.2283 1.19995 11.3999C1.19995 8.57148 1.19995 7.15726 2.07863 6.27858C2.95731 5.3999 4.37152 5.3999 7.19995 5.3999C10.0284 5.3999 11.4426 5.3999 12.3213 6.27858C13.2 7.15726 13.2 8.57148 13.2 11.3999C13.2 14.2283 13.2 15.6425 12.3213 16.5212C11.4426 17.3999 10.0284 17.3999 7.19995 17.3999Z" stroke="#777777" stroke-width="1.2"/>
<path d="M3.30005 9.45439C3.30005 8.37501 4.24025 7.5 5.40005 7.5C6.55985 7.5 7.50005 8.37501 7.50005 9.45439C7.50005 10.5253 6.8298 11.775 5.78407 12.2219C5.54029 12.326 5.25981 12.326 5.01603 12.2219C3.9703 11.775 3.30005 10.5253 3.30005 9.45439Z" stroke="#777777" stroke-width="1.2"/>
<path d="M8.40022 12.5997L12.3002 16.4997M8.40022 12.5997L3.83667 17.1632M8.40022 12.5997L12.9643 8.03564" stroke="#777777" stroke-width="1.2" stroke-linecap="round"/>
<path d="M6.00005 9.6C6.00005 9.93137 5.73142 10.2 5.40005 10.2C5.06868 10.2 4.80005 9.93137 4.80005 9.6C4.80005 9.26863 5.06868 9 5.40005 9C5.73142 9 6.00005 9.26863 6.00005 9.6Z" fill="#777777"/>
</svg>
