<svg width="40" height="40" viewBox="0 0 40 40" fill="none" xmlns="http://www.w3.org/2000/svg">
<g clip-path="url(#clip0_5002_2229)">
<rect x="0.82666" y="10.9091" width="36.3636" height="14.876" rx="2.5" fill="#4E4E4E"/>
<path d="M20.6193 18.7018C20.6138 18.7018 20.6083 18.7029 20.6032 18.7051C20.5981 18.7073 20.5935 18.7105 20.5895 18.7146C20.5856 18.7186 20.5825 18.7234 20.5804 18.7287C20.5783 18.734 20.5772 18.7397 20.5772 18.7454C20.5765 19.6051 20.5765 20.4488 20.5772 21.2764C20.5772 21.6546 20.2067 21.943 19.865 21.7635C17.8839 20.7229 15.9006 19.6864 13.9152 18.6541C13.5487 18.4637 13.5393 17.906 13.9117 17.7177C13.9864 17.68 14.0739 17.6614 14.1741 17.6617C15.2737 17.6638 16.3997 17.6641 17.5519 17.6627C17.565 17.6627 17.5774 17.6573 17.5867 17.6477C17.5959 17.6381 17.601 17.625 17.601 17.6114C17.601 16.7561 17.601 15.9145 17.601 15.0866C17.6015 14.7147 17.9651 14.42 18.3078 14.5995C20.1976 15.5886 22.1806 16.6256 24.2566 17.7105C24.7605 17.9735 24.5571 18.7039 24.0156 18.7023C22.8124 18.6999 21.6803 18.6997 20.6193 18.7018Z" fill="white"/>
<path d="M38.0166 15.6424C38.0166 15.3104 38.2857 15.0413 38.6177 15.0413C39.1986 15.0413 39.6695 15.5123 39.6695 16.0932V20.6011C39.6695 21.182 39.1986 21.6529 38.6177 21.6529C38.2857 21.6529 38.0166 21.3838 38.0166 21.0519V15.6424Z" fill="#4E4E4E"/>
</g>
<defs>
<clipPath id="clip0_5002_2229">
<rect width="40" height="16" fill="white" transform="translate(0 10)"/>
</clipPath>
</defs>
</svg>
