<svg width="24" height="24" viewBox="0 0 24 24" fill="none" xmlns="http://www.w3.org/2000/svg">
<path fill-rule="evenodd" clip-rule="evenodd" d="M8 20C12.4183 20 16 16.4183 16 12C16 7.58172 12.4183 4 8 4C3.58172 4 0 7.58172 0 12C0 16.4183 3.58172 20 8 20ZM8.00249 18.5458C11.6174 18.5458 14.5479 15.6153 14.5479 12.0003C14.5479 8.38538 11.6174 5.45488 8.00249 5.45488C4.38753 5.45488 1.45703 8.38538 1.45703 12.0003C1.45703 15.6153 4.38753 18.5458 8.00249 18.5458Z" fill="white"/>
<path d="M2.10851 11.3216C1.7105 11.3635 1.32666 11.4 1.2 11.4V12.8H1.66723C2.66994 12.8 3.65419 13.0725 4.51401 13.5884C6.18039 14.5882 7.2 16.3898 7.2 18.3332V18.8H8.8V18.3332C8.8 16.3898 9.81961 14.5882 11.486 13.5884C12.3458 13.0725 13.3301 12.8 14.3328 12.8H14.8V11.4L13.9459 11.3146C13.1889 11.2389 12.4558 11.0126 11.7434 10.7459C10.8358 10.4062 9.44799 10 8 10C6.52559 10 5.11356 10.4211 4.20743 10.7644C3.52843 11.0217 2.83062 11.2457 2.10851 11.3216Z" fill="white"/>
</svg>
