<svg width="40" height="40" viewBox="0 0 40 40" fill="none" xmlns="http://www.w3.org/2000/svg">
<path d="M27.7627 17.4808C28.131 17.11 28.4982 16.7436 28.8643 16.3816C29.2721 15.9785 29.9206 16.1308 30.1362 16.6495C30.2971 17.0363 30.1174 17.3441 29.8393 17.6199C29.0815 18.3699 28.3607 19.0889 27.6768 19.7769C27.3992 20.0561 27.0943 20.1285 26.762 19.9941C26.4065 19.8503 26.2877 19.5206 26.2823 19.1472C26.1706 11.7245 19.3237 6.22143 12.0042 7.83705C10.1104 8.25476 8.42316 9.09695 6.94243 10.3636C5.0341 11.9964 3.77056 14.0766 3.15181 16.6042C3.01821 17.1503 2.39478 17.3792 1.93696 17.0496C1.60571 16.8105 1.57603 16.4597 1.67446 16.0753C2.01509 14.7477 2.50051 13.5568 3.13071 12.5027C5.68775 8.22611 10.2737 5.76127 15.2682 6.0183C21.6307 6.34564 26.8377 11.1667 27.7284 17.4691C27.7289 17.4728 27.7304 17.4763 27.7328 17.4792C27.7352 17.4821 27.7384 17.4843 27.7419 17.4856C27.7455 17.4868 27.7493 17.487 27.753 17.4861C27.7567 17.4853 27.7601 17.4834 27.7627 17.4808Z" fill="#858585"/>
<path d="M16.4079 17.5891C16.4079 17.5978 16.4096 17.6064 16.4129 17.6145C16.4162 17.6225 16.4211 17.6299 16.4272 17.636C16.4333 17.6422 16.4405 17.6471 16.4484 17.6504C16.4564 17.6538 16.4649 17.6555 16.4736 17.6555C17.7684 17.6565 19.0389 17.6565 20.2853 17.6555C20.8548 17.6555 21.2892 18.2391 21.0189 18.7774C19.4517 21.8982 17.8907 25.0224 16.3361 28.15C16.0493 28.7274 15.2095 28.7422 14.9259 28.1555C14.8691 28.0378 14.841 27.9 14.8415 27.7422C14.8447 26.0099 14.8452 24.2362 14.8431 22.4211C14.8431 22.4006 14.8349 22.3809 14.8204 22.3664C14.8059 22.3519 14.7863 22.3438 14.7657 22.3438C13.4777 22.3438 12.2103 22.3438 10.9634 22.3438C10.4032 22.343 9.9595 21.7703 10.2298 21.2305C11.7194 18.2534 13.2811 15.1297 14.915 11.8594C15.3111 11.0656 16.4111 11.3859 16.4087 12.2391C16.4051 14.1344 16.4048 15.9177 16.4079 17.5891Z" fill="#858585"/>
<path d="M2.43065 21.7977C2.0619 22.169 1.70513 22.5253 1.36034 22.8664C0.593148 23.625 -0.499821 22.5188 0.253304 21.7672C1.02258 21 1.77205 20.249 2.50174 19.5141C2.61424 19.4005 2.73299 19.3185 2.85799 19.268C3.21346 19.1242 3.6658 19.3102 3.82362 19.6508C3.87726 19.7675 3.90669 19.9279 3.9119 20.1321C3.99367 23.4305 5.20278 26.2086 7.53924 28.4664C10.4713 31.2992 14.6978 32.361 18.6596 31.3242C20.7252 30.7841 22.5239 29.7276 24.0557 28.1547C25.5192 26.6526 26.5124 24.8313 27.0353 22.6907C27.1036 22.412 27.2663 22.2237 27.5236 22.1258C27.9596 21.9594 28.4775 22.2282 28.5588 22.6907C28.5838 22.8339 28.5687 23.013 28.5135 23.2282C27.9343 25.4802 26.878 27.4295 25.3447 29.0758C22.3955 32.2407 18.1174 33.7352 13.8002 33.1516C7.92127 32.3563 3.29002 27.675 2.46893 21.811C2.46838 21.8068 2.46669 21.8029 2.46403 21.7996C2.46138 21.7963 2.45786 21.7939 2.45389 21.7925C2.44992 21.7911 2.44564 21.7909 2.44153 21.7918C2.43743 21.7927 2.43366 21.7947 2.43065 21.7977Z" fill="#858585"/>
</svg>
