<svg width="24" height="24" viewBox="0 0 24 24" fill="none" xmlns="http://www.w3.org/2000/svg">
<g clip-path="url(#clip0_5123_3821)">
<path d="M16.5647 5.3999C12.3921 5.3999 9 8.79201 9 12.9646C9 14.6438 9.54546 16.2 10.474 17.4562L11.1415 16.8651C10.3523 15.7689 9.88996 14.4212 9.88996 12.9646C9.88996 9.27299 12.8731 6.28986 16.5647 6.28986C20.2563 6.28986 23.2394 9.27299 23.2394 12.9646C23.2394 14.4212 22.777 15.7689 21.9879 16.8651L22.6554 17.4562C23.5839 16.2 24.1294 14.6438 24.1294 12.9646C24.1294 8.79201 20.7373 5.3999 16.5647 5.3999ZM16.5647 9.40473L15.4522 14.967C15.4522 15.5814 15.9503 16.0795 16.5647 16.0795C17.1791 16.0795 17.6771 15.5814 17.6771 14.967L16.5647 9.40473Z" fill="white"/>
</g>
<defs>
<clipPath id="clip0_5123_3821">
<rect width="24" height="24" fill="white"/>
</clipPath>
</defs>
</svg>
