<svg width="40" height="40" viewBox="0 0 40 40" fill="none" xmlns="http://www.w3.org/2000/svg">
<path d="M11 28C6.28595 28 3.92893 28 2.46447 26.5355C1 25.0711 1 22.714 1 18C1 13.286 1 10.9289 2.46447 9.46447C3.92893 8 6.28595 8 11 8C15.714 8 18.0711 8 19.5355 9.46447C21 10.9289 21 13.286 21 18C21 22.714 21 25.0711 19.5355 26.5355C18.0711 28 15.714 28 11 28Z" stroke="#909090" stroke-width="1.5"/>
<path d="M12.4227 23.3618L15.9348 14.196C16.2164 13.4611 15.5389 12.7836 14.804 13.0652L5.63824 16.5773C4.80779 16.8955 4.78079 18.06 5.5981 18.3083L9.07507 19.3648C9.34549 19.447 9.553 19.6545 9.63517 19.9249L10.6917 23.4019C10.94 24.2192 12.1045 24.1922 12.4227 23.3618Z" stroke="#909090" stroke-width="1.5"/>
</svg>
