<svg width="24" height="24" viewBox="0 0 24 24" fill="none" xmlns="http://www.w3.org/2000/svg">
<g clip-path="url(#clip0_5123_3933)">
<rect x="0.49585" y="7.64648" width="21.8182" height="8.92562" rx="1.5" fill="#4E4E4E"/>
<path d="M12.3717 12.4211C12.3683 12.4211 12.365 12.4217 12.362 12.423C12.3589 12.4244 12.3561 12.4263 12.3538 12.4287C12.3514 12.4311 12.3496 12.434 12.3483 12.4372C12.347 12.4404 12.3464 12.4438 12.3464 12.4472C12.346 12.9631 12.346 13.4693 12.3464 13.9658C12.3464 14.1927 12.1241 14.3658 11.9191 14.2581C10.7304 13.6337 9.54042 13.0118 8.34916 12.3924C8.12926 12.2782 8.1236 11.9436 8.34708 11.8306C8.39191 11.808 8.44438 11.7968 8.50449 11.797C9.16429 11.7982 9.83987 11.7984 10.5312 11.7976C10.539 11.7976 10.5465 11.7944 10.552 11.7886C10.5576 11.7828 10.5607 11.775 10.5607 11.7668C10.5607 11.2537 10.5607 10.7487 10.5607 10.2519C10.561 10.0288 10.7791 9.85197 10.9847 9.95967C12.1186 10.5531 13.3084 11.1753 14.554 11.8263C14.8563 11.9841 14.7343 12.4223 14.4094 12.4214C13.6875 12.4199 13.0082 12.4198 12.3717 12.4211Z" fill="white"/>
<path d="M22.8098 10.4866C22.8098 10.2874 22.9713 10.126 23.1704 10.126C23.519 10.126 23.8016 10.4085 23.8016 10.7571V13.4618C23.8016 13.8104 23.519 14.0929 23.1704 14.0929C22.9713 14.0929 22.8098 13.9315 22.8098 13.7323V10.4866Z" fill="#4E4E4E"/>
</g>
<defs>
<clipPath id="clip0_5123_3933">
<rect width="24" height="9.6" fill="white" transform="translate(0 7.2002)"/>
</clipPath>
</defs>
</svg>
