<svg width="84" height="12" viewBox="0 0 84 12" fill="none" xmlns="http://www.w3.org/2000/svg">
<path d="M0.4325 12V0.48H1.7285L6.0805 9.656L10.4085 0.48H11.7205V11.992H10.3685V3.608L6.4565 12H5.6965L1.7845 3.608V12H0.4325ZM13.9638 12V0.48H18.5158C18.6278 0.48 18.7611 0.485333 18.9158 0.495999C19.0704 0.501333 19.2198 0.517333 19.3638 0.544C19.9878 0.64 20.5104 0.853333 20.9318 1.184C21.3584 1.51467 21.6784 1.93333 21.8918 2.44C22.1051 2.94133 22.2118 3.49867 22.2118 4.112C22.2118 4.72 22.1024 5.27733 21.8837 5.784C21.6704 6.28533 21.3504 6.704 20.9237 7.04C20.5024 7.37067 19.9824 7.584 19.3638 7.68C19.2198 7.70133 19.0704 7.71733 18.9158 7.728C18.7611 7.73867 18.6278 7.744 18.5158 7.744H15.3878V12H13.9638ZM15.3878 6.392H18.4678C18.5691 6.392 18.6838 6.38667 18.8118 6.376C18.9451 6.36533 19.0704 6.34667 19.1878 6.32C19.5558 6.23467 19.8544 6.08 20.0838 5.856C20.3184 5.62667 20.4891 5.36 20.5958 5.056C20.7024 4.74667 20.7558 4.432 20.7558 4.112C20.7558 3.792 20.7024 3.48 20.5958 3.176C20.4891 2.86667 20.3184 2.59733 20.0838 2.368C19.8544 2.13867 19.5558 1.984 19.1878 1.904C19.0704 1.872 18.9451 1.85333 18.8118 1.848C18.6838 1.83733 18.5691 1.832 18.4678 1.832H15.3878V6.392ZM23.8075 12V0.48H25.2315V5.56H31.2955V0.48H32.7195V12H31.2955V6.912H25.2315V12H23.8075ZM38.9909 7.92C38.7189 7.92 38.4869 7.82933 38.2949 7.648C38.1029 7.46133 38.0069 7.232 38.0069 6.96C38.0069 6.68267 38.1029 6.45333 38.2949 6.272C38.4869 6.09067 38.7189 6 38.9909 6C39.2469 6 39.4655 6.09067 39.6469 6.272C39.8335 6.45333 39.9269 6.68267 39.9269 6.96C39.9269 7.232 39.8335 7.46133 39.6469 7.648C39.4655 7.82933 39.2469 7.92 38.9909 7.92ZM45.2138 12V0.48H46.6378V5.888L51.6778 0.48H53.4698L48.2378 6.072L53.8778 12H52.0378L46.6378 6.368V12H45.2138ZM54.995 12V0.48H56.291L60.643 9.656L64.971 0.48H66.283V11.992H64.931V3.608L61.019 12H60.259L56.347 3.608V12H54.995ZM71.4383 0.48H72.8863L69.8143 12H68.3663L71.4383 0.48ZM74.9638 12V0.48H76.3878V5.56H82.4518V0.48H83.8758V12H82.4518V6.912H76.3878V12H74.9638Z" fill="#F6F6F6"/>
</svg>
