<svg width="40" height="40" viewBox="0 0 40 40" fill="none" xmlns="http://www.w3.org/2000/svg">
<g clip-path="url(#clip0_5042_3833)">
<rect x="0.82666" y="11.7273" width="36.3636" height="14.5455" rx="2.5" fill="#4E4E4E"/>
<path d="M20.6193 19.5084C20.6138 19.5084 20.6083 19.5096 20.6032 19.5117C20.5981 19.5138 20.5935 19.517 20.5895 19.5209C20.5856 19.5249 20.5825 19.5296 20.5804 19.5348C20.5783 19.5399 20.5772 19.5455 20.5772 19.5511C20.5765 20.3917 20.5765 21.2166 20.5772 22.0258C20.5772 22.3956 20.2067 22.6776 19.865 22.5021C17.8839 21.4846 15.9006 20.4712 13.9152 19.4618C13.5487 19.2756 13.5393 18.7304 13.9117 18.5462C13.9864 18.5094 14.0739 18.4911 14.1741 18.4915C15.2737 18.4935 16.3997 18.4938 17.5519 18.4925C17.565 18.4925 17.5774 18.4872 17.5867 18.4778C17.5959 18.4683 17.601 18.4556 17.601 18.4423C17.601 17.606 17.601 16.7831 17.601 15.9736C17.6015 15.6099 17.9651 15.3218 18.3078 15.4973C20.1976 16.4644 22.1806 17.4784 24.2566 18.5391C24.7605 18.7963 24.5571 19.5105 24.0156 19.509C22.8124 19.5066 21.6803 19.5064 20.6193 19.5084Z" fill="white"/>
<path d="M38.0166 16.3688C38.0166 16.0368 38.2857 15.7677 38.6177 15.7677C39.1986 15.7677 39.6695 16.2386 39.6695 16.8195V21.1805C39.6695 21.7614 39.1986 22.2323 38.6177 22.2323C38.2857 22.2323 38.0166 21.9632 38.0166 21.6313V16.3688Z" fill="#4E4E4E"/>
</g>
<defs>
<clipPath id="clip0_5042_3833">
<rect width="40" height="16" fill="white" transform="translate(0 11)"/>
</clipPath>
</defs>
</svg>
