<svg width="24" height="24" viewBox="0 0 24 24" fill="none" xmlns="http://www.w3.org/2000/svg">
<path d="M13.5015 15.0879C13.5015 15.0879 12.8943 15.0816 11.9927 15.1322C8.9877 15.3007 6.06843 15.2787 3.23482 15.0664C2.81719 15.035 2.76289 15.0559 2.76289 15.0559C2.76289 15.0559 2.74125 15.5632 2.68886 15.7018C2.60305 15.9286 2.45486 16.0794 2.24427 16.1544C2.16023 16.1844 2.03292 16.1985 1.86232 16.1966C1.69223 16.195 1.50391 16.2139 1.3509 16.1604C1.10488 16.0742 0.945796 15.8988 0.873658 15.6343C0.762415 15.2266 0.71078 14.7507 0.678888 14.2759C0.610547 13.2694 0.558533 12.2424 0.646616 11.2355C0.676483 10.8965 0.719512 10.6559 0.775704 10.5137C0.982624 9.98797 1.66337 9.67148 2.13112 9.48029C2.14302 9.47547 2.14302 9.47039 2.13112 9.46503C2.00811 9.41094 1.92585 9.38457 1.88434 9.38591C1.52859 9.39635 0.663701 9.53532 0.786334 8.85774C0.861129 8.44566 1.54757 8.39746 1.84751 8.40389C1.86018 8.40416 1.87215 8.40948 1.88092 8.41875C2.00697 8.5529 2.06468 8.88747 2.10417 9.07062C2.10523 9.07561 2.10735 9.0803 2.11037 9.08434C2.11339 9.08837 2.11724 9.09164 2.12163 9.09391L2.33615 9.20677C2.3526 9.21561 2.36348 9.21052 2.3688 9.19151C2.68316 8.03959 3.4277 6.86679 4.62935 6.63946C4.77059 6.61295 5.02282 6.59983 5.38603 6.6001C7.19604 6.60144 9.00593 6.60144 10.8157 6.6001C11.1706 6.59983 11.4228 6.61536 11.5724 6.64669C12.7383 6.89089 13.5034 8.07534 13.8492 9.1879C13.8533 9.20102 13.8617 9.20584 13.8743 9.20235C13.9905 9.16902 14.1245 9.10717 14.1541 8.98426C14.1955 8.81196 14.2282 8.60953 14.3124 8.4549C14.321 8.43914 14.3333 8.42605 14.3482 8.41696C14.3631 8.40786 14.3799 8.40307 14.3971 8.40308C14.686 8.40268 15.5061 8.46172 15.4397 8.96619C15.4154 9.15295 15.2882 9.34936 15.0965 9.3606C14.8887 9.37265 14.6261 9.38015 14.3086 9.38309C14.2079 9.3839 14.1089 9.41134 14.0117 9.46543C13.9993 9.47266 13.9999 9.47882 14.0133 9.48391C14.3418 9.60815 14.6555 9.77952 14.9545 9.99801C15.1789 10.1619 15.3322 10.3651 15.4006 10.6431C15.505 11.0664 15.5524 11.5158 15.5737 11.993C15.6086 12.7716 15.6089 13.5499 15.5745 14.3277C15.5547 14.7671 15.4936 15.2375 15.3926 15.623C15.3273 15.8731 15.1859 16.0448 14.9685 16.1379C14.8804 16.1757 14.7546 16.1953 14.5911 16.1966C14.2597 16.199 14.0159 16.2327 13.7729 16.0287C13.5243 15.8194 13.5265 15.5399 13.5015 15.2347C13.5002 15.2191 13.5015 15.0879 13.5015 15.0879ZM11.7098 7.12505C11.5119 7.0324 11.2708 6.98608 10.9865 6.98608C9.00593 6.98528 7.02532 6.98207 5.04471 6.97644C4.1411 6.97403 3.58716 7.78897 3.28114 8.58061C3.21394 8.75452 3.20407 8.93165 3.36429 9.03487C3.41669 9.06861 3.49578 9.0832 3.60159 9.07865C5.91377 8.97864 8.15648 8.98225 10.5499 9.02041C11.2574 9.03166 11.9007 9.05268 12.4798 9.08347C12.5765 9.08856 12.6492 9.07985 12.6981 9.05736C12.8967 8.96579 12.8864 8.76376 12.8196 8.56374C12.6282 7.99059 12.2482 7.37728 11.7098 7.12505ZM12.6681 11.7415C12.6681 11.7415 14.0076 11.8299 14.1978 11.7508C14.385 11.6725 14.6352 11.5998 14.721 11.411C14.8425 11.1431 14.7791 10.8093 14.7529 10.5226C14.7516 10.5092 14.7448 10.5026 14.7324 10.5029C13.7988 10.5093 12.5356 10.7238 11.8465 11.4688C11.8444 11.4712 11.8427 11.474 11.8416 11.4771C11.8406 11.4802 11.8401 11.4834 11.8403 11.4867C11.8405 11.4899 11.8413 11.4931 11.8427 11.496C11.8441 11.4988 11.846 11.5014 11.8484 11.5034C12.0848 11.7074 12.6681 11.7415 12.6681 11.7415ZM2.01646 11.7709C2.01646 11.7709 2.73225 11.8412 3.23862 11.8606C3.42757 11.8678 3.69941 11.7924 3.79711 11.7745C3.96366 11.7442 4.11452 11.668 4.24968 11.5459C4.26031 11.5363 4.26094 11.5259 4.25158 11.5146C4.00631 11.2174 3.57387 10.9873 3.23862 10.8664C2.64305 10.6522 2.019 10.5463 1.36647 10.5487C1.35457 10.5487 1.3485 10.555 1.34825 10.5675C1.34369 10.8772 1.30269 11.2435 1.44848 11.462C1.55099 11.6162 2.01646 11.7709 2.01646 11.7709Z" fill="white"/>
</svg>
