<svg width="24" height="24" viewBox="0 0 24 24" fill="none" xmlns="http://www.w3.org/2000/svg">
<path fill-rule="evenodd" clip-rule="evenodd" d="M16 20C20.4183 20 24 16.4183 24 12C24 7.58172 20.4183 4 16 4C11.5817 4 8 7.58172 8 12C8 16.4183 11.5817 20 16 20ZM16.0025 18.5458C19.6174 18.5458 22.5479 15.6153 22.5479 12.0003C22.5479 8.38538 19.6174 5.45488 16.0025 5.45488C12.3875 5.45488 9.45703 8.38538 9.45703 12.0003C9.45703 15.6153 12.3875 18.5458 16.0025 18.5458Z" fill="#909090"/>
<path d="M10.1085 11.3216C9.7105 11.3635 9.32666 11.4 9.2 11.4V12.8H9.66723C10.6699 12.8 11.6542 13.0725 12.514 13.5884C14.1804 14.5882 15.2 16.3898 15.2 18.3332V18.8H16.8V18.3332C16.8 16.3898 17.8196 14.5882 19.486 13.5884C20.3458 13.0725 21.3301 12.8 22.3328 12.8H22.8V11.4L21.9459 11.3146C21.1889 11.2389 20.4558 11.0126 19.7434 10.7459C18.8358 10.4062 17.448 10 16 10C14.5256 10 13.1136 10.4211 12.2074 10.7644C11.5284 11.0217 10.8306 11.2457 10.1085 11.3216Z" fill="#909090"/>
</svg>
