<svg width="91" height="13" viewBox="0 0 91 13" fill="none" xmlns="http://www.w3.org/2000/svg">
<path d="M2.11875 12L1.15875 11.04L11.7348 0.48L12.6948 1.44L2.11875 12ZM10.2948 12.24C9.76675 12.24 9.28408 12.112 8.84675 11.856C8.41475 11.5947 8.06808 11.248 7.80675 10.816C7.54542 10.3787 7.41475 9.89333 7.41475 9.36C7.41475 8.83733 7.54808 8.35733 7.81475 7.92C8.08142 7.48267 8.43342 7.13333 8.87075 6.872C9.30808 6.61067 9.78275 6.48 10.2948 6.48C10.8228 6.48 11.3054 6.61067 11.7428 6.872C12.1801 7.128 12.5268 7.47467 12.7828 7.912C13.0441 8.344 13.1748 8.82667 13.1748 9.36C13.1748 9.89333 13.0441 10.3787 12.7828 10.816C12.5268 11.248 12.1801 11.5947 11.7428 11.856C11.3054 12.112 10.8228 12.24 10.2948 12.24ZM10.2948 10.984C10.5881 10.984 10.8574 10.9093 11.1028 10.76C11.3534 10.6107 11.5508 10.4133 11.6948 10.168C11.8441 9.92267 11.9188 9.65333 11.9188 9.36C11.9188 9.06667 11.8441 8.79733 11.6948 8.552C11.5508 8.30133 11.3534 8.104 11.1028 7.96C10.8574 7.81067 10.5881 7.736 10.2948 7.736C10.0014 7.736 9.73208 7.81067 9.48675 7.96C9.24142 8.104 9.04408 8.30133 8.89475 8.552C8.74542 8.79733 8.67075 9.06667 8.67075 9.36C8.67075 9.65333 8.74542 9.92267 8.89475 10.168C9.04408 10.4133 9.24142 10.6107 9.48675 10.76C9.73208 10.9093 10.0014 10.984 10.2948 10.984ZM3.55875 6C3.03075 6 2.54808 5.872 2.11075 5.616C1.67342 5.35467 1.32408 5.008 1.06275 4.576C0.80675 4.13867 0.67875 3.65333 0.67875 3.12C0.67875 2.59733 0.812083 2.11733 1.07875 1.68C1.34542 1.24267 1.69742 0.893332 2.13475 0.631999C2.57208 0.370666 3.04675 0.24 3.55875 0.24C4.08675 0.24 4.56675 0.370666 4.99875 0.631999C5.43608 0.888 5.78542 1.23467 6.04675 1.672C6.30808 2.104 6.43875 2.58667 6.43875 3.12C6.43875 3.65333 6.30808 4.13867 6.04675 4.576C5.78542 5.008 5.43608 5.35467 4.99875 5.616C4.56675 5.872 4.08675 6 3.55875 6ZM3.55875 4.744C3.85208 4.744 4.12142 4.66933 4.36675 4.52C4.61742 4.37067 4.81475 4.17333 4.95875 3.928C5.10808 3.68267 5.18275 3.41333 5.18275 3.12C5.18275 2.82667 5.10808 2.55733 4.95875 2.312C4.81475 2.06133 4.61742 1.864 4.36675 1.72C4.12142 1.57067 3.85208 1.496 3.55875 1.496C3.26542 1.496 2.99608 1.57067 2.75075 1.72C2.50542 1.864 2.30808 2.06133 2.15875 2.312C2.00942 2.55733 1.93475 2.82667 1.93475 3.12C1.93475 3.41333 2.00942 3.68267 2.15875 3.928C2.30808 4.17333 2.50542 4.37067 2.75075 4.52C2.99608 4.66933 3.26542 4.744 3.55875 4.744ZM19.2878 7.92C19.0158 7.92 18.7838 7.82933 18.5918 7.648C18.3998 7.46133 18.3038 7.232 18.3038 6.96C18.3038 6.68267 18.3998 6.45333 18.5918 6.272C18.7838 6.09067 19.0158 6 19.2878 6C19.5438 6 19.7624 6.09067 19.9438 6.272C20.1304 6.45333 20.2238 6.68267 20.2238 6.96C20.2238 7.232 20.1304 7.46133 19.9438 7.648C19.7624 7.82933 19.5438 7.92 19.2878 7.92ZM25.5026 12L25.5106 0.48H26.9506V7.52L30.5746 3.36H32.4226L28.6066 7.68L32.8706 12H30.8786L26.9506 7.84V12H25.5026ZM36.1229 12L32.7869 0.48H34.2749L36.8349 9.592L39.3869 0.488L40.8829 0.48L43.4429 9.592L45.9949 0.48H47.4909L44.1549 12H42.7309L40.1389 2.968L37.5469 12H36.1229ZM55.0064 12V7.672C55.0064 7.26133 54.969 6.86667 54.8944 6.488C54.825 6.10933 54.6997 5.77067 54.5184 5.472C54.3424 5.168 54.1024 4.928 53.7984 4.752C53.4997 4.576 53.121 4.488 52.6624 4.488C52.305 4.488 51.9797 4.54933 51.6864 4.672C51.3984 4.78933 51.1504 4.97067 50.9424 5.216C50.7344 5.46133 50.5717 5.77067 50.4544 6.144C50.3424 6.512 50.2864 6.94667 50.2864 7.448L49.3504 7.16C49.3504 6.32267 49.4997 5.60533 49.7984 5.008C50.1024 4.40533 50.5264 3.944 51.0704 3.624C51.6197 3.29867 52.265 3.136 53.0064 3.136C53.5664 3.136 54.0437 3.224 54.4384 3.4C54.833 3.576 55.161 3.81067 55.4224 4.104C55.6837 4.392 55.889 4.71733 56.0384 5.08C56.1877 5.43733 56.2917 5.80267 56.3504 6.176C56.4144 6.544 56.4464 6.89333 56.4464 7.224V12H55.0064ZM48.8464 12V0.48H50.1264V6.84H50.2864V12H48.8464ZM62.5534 7.92C62.2814 7.92 62.0494 7.82933 61.8574 7.648C61.6654 7.46133 61.5694 7.232 61.5694 6.96C61.5694 6.68267 61.6654 6.45333 61.8574 6.272C62.0494 6.09067 62.2814 6 62.5534 6C62.8094 6 63.028 6.09067 63.2094 6.272C63.396 6.45333 63.4894 6.68267 63.4894 6.96C63.4894 7.232 63.396 7.46133 63.2094 7.648C63.028 7.82933 62.8094 7.92 62.5534 7.92ZM68.7683 12L68.7763 0.48H70.2163V7.52L73.8403 3.36H75.6883L71.8723 7.68L76.1363 12H74.1443L70.2163 7.84V12H68.7683ZM79.3885 12L76.0525 0.48H77.5405L80.1005 9.592L82.6525 0.488L84.1485 0.48L86.7085 9.592L89.2605 0.48H90.7565L87.4205 12H85.9965L83.4045 2.968L80.8125 12H79.3885Z" fill="#4F4F4F"/>
</svg>
