<svg width="24" height="24" viewBox="0 0 24 24" fill="none" xmlns="http://www.w3.org/2000/svg">
<path d="M16.6577 10.4886C16.8787 10.2661 17.099 10.0462 17.3187 9.82905C17.5634 9.58717 17.9524 9.67858 18.0818 9.98983C18.1784 10.2219 18.0706 10.4065 17.9037 10.572C17.449 11.022 17.0165 11.4534 16.6062 11.8662C16.4396 12.0337 16.2566 12.0772 16.0573 11.9965C15.844 11.9103 15.7727 11.7125 15.7695 11.4884C15.7024 7.03483 11.5943 3.73295 7.20259 4.70233C6.06634 4.95295 5.05399 5.45827 4.16556 6.21827C3.02056 7.19795 2.26243 8.44608 1.89118 9.96264C1.81103 10.2903 1.43696 10.4276 1.16228 10.2298C0.963526 10.0864 0.945714 9.87592 1.00478 9.6453C1.20915 8.84873 1.5004 8.1342 1.87853 7.5017C3.41274 4.93577 6.16431 3.45686 9.16103 3.61108C12.9785 3.80748 16.1027 6.70014 16.6371 10.4815C16.6374 10.4838 16.6383 10.4859 16.6398 10.4876C16.6412 10.4894 16.6431 10.4907 16.6453 10.4914C16.6474 10.4922 16.6497 10.4923 16.6519 10.4918C16.6541 10.4913 16.6561 10.4902 16.6577 10.4886Z" fill="white"/>
<path d="M9.84481 10.5536C9.84481 10.5588 9.84583 10.564 9.84781 10.5688C9.84979 10.5736 9.85269 10.578 9.85634 10.5817C9.86 10.5854 9.86434 10.5884 9.86912 10.5904C9.87389 10.5924 9.87901 10.5934 9.88419 10.5934C10.6611 10.594 11.4234 10.594 12.1712 10.5934C12.5129 10.5934 12.7736 10.9436 12.6114 11.2665C11.6711 13.139 10.7345 15.0136 9.80169 16.8901C9.62966 17.2365 9.12575 17.2454 8.95559 16.8934C8.92153 16.8228 8.90465 16.7401 8.90497 16.6454C8.90684 15.6061 8.90716 14.5418 8.90591 13.4528C8.90591 13.4405 8.90102 13.4287 8.89231 13.42C8.88361 13.4113 8.87181 13.4064 8.8595 13.4064C8.08669 13.4064 7.32622 13.4064 6.57809 13.4064C6.242 13.4059 5.97575 13.0623 6.13794 12.7384C7.03169 10.9522 7.96872 9.07794 8.94903 7.11575C9.18669 6.6395 9.84669 6.83169 9.84528 7.34357C9.84309 8.48075 9.84294 9.55075 9.84481 10.5536Z" fill="white"/>
<path d="M1.45839 13.0787C1.23714 13.3015 1.02308 13.5153 0.816201 13.72C0.355889 14.1751 -0.299892 13.5114 0.151983 13.0604C0.613545 12.6001 1.06323 12.1495 1.50104 11.7086C1.56854 11.6404 1.63979 11.5912 1.71479 11.5609C1.92808 11.4746 2.19948 11.5862 2.29417 11.7906C2.32636 11.8606 2.34401 11.9568 2.34714 12.0793C2.3962 14.0584 3.12167 15.7253 4.52354 17.08C6.28276 18.7796 8.8187 19.4167 11.1957 18.7946C12.4351 18.4706 13.5143 17.8367 14.4334 16.8929C15.3115 15.9917 15.9075 14.8989 16.2212 13.6145C16.2621 13.4473 16.3598 13.3343 16.5142 13.2756C16.7757 13.1757 17.0865 13.337 17.1353 13.6145C17.1503 13.7004 17.1412 13.8079 17.1081 13.937C16.7606 15.2882 16.1268 16.4578 15.2068 17.4456C13.4373 19.3445 10.8704 20.2412 8.28011 19.8911C4.75276 19.4139 1.97401 16.6051 1.48136 13.0867C1.48103 13.0842 1.48001 13.0818 1.47842 13.0799C1.47683 13.0779 1.47472 13.0764 1.47233 13.0756C1.46995 13.0748 1.46738 13.0746 1.46492 13.0752C1.46246 13.0757 1.4602 13.0769 1.45839 13.0787Z" fill="white"/>
</svg>
