<svg width="40" height="40" viewBox="0 0 40 40" fill="none" xmlns="http://www.w3.org/2000/svg">
<path d="M12 29C7.28595 29 4.92893 29 3.46447 27.5355C2 26.0711 2 23.714 2 19C2 14.286 2 11.9289 3.46447 10.4645C4.92893 9 7.28595 9 12 9C16.714 9 19.0711 9 20.5355 10.4645C22 11.9289 22 14.286 22 19C22 23.714 22 26.0711 20.5355 27.5355C19.0711 29 16.714 29 12 29Z" stroke="#777777" stroke-width="1.5"/>
<path d="M5.5 15.7573C5.5 13.9584 7.067 12.5 9 12.5C10.933 12.5 12.5 13.9584 12.5 15.7573C12.5 17.5422 11.3829 19.625 9.64003 20.3698C9.23374 20.5434 8.76626 20.5434 8.35997 20.3698C6.61708 19.625 5.5 17.5422 5.5 15.7573Z" stroke="#777777" stroke-width="1.5"/>
<path d="M14.0004 20.9998L20.5004 27.4998M14.0004 20.9998L6.39453 28.6057M14.0004 20.9998L21.6072 13.3931" stroke="#777777" stroke-width="1.5" stroke-linecap="round"/>
<path d="M10 16C10 16.5523 9.55228 17 9 17C8.44772 17 8 16.5523 8 16C8 15.4477 8.44772 15 9 15C9.55228 15 10 15.4477 10 16Z" fill="#777777"/>
</svg>
