<svg width="40" height="40" viewBox="0 0 40 40" fill="none" xmlns="http://www.w3.org/2000/svg">
<path fill-rule="evenodd" clip-rule="evenodd" d="M13.3333 33.6667C20.6971 33.6667 26.6667 27.6971 26.6667 20.3333C26.6667 12.9695 20.6971 7 13.3333 7C5.96954 7 0 12.9695 0 20.3333C0 27.6971 5.96954 33.6667 13.3333 33.6667ZM13.3375 31.243C19.3624 31.243 24.2466 26.3588 24.2466 20.3339C24.2466 14.309 19.3624 9.4248 13.3375 9.4248C7.31255 9.4248 2.42839 14.309 2.42839 20.3339C2.42839 26.3588 7.31255 31.243 13.3375 31.243Z" fill="#F6F6F6"/>
<path d="M3.51418 19.2027C2.85084 19.2724 2.2111 19.3333 2 19.3333V21.6667H2.77871C4.44989 21.6667 6.09031 22.1209 7.52334 22.9807C10.3006 24.6471 12 27.6497 12 30.8886V31.6667H14.6667V30.8886C14.6667 27.6497 16.366 24.6471 19.1433 22.9807C20.5764 22.1209 22.2168 21.6667 23.888 21.6667H24.6667V19.3333L23.2431 19.191C21.9814 19.0648 20.7597 18.6877 19.5723 18.2432C18.0597 17.6769 15.7466 17 13.3333 17C10.876 17 8.5226 17.7019 7.01238 18.274C5.88072 18.7028 4.71771 19.0761 3.51418 19.2027Z" fill="#F6F6F6"/>
</svg>
