<svg width="24" height="24" viewBox="0 0 24 24" fill="none" xmlns="http://www.w3.org/2000/svg">
<g clip-path="url(#clip0_5123_3326)">
<path d="M6.13139 18.501C5.80295 18.9313 5.41257 19.2966 4.96025 19.5969C4.91571 19.6263 4.86235 19.6399 4.80941 19.6354C4.75646 19.6309 4.70725 19.6085 4.67028 19.5722C4.52201 19.4293 4.35122 19.3305 4.15791 19.2755C4.0462 19.243 3.95217 19.1688 3.89628 19.069C3.84039 18.9692 3.82717 18.852 3.85949 18.7427L4.25926 17.3941C4.28741 17.2952 4.25456 17.222 4.16072 17.1744C3.63146 16.9107 3.26923 16.7075 3.07404 16.5647C2.3965 16.0648 2.48096 15.7755 3.32741 15.6967C4.04811 15.6308 4.86172 15.6034 5.42758 15.0815C5.83861 14.7052 6.4833 14.285 6.28623 13.6396C5.93433 12.4997 4.78008 13.0985 4.01151 13.3072C3.92143 13.331 3.84542 13.3777 3.78348 13.4473L2.41527 15.0183C2.37419 15.0656 2.31819 15.0983 2.25603 15.1112C2.19388 15.1242 2.12909 15.1166 2.07181 15.0898C1.81281 14.9652 1.7002 14.73 1.73398 14.3839C1.77152 14.0104 1.80061 13.6322 1.82126 13.2496C1.82501 13.1617 1.78466 13.1067 1.7002 13.0848L0.210936 12.681C0.149499 12.6646 0.0954113 12.6287 0.0571868 12.5789C0.0189624 12.5292 -0.00122832 12.4685 -0.000207232 12.4064L0.00823856 11.5961C0.00815648 11.5253 0.0320603 11.4563 0.0762928 11.3998C0.120525 11.3432 0.182651 11.3022 0.253165 11.283L1.63545 10.9095C1.74806 10.8784 1.80436 10.8051 1.80436 10.6898L1.7931 9.59662C1.7856 8.67194 2.08683 8.56299 2.6968 9.26978L3.76096 10.503C3.82289 10.5744 3.89984 10.6257 3.99181 10.6568C4.62524 10.8628 6.30875 11.467 6.33972 10.1954C6.3538 9.61859 5.81609 9.25055 5.40506 8.86054C4.66465 8.15742 3.32459 8.56666 2.80941 8.1327C2.52037 7.891 2.54008 7.68043 2.86853 7.50099L4.16354 6.79237C4.25175 6.74293 4.28178 6.67061 4.25363 6.57539L3.84823 5.2131C3.82195 5.12704 3.83978 5.04922 3.90172 4.97964C4.13069 4.72146 4.41691 4.52371 4.76037 4.38638C4.85609 4.34793 4.94711 4.358 5.03345 4.41659C5.44447 4.69308 5.78981 5.03548 6.06946 5.44381C6.10507 5.49715 6.16043 5.53509 6.22426 5.54989C6.28808 5.56469 6.35556 5.55524 6.41292 5.52346L7.40388 4.9659C8.1152 4.56491 8.35919 4.74984 8.13585 5.52071C7.94441 6.17714 7.49116 6.7704 7.58687 7.51472C7.65256 8.02375 7.7708 8.42109 7.94159 8.70673C8.25409 9.23133 9.24787 9.36041 9.50687 8.70124C9.68517 8.24897 9.82687 7.7848 9.93197 7.30873C9.95074 7.22084 9.94417 7.13569 9.91226 7.0533L9.31825 5.50698C9.2818 5.41364 9.27625 5.3115 9.30238 5.21493C9.3285 5.11835 9.38498 5.03219 9.46388 4.96854C9.54279 4.9049 9.64015 4.86697 9.74228 4.8601C9.84442 4.85322 9.9462 4.87773 10.0333 4.9302L10.9849 5.49874C11.0498 5.53787 11.1266 5.55354 11.2018 5.54298C11.277 5.53243 11.3458 5.49633 11.3959 5.44106L12.232 4.52096C12.2732 4.47533 12.3234 4.43826 12.3796 4.41195C12.4358 4.38564 12.4968 4.37063 12.5591 4.36781C12.6213 4.36499 12.6835 4.37442 12.742 4.39554C12.8004 4.41666 12.8539 4.44904 12.8992 4.49075C13.0062 4.58963 13.1254 4.65554 13.2568 4.6885C13.3175 4.70444 13.3744 4.73195 13.4241 4.76944C13.4738 4.80693 13.5153 4.85363 13.5462 4.90683C13.5771 4.96002 13.5969 5.01863 13.6042 5.07924C13.6115 5.13984 13.6064 5.20122 13.589 5.25979L13.2061 6.56166C13.1779 6.65871 13.208 6.73195 13.2962 6.78139L14.7207 7.58888C14.8633 7.66944 14.8934 7.78022 14.8108 7.92121C14.7151 8.07868 14.5283 8.17664 14.2506 8.2151C13.4651 8.32496 12.5248 8.39362 11.9336 8.96766C11.6155 9.27802 11.165 9.60486 11.1256 10.0553C11.0018 11.489 12.812 10.8848 13.4735 10.6458C13.5618 10.6147 13.6359 10.5643 13.696 10.4947L15.0726 8.92371C15.108 8.88192 15.1575 8.85357 15.2125 8.84355C15.2674 8.83353 15.3245 8.84245 15.3738 8.86878C15.8524 9.1297 15.6244 10.102 15.6638 10.7392C15.6694 10.8198 15.7117 10.871 15.7905 10.893L17.26 11.305C17.3877 11.3398 17.4515 11.4213 17.4515 11.5494L17.4543 12.4283C17.4544 12.4836 17.4357 12.5374 17.4012 12.5816C17.3666 12.6257 17.318 12.6578 17.2629 12.6728L15.8271 13.0738C15.7032 13.1067 15.6422 13.1864 15.6441 13.3127L15.6638 14.3976C15.6807 15.3186 15.3851 15.4276 14.777 14.7245L13.7185 13.4995C13.6565 13.4281 13.5805 13.375 13.4904 13.3402C12.8279 13.0893 12.3418 12.9639 12.0321 12.9639C11.4325 12.9667 10.9905 13.472 11.1369 14.0433C11.227 14.4086 11.7478 14.8343 12.0378 15.098C12.6149 15.6198 13.5721 15.661 14.335 15.7187C14.7517 15.7517 14.8915 15.9604 14.7545 16.3449C14.7301 16.4163 14.5893 16.5152 14.3322 16.6416C13.9775 16.8155 13.6274 17.0005 13.2821 17.1964C13.2014 17.2422 13.1742 17.3099 13.2005 17.3996L13.6002 18.7372C13.6165 18.7908 13.6217 18.8469 13.6155 18.9025C13.6092 18.958 13.5917 19.0118 13.5639 19.0606C13.5361 19.1095 13.4986 19.1524 13.4536 19.187C13.4086 19.2215 13.357 19.2469 13.3018 19.2618C13.1479 19.3039 13.0081 19.3781 12.8823 19.4843C12.7866 19.5647 12.6621 19.605 12.5361 19.5962C12.41 19.5875 12.2926 19.5304 12.2095 19.4376L11.4269 18.5669C11.3738 18.5073 11.3009 18.4678 11.2206 18.4552C11.1404 18.4427 11.058 18.4579 10.9877 18.4982L10.0418 19.0311C9.2366 19.487 8.99825 19.2893 9.32669 18.4378L9.93197 16.875C9.96388 16.7926 9.96669 16.7093 9.94042 16.6251C9.74335 15.9934 9.56318 14.3482 8.37233 14.9002C7.78113 15.1749 7.6657 16.0703 7.51931 16.669C7.49905 16.7549 7.50592 16.8449 7.53901 16.9272C7.76799 17.493 7.98758 18.0561 8.19778 18.6164C8.26722 18.7995 8.27755 18.9395 8.22875 19.0366C8.17432 19.1428 8.07016 19.205 7.91626 19.2233C7.83555 19.2343 7.76048 19.2197 7.69104 19.1794L6.41292 18.4461C6.30218 18.382 6.20834 18.4003 6.13139 18.501Z" fill="#909090"/>
</g>
<defs>
<clipPath id="clip0_5123_3326">
<rect width="24" height="24" fill="white"/>
</clipPath>
</defs>
</svg>
