<svg width="24" height="24" viewBox="0 0 24 24" fill="none" xmlns="http://www.w3.org/2000/svg">
<path d="M6.6001 16.7998C3.77167 16.7998 2.35746 16.7998 1.47878 15.9211C0.600098 15.0424 0.600098 13.6282 0.600098 10.7998C0.600098 7.97138 0.600098 6.55716 1.47878 5.67848C2.35746 4.7998 3.77167 4.7998 6.6001 4.7998C9.42853 4.7998 10.8427 4.7998 11.7214 5.67848C12.6001 6.55716 12.6001 7.97138 12.6001 10.7998C12.6001 13.6282 12.6001 15.0424 11.7214 15.9211C10.8427 16.7998 9.42853 16.7998 6.6001 16.7998Z" stroke="white" stroke-width="1.2"/>
<path d="M7.45362 14.0169L9.56087 8.51739C9.72983 8.07644 9.32336 7.66997 8.88241 7.83893L3.38294 9.94619C2.88467 10.1371 2.86847 10.8358 3.35886 10.9848L5.44504 11.6187C5.60729 11.668 5.7318 11.7925 5.7811 11.9548L6.41501 14.0409C6.56402 14.5313 7.26269 14.5151 7.45362 14.0169Z" stroke="white" stroke-width="1.2"/>
</svg>
