<svg width="40" height="40" viewBox="0 0 40 40" fill="none" xmlns="http://www.w3.org/2000/svg">
<g clip-path="url(#clip0_4987_3199)">
<path d="M10.2189 30.8351C9.6715 31.5523 9.02087 32.1611 8.26701 32.6616C8.19276 32.7106 8.10384 32.7333 8.0156 32.7258C7.92736 32.7183 7.84534 32.681 7.78372 32.6204C7.53661 32.3823 7.25195 32.2175 6.92976 32.126C6.74359 32.0718 6.58686 31.9482 6.49371 31.7818C6.40056 31.6155 6.37853 31.42 6.4324 31.2379L7.09868 28.9903C7.1456 28.8255 7.09086 28.7034 6.93446 28.6241C6.05235 28.1847 5.44863 27.8459 5.12332 27.6079C3.99409 26.7747 4.13485 26.2926 5.5456 26.1613C6.74677 26.0515 8.10278 26.0057 9.04589 25.136C9.73093 24.5088 10.8054 23.8085 10.477 22.7327C9.89046 20.833 7.96671 21.8309 6.68578 22.1788C6.53563 22.2185 6.40894 22.2963 6.30572 22.4123L4.02537 25.0307C3.9569 25.1095 3.86356 25.164 3.75998 25.1855C3.65639 25.207 3.5484 25.1944 3.45294 25.1497C3.02127 24.9422 2.83358 24.55 2.88989 23.9732C2.95245 23.3507 3.00094 22.7205 3.03534 22.0827C3.0416 21.9362 2.97435 21.8447 2.83359 21.808L0.351479 21.1351C0.249083 21.1077 0.158937 21.0479 0.09523 20.965C0.0315226 20.8821 -0.00212857 20.7809 -0.000426767 20.6774L0.0136495 19.327C0.0135128 19.2089 0.0533524 19.0939 0.127073 18.9997C0.200794 18.9055 0.304337 18.8371 0.42186 18.8051L2.72567 18.1826C2.91335 18.1307 3.00719 18.0086 3.00719 17.8164L2.98842 15.9945C2.97591 14.4533 3.47796 14.2718 4.49458 15.4497L6.26818 17.5051C6.37141 17.6241 6.49966 17.7095 6.65293 17.7614C7.70865 18.1047 10.5145 19.1118 10.5661 16.9924C10.5896 16.0311 9.6934 15.4177 9.00835 14.7677C7.77434 13.5958 5.54091 14.2779 4.68226 13.5546C4.20054 13.1518 4.23339 12.8008 4.78079 12.5017L6.93915 11.3207C7.08617 11.2383 7.13622 11.1178 7.08929 10.9591L6.41364 8.6886C6.36984 8.54516 6.39956 8.41546 6.50279 8.2995C6.88441 7.8692 7.36144 7.53961 7.93387 7.31073C8.0934 7.24665 8.24511 7.26343 8.389 7.36109C9.07404 7.8219 9.6496 8.39258 10.1157 9.07311C10.175 9.16201 10.2673 9.22525 10.3737 9.24992C10.4801 9.27459 10.5925 9.25883 10.6881 9.20587L12.3397 8.27661C13.5253 7.60828 13.9319 7.9165 13.5597 9.20129C13.2406 10.2953 12.4852 11.2841 12.6447 12.5246C12.7542 13.373 12.9513 14.0352 13.2359 14.5113C13.7567 15.3856 15.413 15.6008 15.8447 14.5022C16.1419 13.7484 16.378 12.9748 16.5532 12.1813C16.5845 12.0348 16.5735 11.8929 16.5204 11.7556L15.5303 9.1784C15.4696 9.02283 15.4603 8.85261 15.5039 8.69165C15.5474 8.53069 15.6416 8.38708 15.7731 8.28101C15.9046 8.17493 16.0668 8.11172 16.2371 8.10026C16.4073 8.0888 16.5769 8.12966 16.7221 8.2171L18.308 9.16467C18.4162 9.22988 18.5443 9.25599 18.6696 9.23841C18.795 9.22082 18.9095 9.16066 18.9931 9.06854L20.3866 7.53504C20.4553 7.45899 20.5389 7.3972 20.6326 7.35335C20.7262 7.3095 20.8279 7.28448 20.9317 7.27978C21.0354 7.27508 21.1391 7.2908 21.2365 7.326C21.3339 7.36121 21.4231 7.41517 21.4986 7.48468C21.6769 7.64948 21.8756 7.75934 22.0945 7.81427C22.1957 7.84083 22.2905 7.88669 22.3733 7.94917C22.4562 8.01165 22.5254 8.08949 22.5769 8.17814C22.6285 8.2668 22.6613 8.36449 22.6736 8.4655C22.6858 8.5665 22.6772 8.6688 22.6482 8.76641L22.0101 10.9362C21.9632 11.0979 22.0132 11.22 22.1602 11.3024L24.5344 12.6482C24.7722 12.7825 24.8222 12.9671 24.6846 13.2021C24.525 13.4646 24.2138 13.6278 23.7508 13.6919C22.4418 13.875 20.8746 13.9895 19.8893 14.9462C19.3591 15.4635 18.6083 16.0082 18.5426 16.7589C18.3362 19.1484 21.3532 18.1414 22.4558 17.7431C22.6028 17.6912 22.7264 17.6073 22.8265 17.4913L25.1209 14.873C25.18 14.8033 25.2624 14.7561 25.354 14.7394C25.4457 14.7226 25.5407 14.7375 25.623 14.7814C26.4206 15.2163 26.0406 16.8367 26.1063 17.8988C26.1156 18.033 26.186 18.1185 26.3174 18.1551L28.7667 18.8417C28.9794 18.8997 29.0857 19.0355 29.0857 19.2492L29.0904 20.714C29.0906 20.8061 29.0595 20.8958 29.0019 20.9694C28.9442 21.043 28.8633 21.0964 28.7714 21.1214L26.3784 21.7897C26.172 21.8447 26.0703 21.9774 26.0734 22.188L26.1063 23.9961C26.1344 25.5312 25.6417 25.7127 24.6283 24.5409L22.864 22.4993C22.7608 22.3802 22.6341 22.2917 22.484 22.2338C21.3798 21.8157 20.5696 21.6066 20.0535 21.6066C19.0541 21.6112 18.3174 22.4535 18.5614 23.4056C18.7116 24.0144 19.5796 24.724 20.0629 25.1634C21.0247 26.0332 22.6201 26.1018 23.8916 26.198C24.586 26.2529 24.8191 26.6008 24.5907 27.2417C24.5501 27.3607 24.3155 27.5255 23.8869 27.736C23.2957 28.026 22.7123 28.3342 22.1368 28.6607C22.0023 28.737 21.9569 28.8499 22.0007 28.9995L22.667 31.2288C22.6941 31.318 22.7027 31.4117 22.6923 31.5042C22.6819 31.5968 22.6527 31.6864 22.6064 31.7678C22.5601 31.8492 22.4976 31.9208 22.4226 31.9784C22.3476 32.0359 22.2616 32.0783 22.1696 32.1031C21.9131 32.1733 21.6801 32.2969 21.4705 32.4739C21.3109 32.608 21.1034 32.6751 20.8934 32.6605C20.6833 32.6459 20.4876 32.5508 20.3491 32.3961L19.0447 30.945C18.9563 30.8456 18.8347 30.7797 18.701 30.7588C18.5673 30.7379 18.4299 30.7633 18.3127 30.8305L16.7362 31.7186C15.3943 32.4785 14.997 32.1489 15.5444 30.7298L16.5532 28.1251C16.6064 27.9878 16.6111 27.849 16.5673 27.7086C16.2388 26.6557 15.9385 23.9137 13.9538 24.8338C12.9685 25.2916 12.7761 26.7839 12.5321 27.7818C12.4983 27.9249 12.5098 28.0749 12.5649 28.2121C12.9466 29.1551 13.3125 30.0935 13.6629 31.0274C13.7786 31.3325 13.7958 31.566 13.7145 31.7277C13.6238 31.9047 13.4502 32.0085 13.1937 32.039C13.0592 32.0573 12.9341 32.0329 12.8183 31.9658L10.6881 30.7435C10.5036 30.6367 10.3472 30.6672 10.2189 30.8351Z" fill="#909090"/>
</g>
<defs>
<clipPath id="clip0_4987_3199">
<rect width="40" height="40" fill="white"/>
</clipPath>
</defs>
</svg>
