<svg width="64" height="9" viewBox="0 0 64 9" fill="none" xmlns="http://www.w3.org/2000/svg">
<path d="M0.574375 9V0.36H1.54638L4.81038 7.242L8.05638 0.36H9.04038V8.994H8.02638V2.706L5.09238 9H4.52238L1.58838 2.706V9H0.574375ZM10.7228 9V0.36H14.1368C14.2208 0.36 14.3208 0.364 14.4368 0.372C14.5528 0.376 14.6648 0.388 14.7728 0.408C15.2408 0.48 15.6328 0.64 15.9488 0.887999C16.2688 1.136 16.5088 1.45 16.6688 1.83C16.8288 2.206 16.9088 2.624 16.9088 3.084C16.9088 3.54 16.8268 3.958 16.6628 4.338C16.5028 4.714 16.2628 5.028 15.9428 5.28C15.6268 5.528 15.2368 5.688 14.7728 5.76C14.6648 5.776 14.5528 5.788 14.4368 5.796C14.3208 5.804 14.2208 5.808 14.1368 5.808H11.7908V9H10.7228ZM11.7908 4.794H14.1008C14.1768 4.794 14.2628 4.79 14.3588 4.782C14.4588 4.774 14.5528 4.76 14.6408 4.74C14.9168 4.676 15.1408 4.56 15.3128 4.392C15.4888 4.22 15.6168 4.02 15.6968 3.792C15.7768 3.56 15.8168 3.324 15.8168 3.084C15.8168 2.844 15.7768 2.61 15.6968 2.382C15.6168 2.15 15.4888 1.948 15.3128 1.776C15.1408 1.604 14.9168 1.488 14.6408 1.428C14.5528 1.404 14.4588 1.39 14.3588 1.386C14.2628 1.378 14.1768 1.374 14.1008 1.374H11.7908V4.794ZM18.1056 9V0.36H19.1736V4.17H23.7216V0.36H24.7896V9H23.7216V5.184H19.1736V9H18.1056ZM29.4932 5.94C29.2892 5.94 29.1152 5.872 28.9712 5.736C28.8272 5.596 28.7552 5.424 28.7552 5.22C28.7552 5.012 28.8272 4.84 28.9712 4.704C29.1152 4.568 29.2892 4.5 29.4932 4.5C29.6852 4.5 29.8492 4.568 29.9852 4.704C30.1252 4.84 30.1952 5.012 30.1952 5.22C30.1952 5.424 30.1252 5.596 29.9852 5.736C29.8492 5.872 29.6852 5.94 29.4932 5.94ZM34.1603 9V0.36H35.2283V4.416L39.0083 0.36H40.3523L36.4283 4.554L40.6583 9H39.2783L35.2283 4.776V9H34.1603ZM41.4963 9V0.36H42.4683L45.7323 7.242L48.9783 0.36H49.9623V8.994H48.9483V2.706L46.0143 9H45.4443L42.5103 2.706V9H41.4963ZM53.8287 0.36H54.9147L52.6107 9H51.5247L53.8287 0.36ZM56.4728 9V0.36H57.5408V4.17H62.0888V0.36H63.1568V9H62.0888V5.184H57.5408V9H56.4728Z" fill="white"/>
</svg>
