<svg width="40" height="40" viewBox="0 0 40 40" fill="none" xmlns="http://www.w3.org/2000/svg">
<g clip-path="url(#clip0_4988_1521)">
<rect x="0.82666" y="12.7438" width="36.3636" height="14.876" rx="2.5" fill="#909090"/>
<path d="M20.6193 20.7018C20.6138 20.7018 20.6083 20.7029 20.6032 20.7051C20.5981 20.7073 20.5935 20.7105 20.5895 20.7146C20.5856 20.7186 20.5825 20.7234 20.5804 20.7287C20.5783 20.734 20.5772 20.7397 20.5772 20.7454C20.5765 21.6051 20.5765 22.4488 20.5772 23.2764C20.5772 23.6546 20.2067 23.943 19.865 23.7635C17.8839 22.7229 15.9006 21.6864 13.9152 20.6541C13.5487 20.4637 13.5393 19.906 13.9117 19.7177C13.9864 19.68 14.0739 19.6614 14.1741 19.6617C15.2737 19.6638 16.3997 19.6641 17.5519 19.6627C17.565 19.6627 17.5774 19.6573 17.5867 19.6477C17.5959 19.6381 17.601 19.625 17.601 19.6114C17.601 18.7561 17.601 17.9145 17.601 17.0866C17.6015 16.7147 17.9651 16.42 18.3078 16.5995C20.1976 17.5886 22.1806 18.6256 24.2566 19.7105C24.7605 19.9735 24.5571 20.7039 24.0156 20.7023C22.8124 20.6999 21.6803 20.6997 20.6193 20.7018Z" fill="white"/>
<path d="M38.0166 17.4771C38.0166 17.1451 38.2857 16.876 38.6177 16.876C39.1986 16.876 39.6695 17.347 39.6695 17.9279V22.4358C39.6695 23.0167 39.1986 23.4876 38.6177 23.4876C38.2857 23.4876 38.0166 23.2185 38.0166 22.8866V17.4771Z" fill="#909090"/>
</g>
<defs>
<clipPath id="clip0_4988_1521">
<rect width="40" height="16" fill="white" transform="translate(0 12)"/>
</clipPath>
</defs>
</svg>
