<svg width="40" height="40" viewBox="0 0 40 40" fill="none" xmlns="http://www.w3.org/2000/svg">
<path d="M22.5023 25.1463C22.5023 25.1463 21.4903 25.1359 19.9876 25.2202C14.9793 25.5009 10.1139 25.4643 5.39121 25.1104C4.69515 25.0582 4.60466 25.093 4.60466 25.093C4.60466 25.093 4.56859 25.9385 4.48127 26.1694C4.33826 26.5474 4.09126 26.7989 3.74028 26.9239C3.60022 26.9738 3.38803 26.9973 3.1037 26.9942C2.82021 26.9915 2.50635 27.0229 2.25134 26.9339C1.8413 26.7902 1.57616 26.4979 1.45593 26.057C1.27053 25.3775 1.18447 24.5843 1.13132 23.793C1.01742 22.1155 0.930725 20.4038 1.07753 18.7256C1.12731 18.1607 1.19902 17.7597 1.29268 17.5227C1.63754 16.6465 2.77212 16.119 3.55171 15.8003C3.57154 15.7923 3.57154 15.7838 3.55171 15.7749C3.34669 15.6847 3.20959 15.6408 3.1404 15.643C2.54748 15.6604 1.10601 15.892 1.31039 14.7627C1.43505 14.0759 2.57912 13.9956 3.07902 14.0063C3.10013 14.0068 3.12008 14.0156 3.13471 14.0311C3.34479 14.2547 3.44097 14.8123 3.50678 15.1175C3.50855 15.1259 3.51208 15.1337 3.51712 15.1404C3.52216 15.1471 3.52857 15.1526 3.53589 15.1564L3.89341 15.3445C3.92083 15.3592 3.93897 15.3507 3.94783 15.319C4.47178 13.3992 5.71266 11.4445 7.71542 11.0656C7.95082 11.0214 8.3712 10.9996 8.97656 11C11.9932 11.0022 15.0097 11.0022 18.026 11C18.6174 10.9996 19.0378 11.0254 19.2871 11.0777C21.2304 11.4847 22.5055 13.4587 23.0819 15.313C23.0887 15.3349 23.1026 15.3429 23.1237 15.3371C23.3173 15.2815 23.5407 15.1784 23.59 14.9736C23.659 14.6864 23.7134 14.3491 23.8539 14.0913C23.8682 14.0651 23.8887 14.0433 23.9135 14.0281C23.9383 14.0129 23.9664 14.005 23.995 14.005C24.4766 14.0043 25.8434 14.1027 25.7326 14.9435C25.6921 15.2548 25.4802 15.5821 25.1606 15.6008C24.8143 15.6209 24.3766 15.6334 23.8476 15.6383C23.6797 15.6397 23.5147 15.6854 23.3527 15.7756C23.3321 15.7876 23.3329 15.7979 23.3553 15.8063C23.9028 16.0134 24.4257 16.299 24.924 16.6632C25.2979 16.9363 25.5536 17.275 25.6675 17.7383C25.8415 18.4438 25.9206 19.1929 25.956 19.9881C26.0142 21.2859 26.0147 22.583 25.9573 23.8794C25.9244 24.6117 25.8225 25.3956 25.6542 26.0382C25.5453 26.4551 25.3097 26.7411 24.9474 26.8964C24.8006 26.9593 24.5909 26.9919 24.3184 26.9942C23.766 26.9982 23.3597 27.0544 22.9547 26.7143C22.5403 26.3656 22.5441 25.8997 22.5023 25.3909C22.5002 25.365 22.5023 25.1463 22.5023 25.1463ZM19.5162 11.8749C19.1863 11.7205 18.7845 11.6433 18.3107 11.6433C15.0097 11.642 11.7087 11.6366 8.40769 11.6272C6.90166 11.6232 5.97843 12.9815 5.46841 14.3009C5.35641 14.5907 5.33996 14.8859 5.60699 15.058C5.69431 15.1142 5.82614 15.1385 6.00248 15.1309C9.85613 14.9642 13.594 14.9703 17.583 15.0339C18.7621 15.0526 19.8343 15.0876 20.7995 15.139C20.9606 15.1474 21.0819 15.1329 21.1633 15.0954C21.4943 14.9428 21.4772 14.6061 21.3658 14.2727C21.0469 13.3175 20.4135 12.2953 19.5162 11.8749ZM21.1133 19.5691C21.1133 19.5691 23.3458 19.7164 23.6628 19.5845C23.9748 19.4539 24.3918 19.3328 24.5348 19.0182C24.7373 18.5717 24.6316 18.0154 24.5879 17.5374C24.5858 17.5151 24.5744 17.5042 24.5538 17.5046C22.9978 17.5153 20.8925 17.8728 19.744 19.1146C19.7404 19.1185 19.7377 19.1232 19.7359 19.1283C19.7341 19.1334 19.7333 19.1389 19.7336 19.1443C19.7339 19.1497 19.7353 19.155 19.7376 19.1598C19.7399 19.1646 19.7432 19.1688 19.7472 19.1721C20.1412 19.5122 21.1133 19.5691 21.1133 19.5691ZM3.36061 19.618C3.36061 19.618 4.55359 19.7352 5.39754 19.7675C5.71245 19.7795 6.16553 19.6539 6.32836 19.624C6.60594 19.5736 6.85737 19.4466 7.08264 19.2431C7.10036 19.227 7.10141 19.2096 7.0858 19.1909C6.67703 18.6955 5.95629 18.3119 5.39754 18.1104C4.40491 17.7534 3.36483 17.5769 2.27729 17.5809C2.25746 17.5809 2.24733 17.5914 2.24691 17.6124C2.23932 18.1285 2.17098 18.739 2.41397 19.1032C2.58482 19.3602 3.36061 19.618 3.36061 19.618Z" fill="#F6F6F6"/>
</svg>
