<svg width="40" height="40" viewBox="0 0 40 40" fill="none" xmlns="http://www.w3.org/2000/svg">
<g clip-path="url(#clip0_5002_1907)">
<path d="M27.6078 9C20.6535 9 15 14.6535 15 21.6078C15 24.4065 15.9091 27.0001 17.4567 29.0938L18.5691 28.1087C17.2539 26.2816 16.4833 24.0355 16.4833 21.6078C16.4833 15.4551 21.4551 10.4833 27.6078 10.4833C33.7605 10.4833 38.7323 15.4551 38.7323 21.6078C38.7323 24.0355 37.9617 26.2816 36.6465 28.1087L37.7589 29.0938C39.3065 27.0001 40.2156 24.4065 40.2156 21.6078C40.2156 14.6535 34.5621 9 27.6078 9ZM27.6078 15.6747L25.7537 24.9452C25.7537 25.9692 26.5838 26.7993 27.6078 26.7993C28.6318 26.7993 29.4619 25.9692 29.4619 24.9452L27.6078 15.6747Z" fill="#F6F6F6"/>
</g>
<defs>
<clipPath id="clip0_5002_1907">
<rect width="40" height="40" fill="white"/>
</clipPath>
</defs>
</svg>
