<svg width="24" height="24" viewBox="0 0 24 24" fill="none" xmlns="http://www.w3.org/2000/svg">
<g clip-path="url(#clip0_5123_3396)">
<g filter="url(#filter0_f_5123_3396)">
<path d="M6.0001 16.1999C8.98244 16.1999 11.4001 13.7822 11.4001 10.7999C11.4001 7.81756 8.98244 5.3999 6.0001 5.3999C3.01776 5.3999 0.600098 7.81756 0.600098 10.7999C0.600098 13.7822 3.01776 16.1999 6.0001 16.1999Z" fill="#D0E1D3"/>
</g>
<path d="M6.00005 13.5001C7.49122 13.5001 8.70005 12.2913 8.70005 10.8001C8.70005 9.30893 7.49122 8.1001 6.00005 8.1001C4.50888 8.1001 3.30005 9.30893 3.30005 10.8001C3.30005 12.2913 4.50888 13.5001 6.00005 13.5001Z" fill="#00B200" stroke="#9FD69A" stroke-width="1.5"/>
</g>
<defs>
<filter id="filter0_f_5123_3396" x="-0.399902" y="4.3999" width="12.8" height="12.7998" filterUnits="userSpaceOnUse" color-interpolation-filters="sRGB">
<feFlood flood-opacity="0" result="BackgroundImageFix"/>
<feBlend mode="normal" in="SourceGraphic" in2="BackgroundImageFix" result="shape"/>
<feGaussianBlur stdDeviation="0.5" result="effect1_foregroundBlur_5123_3396"/>
</filter>
<clipPath id="clip0_5123_3396">
<rect width="24" height="24" fill="white"/>
</clipPath>
</defs>
</svg>
