<svg width="40" height="40" viewBox="0 0 40 40" fill="none" xmlns="http://www.w3.org/2000/svg">
<path fill-rule="evenodd" clip-rule="evenodd" d="M26.3333 33.6667C33.6971 33.6667 39.6667 27.6971 39.6667 20.3333C39.6667 12.9695 33.6971 7 26.3333 7C18.9695 7 13 12.9695 13 20.3333C13 27.6971 18.9695 33.6667 26.3333 33.6667ZM26.3375 31.243C32.3624 31.243 37.2466 26.3588 37.2466 20.3339C37.2466 14.309 32.3624 9.4248 26.3375 9.4248C20.3126 9.4248 15.4284 14.309 15.4284 20.3339C15.4284 26.3588 20.3126 31.243 26.3375 31.243Z" fill="#909090"/>
<path d="M16.5142 19.2027C15.8508 19.2724 15.2111 19.3333 15 19.3333V21.6667H15.7787C17.4499 21.6667 19.0903 22.1209 20.5233 22.9807C23.3006 24.6471 25 27.6497 25 30.8886V31.6667H27.6667V30.8886C27.6667 27.6497 29.366 24.6471 32.1433 22.9807C33.5764 22.1209 35.2168 21.6667 36.888 21.6667H37.6667V19.3333L36.2431 19.191C34.9814 19.0648 33.7597 18.6877 32.5723 18.2432C31.0597 17.6769 28.7466 17 26.3333 17C23.876 17 21.5226 17.7019 20.0124 18.274C18.8807 18.7028 17.7177 19.0761 16.5142 19.2027Z" fill="#909090"/>
</svg>
