<svg width="14" height="12" viewBox="0 0 14 12" fill="none" xmlns="http://www.w3.org/2000/svg">
<path d="M5.00478 9V5.754C5.00478 5.446 4.97678 5.15 4.92078 4.866C4.86878 4.582 4.77478 4.328 4.63878 4.104C4.50678 3.876 4.32678 3.696 4.09878 3.564C3.87478 3.432 3.59078 3.366 3.24678 3.366C2.97878 3.366 2.73478 3.412 2.51478 3.504C2.29878 3.592 2.11278 3.728 1.95678 3.912C1.80078 4.096 1.67878 4.328 1.59078 4.608C1.50678 4.884 1.46478 5.21 1.46478 5.586L0.762781 5.37C0.762781 4.742 0.874781 4.204 1.09878 3.756C1.32678 3.304 1.64478 2.958 2.05278 2.718C2.46478 2.474 2.94878 2.352 3.50478 2.352C3.92478 2.352 4.28278 2.418 4.57878 2.55C4.87478 2.682 5.12078 2.858 5.31678 3.078C5.51278 3.294 5.66678 3.538 5.77878 3.81C5.89078 4.078 5.96878 4.352 6.01278 4.632C6.06078 4.908 6.08478 5.17 6.08478 5.418V9H5.00478ZM0.384781 9V0.36H1.34478V5.13H1.46478V9H0.384781ZM10.6207 9.18C10.0127 9.18 9.50069 9.03 9.08469 8.73C8.66869 8.426 8.35269 8.016 8.13669 7.5C7.92469 6.98 7.81869 6.398 7.81869 5.754C7.81869 5.102 7.92469 4.518 8.13669 4.002C8.35269 3.486 8.66869 3.08 9.08469 2.784C9.50469 2.488 10.0187 2.34 10.6267 2.34C11.2267 2.34 11.7427 2.49 12.1747 2.79C12.6107 3.086 12.9447 3.492 13.1767 4.008C13.4087 4.524 13.5247 5.106 13.5247 5.754C13.5247 6.402 13.4087 6.984 13.1767 7.5C12.9447 8.016 12.6107 8.426 12.1747 8.73C11.7427 9.03 11.2247 9.18 10.6207 9.18ZM7.63869 11.88V2.52H8.59269V7.29H8.71269V11.88H7.63869ZM10.4887 8.202C10.9167 8.202 11.2707 8.094 11.5507 7.878C11.8307 7.662 12.0407 7.37 12.1807 7.002C12.3207 6.63 12.3907 6.214 12.3907 5.754C12.3907 5.298 12.3207 4.886 12.1807 4.518C12.0447 4.15 11.8327 3.858 11.5447 3.642C11.2607 3.426 10.8987 3.318 10.4587 3.318C10.0387 3.318 9.69069 3.422 9.41469 3.63C9.13869 3.834 8.93269 4.12 8.79669 4.488C8.66069 4.852 8.59269 5.274 8.59269 5.754C8.59269 6.226 8.65869 6.648 8.79069 7.02C8.92669 7.388 9.13469 7.678 9.41469 7.89C9.69469 8.098 10.0527 8.202 10.4887 8.202Z" fill="#4F4F4F"/>
</svg>
