<svg width="207" height="24" viewBox="0 0 207 24" fill="none" xmlns="http://www.w3.org/2000/svg">
<g clip-path="url(#clip0_2059_2938)">
<path d="M8.2909 8.30769L12.5107 2.15385C13.3019 1.01099 14.3568 0.439561 15.6316 0.439561C16.6865 0.439561 17.5656 0.791209 18.3129 1.53846C19.0601 2.28571 19.4557 3.16484 19.4557 4.17582C19.4557 4.92308 19.236 5.58242 18.8403 6.1978L15.0162 11.7363L19.6755 17.6703C20.159 18.2418 20.3788 18.9451 20.3788 19.7363C20.3788 20.7912 20.0272 21.6703 19.2799 22.4176C18.5327 23.1648 17.6535 23.5604 16.5986 23.5604C15.4557 23.5604 14.5766 23.2088 13.9612 22.4615L8.24694 15.3407V19.2967C8.24694 20.4396 8.07112 21.2747 7.67551 21.9341C6.97222 23.0769 5.91727 23.6484 4.55463 23.6484C3.32386 23.6484 2.35683 23.2528 1.69749 22.4176C1.08211 21.5385 0.774414 20.5275 0.774414 19.2528V4.65934C0.774414 3.47253 1.08211 2.46154 1.74145 1.67033C2.40079 0.879121 3.36782 0.439561 4.55463 0.439561C5.69749 0.439561 6.62057 0.879121 7.36782 1.67033C7.80738 2.10989 8.07112 2.59341 8.15903 3.03297C8.24694 3.34066 8.24694 3.86813 8.24694 4.65934V8.30769H8.2909ZM29.3019 5.0989V19.2088C29.3019 20.4396 28.9942 21.4506 28.3349 22.2418C27.6755 23.1209 26.7085 23.5604 25.5217 23.5604C24.4228 23.5604 23.4997 23.1648 22.7524 22.3297C22.1371 21.6703 21.7854 20.6154 21.7854 19.2088V5.0989C21.7854 3.51648 22.0931 2.37363 22.7524 1.67033C23.4997 0.835165 24.4228 0.439561 25.5656 0.439561C26.7085 0.439561 27.6316 0.835165 28.3349 1.62637C28.9942 2.37363 29.3019 3.51648 29.3019 5.0989ZM42.8403 0C45.6096 0 48.159 0.923077 50.4887 2.76923C52.2909 4.21978 53.214 5.75824 53.214 7.34066C53.214 8.65934 52.6425 9.71429 51.5436 10.4615C50.9283 10.9011 50.225 11.0769 49.4777 11.0769C48.8623 11.0769 48.2909 10.9451 47.7195 10.6374C47.4997 10.5055 46.9283 9.93407 46.0052 8.96703C45.17 8.04396 44.0711 7.56044 42.7964 7.56044C41.5656 7.56044 40.5107 8 39.6755 8.83517C38.8403 9.71429 38.4008 10.7692 38.4008 12C38.4008 13.2308 38.8403 14.2857 39.6755 15.1648C40.5107 16.044 41.5656 16.4396 42.7964 16.4396C43.8074 16.4396 44.7744 16.0879 45.6535 15.3846C46.181 14.8571 46.7524 14.3297 47.2799 13.8022C47.8513 13.3187 48.5986 13.0549 49.4777 13.0549C50.4887 13.0549 51.3678 13.4066 52.159 14.1099C52.9063 14.8132 53.3019 15.6923 53.3019 16.7033C53.3019 18.1099 52.4667 19.5165 50.8404 20.9231C48.5546 22.9451 45.9173 23.9121 42.8843 23.9121C41.0382 23.9121 39.2799 23.5165 37.6096 22.7253C35.5436 21.7143 33.8733 20.2637 32.6425 18.3297C31.4118 16.3956 30.7964 14.2857 30.7964 11.956C30.7964 8.52747 32.0711 5.58242 34.6206 3.16484C36.8623 1.0989 39.5876 0.0439561 42.8403 0ZM62.0931 8.30769L66.3129 2.15385C67.1041 1.01099 68.159 0.439561 69.4338 0.439561C70.4887 0.439561 71.3678 0.791209 72.1151 1.53846C72.8623 2.28571 73.2579 3.16484 73.2579 4.17582C73.2579 4.92308 73.0382 5.58242 72.6425 6.1978L68.8184 11.7363L73.4777 17.6703C73.9612 18.2418 74.181 18.9451 74.181 19.7363C74.181 20.7912 73.8294 21.6703 73.0821 22.4176C72.3349 23.1648 71.4557 23.5604 70.4008 23.5604C69.2579 23.5604 68.3788 23.2088 67.7634 22.4615L62.0491 15.3407V19.2967C62.0491 20.4396 61.8733 21.2747 61.4777 21.9341C60.7744 23.0769 59.7195 23.6484 58.3568 23.6484C57.1261 23.6484 56.159 23.2528 55.4997 22.4176C54.8843 21.6703 54.5327 20.6154 54.5327 19.3846V4.65934C54.5327 3.47253 54.8403 2.46154 55.4997 1.67033C56.2469 0.879121 57.17 0.439561 58.3568 0.439561C59.4997 0.439561 60.4228 0.835165 61.214 1.67033C61.6535 2.10989 61.9173 2.59341 62.0052 3.03297C62.0931 3.34066 62.0931 3.86813 62.0931 4.65934V8.30769Z" fill="white"/>
<path d="M78.8846 14.7692C79.7198 14.7692 80.5989 15.1209 81.5659 15.8681C82.7528 16.7912 83.544 17.2308 83.9835 17.2308C84.6429 17.2308 84.9506 16.8791 84.9506 16.2198C84.9506 15.8681 84.7747 15.5604 84.3791 15.2967C84.1594 15.1648 83.0605 14.7253 80.9945 14.022C77.6539 12.8352 75.9835 10.6813 75.9835 7.47253C75.9835 5.05495 76.8627 3.16484 78.6209 1.8022C80.2033 0.615385 82.0934 0 84.3791 0C86.3572 0 88.0714 0.483517 89.522 1.40659C90.9725 2.32967 91.7198 3.56044 91.7198 5.05495C91.7198 5.93407 91.4561 6.68132 90.8846 7.2967C90.3132 7.91209 89.6099 8.17583 88.7308 8.17583C87.8077 8.17583 86.7967 7.73626 85.6539 6.85714C84.9506 6.32967 84.4231 6.02198 84.0714 6.02198C83.4561 6.02198 83.1484 6.32967 83.1484 6.9011C83.1484 7.47253 83.8956 8 85.4341 8.43956C87.544 9.0989 89.1264 9.89011 90.2692 10.8571C91.8077 12.1319 92.555 13.8901 92.555 16.1758C92.555 18.6813 91.7198 20.6154 90.0055 22.022C88.4231 23.3407 86.3572 23.956 83.8077 23.956C81.2583 23.956 79.1484 23.2967 77.478 21.9341C76.1594 20.8352 75.4561 19.6044 75.4561 18.1538C75.4561 17.1868 75.7638 16.3956 76.4231 15.7363C77.1264 15.1209 77.9176 14.7692 78.8846 14.7692ZM98.9725 7.6044H96.9945C95.8956 7.6044 94.9725 7.2967 94.2692 6.72528C93.522 6.06593 93.1264 5.23077 93.1264 4.13187C93.1264 3.47253 93.3022 2.85714 93.6539 2.28571C94.0055 1.67033 94.489 1.27473 95.0605 1.01099C95.6319 0.747253 96.9945 0.615385 99.1484 0.615385H106.709C108.555 0.615385 109.786 0.747253 110.313 0.967033C110.929 1.23077 111.412 1.62637 111.764 2.24176C112.115 2.85714 112.335 3.47253 112.335 4.13187C112.335 5.18681 111.94 6.06593 111.104 6.81319C110.533 7.34066 109.566 7.64835 108.203 7.64835H106.489V18.989C106.489 20.2198 106.269 21.1868 105.874 21.8462C105.17 22.989 104.115 23.5604 102.797 23.5604C101.434 23.5604 100.423 23.033 99.6758 22.022C99.2363 21.3626 98.9725 20.3956 98.9725 19.0769V7.6044ZM117.214 20.4396C116.863 21.2747 116.511 21.9341 116.115 22.3297C115.368 23.1648 114.445 23.5604 113.346 23.5604C112.027 23.5604 110.973 23.033 110.269 21.978C109.83 21.3626 109.61 20.6154 109.61 19.8242C109.61 19.1648 109.786 18.5055 110.093 17.8462L117.214 2.68132C117.918 1.18681 119.06 0.483517 120.687 0.483517C122.313 0.483517 123.5 1.23077 124.203 2.76923L131.412 18.022C131.72 18.6374 131.852 19.2527 131.852 19.8242C131.852 20.7033 131.544 21.4945 130.973 22.1978C130.225 23.1209 129.258 23.5604 128.071 23.5604C127.104 23.5604 126.313 23.2527 125.654 22.6813C125.17 22.2418 124.687 21.4945 124.203 20.4835H117.214V20.4396ZM148.423 14.5934L150.181 17.4506C150.665 18.2418 150.929 19.033 150.929 19.8681C150.929 20.9231 150.577 21.8022 149.83 22.5055C149.082 23.2088 148.203 23.5604 147.148 23.5604C145.786 23.5604 144.775 22.989 144.071 21.8462L140.951 16.7033V19.7802C140.951 20.8352 140.599 21.7143 139.896 22.4615C139.192 23.2088 138.313 23.5604 137.258 23.5604C135.984 23.5604 134.973 23.1209 134.313 22.1538C133.698 21.3626 133.434 20.2637 133.434 18.9451V4.92308C133.434 2.02198 134.973 0.615385 138.093 0.615385H142.885C144.467 0.615385 145.918 1.05495 147.236 1.97802C148.599 2.9011 149.566 4.04396 150.181 5.49451C150.665 6.59341 150.885 7.69231 150.885 8.79121C150.885 10.8571 150.049 12.7912 148.423 14.5934ZM157.346 7.6044H155.368C154.269 7.6044 153.346 7.2967 152.643 6.72528C151.896 6.06593 151.5 5.23077 151.5 4.13187C151.5 3.47253 151.676 2.85714 152.027 2.28571C152.379 1.67033 152.863 1.27473 153.434 1.01099C154.006 0.747253 155.368 0.615385 157.522 0.615385H165.082C166.929 0.615385 168.159 0.747253 168.687 0.967033C169.302 1.23077 169.786 1.62637 170.137 2.24176C170.489 2.85714 170.709 3.47253 170.709 4.13187C170.709 5.18681 170.313 6.06593 169.478 6.81319C168.907 7.34066 167.94 7.64835 166.577 7.64835H164.863V18.989C164.863 20.2198 164.643 21.1868 164.247 21.8462C163.544 22.989 162.489 23.5604 161.17 23.5604C159.808 23.5604 158.797 23.033 158.049 22.022C157.61 21.3626 157.346 20.3956 157.346 19.0769V7.6044ZM179.588 16.3517H183.016C184.423 16.3517 185.478 16.6593 186.181 17.2308C186.973 17.9341 187.412 18.8132 187.412 19.9121C187.412 21.011 187.016 21.9341 186.181 22.5934C185.566 23.1209 184.511 23.3846 183.06 23.3846H177.214C175.852 23.3846 174.885 23.2967 174.357 23.0769C173.346 22.6813 172.687 21.978 172.379 21.0549C172.159 20.4396 172.071 19.4725 172.071 18.1099V5.71429C172.071 4.65934 172.115 4 172.159 3.64835C172.291 2.94506 172.555 2.32967 173.038 1.8022C173.566 1.23077 174.269 0.879121 175.06 0.703297C175.456 0.615385 176.247 0.615385 177.434 0.615385H181.918C183.148 0.615385 183.852 0.615385 184.071 0.659341C184.863 0.747253 185.522 0.967033 186.049 1.36264C186.973 2.06593 187.412 2.94506 187.412 4.04396C187.412 5.23077 187.016 6.15385 186.225 6.81319C185.522 7.38462 184.555 7.64835 183.324 7.64835H179.632V9.18681H182.577C183.456 9.18681 184.159 9.40659 184.731 9.89011C185.346 10.3736 185.61 11.033 185.61 11.9121C185.61 13.7143 184.511 14.6374 182.313 14.6374H179.632V16.3517H179.588ZM203.72 14.5934L205.478 17.4506C205.962 18.2418 206.225 19.033 206.225 19.8681C206.225 20.9231 205.874 21.8022 205.126 22.5055C204.379 23.2088 203.5 23.5604 202.445 23.5604C201.082 23.5604 200.071 22.989 199.368 21.8462L196.247 16.7033V19.7802C196.247 20.8352 195.896 21.7143 195.192 22.4615C194.489 23.2088 193.61 23.5604 192.555 23.5604C191.28 23.5604 190.269 23.1209 189.61 22.1538C188.995 21.3626 188.731 20.2637 188.731 18.9451V4.92308C188.731 2.02198 190.269 0.615385 193.39 0.615385H198.181C199.764 0.615385 201.214 1.05495 202.533 1.97802C203.896 2.9011 204.863 4.04396 205.478 5.49451C205.962 6.59341 206.181 7.69231 206.181 8.79121C206.181 10.8571 205.346 12.7912 203.72 14.5934Z" fill="#2E69FD"/>
</g>
<defs>
<clipPath id="clip0_2059_2938">
<rect width="205.451" height="24" fill="white" transform="translate(0.774414)"/>
</clipPath>
</defs>
</svg>
