<svg width="416" height="50" viewBox="0 0 416 50" fill="none" xmlns="http://www.w3.org/2000/svg">
<g clip-path="url(#clip0_2031_4626)">
<path d="M15.2195 17.5237L23.7638 5.0633C25.3659 2.74922 27.5019 1.59218 30.083 1.59218C32.2191 1.59218 33.9991 2.3042 35.5122 3.81725C37.0252 5.3303 37.8263 7.11036 37.8263 9.15743C37.8263 10.6705 37.3813 12.0055 36.5802 13.2516L28.837 24.466L38.2713 36.4814C39.2503 37.6384 39.6953 39.0624 39.6953 40.6645C39.6953 42.8006 38.9833 44.5806 37.4703 46.0937C35.9572 47.6067 34.1772 48.4078 32.0411 48.4078C29.727 48.4078 27.9469 47.6957 26.7009 46.1827L15.1305 31.7642V39.7745C15.1305 42.0885 14.7745 43.7796 13.9735 45.1146C12.5494 47.4287 10.4134 48.5858 7.65426 48.5858C5.16217 48.5858 3.20411 47.7847 1.86906 46.0937C0.623021 44.3136 0 42.2665 0 39.6855V10.1365C0 7.73339 0.623021 5.68632 1.95807 4.08426C3.29311 2.48221 5.25118 1.59218 7.65426 1.59218C9.96834 1.59218 11.8374 2.48221 13.3505 4.08426C14.2405 4.97429 14.7745 5.95333 14.9525 6.84336C15.1305 7.46638 15.1305 8.53441 15.1305 10.1365V17.5237H15.2195ZM57.763 11.0265V39.5965C57.763 42.0885 57.1399 44.1356 55.8049 45.7377C54.4698 47.5177 52.5118 48.4078 50.1087 48.4078C47.8836 48.4078 46.0146 47.6067 44.5015 45.9157C43.2555 44.5806 42.5434 42.4446 42.5434 39.5965V11.0265C42.5434 7.82239 43.1665 5.50831 44.5015 4.08426C46.0146 2.39321 47.8836 1.59218 50.1977 1.59218C52.5118 1.59218 54.3808 2.39321 55.8049 3.99526C57.1399 5.50831 57.763 7.82239 57.763 11.0265ZM85.1759 0.702148C90.7831 0.702148 95.9452 2.57121 100.662 6.30934C104.312 9.24644 106.181 12.3615 106.181 15.5656C106.181 18.2357 105.024 20.3718 102.798 21.8849C101.552 22.7749 100.128 23.1309 98.6153 23.1309C97.3693 23.1309 96.2122 22.8639 95.0552 22.2409C94.6102 21.9739 93.4532 20.8168 91.5841 18.8588C89.893 16.9897 87.668 16.0107 85.0869 16.0107C82.5948 16.0107 80.4587 16.9007 78.7677 18.5918C77.0766 20.3718 76.1866 22.5079 76.1866 25C76.1866 27.4921 77.0766 29.6281 78.7677 31.4082C80.4587 33.1882 82.5948 33.9893 85.0869 33.9893C87.1339 33.9893 89.092 33.2772 90.8721 31.8532C91.9401 30.7852 93.0971 29.7171 94.1652 28.6491C95.3222 27.6701 96.8353 27.136 98.6153 27.136C100.662 27.136 102.442 27.8481 104.045 29.2721C105.558 30.6962 106.359 32.4762 106.359 34.5233C106.359 37.3714 104.668 40.2195 101.374 43.0676C96.7463 47.1617 91.4061 49.1198 85.2649 49.1198C81.5268 49.1198 77.9666 48.3188 74.5845 46.7167C70.4014 44.6696 67.0193 41.7325 64.5272 37.8164C62.0351 33.9003 60.7891 29.6281 60.7891 24.911C60.7891 17.9687 63.3701 12.0055 68.5323 7.11036C73.0715 2.92722 78.5896 0.791151 85.1759 0.702148ZM124.159 17.5237L132.703 5.0633C134.306 2.74922 136.442 1.59218 139.023 1.59218C141.159 1.59218 142.939 2.3042 144.452 3.81725C145.965 5.3303 146.766 7.11036 146.766 9.15743C146.766 10.6705 146.321 12.0055 145.52 13.2516L137.777 24.466L147.211 36.4814C148.19 37.6384 148.635 39.0624 148.635 40.6645C148.635 42.8006 147.923 44.5806 146.41 46.0937C144.897 47.6067 143.117 48.4078 140.981 48.4078C138.667 48.4078 136.887 47.6957 135.641 46.1827L124.07 31.7642V39.7745C124.07 42.0885 123.714 43.7796 122.913 45.1146C121.489 47.4287 119.353 48.5858 116.594 48.5858C114.102 48.5858 112.144 47.7847 110.809 46.0937C109.563 44.5806 108.851 42.4446 108.851 39.9525V10.1365C108.851 7.73339 109.474 5.68632 110.809 4.08426C112.322 2.48221 114.191 1.59218 116.594 1.59218C118.908 1.59218 120.777 2.39321 122.379 4.08426C123.269 4.97429 123.803 5.95333 123.981 6.84336C124.159 7.46638 124.159 8.53441 124.159 10.1365V17.5237Z" fill="white"/>
<path d="M158.158 30.6072C159.849 30.6072 161.629 31.3192 163.587 32.8322C165.99 34.7013 167.592 35.5913 168.482 35.5913C169.817 35.5913 170.44 34.8793 170.44 33.5443C170.44 32.8322 170.084 32.2092 169.283 31.6752C168.838 31.4082 166.613 30.5182 162.43 29.0941C155.666 26.691 152.284 22.3299 152.284 15.8327C152.284 10.9375 154.064 7.11036 157.624 4.35127C160.828 1.94819 164.655 0.702148 169.283 0.702148C173.289 0.702148 176.76 1.68118 179.697 3.55024C182.634 5.41931 184.147 7.91139 184.147 10.9375C184.147 12.7176 183.613 14.2306 182.456 15.4766C181.299 16.7227 179.875 17.2567 178.095 17.2567C176.226 17.2567 174.179 16.3667 171.865 14.5866C170.44 13.5186 169.372 12.8956 168.66 12.8956C167.414 12.8956 166.791 13.5186 166.791 14.6756C166.791 15.8327 168.304 16.9007 171.42 17.7907C175.692 19.1258 178.896 20.7278 181.21 22.6859C184.325 25.267 185.838 28.8271 185.838 33.4552C185.838 38.5284 184.147 42.4446 180.676 45.2926C177.472 47.9627 173.289 49.2088 168.126 49.2088C162.964 49.2088 158.692 47.8737 155.31 45.1146C152.64 42.8896 151.216 40.3975 151.216 37.4604C151.216 35.5023 151.839 33.9003 153.174 32.5652C154.598 31.3192 156.2 30.6072 158.158 30.6072ZM198.832 16.0997H194.827C192.602 16.0997 190.733 15.4766 189.309 14.3196C187.796 12.9846 186.995 11.2935 186.995 9.06843C186.995 7.73338 187.351 6.48734 188.063 5.3303C188.775 4.08426 189.754 3.28324 190.911 2.74922C192.068 2.2152 194.827 1.94819 199.188 1.94819H214.497C218.235 1.94819 220.727 2.2152 221.795 2.66021C223.041 3.19423 224.02 3.99526 224.732 5.2413C225.444 6.48734 225.889 7.73338 225.889 9.06843C225.889 11.2045 225.088 12.9846 223.397 14.4976C222.24 15.5656 220.282 16.1887 217.523 16.1887H214.052V39.1514C214.052 41.6435 213.607 43.6016 212.806 44.9366C211.382 47.2507 209.246 48.4078 206.576 48.4078C203.817 48.4078 201.77 47.3397 200.256 45.2926C199.366 43.9576 198.832 41.9995 198.832 39.3294V16.0997ZM235.769 42.0885C235.057 43.7796 234.345 45.1146 233.544 45.9157C232.031 47.6067 230.161 48.4078 227.936 48.4078C225.266 48.4078 223.13 47.3397 221.706 45.2036C220.816 43.9576 220.371 42.4446 220.371 40.8425C220.371 39.5075 220.727 38.1724 221.35 36.8374L235.769 6.13133C237.193 3.10523 239.507 1.68118 242.8 1.68118C246.093 1.68118 248.496 3.19423 249.92 6.30934L264.517 37.1934C265.14 38.4394 265.407 39.6855 265.407 40.8425C265.407 42.6226 264.784 44.2246 263.627 45.6487C262.114 47.5177 260.155 48.4078 257.752 48.4078C255.794 48.4078 254.192 47.7847 252.857 46.6277C251.878 45.7377 250.899 44.2246 249.92 42.1775H235.769V42.0885ZM298.961 30.2511L302.521 36.0363C303.5 37.6384 304.034 39.2404 304.034 40.9315C304.034 43.0676 303.322 44.8476 301.809 46.2717C300.296 47.6957 298.516 48.4078 296.38 48.4078C293.621 48.4078 291.574 47.2507 290.149 44.9366L283.83 34.5233V40.7535C283.83 42.8896 283.118 44.6696 281.694 46.1827C280.27 47.6957 278.49 48.4078 276.354 48.4078C273.773 48.4078 271.726 47.5177 270.391 45.5597C269.145 43.9576 268.611 41.7325 268.611 39.0624V10.6705C268.611 4.79629 271.726 1.94819 278.045 1.94819H287.746C290.951 1.94819 293.888 2.83822 296.558 4.70728C299.317 6.57635 301.275 8.89042 302.521 11.8275C303.5 14.0526 303.945 16.2777 303.945 18.5027C303.945 22.6859 302.254 26.602 298.961 30.2511ZM317.028 16.0997H313.023C310.798 16.0997 308.929 15.4766 307.505 14.3196C305.992 12.9846 305.191 11.2935 305.191 9.06843C305.191 7.73338 305.547 6.48734 306.259 5.3303C306.971 4.08426 307.95 3.28324 309.107 2.74922C310.264 2.2152 313.023 1.94819 317.384 1.94819H332.693C336.431 1.94819 338.923 2.2152 339.991 2.66021C341.237 3.19423 342.216 3.99526 342.928 5.2413C343.64 6.48734 344.085 7.73338 344.085 9.06843C344.085 11.2045 343.284 12.9846 341.593 14.4976C340.436 15.5656 338.478 16.1887 335.719 16.1887H332.248V39.1514C332.248 41.6435 331.803 43.6016 331.002 44.9366C329.578 47.2507 327.442 48.4078 324.772 48.4078C322.013 48.4078 319.965 47.3397 318.452 45.2926C317.562 43.9576 317.028 41.9995 317.028 39.3294V16.0997ZM362.064 33.8113H369.006C371.854 33.8113 373.99 34.4343 375.414 35.5913C377.016 37.0154 377.906 38.7954 377.906 41.0205C377.906 43.2456 377.105 45.1146 375.414 46.4497C374.168 47.5177 372.032 48.0517 369.095 48.0517H357.258C354.499 48.0517 352.541 47.8737 351.473 47.4287C349.425 46.6277 348.09 45.2036 347.467 43.3346C347.022 42.0885 346.844 40.1305 346.844 37.3714V12.2725C346.844 10.1365 346.933 8.80142 347.022 8.0894C347.289 6.66535 347.823 5.41931 348.802 4.35127C349.87 3.19423 351.295 2.48221 352.897 2.1262C353.698 1.94819 355.3 1.94819 357.703 1.94819H366.781C369.273 1.94819 370.697 1.94819 371.142 2.03719C372.744 2.2152 374.079 2.66021 375.147 3.46124C377.016 4.88529 377.906 6.66535 377.906 8.89042C377.906 11.2935 377.105 13.1626 375.503 14.4976C374.079 15.6547 372.121 16.1887 369.629 16.1887H362.153V19.3038H368.116C369.896 19.3038 371.32 19.7488 372.477 20.7278C373.723 21.7069 374.257 23.0419 374.257 24.822C374.257 28.4711 372.032 30.3401 367.582 30.3401H362.153V33.8113H362.064ZM410.927 30.2511L414.487 36.0363C415.466 37.6384 416 39.2404 416 40.9315C416 43.0676 415.288 44.8476 413.775 46.2717C412.262 47.6957 410.482 48.4078 408.345 48.4078C405.586 48.4078 403.539 47.2507 402.115 44.9366L395.796 34.5233V40.7535C395.796 42.8896 395.084 44.6696 393.66 46.1827C392.236 47.6957 390.456 48.4078 388.32 48.4078C385.739 48.4078 383.692 47.5177 382.357 45.5597C381.111 43.9576 380.577 41.7325 380.577 39.0624V10.6705C380.577 4.79629 383.692 1.94819 390.011 1.94819H399.712C402.916 1.94819 405.853 2.83822 408.523 4.70728C411.283 6.57635 413.241 8.89042 414.487 11.8275C415.466 14.0526 415.911 16.2777 415.911 18.5027C415.911 22.6859 414.22 26.602 410.927 30.2511Z" fill="#2BDE73"/>
</g>
<defs>
<clipPath id="clip0_2031_4626">
<rect width="416" height="48.5956" fill="white" transform="translate(0 0.702148)"/>
</clipPath>
</defs>
</svg>
