<svg width="171" height="20" viewBox="0 0 171 20" fill="none" xmlns="http://www.w3.org/2000/svg">
<g clip-path="url(#clip0_2059_2938)">
<path d="M6.29867 6.92308L9.809 1.79487C10.4672 0.842491 11.3448 0.3663 12.4052 0.3663C13.2828 0.3663 14.0141 0.659341 14.6357 1.28205C15.2573 1.90476 15.5864 2.63736 15.5864 3.47985C15.5864 4.10256 15.4036 4.65202 15.0745 5.16484L11.8933 9.78022L15.7692 14.7253C16.1715 15.2015 16.3543 15.7875 16.3543 16.4469C16.3543 17.326 16.0618 18.0586 15.4401 18.6813C14.8185 19.304 14.0872 19.6337 13.2096 19.6337C12.2589 19.6337 11.5276 19.3407 11.0157 18.718L6.2621 12.7839V16.0806C6.2621 17.033 6.11584 17.7289 5.78675 18.2784C5.20169 19.2308 4.32411 19.707 3.19057 19.707C2.16672 19.707 1.36227 19.3773 0.813783 18.6813C0.30186 17.9487 0.0458984 17.1062 0.0458984 16.044V3.88278C0.0458984 2.89377 0.30186 2.05128 0.850349 1.39194C1.39884 0.732601 2.20329 0.3663 3.19057 0.3663C4.14128 0.3663 4.90916 0.732601 5.53079 1.39194C5.89644 1.75824 6.11584 2.16117 6.18897 2.52747C6.2621 2.78388 6.2621 3.22344 6.2621 3.88278V6.92308H6.29867ZM23.7772 4.24908V16.0073C23.7772 17.033 23.5212 17.8755 22.9727 18.5348C22.4242 19.2674 21.6198 19.6337 20.6325 19.6337C19.7184 19.6337 18.9505 19.304 18.3289 18.6081C17.8169 18.0586 17.5244 17.1795 17.5244 16.0073V4.24908C17.5244 2.9304 17.7804 1.97802 18.3289 1.39194C18.9505 0.695971 19.7184 0.3663 20.6691 0.3663C21.6198 0.3663 22.3877 0.695971 22.9727 1.35531C23.5212 1.97802 23.7772 2.9304 23.7772 4.24908ZM35.0395 0C37.3431 0 39.464 0.769231 41.4019 2.30769C42.9011 3.51648 43.669 4.79854 43.669 6.11722C43.669 7.21612 43.1937 8.09524 42.2795 8.71795C41.7676 9.08425 41.1825 9.23077 40.5609 9.23077C40.049 9.23077 39.5737 9.12088 39.0983 8.86447C38.9155 8.75458 38.4401 8.27839 37.6722 7.47253C36.9775 6.7033 36.0633 6.30037 35.0029 6.30037C33.9791 6.30037 33.1015 6.66667 32.4067 7.36264C31.712 8.09524 31.3463 8.97436 31.3463 10C31.3463 11.0256 31.712 11.9048 32.4067 12.6374C33.1015 13.37 33.9791 13.6996 35.0029 13.6996C35.8439 13.6996 36.6484 13.4066 37.3797 12.8205C37.8185 12.381 38.2938 11.9414 38.7326 11.5018C39.208 11.0989 39.8296 10.8791 40.5609 10.8791C41.4019 10.8791 42.1333 11.1722 42.7915 11.7582C43.4131 12.3443 43.7422 13.0769 43.7422 13.9194C43.7422 15.0916 43.0474 16.2637 41.6945 17.4359C39.793 19.1209 37.5991 19.9267 35.076 19.9267C33.5403 19.9267 32.0776 19.5971 30.6881 18.9377C28.9695 18.0952 27.58 16.8864 26.5562 15.2747C25.5323 13.663 25.0204 11.9048 25.0204 9.96337C25.0204 7.10623 26.0808 4.65202 28.2017 2.63736C30.0665 0.915751 32.3336 0.03663 35.0395 0ZM51.0553 6.92308L54.5657 1.79487C55.2239 0.842491 56.1014 0.3663 57.1618 0.3663C58.0394 0.3663 58.7708 0.659341 59.3924 1.28205C60.014 1.90476 60.3431 2.63736 60.3431 3.47985C60.3431 4.10256 60.1603 4.65202 59.8312 5.16484L56.6499 9.78022L60.5259 14.7253C60.9281 15.2015 61.111 15.7875 61.111 16.4469C61.111 17.326 60.8184 18.0586 60.1968 18.6813C59.5752 19.304 58.8439 19.6337 57.9663 19.6337C57.0156 19.6337 56.2843 19.3407 55.7723 18.718L51.0188 12.7839V16.0806C51.0188 17.033 50.8725 17.7289 50.5434 18.2784C49.9584 19.2308 49.0808 19.707 47.9472 19.707C46.9234 19.707 46.1189 19.3773 45.5705 18.6813C45.0585 18.0586 44.766 17.1795 44.766 16.1538V3.88278C44.766 2.89377 45.022 2.05128 45.5705 1.39194C46.1921 0.732601 46.96 0.3663 47.9472 0.3663C48.898 0.3663 49.6658 0.695971 50.324 1.39194C50.6897 1.75824 50.9091 2.16117 50.9822 2.52747C51.0553 2.78388 51.0553 3.22344 51.0553 3.88278V6.92308Z" fill="white"/>
<path d="M65.023 12.3077C65.7178 12.3077 66.4491 12.6007 67.2536 13.2234C68.2408 13.9927 68.899 14.359 69.2647 14.359C69.8132 14.359 70.0691 14.0659 70.0691 13.5165C70.0691 13.2234 69.9229 12.967 69.5938 12.7473C69.411 12.6374 68.4968 12.2711 66.7782 11.685C63.9992 10.696 62.6097 8.9011 62.6097 6.22711C62.6097 4.21245 63.341 2.63736 64.8036 1.50183C66.12 0.51282 67.6924 0 69.5938 0C71.2392 0 72.6653 0.40293 73.872 1.17216C75.0787 1.94139 75.7003 2.96703 75.7003 4.21245C75.7003 4.94505 75.4809 5.56777 75.0055 6.08059C74.5302 6.59341 73.9451 6.81319 73.2138 6.81319C72.4459 6.81319 71.6049 6.44689 70.6542 5.71429C70.0691 5.27472 69.6303 5.01831 69.3378 5.01831C68.8259 5.01831 68.5699 5.27472 68.5699 5.75092C68.5699 6.22711 69.1916 6.66667 70.4714 7.03297C72.2265 7.58242 73.5429 8.24176 74.4936 9.04762C75.7734 10.1099 76.395 11.5751 76.395 13.4799C76.395 15.5678 75.7003 17.1795 74.2742 18.3516C72.9578 19.4505 71.2392 19.9634 69.1184 19.9634C66.9976 19.9634 65.2424 19.4139 63.8529 18.2784C62.756 17.3626 62.1709 16.337 62.1709 15.1282C62.1709 14.3223 62.4269 13.663 62.9754 13.1136C63.5604 12.6007 64.2186 12.3077 65.023 12.3077ZM81.7337 6.337H80.0882C79.174 6.337 78.4062 6.08059 77.8211 5.6044C77.1995 5.05494 76.8704 4.35897 76.8704 3.44322C76.8704 2.89377 77.0167 2.38095 77.3092 1.90476C77.6017 1.39194 78.0039 1.06227 78.4793 0.842491C78.9547 0.622711 80.0882 0.51282 81.8799 0.51282H88.1693C89.705 0.51282 90.7289 0.622711 91.1677 0.805861C91.6796 1.02564 92.0818 1.35531 92.3743 1.86813C92.6669 2.38095 92.8497 2.89377 92.8497 3.44322C92.8497 4.32234 92.5206 5.05494 91.8259 5.67766C91.3505 6.11722 90.546 6.37363 89.4125 6.37363H87.9864V15.8242C87.9864 16.8498 87.8036 17.6557 87.4745 18.2051C86.8895 19.1575 86.0119 19.6337 84.9149 19.6337C83.7814 19.6337 82.9403 19.1941 82.3187 18.3516C81.9531 17.8022 81.7337 16.9963 81.7337 15.8974V6.337ZM96.9085 17.033C96.616 17.7289 96.3235 18.2784 95.9944 18.6081C95.3727 19.304 94.6049 19.6337 93.6907 19.6337C92.5937 19.6337 91.7162 19.1941 91.1311 18.315C90.7654 17.8022 90.5826 17.1795 90.5826 16.5201C90.5826 15.9707 90.7289 15.4212 90.9848 14.8718L96.9085 2.23443C97.4936 0.989011 98.4443 0.40293 99.7972 0.40293C101.15 0.40293 102.137 1.02564 102.722 2.30769L108.719 15.0183C108.975 15.5311 109.085 16.044 109.085 16.5201C109.085 17.2527 108.829 17.9121 108.354 18.4982C107.732 19.2674 106.928 19.6337 105.94 19.6337C105.136 19.6337 104.478 19.3773 103.929 18.9011C103.527 18.5348 103.125 17.9121 102.722 17.0696H96.9085V17.033ZM122.87 12.1612L124.333 14.5421C124.735 15.2015 124.955 15.8608 124.955 16.5568C124.955 17.4359 124.662 18.1685 124.04 18.7546C123.419 19.3407 122.687 19.6337 121.81 19.6337C120.676 19.6337 119.835 19.1575 119.25 18.2051L116.654 13.9194V16.4835C116.654 17.3626 116.362 18.0952 115.777 18.7179C115.191 19.3407 114.46 19.6337 113.583 19.6337C112.522 19.6337 111.681 19.2674 111.133 18.4615C110.621 17.8022 110.401 16.8864 110.401 15.7875V4.10256C110.401 1.68498 111.681 0.51282 114.277 0.51282H118.263C119.579 0.51282 120.786 0.879121 121.883 1.64835C123.017 2.41758 123.821 3.36996 124.333 4.57875C124.735 5.4945 124.918 6.41026 124.918 7.32601C124.918 9.04762 124.223 10.6593 122.87 12.1612ZM130.293 6.337H128.648C127.734 6.337 126.966 6.08059 126.381 5.6044C125.759 5.05494 125.43 4.35897 125.43 3.44322C125.43 2.89377 125.576 2.38095 125.869 1.90476C126.161 1.39194 126.563 1.06227 127.039 0.842491C127.514 0.622711 128.648 0.51282 130.439 0.51282H136.729C138.265 0.51282 139.288 0.622711 139.727 0.805861C140.239 1.02564 140.641 1.35531 140.934 1.86813C141.226 2.38095 141.409 2.89377 141.409 3.44322C141.409 4.32234 141.08 5.05494 140.385 5.67766C139.91 6.11722 139.106 6.37363 137.972 6.37363H136.546V15.8242C136.546 16.8498 136.363 17.6557 136.034 18.2051C135.449 19.1575 134.571 19.6337 133.474 19.6337C132.341 19.6337 131.5 19.1941 130.878 18.3516C130.513 17.8022 130.293 16.9963 130.293 15.8974V6.337ZM148.796 13.6264H151.648C152.818 13.6264 153.695 13.8828 154.28 14.359C154.939 14.9451 155.304 15.6777 155.304 16.5934C155.304 17.5092 154.975 18.2784 154.28 18.8278C153.769 19.2674 152.891 19.4872 151.684 19.4872H146.821C145.687 19.4872 144.883 19.4139 144.444 19.2308C143.603 18.9011 143.055 18.315 142.799 17.5458C142.616 17.033 142.543 16.2271 142.543 15.0916V4.7619C142.543 3.88278 142.579 3.33333 142.616 3.04029C142.726 2.45421 142.945 1.94139 143.347 1.50183C143.786 1.02564 144.371 0.732601 145.029 0.586081C145.358 0.51282 146.017 0.51282 147.004 0.51282H150.734C151.757 0.51282 152.342 0.51282 152.525 0.549451C153.183 0.622711 153.732 0.805861 154.171 1.13553C154.939 1.72161 155.304 2.45421 155.304 3.36996C155.304 4.35897 154.975 5.1282 154.317 5.67766C153.732 6.15385 152.927 6.37363 151.904 6.37363H148.832V7.65568H151.282C152.013 7.65568 152.598 7.83883 153.074 8.24176C153.586 8.64469 153.805 9.19414 153.805 9.92674C153.805 11.4286 152.891 12.1978 151.063 12.1978H148.832V13.6264H148.796ZM168.87 12.1612L170.333 14.5421C170.735 15.2015 170.954 15.8608 170.954 16.5568C170.954 17.4359 170.662 18.1685 170.04 18.7546C169.419 19.3407 168.687 19.6337 167.81 19.6337C166.676 19.6337 165.835 19.1575 165.25 18.2051L162.654 13.9194V16.4835C162.654 17.3626 162.361 18.0952 161.776 18.7179C161.191 19.3407 160.46 19.6337 159.582 19.6337C158.522 19.6337 157.681 19.2674 157.133 18.4615C156.621 17.8022 156.401 16.8864 156.401 15.7875V4.10256C156.401 1.68498 157.681 0.51282 160.277 0.51282H164.263C165.579 0.51282 166.786 0.879121 167.883 1.64835C169.016 2.41758 169.821 3.36996 170.333 4.57875C170.735 5.4945 170.918 6.41026 170.918 7.32601C170.918 9.04762 170.223 10.6593 168.87 12.1612Z" fill="white"/>
</g>
<defs>
<clipPath id="clip0_2059_2938">
<rect width="170.909" height="20" fill="white" transform="translate(0.0458984)"/>
</clipPath>
</defs>
</svg>
