<svg width="188" height="32" viewBox="0 0 188 32" fill="none" xmlns="http://www.w3.org/2000/svg">
<path d="M10.9889 9.74379H0.54248V8.58594H22.6832V9.74379H12.2368V23.4413H10.9889V9.74379Z" fill="#0F0F0F"/>
<path d="M46.2546 16.3413H27.3947V22.2835H47.1805V23.4413H26.1467V8.58594H47.0194V9.74379H27.3947V15.249H46.2546V16.3413Z" fill="#0F0F0F"/>
<path d="M70.9079 16.7427C69.7002 16.4659 66.9829 16.3276 62.7561 16.3276C57.5899 16.3276 54.3627 16.0945 53.0745 15.6285C51.8266 15.177 51.2026 14.2304 51.2026 12.7885C51.2026 11.2739 51.9608 10.1888 53.4771 9.53344C55.4765 8.68869 58.4152 8.26636 62.2932 8.26636C64.1851 8.26636 66.1174 8.38284 68.09 8.6159C70.0625 8.84895 71.6728 9.10377 72.9207 9.38051L72.7395 10.451C69.3849 9.7228 65.9027 9.35867 62.2932 9.35867C58.603 9.35867 55.8791 9.7228 54.1212 10.451C53.0209 10.9025 52.4707 11.6816 52.4707 12.7885C52.4707 13.2691 52.578 13.666 52.7927 13.9791C53.0074 14.2922 53.3832 14.529 53.9199 14.6891C55.0874 15.0533 57.8985 15.2353 62.3535 15.2353C67.1708 15.2353 70.2437 15.4173 71.5721 15.7814C73.3165 16.2475 74.1887 17.3253 74.1887 19.0147C74.1887 20.6313 73.5447 21.7673 72.2564 22.4227C70.5657 23.2965 67.5331 23.7335 63.1587 23.7335C60.8372 23.7335 58.6399 23.6133 56.5667 23.373C54.4935 23.1327 52.833 22.8596 51.5851 22.5538L51.7662 21.4396C55.2953 22.2407 59.0928 22.6411 63.1587 22.6411C67.1171 22.6411 69.8814 22.2698 71.4513 21.527C72.4309 21.0755 72.9207 20.2381 72.9207 19.0147C72.9207 17.8059 72.2497 17.0485 70.9079 16.7427Z" fill="#0F0F0F"/>
<path d="M80.1995 8.58594V22.2835H97.9323V23.4413H78.9517V8.58594H80.1995Z" fill="#0F0F0F"/>
<path d="M122.115 21.6362C120.035 23.0344 116.869 23.7335 112.615 23.7335C108.361 23.7335 105.194 23.0344 103.114 21.6362C102.202 21.0245 101.514 20.2745 101.051 19.3861C100.588 18.4976 100.357 17.369 100.357 15.9999C100.357 13.4803 101.276 11.6016 103.114 10.3636C105.235 8.96544 108.401 8.26636 112.615 8.26636C116.828 8.26636 119.995 8.96544 122.115 10.3636C123.967 11.6161 124.893 13.4949 124.893 15.9999C124.893 17.369 124.658 18.4976 124.188 19.3861C123.719 20.2745 123.028 21.0245 122.115 21.6362ZM112.615 22.5756C116.493 22.5756 119.364 21.9639 121.23 20.7405C122.826 19.6919 123.625 18.1117 123.625 15.9999C123.625 13.8736 122.84 12.2933 121.27 11.2593C119.405 10.0359 116.52 9.42421 112.615 9.42421C108.71 9.42421 105.825 10.0359 103.96 11.2593C102.403 12.3079 101.625 13.8881 101.625 15.9999C101.625 18.1408 102.417 19.721 104 20.7405C104.845 21.2939 106.016 21.7382 107.512 22.0731C109.009 22.4081 110.709 22.5756 112.615 22.5756Z" fill="#0F0F0F"/>
<path d="M152.186 9.68636L151.924 10.8005C148.14 9.88298 144.665 9.42421 141.498 9.42421C139.364 9.42421 137.513 9.61715 135.943 10.0031C134.373 10.3891 133.172 10.9097 132.34 11.5651C130.971 12.6283 130.287 14.1939 130.287 16.2621C130.287 17.3544 130.501 18.3047 130.931 19.113C131.36 19.9213 131.951 20.5585 132.702 21.0245C134.406 22.0586 137.338 22.5756 141.498 22.5756C145.094 22.5756 148.395 22.0731 151.401 21.0682V16.7427H137.11V15.6504H152.649V21.8765C149.106 23.1145 145.389 23.7335 141.498 23.7335C139.069 23.7335 137.107 23.5915 135.61 23.3075C134.114 23.0235 132.876 22.5829 131.897 21.9858C131.011 21.4469 130.31 20.6859 129.794 19.7028C129.277 18.7198 129.019 17.5728 129.019 16.2621C129.019 13.8007 129.877 11.9219 131.595 10.6257C132.507 9.92667 133.833 9.35867 135.57 8.92174C137.308 8.48482 139.284 8.26636 141.498 8.26636C145.228 8.26636 148.791 8.73972 152.186 9.68636Z" fill="#0F0F0F"/>
<path d="M159.385 8.58594H158.137V23.4413H159.385V8.58594Z" fill="#0F0F0F"/>
<path d="M187.256 10.0359C187.256 10.1087 187.169 10.4728 186.994 11.1282C183.626 9.99221 180.157 9.42421 176.588 9.42421C172.71 9.42421 169.886 10.0723 168.114 11.3685C166.598 12.4608 165.84 14.0847 165.84 16.2402C165.84 18.3957 166.585 19.9395 168.074 20.8716C169.872 22.0076 172.824 22.5756 176.93 22.5756C178.688 22.5756 180.52 22.3936 182.425 22.0295C184.331 21.6653 185.928 21.2502 187.216 20.7842L187.457 21.8984C186.169 22.3644 184.559 22.7868 182.626 23.1655C180.694 23.5441 178.796 23.7335 176.93 23.7335C172.542 23.7335 169.362 23.1218 167.39 21.8984C166.517 21.3595 165.83 20.5985 165.327 19.6155C164.823 18.6324 164.572 17.5073 164.572 16.2402C164.572 13.7206 165.491 11.7982 167.329 10.4728C169.355 9.00187 172.442 8.26636 176.588 8.26636C180.466 8.26636 184.022 8.8562 187.256 10.0359Z" fill="#0F0F0F"/>
</svg>
