<svg width="40" height="24" viewBox="0 0 40 24" fill="none" xmlns="http://www.w3.org/2000/svg">
<rect width="40" height="24" rx="6" fill="#151515"/>
<path d="M22.4781 5.83984H17.5981V14.7998H22.4781V5.83984Z" fill="#BABABA"/>
<path d="M19.9191 5.95343L20.0431 5.855L19.9186 5.75721C18.9333 4.98338 17.6892 4.51562 16.3321 4.51562C13.1176 4.51562 10.5164 7.11159 10.5164 10.3206C10.5164 13.5297 13.1176 16.1256 16.3321 16.1256C17.6892 16.1256 18.9333 15.6579 19.9186 14.884L20.044 14.7855L19.9183 14.6873C18.6357 13.6846 17.8007 12.0954 17.8007 10.3206C17.8007 8.54639 18.6353 6.97236 19.9191 5.95343Z" fill="#BABABA" stroke="black" stroke-width="0.25"/>
<path d="M20.0828 14.6874L19.9574 14.7857L20.0827 14.884C21.068 15.6579 22.3121 16.1256 23.6692 16.1256C26.8837 16.1256 29.4849 13.5297 29.4849 10.3206C29.4849 7.12759 26.8839 4.51562 23.6692 4.51562C22.3121 4.51562 21.068 4.98338 20.0827 5.75721L19.9582 5.855L20.0822 5.95343C21.366 6.97236 22.2005 8.54639 22.2005 10.3206C22.2005 12.0955 21.3813 13.669 20.0828 14.6874Z" fill="#BABABA" stroke="black" stroke-width="0.25"/>
<path d="M29.2525 19.5469V19.5871H29.2885C29.2952 19.5872 29.3019 19.5854 29.3077 19.5819C29.3101 19.5802 29.312 19.5779 29.3132 19.5752C29.3145 19.5725 29.3151 19.5696 29.315 19.5666C29.3151 19.5637 29.3145 19.5607 29.3132 19.5581C29.3119 19.5555 29.3101 19.5533 29.3077 19.5516C29.3019 19.548 29.2952 19.5462 29.2885 19.5465H29.2525V19.5469ZM29.2888 19.5185C29.3042 19.5175 29.3195 19.5221 29.332 19.5316C29.337 19.5358 29.341 19.5413 29.3436 19.5474C29.3463 19.5536 29.3475 19.5603 29.3471 19.5671C29.3474 19.5729 29.3464 19.5787 29.3443 19.5841C29.3422 19.5895 29.339 19.5943 29.335 19.5983C29.3253 19.6071 29.3132 19.6123 29.3005 19.6133L29.3487 19.6705H29.3116L29.2673 19.6137H29.2529V19.6705H29.2219V19.5186H29.2893L29.2888 19.5185ZM29.2792 19.7229C29.2955 19.7231 29.3116 19.7196 29.3265 19.7129C29.3409 19.7064 29.354 19.6972 29.3651 19.6857C29.3762 19.6741 29.385 19.6605 29.3912 19.6455C29.4038 19.6137 29.4038 19.5779 29.3912 19.5461C29.3849 19.5311 29.3761 19.5175 29.3651 19.506C29.354 19.4944 29.3409 19.4852 29.3265 19.4787C29.3115 19.4723 29.2954 19.4691 29.2792 19.4693C29.2627 19.4691 29.2463 19.4724 29.231 19.4787C29.2163 19.4851 29.2029 19.4943 29.1916 19.506C29.1746 19.5242 29.163 19.5472 29.1585 19.5722C29.1539 19.5972 29.1565 19.623 29.1659 19.6465C29.1718 19.6616 29.1805 19.6752 29.1916 19.6867C29.2029 19.6983 29.2163 19.7075 29.231 19.7139C29.2462 19.7206 29.2627 19.7241 29.2792 19.7239V19.7229ZM29.2792 19.4328C29.3216 19.4327 29.3622 19.45 29.3924 19.481C29.407 19.4958 29.4186 19.5135 29.4265 19.5331C29.4348 19.5531 29.439 19.5747 29.439 19.5966C29.439 19.6184 29.4348 19.64 29.4265 19.6601C29.4184 19.6795 29.4068 19.6972 29.3924 19.7122C29.3776 19.7269 29.3604 19.7388 29.3416 19.7473C29.3219 19.756 29.3007 19.7605 29.2792 19.7603C29.2575 19.7605 29.236 19.7561 29.216 19.7473C29.197 19.739 29.1796 19.7271 29.1648 19.7122C29.1504 19.6966 29.139 19.6784 29.1312 19.6583C29.123 19.6383 29.1187 19.6167 29.1187 19.5948C29.1187 19.573 29.123 19.5514 29.1312 19.5314C29.1392 19.5118 29.1507 19.4941 29.1653 19.4792C29.1799 19.464 29.1973 19.4521 29.2165 19.4441C29.2365 19.4353 29.258 19.4309 29.2797 19.4311L29.2792 19.4328ZM14.5253 18.8462C14.5253 18.5565 14.7074 18.3186 15.005 18.3186C15.2894 18.3186 15.4814 18.5463 15.4814 18.8462C15.4814 19.146 15.2894 19.3737 15.005 19.3737C14.7074 19.3737 14.5253 19.1358 14.5253 18.8462ZM15.8056 18.8462V18.0219H15.4617V18.2227C15.3527 18.0743 15.1872 17.9813 14.9622 17.9813C14.519 17.9813 14.1711 18.3435 14.1711 18.8466C14.1711 19.3496 14.5188 19.7119 14.9622 19.7119C15.1871 19.7119 15.3527 19.6187 15.4617 19.4704V19.6705H15.8052V18.8462H15.8056ZM27.4253 18.8462C27.4253 18.5565 27.6074 18.3186 27.9052 18.3186C28.1899 18.3186 28.3816 18.5463 28.3816 18.8462C28.3816 19.146 28.1899 19.3737 27.9052 19.3737C27.6075 19.3737 27.4253 19.1358 27.4253 18.8462ZM28.7061 18.8462V17.3604H28.3619V18.2227C28.2528 18.0743 28.0874 17.9813 27.8624 17.9813C27.4192 17.9813 27.0713 18.3435 27.0713 18.8466C27.0713 19.3496 27.419 19.7119 27.8624 19.7119C28.0874 19.7119 28.2528 19.6187 28.3619 19.4704V19.6705H28.7061V18.8462ZM20.0738 18.3016C20.2954 18.3016 20.4377 18.4464 20.474 18.7013H19.6535C19.6902 18.4634 19.8288 18.3016 20.0739 18.3016H20.0738ZM20.0807 17.9804C19.6173 17.9804 19.293 18.3318 19.293 18.8457C19.293 19.3696 19.6303 19.711 20.1038 19.711C20.3419 19.711 20.5601 19.649 20.752 19.48L20.5835 19.2145C20.4509 19.3249 20.2821 19.3869 20.1234 19.3869C19.9018 19.3869 19.7 19.28 19.6504 18.9833H20.8247C20.8281 18.9387 20.8315 18.8938 20.8315 18.8456C20.8281 18.3319 20.5232 17.9803 20.0805 17.9803L20.0807 17.9804ZM24.2325 18.8456C24.2325 18.5559 24.4146 18.318 24.7122 18.318C24.9967 18.318 25.1886 18.5457 25.1886 18.8456C25.1886 19.1454 24.9967 19.3731 24.7122 19.3731C24.4146 19.3731 24.2324 19.1352 24.2324 18.8456H24.2325ZM25.5128 18.8456V18.0219H25.1691V18.2227C25.0596 18.0743 24.8945 17.9813 24.6696 17.9813C24.2263 17.9813 23.8785 18.3435 23.8785 18.8466C23.8785 19.3496 24.2261 19.7119 24.6696 19.7119C24.8945 19.7119 25.0596 19.6187 25.1691 19.4704V19.6705H25.5129V18.8462L25.5128 18.8456ZM22.2904 18.8456C22.2904 19.3454 22.6244 19.7109 23.1341 19.7109C23.3723 19.7109 23.531 19.6556 23.7026 19.5144L23.5375 19.2248C23.4084 19.3214 23.2728 19.3731 23.1231 19.3731C22.8486 19.3696 22.6468 19.1628 22.6468 18.8456C22.6468 18.5283 22.8486 18.3216 23.1231 18.318C23.2724 18.318 23.408 18.3697 23.5375 18.4664L23.7026 18.1767C23.5307 18.0355 23.372 17.9803 23.1341 17.9803C22.6244 17.9803 22.2904 18.3456 22.2904 18.8456ZM26.7238 17.9803C26.5254 17.9803 26.3962 18.077 26.3068 18.2217V18.0219H25.966V19.6696H26.3103V18.746C26.3103 18.4733 26.4227 18.3218 26.6475 18.3218C26.7212 18.3207 26.7942 18.3348 26.8626 18.3633L26.9686 18.0256C26.8925 17.9943 26.7932 17.9806 26.7236 17.9806L26.7238 17.9803ZM17.5058 18.153C17.3404 18.0393 17.1124 17.9806 16.8609 17.9806C16.4603 17.9806 16.2023 18.1807 16.2023 18.508C16.2023 18.7767 16.3944 18.9424 16.748 18.9941L16.9104 19.0182C17.099 19.0458 17.188 19.0976 17.188 19.1906C17.188 19.318 17.0628 19.3907 16.8276 19.3907C16.5894 19.3907 16.4175 19.3114 16.3016 19.2183L16.14 19.4977C16.3285 19.6425 16.5667 19.7116 16.8247 19.7116C17.2814 19.7116 17.5461 19.4875 17.5461 19.1738C17.5461 18.8841 17.3378 18.7326 16.9936 18.6809L16.8315 18.6564C16.6826 18.6363 16.5634 18.6051 16.5634 18.4947C16.5634 18.3742 16.6758 18.3017 16.8645 18.3017C17.0663 18.3017 17.2617 18.381 17.3575 18.443L17.5064 18.1534L17.5058 18.153ZM21.9431 17.9809C21.7447 17.9809 21.6155 18.0776 21.5265 18.2223V18.0219H21.1857V19.6696H21.5296V18.746C21.5296 18.4733 21.6421 18.3218 21.8669 18.3218C21.9405 18.3207 22.0136 18.3348 22.0819 18.3633L22.1879 18.0256C22.1118 17.9943 22.0126 17.9806 21.9429 17.9806L21.9431 17.9809ZM19.0085 18.0219H18.4461V17.5221H18.0985V18.0219H17.7777V18.3494H18.0985V19.1011C18.0985 19.4834 18.2409 19.7111 18.6477 19.7111C18.797 19.7111 18.9689 19.6629 19.078 19.5837L18.9786 19.2769C18.876 19.3388 18.7635 19.37 18.6741 19.37C18.5022 19.37 18.4461 19.2596 18.4461 19.0942V18.3497H19.0085V18.0219ZM13.867 19.67V18.6359C13.867 18.2465 13.6289 17.9845 13.2449 17.981C13.043 17.9775 12.8348 18.0429 12.689 18.2741C12.5799 18.0914 12.408 17.981 12.1664 17.981C11.9975 17.981 11.8324 18.0327 11.7032 18.2256V18.0219H11.359V19.6696H11.7059V18.756C11.7059 18.47 11.8581 18.318 12.0932 18.318C12.3216 18.318 12.4371 18.4731 12.4371 18.7524V19.6694H12.7848V18.7558C12.7848 18.4698 12.9435 18.3178 13.1717 18.3178C13.4066 18.3178 13.5186 18.4729 13.5186 18.7522V19.6692L13.867 19.67Z" fill="#BABABA"/>
</svg>
