<svg width="33" height="20" viewBox="0 0 33 20" fill="none" xmlns="http://www.w3.org/2000/svg">
<rect x="0.5" width="32" height="20" rx="4" fill="#151515"/>
<path d="M19.0034 5.2666H14.0547V14.7314H19.0034V5.2666Z" fill="#BABABA"/>
<path d="M16.4092 5.37967L16.5264 5.28283L16.4087 5.18659C15.41 4.36949 14.1481 3.875 12.7709 3.875C9.50729 3.875 6.875 6.61893 6.875 10C6.875 13.3811 9.50729 16.125 12.7709 16.125C14.1481 16.125 15.41 15.6305 16.4087 14.8134L16.5273 14.7164L16.4085 14.6197C15.1071 13.5601 14.2584 11.879 14.2584 10C14.2584 8.12156 15.1067 6.45654 16.4092 5.37967Z" fill="#BABABA" stroke="black" stroke-width="0.25"/>
<path d="M16.5733 14.6199L16.4548 14.7166L16.5732 14.8134C17.5719 15.6305 18.8339 16.125 20.211 16.125C23.4746 16.125 26.1069 13.3811 26.1069 10C26.1069 6.63583 23.4749 3.875 20.211 3.875C18.8339 3.875 17.5719 4.36949 16.5732 5.18659L16.4556 5.28283L16.5727 5.37967C17.8752 6.45654 18.7235 8.12156 18.7235 10C18.7235 11.8791 17.8908 13.5436 16.5733 14.6199Z" fill="#BABABA" stroke="black" stroke-width="0.25"/>
</svg>
