<svg width="112" height="55" viewBox="0 0 112 55" fill="none" xmlns="http://www.w3.org/2000/svg">
<g opacity="0.6" clip-path="url(#clip0_5168_4536)">
<path d="M42.5113 53.4744L42.512 53.4744L100.145 53.4744C105.638 53.4744 110.105 49.2648 110.105 44.0543L110.105 10.4505C110.105 5.24002 105.638 1.03043 100.145 1.03043L42.5113 1.03044L41.0644 1.03044L41.0644 1.18044L41.0643 1.03044L41.064 1.03044L41.0635 1.03044L41.0629 1.03044L41.062 1.03044L41.0609 1.03044L41.0596 1.03044L41.0582 1.03044L41.0565 1.03044L41.0547 1.03044L41.0526 1.03044L41.0504 1.03044L41.048 1.03044L41.0454 1.03044L41.0426 1.03044L41.0396 1.03044L41.0364 1.03044L41.0331 1.03044L41.0296 1.03044L41.0258 1.03044L41.0219 1.03044L41.0179 1.03044L41.0136 1.03044L41.0092 1.03044L41.0045 1.03044L40.9997 1.03044L40.9947 1.03044L40.9896 1.03044L40.9842 1.03044L40.9787 1.03044L40.973 1.03044L40.9672 1.03044L40.9611 1.03044L40.9549 1.03044L40.9485 1.03044L40.942 1.03044L40.9352 1.03044L40.9283 1.03044L40.9213 1.03044L40.914 1.03044L40.9066 1.03044L40.8991 1.03044L40.8913 1.03044L40.8834 1.03044L40.8753 1.03044L40.8671 1.03044L40.8587 1.03044L40.8501 1.03044L40.8414 1.03044L40.8325 1.03044L40.8235 1.03044L40.8143 1.03044L40.8049 1.03044L40.7954 1.03044L40.7857 1.03044L40.7759 1.03044L40.7659 1.03044L40.7557 1.03044L40.7454 1.03044L40.735 1.03044L40.7243 1.03044L40.7136 1.03044L40.7027 1.03044L40.6916 1.03044L40.6804 1.03044L40.669 1.03044L40.6575 1.03044L40.6458 1.03044L40.634 1.03044L40.622 1.03044L40.6099 1.03044L40.5977 1.03044L40.5853 1.03044L40.5728 1.03044L40.5601 1.03044L40.5472 1.03044L40.5343 1.03044L40.5212 1.03044L40.5079 1.03044L40.4945 1.03044L40.481 1.03044L40.4674 1.03044L40.4536 1.03044L40.4396 1.03044L40.4255 1.03044L40.4113 1.03044L40.397 1.03044L40.3825 1.03044L40.3679 1.03044L40.3532 1.03044L40.3383 1.03044L40.3233 1.03044L40.3082 1.03044L40.2929 1.03044L40.2776 1.03044L40.262 1.03044L40.2464 1.03044L40.2306 1.03044L40.2147 1.03044L40.1987 1.03044L40.1826 1.03044L40.1663 1.03044L40.1499 1.03044L40.1334 1.03044L40.1168 1.03044L40.1001 1.03044L40.0832 1.03044L40.0662 1.03044L40.0491 1.03044L40.0319 1.03044L40.0146 1.03044L39.9971 1.03044L39.9796 1.03044L39.9619 1.03044L39.9441 1.03044L39.9262 1.03044L39.9082 1.03044L39.8901 1.03044L39.8718 1.03044L39.8535 1.03044L39.835 1.03044L39.8165 1.03044L39.7978 1.03044L39.779 1.03044L39.7601 1.03044L39.7411 1.03044L39.7221 1.03044L39.7029 1.03044L39.6836 1.03044L39.6642 1.03044L39.6447 1.03044L39.6251 1.03044L39.6054 1.03044L39.5856 1.03044L39.5657 1.03044L39.5457 1.03044L39.5256 1.03044L39.5054 1.03044L39.4851 1.03044L39.4647 1.03044L39.4442 1.03044L39.4237 1.03044L39.403 1.03044L39.3823 1.03044L39.3614 1.03044L39.3405 1.03044L39.3195 1.03044L39.2984 1.03044L39.2772 1.03044L39.2559 1.03044L39.2345 1.03044L39.213 1.03044L39.1915 1.03044L39.1699 1.03044L39.1482 1.03044L39.1264 1.03044L39.1045 1.03044L39.0825 1.03044L39.0605 1.03044L39.0384 1.03044L39.0162 1.03044L38.9939 1.03044L38.9716 1.03044L38.9491 1.03044L38.9266 1.03044L38.904 1.03044L38.8814 1.03044L38.8587 1.03044L38.8359 1.03044L38.813 1.03044L38.79 1.03044L38.767 1.03044L38.7439 1.03044L38.7208 1.03044L38.6976 1.03044L38.6743 1.03044L38.6509 1.03044L38.6275 1.03044L38.604 1.03044L38.5804 1.03044L38.5568 1.03044L38.5331 1.03044L38.5094 1.03044L38.4856 1.03044L38.4617 1.03044L38.4378 1.03044L38.4138 1.03044L38.3897 1.03044L38.3656 1.03044L38.3415 1.03044L38.3172 1.03044L38.2929 1.03044L38.2686 1.03044L38.2442 1.03044L38.2198 1.03044L38.1953 1.03044L38.1707 1.03044L38.1461 1.03044L38.1215 1.03044L38.0968 1.03044L38.072 1.03044L38.0472 1.03044L38.0224 1.03044L37.9975 1.03044L37.9726 1.03044L37.9476 1.03044L37.9226 1.03044L37.8975 1.03044L37.8724 1.03044L37.8472 1.03044L37.822 1.03044L37.7968 1.03044L37.7715 1.03044L37.7462 1.03044L37.7208 1.03044L37.6954 1.03044L37.67 1.03044L37.6445 1.03044L37.619 1.03044L37.5934 1.03044L37.5678 1.03044L37.5422 1.03044L37.5166 1.03044L37.4909 1.03044L37.4652 1.03044L37.4395 1.03044L37.4137 1.03044L37.3879 1.03044L37.3621 1.03044L37.3362 1.03044L37.3103 1.03044L37.2844 1.03044L37.2585 1.03044L37.2325 1.03044L37.2065 1.03044L37.1805 1.03044L37.1545 1.03044L37.1284 1.03044L37.1023 1.03044L37.0763 1.03044L37.0501 1.03044L37.024 1.03044L36.9979 1.03044L36.9717 1.03044L36.9455 1.03044L36.9193 1.03044L36.8931 1.03044L36.8669 1.03044L36.8406 1.03044L36.8144 1.03044L36.7881 1.03044L36.7618 1.03044L36.7355 1.03044L36.7092 1.03044L36.6829 1.03044L36.6566 1.03044L36.6303 1.03044L36.6039 1.03044L36.5776 1.03044L36.5512 1.03044L36.5249 1.03044L36.4985 1.03044L36.4722 1.03044L36.4458 1.03044L36.4195 1.03044L36.3931 1.03044L36.3667 1.03044L36.3404 1.03044L36.314 1.03044L36.2876 1.03044L36.2613 1.03044L36.2349 1.03044L36.2086 1.03044L36.1822 1.03044L36.1559 1.03044L36.1296 1.03044L36.1032 1.03044L36.0769 1.03044L36.0506 1.03044L36.0243 1.03044L35.998 1.03044L35.9717 1.03044L35.9455 1.03044L35.9192 1.03044L35.893 1.03044L35.8667 1.03044L35.8405 1.03044L35.8143 1.03044L35.7881 1.03044L35.762 1.03044L35.7358 1.03044L35.7097 1.03044L35.6836 1.03044L35.6575 1.03044L35.6314 1.03044L35.6054 1.03044L35.5793 1.03044L35.5533 1.03044L35.5274 1.03044L35.5014 1.03044L35.4755 1.03044L35.4496 1.03044L35.4237 1.03044L35.3978 1.03044L35.372 1.03044L35.3462 1.03044L35.3204 1.03044L35.2947 1.03044L35.269 1.03044L35.2433 1.03044L35.2177 1.03044L35.1921 1.03044L35.1665 1.03044L35.141 1.03044L35.1154 1.03044L35.09 1.03044L35.0645 1.03044L35.0391 1.03044L35.0138 1.03044L34.9885 1.03044L34.9632 1.03044L34.938 1.03044L34.9128 1.03044L34.8876 1.03044L34.8625 1.03044L34.8374 1.03044L34.8124 1.03044L34.7874 1.03044L34.7625 1.03044L34.7376 1.03044L34.7128 1.03044L34.688 1.03044L34.6632 1.03044L34.6385 1.03044L34.6139 1.03044L34.5893 1.03044L34.5648 1.03044L34.5403 1.03044L34.5158 1.03044L34.4915 1.03044L34.4671 1.03044L34.4429 1.03044L34.4186 1.03044L34.3945 1.03044L34.3704 1.03044L34.3463 1.03044L34.3224 1.03044L34.2984 1.03044L34.2746 1.03044L34.2508 1.03044L34.227 1.03044L34.2034 1.03044L34.1797 1.03044L34.1562 1.03044L34.1327 1.03044L34.1093 1.03044L34.0859 1.03044L34.0627 1.03044L34.0394 1.03044L34.0163 1.03044L33.9932 1.03044L33.9702 1.03044L33.9473 1.03044L33.9244 1.03044L33.9016 1.03044L33.8789 1.03044L33.8563 1.03044L33.8337 1.03044L33.8112 1.03044L33.7888 1.03044L33.7664 1.03044L33.7442 1.03044L33.722 1.03044L33.6999 1.03044L33.6778 1.03044L33.6559 1.03044L33.634 1.03044L33.6123 1.03044L33.5906 1.03044L33.5689 1.03044L33.5474 1.03044L33.526 1.03044L33.5046 1.03044L33.4833 1.03044L33.4621 1.03044L33.441 1.03044L33.42 1.03044L33.3991 1.03044L33.3783 1.03044L33.3575 1.03044L33.3369 1.03044L33.3163 1.03044L33.2959 1.03044L33.2755 1.03044L33.2552 1.03044L33.2351 1.03044L33.215 1.03044L33.195 1.03044L33.1751 1.03044L33.1553 1.03044L33.1356 1.03044L33.116 1.03044L33.0966 1.03044L33.0772 1.03044L33.0579 1.03044L33.0387 1.03044L33.0196 1.03044L33.0007 1.03044L32.9818 1.03044L32.963 1.03044L32.9444 1.03044L32.9258 1.03044L32.9074 1.03044L32.889 1.03044L32.8708 1.03044L32.8527 1.03044L32.8347 1.03044L32.8168 1.03044L32.799 1.03044L32.7814 1.03044L32.7638 1.03044L32.7464 1.03044L32.7291 1.03044L32.7119 1.03044L32.6948 1.03044L32.6778 1.03044L32.661 1.03044L32.6443 1.03044L32.6276 1.03044L32.6112 1.03044L32.5948 1.03044L32.5785 1.03044L32.5624 1.03044L32.5464 1.03044L32.5306 1.03044L32.5148 1.03044L32.4992 1.03044L32.4837 1.03044L32.4683 1.03044L32.4531 1.03044L32.438 1.03044L32.423 1.03044L32.4081 1.03044L32.3934 1.03044L32.3788 1.03044L32.3644 1.03044L32.35 1.03044L32.3359 1.03044L32.3218 1.03044L32.3079 1.03044L32.2941 1.03044L32.2805 1.03044L32.267 1.03044L32.2536 1.03044L32.2404 1.03044L32.2273 1.03044L32.2143 1.03044L32.2015 1.03044L32.1889 1.03044L32.1763 1.03044L32.164 1.03044L32.1517 1.03044L32.1396 1.03044L32.1277 1.03044L32.1159 1.03044L32.1043 1.03044L32.0928 1.03044L32.0814 1.03044L32.0702 1.03044L32.0592 1.03044L32.0483 1.03044L32.0375 1.03044L32.0269 1.03044L32.0165 1.03044L32.0062 1.03044L31.9961 1.03044L31.9861 1.03044L31.9763 1.03044L31.9666 1.03044L31.9571 1.03044L31.9478 1.03044L31.9386 1.03044L31.9295 1.03044L31.9207 1.03044L31.912 1.03044L31.9034 1.03044L31.8951 1.03044L31.8868 1.03044L31.8788 1.03044L31.8709 1.03044L31.8632 1.03044L31.8556 1.03044L31.8483 1.03044L31.841 1.03044L31.834 1.03044L31.8271 1.03044L31.8204 1.03044L31.8139 1.03044L31.8075 1.03044L31.8013 1.03044L31.7953 1.03044L31.7895 1.03044L31.7838 1.03044L31.7783 1.03044L31.773 1.03044L31.7679 1.03044L31.7629 1.03044L31.7581 1.03044L31.7535 1.03044L31.7491 1.03044L31.7448 1.03044L31.7408 1.03044L31.7368 1.03044L31.7328 1.03044L31.7289 1.03044L31.7249 1.03044L31.7209 1.03044L31.7169 1.03044L31.7129 1.03044L31.7089 1.03044L31.705 1.03044L31.701 1.03044L31.697 1.03044L31.693 1.03044L31.689 1.03044L31.6849 1.03044L31.6809 1.03044L31.6769 1.03044L31.6729 1.03044L31.6689 1.03044L31.6649 1.03044L31.6609 1.03044L31.6568 1.03044L31.6528 1.03044L31.6488 1.03044L31.6447 1.03044L31.6407 1.03044L31.6367 1.03044L31.6326 1.03044L31.6286 1.03044L31.6246 1.03044L31.6205 1.03044L31.6165 1.03044L31.6124 1.03044L31.6084 1.03044L31.6043 1.03044L31.6003 1.03044L31.5962 1.03044L31.5922 1.03044L31.5881 1.03044L31.5841 1.03044L31.58 1.03044L31.5759 1.03044L31.5719 1.03044L31.5678 1.03044L31.5637 1.03044L31.5597 1.03044L31.5556 1.03044L31.5515 1.03044L31.5475 1.03044L31.5434 1.03044L31.5393 1.03044L31.5353 1.03044L31.5312 1.03044L31.5271 1.03044L31.523 1.03044L31.519 1.03044L31.5149 1.03044L31.5108 1.03044L31.5067 1.03044L31.5026 1.03044L31.4986 1.03044L31.4945 1.03044L31.4904 1.03044L31.4863 1.03044L31.4822 1.03044L31.4782 1.03044L31.4741 1.03044L31.47 1.03044L31.4659 1.03044L31.4618 1.03044L31.4577 1.03044L31.4537 1.03044L31.4496 1.03044L31.4455 1.03044L31.4414 1.03044L31.4373 1.03044L31.4332 1.03044L31.4291 1.03044L31.4251 1.03044L31.421 1.03044L31.4169 1.03044L31.4128 1.03044L31.4087 1.03044L31.4046 1.03044L31.4006 1.03044L31.3965 1.03044L31.3924 1.03044L31.3883 1.03044L31.3842 1.03044L31.3802 1.03044L31.3761 1.03044L31.372 1.03044L31.3679 1.03044L31.3638 1.03044L31.3598 1.03044L31.3557 1.03044L31.3516 1.03044L31.3475 1.03044L31.3435 1.03044L31.3394 1.03044L31.3353 1.03044L31.3313 1.03044L31.3272 1.03044L31.3231 1.03044L31.3191 1.03044L31.315 1.03044L31.3109 1.03044L31.3069 1.03044L31.3028 1.03044L31.2987 1.03044L31.2947 1.03044L31.2906 1.03044L31.2866 1.03044L31.2825 1.03044L31.2785 1.03044L31.2744 1.03044L31.2704 1.03044L31.2663 1.03044L31.2623 1.03044L31.2582 1.03044L31.2542 1.03044L31.2502 1.03044L31.2461 1.03044L31.2421 1.03044L31.2381 1.03044L31.234 1.03044L31.23 1.03044L31.226 1.03044L31.222 1.03044L31.2179 1.03044L31.2139 1.03044L31.2099 1.03044L31.2059 1.03044L31.2019 1.03044L31.1979 1.03044L31.1939 1.03044L31.1899 1.03044L31.1859 1.03044L31.1819 1.03044L31.1779 1.03044L31.1739 1.03044L31.1699 1.03044L31.1659 1.03044L31.1619 1.03044L31.1579 1.03044L31.1539 1.03044L31.15 1.03044L31.146 1.03044L31.142 1.03044L31.1381 1.03044L31.1341 1.03044L31.1301 1.03044L31.1262 1.03044L31.1222 1.03044L31.1183 1.03044L31.1143 1.03044L31.1104 1.03044L31.1065 1.03044L31.1025 1.03044L31.0986 1.03044L31.0947 1.03044L31.0907 1.03044L31.0868 1.03044L31.0829 1.03044L31.079 1.03044L31.0751 1.03044L31.0712 1.03044L31.0673 1.03044L31.0634 1.03044L31.0595 1.03044L31.0556 1.03044L31.0517 1.03044L31.0478 1.03044L31.0439 1.03044L31.0401 1.03044L31.0362 1.03044L31.0323 1.03044L31.0285 1.03044L31.0246 1.03044L31.0208 1.03044L31.0169 1.03044L31.0131 1.03044L31.0092 1.03044L31.0054 1.03044L31.0016 1.03044L30.9977 1.03044L30.9939 1.03044L30.9901 1.03044L30.9863 1.03044L30.9825 1.03044L30.9787 1.03044L30.9749 1.03044L30.9711 1.03044L30.9673 1.03044L30.9636 1.03044L30.9598 1.03044L30.956 1.03044L30.9522 1.03044L30.9485 1.03044L30.9447 1.03044L30.941 1.03044L30.9372 1.03044L30.9335 1.03044L30.9298 1.03044L30.926 1.03044L30.9223 1.03044L30.9186 1.03044L30.9149 1.03044L30.9112 1.03044L30.9075 1.03044L30.9038 1.03044L30.9001 1.03044L30.8964 1.03044L30.8927 1.03044L30.8891 1.03044L30.8854 1.03044L30.8818 1.03044L30.8781 1.03044L30.8745 1.03044L30.8708 1.03044L30.8672 1.03044L30.8636 1.03044L30.8599 1.03044L30.8563 1.03044L30.8527 1.03044L30.8491 1.03044L30.8455 1.03044L30.8419 1.03044L30.8383 1.03044L30.8348 1.03044L30.8312 1.03044L30.8276 1.03044L30.8241 1.03044L30.8205 1.03044L30.817 1.03044L30.8135 1.03044L30.8099 1.03044L30.8064 1.03044L30.8029 1.03044L30.7994 1.03044L30.7959 1.03044L30.7924 1.03044L30.7889 1.03044L30.7854 1.03044L30.7819 1.03044L30.7785 1.03044L30.775 1.03044L30.7716 1.03044L30.7681 1.03044L30.7647 1.03044L30.7613 1.03044L30.7578 1.03044L30.7544 1.03044L30.751 1.03044L30.7476 1.03044L30.7442 1.03044L30.7409 1.03044L30.7375 1.03044L30.7341 1.03044L30.7308 1.03044L30.7274 1.03044L30.7241 1.03044L30.7207 1.03044L30.7174 1.03044L30.7141 1.03044L30.7108 1.03044L30.7075 1.03044L30.7042 1.03044L30.7009 1.03044L30.6976 1.03044L30.6943 1.03044L30.6911 1.03044L30.6878 1.03044L30.6846 1.03044L30.6813 1.03044L30.6781 1.03044L30.6749 1.03044L30.6717 1.03044L30.6685 1.03044L30.6653 1.03044L30.6621 1.03044L30.6589 1.03044L30.6558 1.03044L30.6526 1.03044L30.6494 1.03044L30.6463 1.03044L30.6432 1.03044L30.6401 1.03044L30.6369 1.03044L30.6338 1.03044L30.6307 1.03044L30.6277 1.03044L30.6246 1.03044L30.6215 1.03044L30.6184 1.03044L30.6154 1.03044L30.6124 1.03044L30.6093 1.03044L30.6063 1.03044L30.6033 1.03044L30.6003 1.03044L30.5973 1.03044L30.5943 1.03044L30.5914 1.03044L30.5884 1.03044L30.5854 1.03044L30.5825 1.03044L30.5796 1.03044L30.5766 1.03044L30.5737 1.03044L30.5708 1.03044L30.5679 1.03044L30.565 1.03044L30.5622 1.03044L30.5593 1.03044L30.5565 1.03044L30.5536 1.03044L30.5508 1.03044L30.548 1.03044L30.5452 1.03044L30.5424 1.03044L30.5396 1.03044L30.5368 1.03044L30.534 1.03044L30.5313 1.03044L30.5285 1.03044L30.5258 1.03044L30.523 1.03044L30.5203 1.03044L30.5176 1.03044L30.5149 1.03044L30.5122 1.03044L30.5096 1.03044L30.5069 1.03044L30.5043 1.03044L30.5016 1.03044L30.499 1.03044L30.4964 1.03044L30.4938 1.03044L30.4912 1.03044L30.4886 1.03044L30.486 1.03044L30.4835 1.03044L30.4809 1.03044L30.4784 1.03044L30.4758 1.03044L30.4733 1.03044L30.4708 1.03044L30.4683 1.03044L30.4659 1.03044L30.4634 1.03044L30.4609 1.03044L30.4585 1.03044L30.4561 1.03044L30.4536 1.03044L30.4512 1.03044L30.4488 1.03044L30.4464 1.03044L30.4441 1.03044L30.4417 1.03044L30.4394 1.03044L30.437 1.03044L30.4347 1.03044L30.4324 1.03044L30.4301 1.03044L30.4278 1.03044L30.4255 1.03044L30.4233 1.03044L30.421 1.03044L30.4188 1.03044L30.4166 1.03044L30.4143 1.03044L30.4121 1.03044L30.41 1.03044L30.4078 1.03044L30.4056 1.03044L30.4035 1.03044L30.4013 1.03044L30.3992 1.03044L30.3971 1.03044L30.395 1.03044L30.3929 1.03044L30.3908 1.03044L30.3888 1.03044L30.3867 1.03044L30.3847 1.03044L30.3827 1.03044L30.3807 1.03044L30.3787 1.03044L30.3767 1.03044L30.3748 1.03044L30.3728 1.03044L30.3709 1.03044L30.3689 1.03044L30.367 1.03044L30.3651 1.03044L30.3633 1.03044L30.3614 1.03044L30.3595 1.03044L30.3577 1.03044L30.3559 1.03044L30.354 1.03044L30.3522 1.03044L30.3505 1.03044L30.3487 1.03044L30.3469 1.03044L30.3452 1.03044L30.3434 1.03044L30.3417 1.03044L30.34 1.03044L30.3383 1.03044L30.3367 1.03044L30.335 1.03044L30.3334 1.03044L30.3317 1.03044L30.3301 1.03044L30.3285 1.03044L30.3269 1.03044L30.3254 1.03044L30.3238 1.03044L30.3223 1.03044L30.3207 1.03044L30.3192 1.03044L30.3177 1.03044L30.3162 1.03044L30.3148 1.03044L30.3133 1.03044L30.3119 1.03044L30.3104 1.03044L30.309 1.03044L30.3076 1.03044L30.3063 1.03044L30.3049 1.03044L30.3036 1.03044L30.3022 1.03044L30.3009 1.03044L30.2996 1.03044L30.2983 1.03044L30.2971 1.03044L30.2958 1.03044L30.2946 1.03044L30.2933 1.03044L30.2921 1.03044L30.2909 1.03044L30.2898 1.03044L30.2886 1.03044L30.2874 1.03044L30.2863 1.03044L30.2852 1.03044L30.2841 1.03044L30.283 1.03044L30.282 1.03044L30.2809 1.03044L30.2799 1.03044L30.2789 1.03044L30.2778 1.03044L30.2769 1.03044L30.2759 1.03044L30.2749 1.03044L30.274 1.03044L30.2731 1.03044L30.2722 1.03044L30.2713 1.03044L30.2704 1.03044L30.2696 1.03044L30.2687 1.03044L30.2679 1.03044L30.2671 1.03044L30.2663 1.03044L30.2655 1.03044L30.2648 1.03044L30.2641 1.03044L30.2633 1.03044L30.2626 1.03044L30.2619 1.03044L30.2613 1.03044L30.2606 1.03044L30.26 1.03044L30.2594 1.03044L30.2588 1.03044L30.2582 1.03044L30.2576 1.03044L30.2571 1.03044L30.2565 1.03044L30.256 1.03044L30.2555 1.03044L30.255 1.03044L30.2546 1.03044L30.2541 1.03044L30.2537 1.03044L30.2533 1.03044L30.2529 1.03044L30.2525 1.03044L30.2522 1.03044L30.2518 1.03044L30.2515 1.03044L30.2512 1.03044L30.2509 1.03044L30.2507 1.03044L30.2504 1.03044L30.2502 1.03044L30.25 1.03044L30.2498 1.03044L30.2496 1.03044L30.2495 1.03044L30.2493 1.03044L30.2492 1.03044L30.2491 1.03044L30.249 1.03044L30.249 1.03044L30.2489 1.03044L11.8552 1.03044C6.36256 1.03044 1.89522 5.24002 1.89523 10.4505L1.89523 44.0543C1.89523 49.2648 6.36257 53.4744 11.8552 53.4744L17.9864 53.4744L20.2547 53.4744L20.2553 53.4744L21.3538 53.4845L21.3538 53.4845L21.3562 53.4845L22.8914 53.4744L22.8919 53.4744L24.1176 53.4744L24.1177 53.4744L24.1178 53.4744L24.1181 53.4744L24.1196 53.4744L24.1252 53.4744L24.1469 53.4744L24.2278 53.4744L24.5019 53.4744L25.2046 53.4744L28.404 53.4744L29.6523 53.4744L30.0205 53.4744L30.1195 53.4744L30.1452 53.4744L30.1517 53.4744L30.1533 53.4744L30.1537 53.4744L30.1538 53.4744L30.1539 53.3244L30.1539 53.4744L31.0685 53.4744L31.3639 53.4744L31.4461 53.4744L31.4677 53.4744L31.4733 53.4744L31.4746 53.4744L31.475 53.4744L31.4751 53.4744L31.4751 53.4744L32.7002 53.4744L32.7008 53.4744L32.7062 53.4745L32.7273 53.4748L32.8075 53.4759C32.8768 53.4769 32.9762 53.4781 33.0968 53.4794C33.3379 53.4819 33.664 53.4845 34.0033 53.4845C34.1492 53.4845 34.4353 53.4853 34.8224 53.4864C36.2277 53.4904 38.9638 53.4982 41.1532 53.4845C41.4187 53.4828 41.7585 53.4803 42.032 53.4782L42.3748 53.4755L42.4759 53.4747L42.5031 53.4744L42.5102 53.4744L42.5113 53.4744ZM4.64772 44.0543L4.64772 10.4505C4.64772 6.70143 7.86651 3.64795 11.8552 3.64795L100.145 3.64795C104.134 3.64795 107.352 6.70143 107.352 10.4505L107.352 44.0543C107.352 47.8034 104.134 50.8569 100.145 50.8569L11.8552 50.8569C7.86651 50.8569 4.64772 47.8034 4.64772 44.0543Z" fill="white" stroke="white" stroke-width="0.3"/>
<rect x="10.678" y="18.4739" width="4.31638" height="17.3873" rx="2.15819" fill="white"/>
</g>
<defs>
<clipPath id="clip0_5168_4536">
<rect width="54.3353" height="110.068" fill="white" transform="translate(0.966125 54.3352) rotate(-90)"/>
</clipPath>
</defs>
</svg>
