<svg width="140" height="108" viewBox="0 0 140 108" fill="none" xmlns="http://www.w3.org/2000/svg">
<g opacity="0.6" clip-path="url(#clip0_5168_4526)">
<path d="M0.10165 11.8565L0.101654 96.5596C0.101654 102.534 4.9931 107.397 11.0059 107.397L128.399 107.397C134.412 107.397 139.305 102.536 139.305 96.5596L139.305 11.8565C139.305 5.88371 134.414 1.02131 128.399 1.02131L11.0059 1.02132C4.9931 1.02132 0.10165 5.88372 0.10165 11.8565ZM128.399 4.8636C132.281 4.8636 135.438 8.00081 135.438 11.8565L135.438 96.5596C135.438 100.415 132.281 103.554 128.399 103.554L11.0059 103.554C7.12562 103.554 3.96841 100.417 3.96841 96.5596L3.96841 11.8565C3.96841 8.00082 7.12562 4.8636 11.0059 4.8636L128.399 4.8636Z" fill="white"/>
<rect x="8.73444" y="43.8843" width="4.31638" height="17.3873" rx="2.15819" fill="white"/>
</g>
<defs>
<clipPath id="clip0_5168_4526">
<rect width="107.584" height="139.203" fill="white" transform="translate(0.101654 108) rotate(-90)"/>
</clipPath>
</defs>
</svg>
