<svg width="140" height="108" viewBox="0 0 140 108" fill="none" xmlns="http://www.w3.org/2000/svg">
<g clip-path="url(#clip0_5168_4521)">
<path d="M-4.15398e-06 11.8565L-4.71187e-07 96.5596C-2.11412e-07 102.534 4.89145 107.397 10.9043 107.397L128.297 107.397C134.31 107.397 139.203 102.536 139.203 96.5596L139.203 11.8565C139.203 5.88371 134.312 1.02131 128.297 1.02131L10.9043 1.02132C4.89145 1.02132 -4.41367e-06 5.88372 -4.15398e-06 11.8565ZM128.297 4.8636C132.179 4.8636 135.337 8.00081 135.337 11.8565L135.337 96.5596C135.337 100.415 132.179 103.554 128.297 103.554L10.9043 103.554C7.02397 103.554 3.86676 100.417 3.86676 96.5596L3.86676 11.8565C3.86676 8.00082 7.02396 4.8636 10.9043 4.8636L128.297 4.8636Z" fill="white"/>
<rect x="8.63277" y="43.8843" width="4.31638" height="17.3873" rx="2.15819" fill="white"/>
</g>
<defs>
<clipPath id="clip0_5168_4521">
<rect width="107.584" height="139.203" fill="white" transform="translate(0 108) rotate(-90)"/>
</clipPath>
</defs>
</svg>
