<svg width="54" height="27" viewBox="0 0 54 27" fill="none" xmlns="http://www.w3.org/2000/svg">
<g opacity="0.3" clip-path="url(#clip0_5135_3233)">
<path d="M20.4565 25.6776L48.6693 25.6776C51.393 25.6776 53.6215 23.6345 53.6215 21.0898L53.6215 5.0028C53.6215 2.4581 51.393 0.41502 48.6693 0.41502L20.4559 0.415021L19.7476 0.415021L19.7476 0.565021L19.7475 0.415021L19.7474 0.415021L19.7471 0.415021L19.7468 0.415021L19.7464 0.415021L19.7459 0.415021L19.7452 0.415021L19.7445 0.415021L19.7437 0.415021L19.7428 0.415021L19.7418 0.415021L19.7407 0.415021L19.7395 0.415021L19.7383 0.415021L19.7369 0.415021L19.7354 0.415021L19.7339 0.415021L19.7322 0.415021L19.7305 0.415021L19.7287 0.415021L19.7268 0.415021L19.7248 0.415021L19.7227 0.415021L19.7205 0.415021L19.7183 0.415021L19.7159 0.415021L19.7135 0.415021L19.7109 0.415021L19.7083 0.415021L19.7056 0.415021L19.7028 0.415021L19.7 0.415021L19.697 0.415021L19.694 0.415021L19.6908 0.415021L19.6876 0.415021L19.6843 0.415021L19.681 0.415021L19.6775 0.415021L19.674 0.415021L19.6703 0.415021L19.6666 0.415021L19.6628 0.415021L19.659 0.415021L19.655 0.415021L19.651 0.415021L19.6469 0.415021L19.6427 0.415021L19.6384 0.415021L19.6341 0.415021L19.6296 0.415021L19.6251 0.415021L19.6205 0.415021L19.6159 0.415021L19.6111 0.415021L19.6063 0.415021L19.6014 0.415021L19.5965 0.415021L19.5914 0.415021L19.5863 0.415021L19.5811 0.415021L19.5758 0.415021L19.5705 0.415021L19.5651 0.415021L19.5596 0.415021L19.554 0.415021L19.5484 0.415021L19.5427 0.415021L19.5369 0.415021L19.531 0.415021L19.5251 0.415021L19.5191 0.415021L19.513 0.415021L19.5069 0.415021L19.5007 0.415021L19.4944 0.415021L19.4881 0.415021L19.4816 0.415021L19.4752 0.415021L19.4686 0.415021L19.462 0.415021L19.4553 0.415021L19.4485 0.415021L19.4417 0.415021L19.4348 0.415021L19.4279 0.415021L19.4209 0.415021L19.4138 0.415021L19.4066 0.415021L19.3994 0.415021L19.3921 0.415021L19.3848 0.415021L19.3774 0.415021L19.3699 0.415021L19.3624 0.415021L19.3548 0.415021L19.3471 0.415021L19.3394 0.415021L19.3316 0.415021L19.3238 0.415021L19.3159 0.415021L19.3079 0.415021L19.2999 0.415021L19.2918 0.415021L19.2837 0.415021L19.2755 0.415021L19.2672 0.415021L19.2589 0.415021L19.2506 0.415021L19.2421 0.415021L19.2336 0.415021L19.2251 0.415021L19.2165 0.415021L19.2079 0.415021L19.1991 0.415021L19.1904 0.415021L19.1816 0.415021L19.1727 0.415021L19.1638 0.415021L19.1548 0.415021L19.1457 0.415021L19.1367 0.415021L19.1275 0.415021L19.1183 0.415021L19.1091 0.415021L19.0998 0.415021L19.0904 0.415021L19.081 0.415021L19.0716 0.415021L19.0621 0.415021L19.0526 0.415021L19.043 0.415021L19.0333 0.415021L19.0236 0.415021L19.0139 0.415021L19.0041 0.415021L18.9943 0.415021L18.9844 0.415021L18.9744 0.415021L18.9645 0.415021L18.9544 0.415021L18.9444 0.415021L18.9343 0.415021L18.9241 0.415021L18.9139 0.415021L18.9037 0.415021L18.8934 0.415021L18.883 0.415021L18.8727 0.415021L18.8622 0.415021L18.8518 0.415021L18.8413 0.415021L18.8307 0.415021L18.8201 0.415021L18.8095 0.415021L18.7988 0.415021L18.7881 0.415021L18.7774 0.415021L18.7666 0.415021L18.7558 0.415021L18.7449 0.415021L18.734 0.415021L18.7231 0.415021L18.7121 0.415021L18.7011 0.415021L18.69 0.415021L18.6789 0.415021L18.6678 0.415021L18.6566 0.415021L18.6454 0.415021L18.6342 0.415021L18.6229 0.415021L18.6116 0.415021L18.6003 0.415021L18.5889 0.415021L18.5775 0.415021L18.5661 0.415021L18.5546 0.415021L18.5431 0.415021L18.5316 0.415021L18.52 0.415021L18.5084 0.415021L18.4968 0.415021L18.4851 0.415021L18.4735 0.415021L18.4617 0.415021L18.45 0.415021L18.4382 0.415021L18.4264 0.415021L18.4146 0.415021L18.4027 0.415021L18.3909 0.415021L18.3789 0.415021L18.367 0.415021L18.355 0.415021L18.343 0.415021L18.331 0.415021L18.319 0.415021L18.3069 0.415021L18.2948 0.415021L18.2827 0.415021L18.2706 0.415021L18.2584 0.415021L18.2462 0.415021L18.234 0.415021L18.2218 0.415021L18.2095 0.415021L18.1973 0.415021L18.185 0.415021L18.1726 0.415021L18.1603 0.415021L18.148 0.415021L18.1356 0.415021L18.1232 0.415021L18.1108 0.415021L18.0983 0.415021L18.0859 0.415021L18.0734 0.415021L18.0609 0.415021L18.0484 0.415021L18.0359 0.415021L18.0234 0.415021L18.0108 0.415021L17.9982 0.415021L17.9856 0.415021L17.973 0.415021L17.9604 0.415021L17.9478 0.415021L17.9352 0.415021L17.9225 0.415021L17.9098 0.415021L17.8971 0.415021L17.8844 0.415021L17.8717 0.415021L17.859 0.415021L17.8463 0.415021L17.8335 0.415021L17.8208 0.415021L17.808 0.415021L17.7952 0.415021L17.7825 0.415021L17.7697 0.415021L17.7569 0.415021L17.7441 0.415021L17.7312 0.415021L17.7184 0.415021L17.7056 0.415021L17.6927 0.415021L17.6799 0.415021L17.667 0.415021L17.6542 0.415021L17.6413 0.415021L17.6284 0.415021L17.6156 0.415021L17.6027 0.415021L17.5898 0.415021L17.5769 0.415021L17.564 0.415021L17.5511 0.415021L17.5382 0.415021L17.5253 0.415021L17.5124 0.415021L17.4995 0.415021L17.4866 0.415021L17.4737 0.415021L17.4608 0.415021L17.4479 0.415021L17.435 0.415021L17.4221 0.415021L17.4092 0.415021L17.3963 0.415021L17.3834 0.415021L17.3705 0.415021L17.3576 0.415021L17.3447 0.415021L17.3318 0.415021L17.3189 0.415021L17.306 0.415021L17.2932 0.415021L17.2803 0.415021L17.2674 0.415021L17.2545 0.415021L17.2417 0.415021L17.2288 0.415021L17.216 0.415021L17.2031 0.415021L17.1903 0.415021L17.1775 0.415021L17.1647 0.415021L17.1519 0.415021L17.1391 0.415021L17.1263 0.415021L17.1135 0.415021L17.1007 0.415021L17.088 0.415021L17.0752 0.415021L17.0625 0.415021L17.0497 0.415021L17.037 0.415021L17.0243 0.415021L17.0116 0.415021L16.9989 0.415021L16.9863 0.415021L16.9736 0.415021L16.961 0.415021L16.9483 0.415021L16.9357 0.415021L16.9231 0.415021L16.9105 0.415021L16.898 0.415021L16.8854 0.415021L16.8729 0.415021L16.8604 0.415021L16.8479 0.415021L16.8354 0.415021L16.8229 0.415021L16.8104 0.415021L16.798 0.415021L16.7856 0.415021L16.7732 0.415021L16.7608 0.415021L16.7485 0.415021L16.7361 0.415021L16.7238 0.415021L16.7115 0.415021L16.6993 0.415021L16.687 0.415021L16.6748 0.415021L16.6626 0.415021L16.6504 0.415021L16.6382 0.415021L16.6261 0.415021L16.614 0.415021L16.6019 0.415021L16.5898 0.415021L16.5778 0.415021L16.5658 0.415021L16.5538 0.415021L16.5418 0.415021L16.5299 0.415021L16.518 0.415021L16.5061 0.415021L16.4943 0.415021L16.4824 0.415021L16.4706 0.415021L16.4589 0.415021L16.4471 0.415021L16.4354 0.415021L16.4237 0.415021L16.4121 0.415021L16.4005 0.415021L16.3889 0.415021L16.3773 0.415021L16.3658 0.415021L16.3543 0.415021L16.3428 0.415021L16.3314 0.415021L16.32 0.415021L16.3086 0.415021L16.2973 0.415021L16.286 0.415021L16.2747 0.415021L16.2635 0.415021L16.2523 0.415021L16.2412 0.415021L16.23 0.415021L16.219 0.415021L16.2079 0.415021L16.1969 0.415021L16.1859 0.415021L16.175 0.415021L16.1641 0.415021L16.1532 0.415021L16.1424 0.415021L16.1316 0.415021L16.1209 0.415021L16.1102 0.415021L16.0995 0.415021L16.0889 0.415021L16.0783 0.415021L16.0678 0.415021L16.0573 0.415021L16.0468 0.415021L16.0364 0.415021L16.026 0.415021L16.0157 0.415021L16.0054 0.415021L15.9952 0.415021L15.985 0.415021L15.9748 0.415021L15.9647 0.415021L15.9547 0.415021L15.9446 0.415021L15.9347 0.415021L15.9247 0.415021L15.9149 0.415021L15.905 0.415021L15.8952 0.415021L15.8855 0.415021L15.8758 0.415021L15.8662 0.415021L15.8566 0.415021L15.8471 0.415021L15.8376 0.415021L15.8281 0.415021L15.8187 0.415021L15.8094 0.415021L15.8001 0.415021L15.7909 0.415021L15.7817 0.415021L15.7726 0.415021L15.7635 0.415021L15.7545 0.415021L15.7455 0.415021L15.7366 0.415021L15.7277 0.415021L15.7189 0.415021L15.7101 0.415021L15.7014 0.415021L15.6928 0.415021L15.6842 0.415021L15.6757 0.415021L15.6672 0.415021L15.6588 0.415021L15.6504 0.415021L15.6421 0.415021L15.6338 0.415021L15.6256 0.415021L15.6175 0.415021L15.6094 0.415021L15.6014 0.415021L15.5935 0.415021L15.5856 0.415021L15.5778 0.415021L15.57 0.415021L15.5623 0.415021L15.5546 0.415021L15.547 0.415021L15.5395 0.415021L15.5321 0.415021L15.5247 0.415021L15.5173 0.415021L15.5101 0.415021L15.5029 0.415021L15.4957 0.415021L15.4886 0.415021L15.4816 0.415021L15.4747 0.415021L15.4678 0.415021L15.461 0.415021L15.4542 0.415021L15.4476 0.415021L15.4409 0.415021L15.4344 0.415021L15.4279 0.415021L15.4215 0.415021L15.4152 0.415021L15.4089 0.415021L15.4027 0.415021L15.3966 0.415021L15.3905 0.415021L15.3845 0.415021L15.3786 0.415021L15.3728 0.415021L15.367 0.415021L15.3613 0.415021L15.3557 0.415021L15.3501 0.415021L15.3446 0.415021L15.3392 0.415021L15.3339 0.415021L15.3286 0.415021L15.3234 0.415021L15.3183 0.415021L15.3133 0.415021L15.3083 0.415021L15.3035 0.415021L15.2986 0.415021L15.2939 0.415021L15.2893 0.415021L15.2847 0.415021L15.2802 0.415021L15.2758 0.415021L15.2714 0.415021L15.2672 0.415021L15.263 0.415021L15.2589 0.415021L15.2549 0.415021L15.2509 0.415021L15.2471 0.415021L15.2433 0.415021L15.2396 0.415021L15.236 0.415021L15.2324 0.415021L15.229 0.415021L15.2256 0.415021L15.2224 0.415021L15.2192 0.415021L15.216 0.415021L15.213 0.415021L15.2101 0.415021L15.2072 0.415021L15.2044 0.415021L15.2017 0.415021L15.1991 0.415021L15.1966 0.415021L15.1942 0.415021L15.1919 0.415021L15.1896 0.415021L15.1874 0.415021L15.1854 0.415021L15.1834 0.415021L15.1814 0.415021L15.1795 0.415021L15.1775 0.415021L15.1756 0.415021L15.1736 0.415021L15.1717 0.415021L15.1697 0.415021L15.1678 0.415021L15.1658 0.415021L15.1639 0.415021L15.1619 0.415021L15.16 0.415021L15.158 0.415021L15.156 0.415021L15.1541 0.415021L15.1521 0.415021L15.1501 0.415021L15.1482 0.415021L15.1462 0.415021L15.1442 0.415021L15.1423 0.415021L15.1403 0.415021L15.1383 0.415021L15.1364 0.415021L15.1344 0.415021L15.1324 0.415021L15.1304 0.415021L15.1285 0.415021L15.1265 0.415021L15.1245 0.415021L15.1225 0.415021L15.1205 0.415021L15.1186 0.415021L15.1166 0.415021L15.1146 0.415021L15.1126 0.415021L15.1106 0.415021L15.1086 0.415021L15.1066 0.415021L15.1047 0.415021L15.1027 0.415021L15.1007 0.415021L15.0987 0.415021L15.0967 0.415021L15.0947 0.415021L15.0927 0.415021L15.0907 0.415021L15.0887 0.415021L15.0867 0.415021L15.0848 0.415021L15.0828 0.415021L15.0808 0.415021L15.0788 0.415021L15.0768 0.415021L15.0748 0.415021L15.0728 0.415021L15.0708 0.415021L15.0688 0.415021L15.0668 0.415021L15.0648 0.415021L15.0628 0.415021L15.0608 0.415021L15.0588 0.415021L15.0568 0.415021L15.0548 0.415021L15.0528 0.415021L15.0508 0.415021L15.0488 0.415021L15.0468 0.415021L15.0448 0.415021L15.0428 0.415021L15.0408 0.415021L15.0388 0.415021L15.0368 0.415021L15.0348 0.415021L15.0328 0.415021L15.0308 0.415021L15.0288 0.415021L15.0268 0.415021L15.0248 0.415021L15.0228 0.415021L15.0208 0.415021L15.0188 0.415021L15.0168 0.415021L15.0148 0.415021L15.0128 0.415021L15.0108 0.415021L15.0088 0.415021L15.0068 0.415021L15.0048 0.415021L15.0028 0.415021L15.0008 0.415021L14.9988 0.415021L14.9968 0.415021L14.9949 0.415021L14.9929 0.415021L14.9909 0.415021L14.9889 0.415021L14.9869 0.415021L14.9849 0.415021L14.9829 0.415021L14.9809 0.415021L14.9789 0.415021L14.9769 0.415021L14.9749 0.415021L14.9729 0.415021L14.971 0.415021L14.969 0.415021L14.967 0.415021L14.965 0.415021L14.963 0.415021L14.961 0.415021L14.959 0.415021L14.9571 0.415021L14.9551 0.415021L14.9531 0.415021L14.9511 0.415021L14.9491 0.415021L14.9472 0.415021L14.9452 0.415021L14.9432 0.415021L14.9412 0.415021L14.9392 0.415021L14.9373 0.415021L14.9353 0.415021L14.9333 0.415021L14.9314 0.415021L14.9294 0.415021L14.9274 0.415021L14.9255 0.415021L14.9235 0.415021L14.9215 0.415021L14.9196 0.415021L14.9176 0.415021L14.9156 0.415021L14.9137 0.415021L14.9117 0.415021L14.9098 0.415021L14.9078 0.415021L14.9058 0.415021L14.9039 0.415021L14.9019 0.415021L14.9 0.415021L14.898 0.415021L14.8961 0.415021L14.8941 0.415021L14.8922 0.415021L14.8903 0.415021L14.8883 0.415021L14.8864 0.415021L14.8844 0.415021L14.8825 0.415021L14.8806 0.415021L14.8786 0.415021L14.8767 0.415021L14.8748 0.415021L14.8728 0.415021L14.8709 0.415021L14.869 0.415021L14.8671 0.415021L14.8652 0.415021L14.8632 0.415021L14.8613 0.415021L14.8594 0.415021L14.8575 0.415021L14.8556 0.415021L14.8537 0.415021L14.8518 0.415021L14.8498 0.415021L14.8479 0.415021L14.846 0.415021L14.8441 0.415021L14.8422 0.415021L14.8403 0.415021L14.8385 0.415021L14.8366 0.415021L14.8347 0.415021L14.8328 0.415021L14.8309 0.415021L14.829 0.415021L14.8271 0.415021L14.8253 0.415021L14.8234 0.415021L14.8215 0.415021L14.8196 0.415021L14.8178 0.415021L14.8159 0.415021L14.814 0.415021L14.8122 0.415021L14.8103 0.415021L14.8084 0.415021L14.8066 0.415021L14.8047 0.415021L14.8029 0.415021L14.801 0.415021L14.7992 0.415021L14.7974 0.415021L14.7955 0.415021L14.7937 0.415021L14.7918 0.415021L14.79 0.415021L14.7882 0.415021L14.7863 0.415021L14.7845 0.415021L14.7827 0.415021L14.7809 0.415021L14.7791 0.415021L14.7773 0.415021L14.7754 0.415021L14.7736 0.415021L14.7718 0.415021L14.77 0.415021L14.7682 0.415021L14.7664 0.415021L14.7646 0.415021L14.7628 0.415021L14.7611 0.415021L14.7593 0.415021L14.7575 0.415021L14.7557 0.415021L14.7539 0.415021L14.7522 0.415021L14.7504 0.415021L14.7486 0.415021L14.7469 0.415021L14.7451 0.415021L14.7434 0.415021L14.7416 0.415021L14.7398 0.415021L14.7381 0.415021L14.7364 0.415021L14.7346 0.415021L14.7329 0.415021L14.7311 0.415021L14.7294 0.415021L14.7277 0.415021L14.726 0.415021L14.7242 0.415021L14.7225 0.415021L14.7208 0.415021L14.7191 0.415021L14.7174 0.415021L14.7157 0.415021L14.714 0.415021L14.7123 0.415021L14.7106 0.415021L14.7089 0.415021L14.7072 0.415021L14.7055 0.415021L14.7039 0.415021L14.7022 0.415021L14.7005 0.415021L14.6989 0.415021L14.6972 0.415021L14.6955 0.415021L14.6939 0.415021L14.6922 0.415021L14.6906 0.415021L14.6889 0.415021L14.6873 0.415021L14.6857 0.415021L14.684 0.415021L14.6824 0.415021L14.6808 0.415021L14.6791 0.415021L14.6775 0.415021L14.6759 0.415021L14.6743 0.415021L14.6727 0.415021L14.6711 0.415021L14.6695 0.415021L14.6679 0.415021L14.6663 0.415021L14.6647 0.415021L14.6632 0.415021L14.6616 0.415021L14.66 0.415021L14.6584 0.415021L14.6569 0.415021L14.6553 0.415021L14.6538 0.415021L14.6522 0.415021L14.6507 0.415021L14.6491 0.415021L14.6476 0.415021L14.6461 0.415021L14.6445 0.415021L14.643 0.415021L14.6415 0.415021L14.64 0.415021L14.6385 0.415021L14.637 0.415021L14.6354 0.415021L14.634 0.415021L14.6325 0.415021L14.631 0.415021L14.6295 0.415021L14.628 0.415021L14.6265 0.415021L14.6251 0.415021L14.6236 0.415021L14.6221 0.415021L14.6207 0.415021L14.6192 0.415021L14.6178 0.415021L14.6164 0.415021L14.6149 0.415021L14.6135 0.415021L14.6121 0.415021L14.6106 0.415021L14.6092 0.415021L14.6078 0.415021L14.6064 0.415021L14.605 0.415021L14.6036 0.415021L14.6022 0.415021L14.6008 0.415021L14.5994 0.415021L14.5981 0.415021L14.5967 0.415021L14.5953 0.415021L14.594 0.415021L14.5926 0.415021L14.5913 0.415021L14.5899 0.415021L14.5886 0.415021L14.5872 0.415021L14.5859 0.415021L14.5846 0.415021L14.5833 0.415021L14.582 0.415021L14.5807 0.415021L14.5793 0.415021L14.5781 0.415021L14.5768 0.415021L14.5755 0.415021L14.5742 0.415021L14.5729 0.415021L14.5716 0.415021L14.5704 0.415021L14.5691 0.415021L14.5679 0.415021L14.5666 0.415021L14.5654 0.415021L14.5641 0.415021L14.5629 0.415021L14.5617 0.415021L14.5605 0.415021L14.5593 0.415021L14.558 0.415021L14.5568 0.415021L14.5556 0.415021L14.5545 0.415021L14.5533 0.415021L14.5521 0.415021L14.5509 0.415021L14.5497 0.415021L14.5486 0.415021L14.5474 0.415021L14.5463 0.415021L14.5451 0.415021L14.544 0.415021L14.5429 0.415021L14.5417 0.415021L14.5406 0.415021L14.5395 0.415021L14.5384 0.415021L14.5373 0.415021L14.5362 0.415021L14.5351 0.415021L14.534 0.415021L14.533 0.415021L14.5319 0.415021L14.5308 0.415021L14.5298 0.415021L14.5287 0.415021L14.5277 0.415021L14.5266 0.415021L14.5256 0.415021L14.5246 0.415021L14.5235 0.415021L14.5225 0.415021L14.5215 0.415021L14.5205 0.415021L14.5195 0.415021L14.5185 0.415021L14.5176 0.415021L14.5166 0.415021L14.5156 0.415021L14.5147 0.415021L14.5137 0.415021L14.5128 0.415021L14.5118 0.415021L14.5109 0.415021L14.5099 0.415021L14.509 0.415021L14.5081 0.415021L14.5072 0.415021L14.5063 0.415021L14.5054 0.415021L14.5045 0.415021L14.5036 0.415021L14.5028 0.415021L14.5019 0.415021L14.501 0.415021L14.5002 0.415021L14.4993 0.415021L14.4985 0.415021L14.4977 0.415021L14.4968 0.415021L14.496 0.415021L14.4952 0.415021L14.4944 0.415021L14.4936 0.415021L14.4928 0.415021L14.492 0.415021L14.4912 0.415021L14.4905 0.415021L14.4897 0.415021L14.489 0.415021L14.4882 0.415021L14.4875 0.415021L14.4867 0.415021L14.486 0.415021L14.4853 0.415021L14.4846 0.415021L14.4839 0.415021L14.4832 0.415021L14.4825 0.415021L14.4818 0.415021L14.4811 0.415021L14.4805 0.415021L14.4798 0.415021L14.4791 0.415021L14.4785 0.415021L14.4779 0.415021L14.4772 0.415021L14.4766 0.415021L14.476 0.415021L14.4754 0.415021L14.4748 0.415021L14.4742 0.415021L14.4736 0.415021L14.473 0.415021L14.4725 0.415021L14.4719 0.415021L14.4714 0.415021L14.4708 0.415021L14.4703 0.415021L14.4697 0.415021L14.4692 0.415021L14.4687 0.415021L14.4682 0.415021L14.4677 0.415021L14.4672 0.415021L14.4667 0.415021L14.4663 0.415021L14.4658 0.415021L14.4653 0.415021L14.4649 0.415021L14.4644 0.415021L14.464 0.415021L14.4636 0.415021L14.4632 0.415021L14.4628 0.415021L14.4623 0.415021L14.462 0.415021L14.4616 0.415021L14.4612 0.415021L14.4608 0.415021L14.4605 0.415021L14.4601 0.415021L14.4598 0.415021L14.4594 0.415021L14.4591 0.415021L14.4588 0.415021L14.4585 0.415021L14.4582 0.415021L14.4579 0.415021L14.4576 0.415021L14.4573 0.415021L14.457 0.415021L14.4568 0.415021L14.4565 0.415021L14.4563 0.415021L14.4561 0.415021L14.4558 0.415021L14.4556 0.415021L14.4554 0.415021L14.4552 0.415021L14.455 0.415021L14.4548 0.415021L14.4547 0.415021L14.4545 0.415021L14.4543 0.415021L14.4542 0.415021L14.454 0.415021L14.4539 0.415021L14.4538 0.415021L14.4537 0.415021L14.4536 0.415021L14.4535 0.415021L14.4534 0.415021L14.4533 0.415021L14.4533 0.415021L14.4532 0.415021L14.4531 0.415021L14.4531 0.415021L14.4531 0.415021L14.453 0.415021L5.44876 0.415022C2.72506 0.415022 0.496483 2.4581 0.496483 5.00281L0.496484 21.0898C0.496484 23.6345 2.72506 25.6776 5.44876 25.6776L8.45019 25.6776L9.56022 25.6776L9.5609 25.6776L10.098 25.6824L10.098 25.6824L10.1003 25.6824L10.8513 25.6776L10.8518 25.6776L11.4516 25.6776L11.4516 25.5276L11.4516 25.6776L11.4516 25.6776L11.4517 25.6776L11.4518 25.6776L11.4525 25.6776L11.4553 25.6776L11.4659 25.6776L11.5055 25.6776L11.6397 25.6776L11.9837 25.6776L13.5499 25.6776L14.161 25.6776L14.3412 25.6776L14.3897 25.6776L14.4023 25.6776L14.4055 25.6776L14.4063 25.6776L14.4065 25.6776L14.4065 25.6776L14.4065 25.5276L14.4065 25.6776L14.8542 25.6776L14.9989 25.6776L15.0391 25.6776L15.0497 25.6776L15.0524 25.6776L15.0531 25.6776L15.0533 25.6776L15.0533 25.6776L15.0533 25.6776L15.0533 25.5276L15.0533 25.6776L15.6524 25.6776L15.6548 25.6776L15.6652 25.6777L15.7046 25.6783L15.8464 25.68C15.9646 25.6812 16.1245 25.6824 16.2909 25.6824C16.3622 25.6824 16.502 25.6828 16.6912 25.6833C17.3789 25.6852 18.7193 25.689 19.7915 25.6824C19.9215 25.6816 20.0879 25.6804 20.2218 25.6794L20.3896 25.6781L20.4391 25.6777L20.4525 25.6776L20.4559 25.6776L20.4565 25.6776ZM1.99705 21.0898L1.99705 5.00281C1.99705 3.25839 3.53107 1.82447 5.44876 1.82447L48.6693 1.82447C50.5869 1.82447 52.121 3.25839 52.121 5.0028L52.121 21.0898C52.121 22.8342 50.5869 24.2681 48.6693 24.2681L5.44876 24.2681C3.53107 24.2681 1.99705 22.8342 1.99705 21.0898Z" fill="white" stroke="white" stroke-width="0.3"/>
<rect x="4.87305" y="8.84424" width="2.11213" height="8.3237" rx="1.05606" fill="white"/>
</g>
<defs>
<clipPath id="clip0_5135_3233">
<rect width="26.0116" height="53.8816" fill="white" transform="translate(0.118652 26.0117) rotate(-90)"/>
</clipPath>
</defs>
</svg>
