<svg width="111" height="55" viewBox="0 0 111 55" fill="none" xmlns="http://www.w3.org/2000/svg">
<g opacity="0.3" clip-path="url(#clip0_5168_4539)">
<path d="M42.4774 53.4744L42.4781 53.4744L100.111 53.4744C105.604 53.4744 110.071 49.2648 110.071 44.0543L110.071 10.4505C110.071 5.24002 105.604 1.03043 100.111 1.03043L42.4774 1.03044L41.0305 1.03044L41.0305 1.18044L41.0304 1.03044L41.0301 1.03044L41.0296 1.03044L41.029 1.03044L41.0281 1.03044L41.027 1.03044L41.0257 1.03044L41.0243 1.03044L41.0226 1.03044L41.0208 1.03044L41.0187 1.03044L41.0165 1.03044L41.0141 1.03044L41.0115 1.03044L41.0087 1.03044L41.0057 1.03044L41.0025 1.03044L40.9992 1.03044L40.9957 1.03044L40.9919 1.03044L40.988 1.03044L40.984 1.03044L40.9797 1.03044L40.9752 1.03044L40.9706 1.03044L40.9658 1.03044L40.9608 1.03044L40.9557 1.03044L40.9503 1.03044L40.9448 1.03044L40.9391 1.03044L40.9333 1.03044L40.9272 1.03044L40.921 1.03044L40.9146 1.03044L40.9081 1.03044L40.9013 1.03044L40.8944 1.03044L40.8874 1.03044L40.8801 1.03044L40.8727 1.03044L40.8652 1.03044L40.8574 1.03044L40.8495 1.03044L40.8414 1.03044L40.8332 1.03044L40.8248 1.03044L40.8162 1.03044L40.8075 1.03044L40.7986 1.03044L40.7896 1.03044L40.7804 1.03044L40.771 1.03044L40.7615 1.03044L40.7518 1.03044L40.742 1.03044L40.732 1.03044L40.7218 1.03044L40.7115 1.03044L40.7011 1.03044L40.6904 1.03044L40.6797 1.03044L40.6688 1.03044L40.6577 1.03044L40.6465 1.03044L40.6351 1.03044L40.6236 1.03044L40.6119 1.03044L40.6001 1.03044L40.5881 1.03044L40.576 1.03044L40.5638 1.03044L40.5514 1.03044L40.5388 1.03044L40.5262 1.03044L40.5133 1.03044L40.5004 1.03044L40.4873 1.03044L40.474 1.03044L40.4606 1.03044L40.4471 1.03044L40.4334 1.03044L40.4196 1.03044L40.4057 1.03044L40.3916 1.03044L40.3774 1.03044L40.3631 1.03044L40.3486 1.03044L40.334 1.03044L40.3193 1.03044L40.3044 1.03044L40.2894 1.03044L40.2743 1.03044L40.259 1.03044L40.2436 1.03044L40.2281 1.03044L40.2125 1.03044L40.1967 1.03044L40.1808 1.03044L40.1648 1.03044L40.1487 1.03044L40.1324 1.03044L40.116 1.03044L40.0995 1.03044L40.0829 1.03044L40.0662 1.03044L40.0493 1.03044L40.0323 1.03044L40.0152 1.03044L39.998 1.03044L39.9807 1.03044L39.9632 1.03044L39.9457 1.03044L39.928 1.03044L39.9102 1.03044L39.8923 1.03044L39.8743 1.03044L39.8561 1.03044L39.8379 1.03044L39.8196 1.03044L39.8011 1.03044L39.7826 1.03044L39.7639 1.03044L39.7451 1.03044L39.7262 1.03044L39.7072 1.03044L39.6881 1.03044L39.669 1.03044L39.6497 1.03044L39.6303 1.03044L39.6107 1.03044L39.5911 1.03044L39.5714 1.03044L39.5516 1.03044L39.5317 1.03044L39.5118 1.03044L39.4917 1.03044L39.4715 1.03044L39.4512 1.03044L39.4308 1.03044L39.4103 1.03044L39.3898 1.03044L39.3691 1.03044L39.3484 1.03044L39.3275 1.03044L39.3066 1.03044L39.2856 1.03044L39.2644 1.03044L39.2432 1.03044L39.222 1.03044L39.2006 1.03044L39.1791 1.03044L39.1576 1.03044L39.136 1.03044L39.1143 1.03044L39.0925 1.03044L39.0706 1.03044L39.0486 1.03044L39.0266 1.03044L39.0045 1.03044L38.9823 1.03044L38.96 1.03044L38.9377 1.03044L38.9152 1.03044L38.8927 1.03044L38.8701 1.03044L38.8475 1.03044L38.8248 1.03044L38.802 1.03044L38.7791 1.03044L38.7561 1.03044L38.7331 1.03044L38.71 1.03044L38.6869 1.03044L38.6636 1.03044L38.6404 1.03044L38.617 1.03044L38.5936 1.03044L38.5701 1.03044L38.5465 1.03044L38.5229 1.03044L38.4992 1.03044L38.4755 1.03044L38.4517 1.03044L38.4278 1.03044L38.4039 1.03044L38.3799 1.03044L38.3558 1.03044L38.3317 1.03044L38.3075 1.03044L38.2833 1.03044L38.259 1.03044L38.2347 1.03044L38.2103 1.03044L38.1859 1.03044L38.1614 1.03044L38.1368 1.03044L38.1122 1.03044L38.0876 1.03044L38.0629 1.03044L38.0381 1.03044L38.0133 1.03044L37.9885 1.03044L37.9636 1.03044L37.9387 1.03044L37.9137 1.03044L37.8887 1.03044L37.8636 1.03044L37.8385 1.03044L37.8133 1.03044L37.7881 1.03044L37.7629 1.03044L37.7376 1.03044L37.7122 1.03044L37.6869 1.03044L37.6615 1.03044L37.636 1.03044L37.6106 1.03044L37.5851 1.03044L37.5595 1.03044L37.5339 1.03044L37.5083 1.03044L37.4827 1.03044L37.457 1.03044L37.4313 1.03044L37.4055 1.03044L37.3798 1.03044L37.354 1.03044L37.3281 1.03044L37.3023 1.03044L37.2764 1.03044L37.2505 1.03044L37.2246 1.03044L37.1986 1.03044L37.1726 1.03044L37.1466 1.03044L37.1206 1.03044L37.0945 1.03044L37.0684 1.03044L37.0424 1.03044L37.0162 1.03044L36.9901 1.03044L36.964 1.03044L36.9378 1.03044L36.9116 1.03044L36.8854 1.03044L36.8592 1.03044L36.833 1.03044L36.8067 1.03044L36.7805 1.03044L36.7542 1.03044L36.7279 1.03044L36.7016 1.03044L36.6753 1.03044L36.649 1.03044L36.6227 1.03044L36.5963 1.03044L36.57 1.03044L36.5437 1.03044L36.5173 1.03044L36.491 1.03044L36.4646 1.03044L36.4383 1.03044L36.4119 1.03044L36.3855 1.03044L36.3592 1.03044L36.3328 1.03044L36.3065 1.03044L36.2801 1.03044L36.2537 1.03044L36.2274 1.03044L36.201 1.03044L36.1747 1.03044L36.1483 1.03044L36.122 1.03044L36.0957 1.03044L36.0693 1.03044L36.043 1.03044L36.0167 1.03044L35.9904 1.03044L35.9641 1.03044L35.9378 1.03044L35.9116 1.03044L35.8853 1.03044L35.8591 1.03044L35.8328 1.03044L35.8066 1.03044L35.7804 1.03044L35.7542 1.03044L35.7281 1.03044L35.7019 1.03044L35.6758 1.03044L35.6497 1.03044L35.6236 1.03044L35.5975 1.03044L35.5715 1.03044L35.5454 1.03044L35.5194 1.03044L35.4935 1.03044L35.4675 1.03044L35.4416 1.03044L35.4157 1.03044L35.3898 1.03044L35.3639 1.03044L35.3381 1.03044L35.3123 1.03044L35.2865 1.03044L35.2608 1.03044L35.2351 1.03044L35.2094 1.03044L35.1838 1.03044L35.1582 1.03044L35.1326 1.03044L35.107 1.03044L35.0815 1.03044L35.0561 1.03044L35.0306 1.03044L35.0052 1.03044L34.9799 1.03044L34.9546 1.03044L34.9293 1.03044L34.9041 1.03044L34.8789 1.03044L34.8537 1.03044L34.8286 1.03044L34.8035 1.03044L34.7785 1.03044L34.7535 1.03044L34.7286 1.03044L34.7037 1.03044L34.6789 1.03044L34.6541 1.03044L34.6293 1.03044L34.6046 1.03044L34.58 1.03044L34.5554 1.03044L34.5309 1.03044L34.5064 1.03044L34.4819 1.03044L34.4576 1.03044L34.4332 1.03044L34.409 1.03044L34.3847 1.03044L34.3606 1.03044L34.3365 1.03044L34.3124 1.03044L34.2885 1.03044L34.2645 1.03044L34.2407 1.03044L34.2169 1.03044L34.1931 1.03044L34.1695 1.03044L34.1458 1.03044L34.1223 1.03044L34.0988 1.03044L34.0754 1.03044L34.052 1.03044L34.0288 1.03044L34.0055 1.03044L33.9824 1.03044L33.9593 1.03044L33.9363 1.03044L33.9134 1.03044L33.8905 1.03044L33.8677 1.03044L33.845 1.03044L33.8224 1.03044L33.7998 1.03044L33.7773 1.03044L33.7549 1.03044L33.7325 1.03044L33.7103 1.03044L33.6881 1.03044L33.666 1.03044L33.6439 1.03044L33.622 1.03044L33.6001 1.03044L33.5783 1.03044L33.5566 1.03044L33.535 1.03044L33.5135 1.03044L33.4921 1.03044L33.4707 1.03044L33.4494 1.03044L33.4282 1.03044L33.4071 1.03044L33.3861 1.03044L33.3652 1.03044L33.3444 1.03044L33.3236 1.03044L33.303 1.03044L33.2824 1.03044L33.262 1.03044L33.2416 1.03044L33.2213 1.03044L33.2012 1.03044L33.1811 1.03044L33.1611 1.03044L33.1412 1.03044L33.1214 1.03044L33.1017 1.03044L33.0821 1.03044L33.0627 1.03044L33.0433 1.03044L33.024 1.03044L33.0048 1.03044L32.9857 1.03044L32.9667 1.03044L32.9479 1.03044L32.9291 1.03044L32.9105 1.03044L32.8919 1.03044L32.8735 1.03044L32.8551 1.03044L32.8369 1.03044L32.8188 1.03044L32.8008 1.03044L32.7829 1.03044L32.7651 1.03044L32.7475 1.03044L32.7299 1.03044L32.7125 1.03044L32.6952 1.03044L32.678 1.03044L32.6609 1.03044L32.6439 1.03044L32.6271 1.03044L32.6104 1.03044L32.5937 1.03044L32.5773 1.03044L32.5609 1.03044L32.5446 1.03044L32.5285 1.03044L32.5125 1.03044L32.4966 1.03044L32.4809 1.03044L32.4653 1.03044L32.4498 1.03044L32.4344 1.03044L32.4192 1.03044L32.4041 1.03044L32.3891 1.03044L32.3742 1.03044L32.3595 1.03044L32.3449 1.03044L32.3305 1.03044L32.3161 1.03044L32.302 1.03044L32.2879 1.03044L32.274 1.03044L32.2602 1.03044L32.2466 1.03044L32.2331 1.03044L32.2197 1.03044L32.2065 1.03044L32.1934 1.03044L32.1804 1.03044L32.1676 1.03044L32.155 1.03044L32.1424 1.03044L32.1301 1.03044L32.1178 1.03044L32.1057 1.03044L32.0938 1.03044L32.082 1.03044L32.0704 1.03044L32.0589 1.03044L32.0475 1.03044L32.0363 1.03044L32.0253 1.03044L32.0144 1.03044L32.0036 1.03044L31.993 1.03044L31.9826 1.03044L31.9723 1.03044L31.9622 1.03044L31.9522 1.03044L31.9424 1.03044L31.9327 1.03044L31.9232 1.03044L31.9139 1.03044L31.9047 1.03044L31.8956 1.03044L31.8868 1.03044L31.8781 1.03044L31.8695 1.03044L31.8612 1.03044L31.8529 1.03044L31.8449 1.03044L31.837 1.03044L31.8293 1.03044L31.8217 1.03044L31.8144 1.03044L31.8071 1.03044L31.8001 1.03044L31.7932 1.03044L31.7865 1.03044L31.78 1.03044L31.7736 1.03044L31.7674 1.03044L31.7614 1.03044L31.7556 1.03044L31.7499 1.03044L31.7444 1.03044L31.7391 1.03044L31.7339 1.03044L31.729 1.03044L31.7242 1.03044L31.7196 1.03044L31.7152 1.03044L31.7109 1.03044L31.7069 1.03044L31.7029 1.03044L31.6989 1.03044L31.695 1.03044L31.691 1.03044L31.687 1.03044L31.683 1.03044L31.679 1.03044L31.675 1.03044L31.671 1.03044L31.6671 1.03044L31.6631 1.03044L31.659 1.03044L31.655 1.03044L31.651 1.03044L31.647 1.03044L31.643 1.03044L31.639 1.03044L31.635 1.03044L31.631 1.03044L31.6269 1.03044L31.6229 1.03044L31.6189 1.03044L31.6149 1.03044L31.6108 1.03044L31.6068 1.03044L31.6028 1.03044L31.5987 1.03044L31.5947 1.03044L31.5907 1.03044L31.5866 1.03044L31.5826 1.03044L31.5785 1.03044L31.5745 1.03044L31.5704 1.03044L31.5664 1.03044L31.5623 1.03044L31.5583 1.03044L31.5542 1.03044L31.5501 1.03044L31.5461 1.03044L31.542 1.03044L31.538 1.03044L31.5339 1.03044L31.5298 1.03044L31.5258 1.03044L31.5217 1.03044L31.5176 1.03044L31.5136 1.03044L31.5095 1.03044L31.5054 1.03044L31.5014 1.03044L31.4973 1.03044L31.4932 1.03044L31.4891 1.03044L31.4851 1.03044L31.481 1.03044L31.4769 1.03044L31.4728 1.03044L31.4687 1.03044L31.4647 1.03044L31.4606 1.03044L31.4565 1.03044L31.4524 1.03044L31.4483 1.03044L31.4442 1.03044L31.4402 1.03044L31.4361 1.03044L31.432 1.03044L31.4279 1.03044L31.4238 1.03044L31.4197 1.03044L31.4157 1.03044L31.4116 1.03044L31.4075 1.03044L31.4034 1.03044L31.3993 1.03044L31.3952 1.03044L31.3912 1.03044L31.3871 1.03044L31.383 1.03044L31.3789 1.03044L31.3748 1.03044L31.3707 1.03044L31.3667 1.03044L31.3626 1.03044L31.3585 1.03044L31.3544 1.03044L31.3503 1.03044L31.3463 1.03044L31.3422 1.03044L31.3381 1.03044L31.334 1.03044L31.3299 1.03044L31.3259 1.03044L31.3218 1.03044L31.3177 1.03044L31.3136 1.03044L31.3096 1.03044L31.3055 1.03044L31.3014 1.03044L31.2974 1.03044L31.2933 1.03044L31.2892 1.03044L31.2852 1.03044L31.2811 1.03044L31.277 1.03044L31.273 1.03044L31.2689 1.03044L31.2648 1.03044L31.2608 1.03044L31.2567 1.03044L31.2527 1.03044L31.2486 1.03044L31.2446 1.03044L31.2405 1.03044L31.2365 1.03044L31.2324 1.03044L31.2284 1.03044L31.2243 1.03044L31.2203 1.03044L31.2163 1.03044L31.2122 1.03044L31.2082 1.03044L31.2042 1.03044L31.2001 1.03044L31.1961 1.03044L31.1921 1.03044L31.1881 1.03044L31.184 1.03044L31.18 1.03044L31.176 1.03044L31.172 1.03044L31.168 1.03044L31.164 1.03044L31.16 1.03044L31.156 1.03044L31.152 1.03044L31.148 1.03044L31.144 1.03044L31.14 1.03044L31.136 1.03044L31.132 1.03044L31.128 1.03044L31.124 1.03044L31.12 1.03044L31.1161 1.03044L31.1121 1.03044L31.1081 1.03044L31.1042 1.03044L31.1002 1.03044L31.0962 1.03044L31.0923 1.03044L31.0883 1.03044L31.0844 1.03044L31.0804 1.03044L31.0765 1.03044L31.0726 1.03044L31.0686 1.03044L31.0647 1.03044L31.0608 1.03044L31.0568 1.03044L31.0529 1.03044L31.049 1.03044L31.0451 1.03044L31.0412 1.03044L31.0373 1.03044L31.0334 1.03044L31.0295 1.03044L31.0256 1.03044L31.0217 1.03044L31.0178 1.03044L31.0139 1.03044L31.01 1.03044L31.0062 1.03044L31.0023 1.03044L30.9984 1.03044L30.9946 1.03044L30.9907 1.03044L30.9869 1.03044L30.983 1.03044L30.9792 1.03044L30.9753 1.03044L30.9715 1.03044L30.9677 1.03044L30.9638 1.03044L30.96 1.03044L30.9562 1.03044L30.9524 1.03044L30.9486 1.03044L30.9448 1.03044L30.941 1.03044L30.9372 1.03044L30.9334 1.03044L30.9296 1.03044L30.9259 1.03044L30.9221 1.03044L30.9183 1.03044L30.9146 1.03044L30.9108 1.03044L30.9071 1.03044L30.9033 1.03044L30.8996 1.03044L30.8959 1.03044L30.8921 1.03044L30.8884 1.03044L30.8847 1.03044L30.881 1.03044L30.8773 1.03044L30.8736 1.03044L30.8699 1.03044L30.8662 1.03044L30.8625 1.03044L30.8588 1.03044L30.8552 1.03044L30.8515 1.03044L30.8479 1.03044L30.8442 1.03044L30.8406 1.03044L30.8369 1.03044L30.8333 1.03044L30.8297 1.03044L30.826 1.03044L30.8224 1.03044L30.8188 1.03044L30.8152 1.03044L30.8116 1.03044L30.808 1.03044L30.8044 1.03044L30.8009 1.03044L30.7973 1.03044L30.7937 1.03044L30.7902 1.03044L30.7866 1.03044L30.7831 1.03044L30.7796 1.03044L30.776 1.03044L30.7725 1.03044L30.769 1.03044L30.7655 1.03044L30.762 1.03044L30.7585 1.03044L30.755 1.03044L30.7515 1.03044L30.748 1.03044L30.7446 1.03044L30.7411 1.03044L30.7377 1.03044L30.7342 1.03044L30.7308 1.03044L30.7274 1.03044L30.7239 1.03044L30.7205 1.03044L30.7171 1.03044L30.7137 1.03044L30.7103 1.03044L30.707 1.03044L30.7036 1.03044L30.7002 1.03044L30.6969 1.03044L30.6935 1.03044L30.6902 1.03044L30.6868 1.03044L30.6835 1.03044L30.6802 1.03044L30.6769 1.03044L30.6736 1.03044L30.6703 1.03044L30.667 1.03044L30.6637 1.03044L30.6604 1.03044L30.6572 1.03044L30.6539 1.03044L30.6507 1.03044L30.6474 1.03044L30.6442 1.03044L30.641 1.03044L30.6378 1.03044L30.6346 1.03044L30.6314 1.03044L30.6282 1.03044L30.625 1.03044L30.6219 1.03044L30.6187 1.03044L30.6155 1.03044L30.6124 1.03044L30.6093 1.03044L30.6061 1.03044L30.603 1.03044L30.5999 1.03044L30.5968 1.03044L30.5937 1.03044L30.5907 1.03044L30.5876 1.03044L30.5845 1.03044L30.5815 1.03044L30.5785 1.03044L30.5754 1.03044L30.5724 1.03044L30.5694 1.03044L30.5664 1.03044L30.5634 1.03044L30.5604 1.03044L30.5574 1.03044L30.5545 1.03044L30.5515 1.03044L30.5486 1.03044L30.5457 1.03044L30.5427 1.03044L30.5398 1.03044L30.5369 1.03044L30.534 1.03044L30.5311 1.03044L30.5283 1.03044L30.5254 1.03044L30.5226 1.03044L30.5197 1.03044L30.5169 1.03044L30.5141 1.03044L30.5112 1.03044L30.5084 1.03044L30.5057 1.03044L30.5029 1.03044L30.5001 1.03044L30.4973 1.03044L30.4946 1.03044L30.4919 1.03044L30.4891 1.03044L30.4864 1.03044L30.4837 1.03044L30.481 1.03044L30.4783 1.03044L30.4757 1.03044L30.473 1.03044L30.4704 1.03044L30.4677 1.03044L30.4651 1.03044L30.4625 1.03044L30.4599 1.03044L30.4573 1.03044L30.4547 1.03044L30.4521 1.03044L30.4496 1.03044L30.447 1.03044L30.4445 1.03044L30.4419 1.03044L30.4394 1.03044L30.4369 1.03044L30.4344 1.03044L30.432 1.03044L30.4295 1.03044L30.427 1.03044L30.4246 1.03044L30.4221 1.03044L30.4197 1.03044L30.4173 1.03044L30.4149 1.03044L30.4125 1.03044L30.4102 1.03044L30.4078 1.03044L30.4055 1.03044L30.4031 1.03044L30.4008 1.03044L30.3985 1.03044L30.3962 1.03044L30.3939 1.03044L30.3916 1.03044L30.3894 1.03044L30.3871 1.03044L30.3849 1.03044L30.3826 1.03044L30.3804 1.03044L30.3782 1.03044L30.376 1.03044L30.3739 1.03044L30.3717 1.03044L30.3696 1.03044L30.3674 1.03044L30.3653 1.03044L30.3632 1.03044L30.3611 1.03044L30.359 1.03044L30.3569 1.03044L30.3549 1.03044L30.3528 1.03044L30.3508 1.03044L30.3488 1.03044L30.3468 1.03044L30.3448 1.03044L30.3428 1.03044L30.3408 1.03044L30.3389 1.03044L30.337 1.03044L30.335 1.03044L30.3331 1.03044L30.3312 1.03044L30.3293 1.03044L30.3275 1.03044L30.3256 1.03044L30.3238 1.03044L30.3219 1.03044L30.3201 1.03044L30.3183 1.03044L30.3165 1.03044L30.3148 1.03044L30.313 1.03044L30.3113 1.03044L30.3095 1.03044L30.3078 1.03044L30.3061 1.03044L30.3044 1.03044L30.3028 1.03044L30.3011 1.03044L30.2995 1.03044L30.2978 1.03044L30.2962 1.03044L30.2946 1.03044L30.293 1.03044L30.2915 1.03044L30.2899 1.03044L30.2884 1.03044L30.2868 1.03044L30.2853 1.03044L30.2838 1.03044L30.2823 1.03044L30.2809 1.03044L30.2794 1.03044L30.278 1.03044L30.2765 1.03044L30.2751 1.03044L30.2737 1.03044L30.2724 1.03044L30.271 1.03044L30.2697 1.03044L30.2683 1.03044L30.267 1.03044L30.2657 1.03044L30.2644 1.03044L30.2631 1.03044L30.2619 1.03044L30.2606 1.03044L30.2594 1.03044L30.2582 1.03044L30.257 1.03044L30.2558 1.03044L30.2547 1.03044L30.2535 1.03044L30.2524 1.03044L30.2513 1.03044L30.2502 1.03044L30.2491 1.03044L30.248 1.03044L30.247 1.03044L30.246 1.03044L30.2449 1.03044L30.2439 1.03044L30.243 1.03044L30.242 1.03044L30.241 1.03044L30.2401 1.03044L30.2392 1.03044L30.2383 1.03044L30.2374 1.03044L30.2365 1.03044L30.2357 1.03044L30.2348 1.03044L30.234 1.03044L30.2332 1.03044L30.2324 1.03044L30.2316 1.03044L30.2309 1.03044L30.2301 1.03044L30.2294 1.03044L30.2287 1.03044L30.228 1.03044L30.2274 1.03044L30.2267 1.03044L30.2261 1.03044L30.2255 1.03044L30.2249 1.03044L30.2243 1.03044L30.2237 1.03044L30.2232 1.03044L30.2226 1.03044L30.2221 1.03044L30.2216 1.03044L30.2211 1.03044L30.2207 1.03044L30.2202 1.03044L30.2198 1.03044L30.2194 1.03044L30.219 1.03044L30.2186 1.03044L30.2183 1.03044L30.2179 1.03044L30.2176 1.03044L30.2173 1.03044L30.217 1.03044L30.2168 1.03044L30.2165 1.03044L30.2163 1.03044L30.2161 1.03044L30.2159 1.03044L30.2157 1.03044L30.2156 1.03044L30.2154 1.03044L30.2153 1.03044L30.2152 1.03044L30.2151 1.03044L30.215 1.03044L30.215 1.03044L11.8213 1.03044C6.32866 1.03044 1.86132 5.24002 1.86132 10.4505L1.86132 44.0543C1.86132 49.2648 6.32866 53.4744 11.8213 53.4744L17.9525 53.4744L20.2208 53.4744L20.2214 53.4744L21.3199 53.4845L21.3199 53.4845L21.3223 53.4845L22.8575 53.4744L22.858 53.4744L24.0837 53.4744L24.0838 53.4744L24.0839 53.4744L24.0842 53.4744L24.0857 53.4744L24.0913 53.4744L24.113 53.4744L24.1939 53.4744L24.468 53.4744L25.1707 53.4744L28.3701 53.4744L29.6184 53.4744L29.9866 53.4744L30.0856 53.4744L30.1112 53.4744L30.1178 53.4744L30.1194 53.4744L30.1198 53.4744L30.1199 53.4744L30.12 53.3244L30.12 53.4744L31.0346 53.4744L31.33 53.4744L31.4122 53.4744L31.4338 53.4744L31.4393 53.4744L31.4407 53.4744L31.4411 53.4744L31.4412 53.4744L31.4412 53.4744L32.6663 53.4744L32.6669 53.4744L32.6723 53.4745L32.6934 53.4748L32.7736 53.4759C32.8429 53.4769 32.9423 53.4781 33.0629 53.4794C33.304 53.4819 33.6301 53.4845 33.9694 53.4845C34.1153 53.4845 34.4014 53.4853 34.7885 53.4864C36.1938 53.4904 38.9299 53.4982 41.1193 53.4845C41.3848 53.4828 41.7246 53.4803 41.9981 53.4782L42.3409 53.4755L42.442 53.4747L42.4692 53.4744L42.4763 53.4744L42.4774 53.4744ZM4.61381 44.0543L4.61381 10.4505C4.61381 6.70143 7.8326 3.64795 11.8213 3.64795L100.111 3.64795C104.1 3.64795 107.318 6.70143 107.318 10.4505L107.318 44.0543C107.318 47.8034 104.1 50.8569 100.111 50.8569L11.8213 50.8569C7.8326 50.8569 4.61381 47.8034 4.61381 44.0543Z" fill="white" stroke="white" stroke-width="0.3"/>
<rect x="10.6441" y="18.4739" width="4.31638" height="17.3873" rx="2.15819" fill="white"/>
</g>
<defs>
<clipPath id="clip0_5168_4539">
<rect width="54.3353" height="110.068" fill="white" transform="translate(0.93222 54.3352) rotate(-90)"/>
</clipPath>
</defs>
</svg>
