<svg width="54" height="27" viewBox="0 0 54 27" fill="none" xmlns="http://www.w3.org/2000/svg">
<g clip-path="url(#clip0_5135_3236)">
<path d="M20.3378 25.6776L48.5506 25.6776C51.2743 25.6776 53.5029 23.6345 53.5029 21.0898L53.5029 5.0028C53.5029 2.4581 51.2743 0.41502 48.5506 0.41502L20.3372 0.415021L19.6289 0.415021L19.6289 0.565021L19.6289 0.415021L19.6287 0.415021L19.6285 0.415021L19.6282 0.415021L19.6277 0.415021L19.6272 0.415021L19.6266 0.415021L19.6259 0.415021L19.625 0.415021L19.6241 0.415021L19.6231 0.415021L19.6221 0.415021L19.6209 0.415021L19.6196 0.415021L19.6182 0.415021L19.6168 0.415021L19.6152 0.415021L19.6136 0.415021L19.6119 0.415021L19.61 0.415021L19.6081 0.415021L19.6061 0.415021L19.604 0.415021L19.6019 0.415021L19.5996 0.415021L19.5972 0.415021L19.5948 0.415021L19.5923 0.415021L19.5897 0.415021L19.587 0.415021L19.5842 0.415021L19.5813 0.415021L19.5784 0.415021L19.5753 0.415021L19.5722 0.415021L19.569 0.415021L19.5657 0.415021L19.5623 0.415021L19.5588 0.415021L19.5553 0.415021L19.5517 0.415021L19.548 0.415021L19.5442 0.415021L19.5403 0.415021L19.5364 0.415021L19.5323 0.415021L19.5282 0.415021L19.524 0.415021L19.5198 0.415021L19.5154 0.415021L19.511 0.415021L19.5065 0.415021L19.5019 0.415021L19.4972 0.415021L19.4925 0.415021L19.4877 0.415021L19.4828 0.415021L19.4778 0.415021L19.4728 0.415021L19.4676 0.415021L19.4624 0.415021L19.4572 0.415021L19.4518 0.415021L19.4464 0.415021L19.4409 0.415021L19.4353 0.415021L19.4297 0.415021L19.424 0.415021L19.4182 0.415021L19.4124 0.415021L19.4064 0.415021L19.4004 0.415021L19.3944 0.415021L19.3882 0.415021L19.382 0.415021L19.3757 0.415021L19.3694 0.415021L19.363 0.415021L19.3565 0.415021L19.3499 0.415021L19.3433 0.415021L19.3366 0.415021L19.3299 0.415021L19.3231 0.415021L19.3162 0.415021L19.3092 0.415021L19.3022 0.415021L19.2951 0.415021L19.288 0.415021L19.2807 0.415021L19.2735 0.415021L19.2661 0.415021L19.2587 0.415021L19.2513 0.415021L19.2437 0.415021L19.2361 0.415021L19.2285 0.415021L19.2208 0.415021L19.213 0.415021L19.2051 0.415021L19.1972 0.415021L19.1893 0.415021L19.1813 0.415021L19.1732 0.415021L19.165 0.415021L19.1568 0.415021L19.1486 0.415021L19.1403 0.415021L19.1319 0.415021L19.1235 0.415021L19.115 0.415021L19.1064 0.415021L19.0979 0.415021L19.0892 0.415021L19.0805 0.415021L19.0717 0.415021L19.0629 0.415021L19.054 0.415021L19.0451 0.415021L19.0361 0.415021L19.0271 0.415021L19.018 0.415021L19.0089 0.415021L18.9997 0.415021L18.9904 0.415021L18.9811 0.415021L18.9718 0.415021L18.9624 0.415021L18.9529 0.415021L18.9434 0.415021L18.9339 0.415021L18.9243 0.415021L18.9147 0.415021L18.905 0.415021L18.8952 0.415021L18.8854 0.415021L18.8756 0.415021L18.8657 0.415021L18.8558 0.415021L18.8458 0.415021L18.8358 0.415021L18.8257 0.415021L18.8156 0.415021L18.8055 0.415021L18.7952 0.415021L18.785 0.415021L18.7747 0.415021L18.7644 0.415021L18.754 0.415021L18.7436 0.415021L18.7331 0.415021L18.7226 0.415021L18.7121 0.415021L18.7015 0.415021L18.6909 0.415021L18.6802 0.415021L18.6695 0.415021L18.6587 0.415021L18.6479 0.415021L18.6371 0.415021L18.6262 0.415021L18.6153 0.415021L18.6044 0.415021L18.5934 0.415021L18.5824 0.415021L18.5714 0.415021L18.5603 0.415021L18.5491 0.415021L18.538 0.415021L18.5268 0.415021L18.5155 0.415021L18.5043 0.415021L18.493 0.415021L18.4816 0.415021L18.4703 0.415021L18.4589 0.415021L18.4474 0.415021L18.436 0.415021L18.4245 0.415021L18.4129 0.415021L18.4014 0.415021L18.3898 0.415021L18.3781 0.415021L18.3665 0.415021L18.3548 0.415021L18.3431 0.415021L18.3313 0.415021L18.3196 0.415021L18.3078 0.415021L18.2959 0.415021L18.2841 0.415021L18.2722 0.415021L18.2603 0.415021L18.2484 0.415021L18.2364 0.415021L18.2244 0.415021L18.2124 0.415021L18.2003 0.415021L18.1883 0.415021L18.1762 0.415021L18.1641 0.415021L18.1519 0.415021L18.1398 0.415021L18.1276 0.415021L18.1154 0.415021L18.1031 0.415021L18.0909 0.415021L18.0786 0.415021L18.0663 0.415021L18.054 0.415021L18.0417 0.415021L18.0293 0.415021L18.0169 0.415021L18.0045 0.415021L17.9921 0.415021L17.9797 0.415021L17.9672 0.415021L17.9548 0.415021L17.9423 0.415021L17.9298 0.415021L17.9172 0.415021L17.9047 0.415021L17.8921 0.415021L17.8796 0.415021L17.867 0.415021L17.8544 0.415021L17.8418 0.415021L17.8291 0.415021L17.8165 0.415021L17.8038 0.415021L17.7912 0.415021L17.7785 0.415021L17.7658 0.415021L17.7531 0.415021L17.7404 0.415021L17.7276 0.415021L17.7149 0.415021L17.7021 0.415021L17.6894 0.415021L17.6766 0.415021L17.6638 0.415021L17.651 0.415021L17.6382 0.415021L17.6254 0.415021L17.6126 0.415021L17.5998 0.415021L17.5869 0.415021L17.5741 0.415021L17.5612 0.415021L17.5484 0.415021L17.5355 0.415021L17.5227 0.415021L17.5098 0.415021L17.4969 0.415021L17.484 0.415021L17.4712 0.415021L17.4583 0.415021L17.4454 0.415021L17.4325 0.415021L17.4196 0.415021L17.4067 0.415021L17.3938 0.415021L17.3809 0.415021L17.368 0.415021L17.3551 0.415021L17.3422 0.415021L17.3293 0.415021L17.3163 0.415021L17.3034 0.415021L17.2905 0.415021L17.2776 0.415021L17.2647 0.415021L17.2518 0.415021L17.2389 0.415021L17.226 0.415021L17.2132 0.415021L17.2003 0.415021L17.1874 0.415021L17.1745 0.415021L17.1616 0.415021L17.1488 0.415021L17.1359 0.415021L17.123 0.415021L17.1102 0.415021L17.0973 0.415021L17.0845 0.415021L17.0717 0.415021L17.0588 0.415021L17.046 0.415021L17.0332 0.415021L17.0204 0.415021L17.0076 0.415021L16.9948 0.415021L16.9821 0.415021L16.9693 0.415021L16.9566 0.415021L16.9438 0.415021L16.9311 0.415021L16.9184 0.415021L16.9057 0.415021L16.893 0.415021L16.8803 0.415021L16.8676 0.415021L16.855 0.415021L16.8423 0.415021L16.8297 0.415021L16.8171 0.415021L16.8045 0.415021L16.7919 0.415021L16.7793 0.415021L16.7668 0.415021L16.7542 0.415021L16.7417 0.415021L16.7292 0.415021L16.7167 0.415021L16.7042 0.415021L16.6918 0.415021L16.6794 0.415021L16.667 0.415021L16.6546 0.415021L16.6422 0.415021L16.6298 0.415021L16.6175 0.415021L16.6052 0.415021L16.5929 0.415021L16.5806 0.415021L16.5684 0.415021L16.5561 0.415021L16.5439 0.415021L16.5318 0.415021L16.5196 0.415021L16.5075 0.415021L16.4953 0.415021L16.4833 0.415021L16.4712 0.415021L16.4592 0.415021L16.4471 0.415021L16.4352 0.415021L16.4232 0.415021L16.4113 0.415021L16.3993 0.415021L16.3875 0.415021L16.3756 0.415021L16.3638 0.415021L16.352 0.415021L16.3402 0.415021L16.3285 0.415021L16.3168 0.415021L16.3051 0.415021L16.2934 0.415021L16.2818 0.415021L16.2702 0.415021L16.2587 0.415021L16.2471 0.415021L16.2356 0.415021L16.2242 0.415021L16.2127 0.415021L16.2013 0.415021L16.19 0.415021L16.1786 0.415021L16.1674 0.415021L16.1561 0.415021L16.1449 0.415021L16.1337 0.415021L16.1225 0.415021L16.1114 0.415021L16.1003 0.415021L16.0893 0.415021L16.0782 0.415021L16.0673 0.415021L16.0563 0.415021L16.0454 0.415021L16.0346 0.415021L16.0238 0.415021L16.013 0.415021L16.0022 0.415021L15.9915 0.415021L15.9809 0.415021L15.9702 0.415021L15.9597 0.415021L15.9491 0.415021L15.9386 0.415021L15.9282 0.415021L15.9177 0.415021L15.9074 0.415021L15.897 0.415021L15.8868 0.415021L15.8765 0.415021L15.8663 0.415021L15.8562 0.415021L15.8461 0.415021L15.836 0.415021L15.826 0.415021L15.816 0.415021L15.8061 0.415021L15.7962 0.415021L15.7864 0.415021L15.7766 0.415021L15.7669 0.415021L15.7572 0.415021L15.7475 0.415021L15.7379 0.415021L15.7284 0.415021L15.7189 0.415021L15.7095 0.415021L15.7001 0.415021L15.6907 0.415021L15.6815 0.415021L15.6722 0.415021L15.663 0.415021L15.6539 0.415021L15.6448 0.415021L15.6358 0.415021L15.6268 0.415021L15.6179 0.415021L15.609 0.415021L15.6002 0.415021L15.5915 0.415021L15.5828 0.415021L15.5741 0.415021L15.5655 0.415021L15.557 0.415021L15.5485 0.415021L15.5401 0.415021L15.5317 0.415021L15.5234 0.415021L15.5152 0.415021L15.507 0.415021L15.4989 0.415021L15.4908 0.415021L15.4828 0.415021L15.4748 0.415021L15.4669 0.415021L15.4591 0.415021L15.4513 0.415021L15.4436 0.415021L15.436 0.415021L15.4284 0.415021L15.4209 0.415021L15.4134 0.415021L15.406 0.415021L15.3987 0.415021L15.3914 0.415021L15.3842 0.415021L15.3771 0.415021L15.37 0.415021L15.363 0.415021L15.356 0.415021L15.3491 0.415021L15.3423 0.415021L15.3356 0.415021L15.3289 0.415021L15.3223 0.415021L15.3158 0.415021L15.3093 0.415021L15.3029 0.415021L15.2965 0.415021L15.2903 0.415021L15.2841 0.415021L15.2779 0.415021L15.2719 0.415021L15.2659 0.415021L15.26 0.415021L15.2541 0.415021L15.2483 0.415021L15.2426 0.415021L15.237 0.415021L15.2315 0.415021L15.226 0.415021L15.2206 0.415021L15.2152 0.415021L15.21 0.415021L15.2048 0.415021L15.1997 0.415021L15.1946 0.415021L15.1897 0.415021L15.1848 0.415021L15.18 0.415021L15.1753 0.415021L15.1706 0.415021L15.166 0.415021L15.1615 0.415021L15.1571 0.415021L15.1528 0.415021L15.1485 0.415021L15.1443 0.415021L15.1402 0.415021L15.1362 0.415021L15.1323 0.415021L15.1284 0.415021L15.1246 0.415021L15.1209 0.415021L15.1173 0.415021L15.1138 0.415021L15.1103 0.415021L15.107 0.415021L15.1037 0.415021L15.1005 0.415021L15.0974 0.415021L15.0944 0.415021L15.0914 0.415021L15.0885 0.415021L15.0858 0.415021L15.0831 0.415021L15.0805 0.415021L15.078 0.415021L15.0755 0.415021L15.0732 0.415021L15.0709 0.415021L15.0688 0.415021L15.0667 0.415021L15.0647 0.415021L15.0628 0.415021L15.0608 0.415021L15.0589 0.415021L15.0569 0.415021L15.055 0.415021L15.053 0.415021L15.0511 0.415021L15.0491 0.415021L15.0472 0.415021L15.0452 0.415021L15.0433 0.415021L15.0413 0.415021L15.0393 0.415021L15.0374 0.415021L15.0354 0.415021L15.0335 0.415021L15.0315 0.415021L15.0295 0.415021L15.0276 0.415021L15.0256 0.415021L15.0236 0.415021L15.0216 0.415021L15.0197 0.415021L15.0177 0.415021L15.0157 0.415021L15.0138 0.415021L15.0118 0.415021L15.0098 0.415021L15.0078 0.415021L15.0058 0.415021L15.0039 0.415021L15.0019 0.415021L14.9999 0.415021L14.9979 0.415021L14.9959 0.415021L14.9939 0.415021L14.992 0.415021L14.99 0.415021L14.988 0.415021L14.986 0.415021L14.984 0.415021L14.982 0.415021L14.98 0.415021L14.9781 0.415021L14.9761 0.415021L14.9741 0.415021L14.9721 0.415021L14.9701 0.415021L14.9681 0.415021L14.9661 0.415021L14.9641 0.415021L14.9621 0.415021L14.9601 0.415021L14.9581 0.415021L14.9561 0.415021L14.9541 0.415021L14.9521 0.415021L14.9501 0.415021L14.9481 0.415021L14.9461 0.415021L14.9441 0.415021L14.9421 0.415021L14.9401 0.415021L14.9381 0.415021L14.9362 0.415021L14.9342 0.415021L14.9322 0.415021L14.9302 0.415021L14.9282 0.415021L14.9262 0.415021L14.9242 0.415021L14.9222 0.415021L14.9202 0.415021L14.9182 0.415021L14.9162 0.415021L14.9142 0.415021L14.9122 0.415021L14.9102 0.415021L14.9082 0.415021L14.9062 0.415021L14.9042 0.415021L14.9022 0.415021L14.9002 0.415021L14.8982 0.415021L14.8962 0.415021L14.8942 0.415021L14.8922 0.415021L14.8902 0.415021L14.8882 0.415021L14.8862 0.415021L14.8842 0.415021L14.8822 0.415021L14.8802 0.415021L14.8782 0.415021L14.8762 0.415021L14.8742 0.415021L14.8722 0.415021L14.8702 0.415021L14.8682 0.415021L14.8662 0.415021L14.8642 0.415021L14.8623 0.415021L14.8603 0.415021L14.8583 0.415021L14.8563 0.415021L14.8543 0.415021L14.8523 0.415021L14.8503 0.415021L14.8483 0.415021L14.8463 0.415021L14.8444 0.415021L14.8424 0.415021L14.8404 0.415021L14.8384 0.415021L14.8364 0.415021L14.8344 0.415021L14.8325 0.415021L14.8305 0.415021L14.8285 0.415021L14.8265 0.415021L14.8245 0.415021L14.8226 0.415021L14.8206 0.415021L14.8186 0.415021L14.8166 0.415021L14.8147 0.415021L14.8127 0.415021L14.8107 0.415021L14.8088 0.415021L14.8068 0.415021L14.8048 0.415021L14.8029 0.415021L14.8009 0.415021L14.7989 0.415021L14.797 0.415021L14.795 0.415021L14.7931 0.415021L14.7911 0.415021L14.7892 0.415021L14.7872 0.415021L14.7852 0.415021L14.7833 0.415021L14.7813 0.415021L14.7794 0.415021L14.7774 0.415021L14.7755 0.415021L14.7736 0.415021L14.7716 0.415021L14.7697 0.415021L14.7677 0.415021L14.7658 0.415021L14.7639 0.415021L14.7619 0.415021L14.76 0.415021L14.7581 0.415021L14.7561 0.415021L14.7542 0.415021L14.7523 0.415021L14.7503 0.415021L14.7484 0.415021L14.7465 0.415021L14.7446 0.415021L14.7427 0.415021L14.7407 0.415021L14.7388 0.415021L14.7369 0.415021L14.735 0.415021L14.7331 0.415021L14.7312 0.415021L14.7293 0.415021L14.7274 0.415021L14.7255 0.415021L14.7236 0.415021L14.7217 0.415021L14.7198 0.415021L14.7179 0.415021L14.716 0.415021L14.7141 0.415021L14.7122 0.415021L14.7104 0.415021L14.7085 0.415021L14.7066 0.415021L14.7047 0.415021L14.7029 0.415021L14.701 0.415021L14.6991 0.415021L14.6972 0.415021L14.6954 0.415021L14.6935 0.415021L14.6917 0.415021L14.6898 0.415021L14.6879 0.415021L14.6861 0.415021L14.6842 0.415021L14.6824 0.415021L14.6805 0.415021L14.6787 0.415021L14.6769 0.415021L14.675 0.415021L14.6732 0.415021L14.6714 0.415021L14.6695 0.415021L14.6677 0.415021L14.6659 0.415021L14.6641 0.415021L14.6622 0.415021L14.6604 0.415021L14.6586 0.415021L14.6568 0.415021L14.655 0.415021L14.6532 0.415021L14.6514 0.415021L14.6496 0.415021L14.6478 0.415021L14.646 0.415021L14.6442 0.415021L14.6424 0.415021L14.6406 0.415021L14.6388 0.415021L14.6371 0.415021L14.6353 0.415021L14.6335 0.415021L14.6317 0.415021L14.63 0.415021L14.6282 0.415021L14.6265 0.415021L14.6247 0.415021L14.6229 0.415021L14.6212 0.415021L14.6194 0.415021L14.6177 0.415021L14.616 0.415021L14.6142 0.415021L14.6125 0.415021L14.6108 0.415021L14.609 0.415021L14.6073 0.415021L14.6056 0.415021L14.6039 0.415021L14.6022 0.415021L14.6004 0.415021L14.5987 0.415021L14.597 0.415021L14.5953 0.415021L14.5936 0.415021L14.5919 0.415021L14.5903 0.415021L14.5886 0.415021L14.5869 0.415021L14.5852 0.415021L14.5835 0.415021L14.5819 0.415021L14.5802 0.415021L14.5785 0.415021L14.5769 0.415021L14.5752 0.415021L14.5736 0.415021L14.5719 0.415021L14.5703 0.415021L14.5686 0.415021L14.567 0.415021L14.5654 0.415021L14.5637 0.415021L14.5621 0.415021L14.5605 0.415021L14.5589 0.415021L14.5573 0.415021L14.5557 0.415021L14.554 0.415021L14.5524 0.415021L14.5509 0.415021L14.5493 0.415021L14.5477 0.415021L14.5461 0.415021L14.5445 0.415021L14.5429 0.415021L14.5414 0.415021L14.5398 0.415021L14.5382 0.415021L14.5367 0.415021L14.5351 0.415021L14.5336 0.415021L14.532 0.415021L14.5305 0.415021L14.5289 0.415021L14.5274 0.415021L14.5259 0.415021L14.5243 0.415021L14.5228 0.415021L14.5213 0.415021L14.5198 0.415021L14.5183 0.415021L14.5168 0.415021L14.5153 0.415021L14.5138 0.415021L14.5123 0.415021L14.5108 0.415021L14.5094 0.415021L14.5079 0.415021L14.5064 0.415021L14.5049 0.415021L14.5035 0.415021L14.502 0.415021L14.5006 0.415021L14.4991 0.415021L14.4977 0.415021L14.4963 0.415021L14.4948 0.415021L14.4934 0.415021L14.492 0.415021L14.4906 0.415021L14.4892 0.415021L14.4877 0.415021L14.4863 0.415021L14.485 0.415021L14.4836 0.415021L14.4822 0.415021L14.4808 0.415021L14.4794 0.415021L14.478 0.415021L14.4767 0.415021L14.4753 0.415021L14.474 0.415021L14.4726 0.415021L14.4713 0.415021L14.4699 0.415021L14.4686 0.415021L14.4673 0.415021L14.4659 0.415021L14.4646 0.415021L14.4633 0.415021L14.462 0.415021L14.4607 0.415021L14.4594 0.415021L14.4581 0.415021L14.4568 0.415021L14.4555 0.415021L14.4543 0.415021L14.453 0.415021L14.4517 0.415021L14.4505 0.415021L14.4492 0.415021L14.448 0.415021L14.4467 0.415021L14.4455 0.415021L14.4443 0.415021L14.443 0.415021L14.4418 0.415021L14.4406 0.415021L14.4394 0.415021L14.4382 0.415021L14.437 0.415021L14.4358 0.415021L14.4346 0.415021L14.4334 0.415021L14.4323 0.415021L14.4311 0.415021L14.4299 0.415021L14.4288 0.415021L14.4276 0.415021L14.4265 0.415021L14.4253 0.415021L14.4242 0.415021L14.4231 0.415021L14.422 0.415021L14.4209 0.415021L14.4197 0.415021L14.4186 0.415021L14.4176 0.415021L14.4165 0.415021L14.4154 0.415021L14.4143 0.415021L14.4132 0.415021L14.4122 0.415021L14.4111 0.415021L14.4101 0.415021L14.409 0.415021L14.408 0.415021L14.4069 0.415021L14.4059 0.415021L14.4049 0.415021L14.4039 0.415021L14.4029 0.415021L14.4019 0.415021L14.4009 0.415021L14.3999 0.415021L14.3989 0.415021L14.3979 0.415021L14.397 0.415021L14.396 0.415021L14.395 0.415021L14.3941 0.415021L14.3932 0.415021L14.3922 0.415021L14.3913 0.415021L14.3904 0.415021L14.3895 0.415021L14.3885 0.415021L14.3876 0.415021L14.3868 0.415021L14.3859 0.415021L14.385 0.415021L14.3841 0.415021L14.3832 0.415021L14.3824 0.415021L14.3815 0.415021L14.3807 0.415021L14.3798 0.415021L14.379 0.415021L14.3782 0.415021L14.3774 0.415021L14.3765 0.415021L14.3757 0.415021L14.3749 0.415021L14.3742 0.415021L14.3734 0.415021L14.3726 0.415021L14.3718 0.415021L14.3711 0.415021L14.3703 0.415021L14.3696 0.415021L14.3688 0.415021L14.3681 0.415021L14.3674 0.415021L14.3666 0.415021L14.3659 0.415021L14.3652 0.415021L14.3645 0.415021L14.3638 0.415021L14.3632 0.415021L14.3625 0.415021L14.3618 0.415021L14.3611 0.415021L14.3605 0.415021L14.3599 0.415021L14.3592 0.415021L14.3586 0.415021L14.358 0.415021L14.3573 0.415021L14.3567 0.415021L14.3561 0.415021L14.3556 0.415021L14.355 0.415021L14.3544 0.415021L14.3538 0.415021L14.3533 0.415021L14.3527 0.415021L14.3522 0.415021L14.3516 0.415021L14.3511 0.415021L14.3506 0.415021L14.3501 0.415021L14.3496 0.415021L14.3491 0.415021L14.3486 0.415021L14.3481 0.415021L14.3476 0.415021L14.3471 0.415021L14.3467 0.415021L14.3462 0.415021L14.3458 0.415021L14.3454 0.415021L14.3449 0.415021L14.3445 0.415021L14.3441 0.415021L14.3437 0.415021L14.3433 0.415021L14.3429 0.415021L14.3425 0.415021L14.3422 0.415021L14.3418 0.415021L14.3415 0.415021L14.3411 0.415021L14.3408 0.415021L14.3405 0.415021L14.3401 0.415021L14.3398 0.415021L14.3395 0.415021L14.3392 0.415021L14.3389 0.415021L14.3387 0.415021L14.3384 0.415021L14.3381 0.415021L14.3379 0.415021L14.3376 0.415021L14.3374 0.415021L14.3372 0.415021L14.337 0.415021L14.3367 0.415021L14.3365 0.415021L14.3364 0.415021L14.3362 0.415021L14.336 0.415021L14.3358 0.415021L14.3357 0.415021L14.3355 0.415021L14.3354 0.415021L14.3353 0.415021L14.3351 0.415021L14.335 0.415021L14.3349 0.415021L14.3348 0.415021L14.3347 0.415021L14.3347 0.415021L14.3346 0.415021L14.3345 0.415021L14.3345 0.415021L14.3345 0.415021L14.3344 0.415021L14.3344 0.415021L5.33011 0.415022C2.60641 0.415022 0.377831 2.4581 0.377831 5.00281L0.377832 21.0898C0.377832 23.6345 2.60641 25.6776 5.33011 25.6776L8.33153 25.6776L9.44157 25.6776L9.44224 25.6776L9.9793 25.6824L9.9793 25.6824L9.98161 25.6824L10.7327 25.6776L10.7332 25.6776L11.333 25.6776L11.333 25.5276L11.333 25.6776L11.333 25.6776L11.333 25.6776L11.3332 25.6776L11.3339 25.6776L11.3366 25.6776L11.3473 25.6776L11.3869 25.6776L11.5211 25.6776L11.8651 25.6776L13.4313 25.6776L14.0424 25.6776L14.2226 25.6776L14.2711 25.6776L14.2836 25.6776L14.2868 25.6776L14.2876 25.6776L14.2878 25.6776L14.2879 25.6776L14.2879 25.5276L14.2879 25.6776L14.7356 25.6776L14.8802 25.6776L14.9205 25.6776L14.931 25.6776L14.9338 25.6776L14.9344 25.6776L14.9346 25.6776L14.9347 25.6776L14.9347 25.6776L14.9347 25.5276L14.9347 25.6776L15.5338 25.6776L15.5362 25.6776L15.5465 25.6777L15.5859 25.6783L15.7278 25.68C15.846 25.6812 16.0058 25.6824 16.1723 25.6824C16.2435 25.6824 16.3833 25.6828 16.5725 25.6833C17.2603 25.6852 18.6006 25.689 19.6728 25.6824C19.8029 25.6816 19.9693 25.6804 20.1031 25.6794L20.271 25.6781L20.3205 25.6777L20.3338 25.6776L20.3373 25.6776L20.3378 25.6776ZM1.8784 21.0898L1.8784 5.00281C1.8784 3.25839 3.41242 1.82447 5.33011 1.82447L48.5506 1.82447C50.4683 1.82447 52.0023 3.25839 52.0023 5.0028L52.0023 21.0898C52.0023 22.8342 50.4683 24.2681 48.5506 24.2681L5.33011 24.2681C3.41242 24.2681 1.8784 22.8342 1.8784 21.0898Z" fill="white" stroke="white" stroke-width="0.3"/>
<rect x="4.75439" y="8.84424" width="2.11213" height="8.3237" rx="1.05606" fill="white"/>
</g>
<defs>
<clipPath id="clip0_5135_3236">
<rect width="26.0116" height="53.8816" fill="white" transform="translate(0 26.0117) rotate(-90)"/>
</clipPath>
</defs>
</svg>
