<svg width="69" height="52" viewBox="0 0 69 52" fill="none" xmlns="http://www.w3.org/2000/svg">
<g clip-path="url(#clip0_5135_3215)">
<path d="M-2.0992e-06 5.97408L-2.38113e-07 46.5234C-1.06837e-07 49.3837 2.39452 51.7114 5.33797 51.7114L62.8054 51.7114C65.7489 51.7114 68.1443 49.3846 68.1443 46.5234L68.1443 5.97407C68.1443 3.11474 65.7498 0.786992 62.8054 0.786992L5.33797 0.786995C2.39451 0.786995 -2.23044e-06 3.11474 -2.0992e-06 5.97408ZM62.8054 2.62638C64.7059 2.62638 66.2514 4.12824 66.2514 5.97407L66.2514 46.5234C66.2514 48.3693 64.7059 49.872 62.8054 49.872L5.33797 49.872C3.43845 49.872 1.8929 48.3702 1.8929 46.5234L1.8929 5.97408C1.8929 4.12825 3.43845 2.62638 5.33797 2.62638L62.8054 2.62638Z" fill="white"/>
<rect x="4.22607" y="21.3062" width="2.11213" height="8.32371" rx="1.05606" fill="white"/>
</g>
<defs>
<clipPath id="clip0_5135_3215">
<rect width="51.5029" height="68.1443" fill="white" transform="translate(0 52) rotate(-90)"/>
</clipPath>
</defs>
</svg>
