<svg width="111" height="55" viewBox="0 0 111 55" fill="none" xmlns="http://www.w3.org/2000/svg">
<g clip-path="url(#clip0_5168_4542)">
<path d="M41.5452 53.4744L41.5458 53.4744L99.1787 53.4744C104.671 53.4744 109.139 49.2648 109.139 44.0543L109.139 10.4505C109.139 5.24002 104.671 1.03043 99.1787 1.03043L41.5452 1.03044L40.0983 1.03044L40.0983 1.18044L40.0982 1.03044L40.0979 1.03044L40.0974 1.03044L40.0967 1.03044L40.0959 1.03044L40.0948 1.03044L40.0935 1.03044L40.092 1.03044L40.0904 1.03044L40.0885 1.03044L40.0865 1.03044L40.0843 1.03044L40.0819 1.03044L40.0793 1.03044L40.0765 1.03044L40.0735 1.03044L40.0703 1.03044L40.067 1.03044L40.0634 1.03044L40.0597 1.03044L40.0558 1.03044L40.0517 1.03044L40.0475 1.03044L40.043 1.03044L40.0384 1.03044L40.0336 1.03044L40.0286 1.03044L40.0235 1.03044L40.0181 1.03044L40.0126 1.03044L40.0069 1.03044L40.001 1.03044L39.995 1.03044L39.9888 1.03044L39.9824 1.03044L39.9758 1.03044L39.9691 1.03044L39.9622 1.03044L39.9552 1.03044L39.9479 1.03044L39.9405 1.03044L39.9329 1.03044L39.9252 1.03044L39.9173 1.03044L39.9092 1.03044L39.901 1.03044L39.8926 1.03044L39.884 1.03044L39.8753 1.03044L39.8664 1.03044L39.8574 1.03044L39.8482 1.03044L39.8388 1.03044L39.8293 1.03044L39.8196 1.03044L39.8097 1.03044L39.7997 1.03044L39.7896 1.03044L39.7793 1.03044L39.7688 1.03044L39.7582 1.03044L39.7474 1.03044L39.7365 1.03044L39.7255 1.03044L39.7142 1.03044L39.7029 1.03044L39.6914 1.03044L39.6797 1.03044L39.6679 1.03044L39.6559 1.03044L39.6438 1.03044L39.6316 1.03044L39.6192 1.03044L39.6066 1.03044L39.5939 1.03044L39.5811 1.03044L39.5682 1.03044L39.555 1.03044L39.5418 1.03044L39.5284 1.03044L39.5149 1.03044L39.5012 1.03044L39.4874 1.03044L39.4735 1.03044L39.4594 1.03044L39.4452 1.03044L39.4309 1.03044L39.4164 1.03044L39.4018 1.03044L39.3871 1.03044L39.3722 1.03044L39.3572 1.03044L39.3421 1.03044L39.3268 1.03044L39.3114 1.03044L39.2959 1.03044L39.2803 1.03044L39.2645 1.03044L39.2486 1.03044L39.2326 1.03044L39.2165 1.03044L39.2002 1.03044L39.1838 1.03044L39.1673 1.03044L39.1507 1.03044L39.134 1.03044L39.1171 1.03044L39.1001 1.03044L39.083 1.03044L39.0658 1.03044L39.0485 1.03044L39.031 1.03044L39.0134 1.03044L38.9958 1.03044L38.978 1.03044L38.9601 1.03044L38.9421 1.03044L38.9239 1.03044L38.9057 1.03044L38.8873 1.03044L38.8689 1.03044L38.8503 1.03044L38.8317 1.03044L38.8129 1.03044L38.794 1.03044L38.775 1.03044L38.7559 1.03044L38.7367 1.03044L38.7174 1.03044L38.698 1.03044L38.6785 1.03044L38.6589 1.03044L38.6392 1.03044L38.6194 1.03044L38.5995 1.03044L38.5795 1.03044L38.5594 1.03044L38.5392 1.03044L38.519 1.03044L38.4986 1.03044L38.4781 1.03044L38.4575 1.03044L38.4369 1.03044L38.4161 1.03044L38.3953 1.03044L38.3744 1.03044L38.3533 1.03044L38.3322 1.03044L38.311 1.03044L38.2897 1.03044L38.2684 1.03044L38.2469 1.03044L38.2254 1.03044L38.2037 1.03044L38.182 1.03044L38.1602 1.03044L38.1384 1.03044L38.1164 1.03044L38.0944 1.03044L38.0723 1.03044L38.0501 1.03044L38.0278 1.03044L38.0054 1.03044L37.983 1.03044L37.9605 1.03044L37.9379 1.03044L37.9153 1.03044L37.8925 1.03044L37.8697 1.03044L37.8469 1.03044L37.8239 1.03044L37.8009 1.03044L37.7778 1.03044L37.7547 1.03044L37.7314 1.03044L37.7081 1.03044L37.6848 1.03044L37.6614 1.03044L37.6379 1.03044L37.6143 1.03044L37.5907 1.03044L37.567 1.03044L37.5432 1.03044L37.5194 1.03044L37.4956 1.03044L37.4716 1.03044L37.4476 1.03044L37.4236 1.03044L37.3995 1.03044L37.3753 1.03044L37.3511 1.03044L37.3268 1.03044L37.3025 1.03044L37.2781 1.03044L37.2537 1.03044L37.2292 1.03044L37.2046 1.03044L37.18 1.03044L37.1554 1.03044L37.1307 1.03044L37.1059 1.03044L37.0811 1.03044L37.0563 1.03044L37.0314 1.03044L37.0064 1.03044L36.9815 1.03044L36.9564 1.03044L36.9314 1.03044L36.9062 1.03044L36.8811 1.03044L36.8559 1.03044L36.8306 1.03044L36.8054 1.03044L36.78 1.03044L36.7547 1.03044L36.7293 1.03044L36.7038 1.03044L36.6784 1.03044L36.6528 1.03044L36.6273 1.03044L36.6017 1.03044L36.5761 1.03044L36.5505 1.03044L36.5248 1.03044L36.4991 1.03044L36.4733 1.03044L36.4476 1.03044L36.4218 1.03044L36.3959 1.03044L36.3701 1.03044L36.3442 1.03044L36.3183 1.03044L36.2923 1.03044L36.2664 1.03044L36.2404 1.03044L36.2144 1.03044L36.1884 1.03044L36.1623 1.03044L36.1362 1.03044L36.1101 1.03044L36.084 1.03044L36.0579 1.03044L36.0317 1.03044L36.0056 1.03044L35.9794 1.03044L35.9532 1.03044L35.927 1.03044L35.9007 1.03044L35.8745 1.03044L35.8482 1.03044L35.822 1.03044L35.7957 1.03044L35.7694 1.03044L35.7431 1.03044L35.7168 1.03044L35.6905 1.03044L35.6641 1.03044L35.6378 1.03044L35.6115 1.03044L35.5851 1.03044L35.5588 1.03044L35.5324 1.03044L35.506 1.03044L35.4797 1.03044L35.4533 1.03044L35.427 1.03044L35.4006 1.03044L35.3742 1.03044L35.3479 1.03044L35.3215 1.03044L35.2952 1.03044L35.2688 1.03044L35.2424 1.03044L35.2161 1.03044L35.1898 1.03044L35.1634 1.03044L35.1371 1.03044L35.1108 1.03044L35.0845 1.03044L35.0582 1.03044L35.0319 1.03044L35.0056 1.03044L34.9793 1.03044L34.9531 1.03044L34.9268 1.03044L34.9006 1.03044L34.8744 1.03044L34.8482 1.03044L34.822 1.03044L34.7959 1.03044L34.7697 1.03044L34.7436 1.03044L34.7175 1.03044L34.6914 1.03044L34.6653 1.03044L34.6392 1.03044L34.6132 1.03044L34.5872 1.03044L34.5612 1.03044L34.5353 1.03044L34.5093 1.03044L34.4834 1.03044L34.4576 1.03044L34.4317 1.03044L34.4059 1.03044L34.3801 1.03044L34.3543 1.03044L34.3286 1.03044L34.3029 1.03044L34.2772 1.03044L34.2516 1.03044L34.2259 1.03044L34.2004 1.03044L34.1748 1.03044L34.1493 1.03044L34.1238 1.03044L34.0984 1.03044L34.073 1.03044L34.0477 1.03044L34.0223 1.03044L33.9971 1.03044L33.9718 1.03044L33.9466 1.03044L33.9215 1.03044L33.8964 1.03044L33.8713 1.03044L33.8463 1.03044L33.8213 1.03044L33.7964 1.03044L33.7715 1.03044L33.7466 1.03044L33.7218 1.03044L33.6971 1.03044L33.6724 1.03044L33.6478 1.03044L33.6232 1.03044L33.5986 1.03044L33.5741 1.03044L33.5497 1.03044L33.5253 1.03044L33.501 1.03044L33.4767 1.03044L33.4525 1.03044L33.4284 1.03044L33.4043 1.03044L33.3802 1.03044L33.3562 1.03044L33.3323 1.03044L33.3085 1.03044L33.2846 1.03044L33.2609 1.03044L33.2372 1.03044L33.2136 1.03044L33.1901 1.03044L33.1666 1.03044L33.1432 1.03044L33.1198 1.03044L33.0965 1.03044L33.0733 1.03044L33.0502 1.03044L33.0271 1.03044L33.0041 1.03044L32.9812 1.03044L32.9583 1.03044L32.9355 1.03044L32.9128 1.03044L32.8901 1.03044L32.8676 1.03044L32.8451 1.03044L32.8226 1.03044L32.8003 1.03044L32.778 1.03044L32.7559 1.03044L32.7337 1.03044L32.7117 1.03044L32.6898 1.03044L32.6679 1.03044L32.6461 1.03044L32.6244 1.03044L32.6028 1.03044L32.5813 1.03044L32.5598 1.03044L32.5385 1.03044L32.5172 1.03044L32.496 1.03044L32.4749 1.03044L32.4539 1.03044L32.433 1.03044L32.4122 1.03044L32.3914 1.03044L32.3708 1.03044L32.3502 1.03044L32.3298 1.03044L32.3094 1.03044L32.2891 1.03044L32.2689 1.03044L32.2489 1.03044L32.2289 1.03044L32.209 1.03044L32.1892 1.03044L32.1695 1.03044L32.1499 1.03044L32.1304 1.03044L32.111 1.03044L32.0918 1.03044L32.0726 1.03044L32.0535 1.03044L32.0345 1.03044L32.0157 1.03044L31.9969 1.03044L31.9782 1.03044L31.9597 1.03044L31.9413 1.03044L31.9229 1.03044L31.9047 1.03044L31.8866 1.03044L31.8686 1.03044L31.8507 1.03044L31.8329 1.03044L31.8153 1.03044L31.7977 1.03044L31.7803 1.03044L31.763 1.03044L31.7458 1.03044L31.7287 1.03044L31.7117 1.03044L31.6949 1.03044L31.6781 1.03044L31.6615 1.03044L31.645 1.03044L31.6287 1.03044L31.6124 1.03044L31.5963 1.03044L31.5803 1.03044L31.5644 1.03044L31.5487 1.03044L31.5331 1.03044L31.5176 1.03044L31.5022 1.03044L31.487 1.03044L31.4718 1.03044L31.4569 1.03044L31.442 1.03044L31.4273 1.03044L31.4127 1.03044L31.3982 1.03044L31.3839 1.03044L31.3697 1.03044L31.3557 1.03044L31.3418 1.03044L31.328 1.03044L31.3143 1.03044L31.3008 1.03044L31.2875 1.03044L31.2742 1.03044L31.2611 1.03044L31.2482 1.03044L31.2354 1.03044L31.2227 1.03044L31.2102 1.03044L31.1978 1.03044L31.1856 1.03044L31.1735 1.03044L31.1616 1.03044L31.1498 1.03044L31.1381 1.03044L31.1266 1.03044L31.1153 1.03044L31.1041 1.03044L31.093 1.03044L31.0821 1.03044L31.0714 1.03044L31.0608 1.03044L31.0504 1.03044L31.0401 1.03044L31.0299 1.03044L31.02 1.03044L31.0101 1.03044L31.0005 1.03044L30.991 1.03044L30.9816 1.03044L30.9724 1.03044L30.9634 1.03044L30.9546 1.03044L30.9459 1.03044L30.9373 1.03044L30.9289 1.03044L30.9207 1.03044L30.9127 1.03044L30.9048 1.03044L30.8971 1.03044L30.8895 1.03044L30.8821 1.03044L30.8749 1.03044L30.8679 1.03044L30.861 1.03044L30.8543 1.03044L30.8478 1.03044L30.8414 1.03044L30.8352 1.03044L30.8292 1.03044L30.8233 1.03044L30.8177 1.03044L30.8122 1.03044L30.8069 1.03044L30.8017 1.03044L30.7968 1.03044L30.792 1.03044L30.7874 1.03044L30.783 1.03044L30.7787 1.03044L30.7747 1.03044L30.7707 1.03044L30.7667 1.03044L30.7627 1.03044L30.7588 1.03044L30.7548 1.03044L30.7508 1.03044L30.7468 1.03044L30.7428 1.03044L30.7388 1.03044L30.7348 1.03044L30.7308 1.03044L30.7268 1.03044L30.7228 1.03044L30.7188 1.03044L30.7148 1.03044L30.7108 1.03044L30.7068 1.03044L30.7028 1.03044L30.6987 1.03044L30.6947 1.03044L30.6907 1.03044L30.6867 1.03044L30.6826 1.03044L30.6786 1.03044L30.6746 1.03044L30.6705 1.03044L30.6665 1.03044L30.6625 1.03044L30.6584 1.03044L30.6544 1.03044L30.6503 1.03044L30.6463 1.03044L30.6423 1.03044L30.6382 1.03044L30.6342 1.03044L30.6301 1.03044L30.626 1.03044L30.622 1.03044L30.6179 1.03044L30.6139 1.03044L30.6098 1.03044L30.6057 1.03044L30.6017 1.03044L30.5976 1.03044L30.5936 1.03044L30.5895 1.03044L30.5854 1.03044L30.5813 1.03044L30.5773 1.03044L30.5732 1.03044L30.5691 1.03044L30.5651 1.03044L30.561 1.03044L30.5569 1.03044L30.5528 1.03044L30.5488 1.03044L30.5447 1.03044L30.5406 1.03044L30.5365 1.03044L30.5324 1.03044L30.5284 1.03044L30.5243 1.03044L30.5202 1.03044L30.5161 1.03044L30.512 1.03044L30.5079 1.03044L30.5039 1.03044L30.4998 1.03044L30.4957 1.03044L30.4916 1.03044L30.4875 1.03044L30.4834 1.03044L30.4794 1.03044L30.4753 1.03044L30.4712 1.03044L30.4671 1.03044L30.463 1.03044L30.4589 1.03044L30.4549 1.03044L30.4508 1.03044L30.4467 1.03044L30.4426 1.03044L30.4385 1.03044L30.4344 1.03044L30.4304 1.03044L30.4263 1.03044L30.4222 1.03044L30.4181 1.03044L30.414 1.03044L30.41 1.03044L30.4059 1.03044L30.4018 1.03044L30.3977 1.03044L30.3936 1.03044L30.3896 1.03044L30.3855 1.03044L30.3814 1.03044L30.3773 1.03044L30.3733 1.03044L30.3692 1.03044L30.3651 1.03044L30.3611 1.03044L30.357 1.03044L30.3529 1.03044L30.3489 1.03044L30.3448 1.03044L30.3407 1.03044L30.3367 1.03044L30.3326 1.03044L30.3286 1.03044L30.3245 1.03044L30.3205 1.03044L30.3164 1.03044L30.3124 1.03044L30.3083 1.03044L30.3043 1.03044L30.3002 1.03044L30.2962 1.03044L30.2921 1.03044L30.2881 1.03044L30.284 1.03044L30.28 1.03044L30.276 1.03044L30.2719 1.03044L30.2679 1.03044L30.2639 1.03044L30.2599 1.03044L30.2558 1.03044L30.2518 1.03044L30.2478 1.03044L30.2438 1.03044L30.2398 1.03044L30.2358 1.03044L30.2317 1.03044L30.2277 1.03044L30.2237 1.03044L30.2197 1.03044L30.2157 1.03044L30.2117 1.03044L30.2077 1.03044L30.2038 1.03044L30.1998 1.03044L30.1958 1.03044L30.1918 1.03044L30.1878 1.03044L30.1838 1.03044L30.1799 1.03044L30.1759 1.03044L30.1719 1.03044L30.168 1.03044L30.164 1.03044L30.1601 1.03044L30.1561 1.03044L30.1522 1.03044L30.1482 1.03044L30.1443 1.03044L30.1403 1.03044L30.1364 1.03044L30.1325 1.03044L30.1285 1.03044L30.1246 1.03044L30.1207 1.03044L30.1168 1.03044L30.1129 1.03044L30.1089 1.03044L30.105 1.03044L30.1011 1.03044L30.0972 1.03044L30.0933 1.03044L30.0895 1.03044L30.0856 1.03044L30.0817 1.03044L30.0778 1.03044L30.0739 1.03044L30.0701 1.03044L30.0662 1.03044L30.0623 1.03044L30.0585 1.03044L30.0546 1.03044L30.0508 1.03044L30.0469 1.03044L30.0431 1.03044L30.0393 1.03044L30.0354 1.03044L30.0316 1.03044L30.0278 1.03044L30.024 1.03044L30.0202 1.03044L30.0164 1.03044L30.0126 1.03044L30.0088 1.03044L30.005 1.03044L30.0012 1.03044L29.9974 1.03044L29.9936 1.03044L29.9899 1.03044L29.9861 1.03044L29.9824 1.03044L29.9786 1.03044L29.9749 1.03044L29.9711 1.03044L29.9674 1.03044L29.9636 1.03044L29.9599 1.03044L29.9562 1.03044L29.9525 1.03044L29.9488 1.03044L29.9451 1.03044L29.9414 1.03044L29.9377 1.03044L29.934 1.03044L29.9303 1.03044L29.9266 1.03044L29.923 1.03044L29.9193 1.03044L29.9156 1.03044L29.912 1.03044L29.9083 1.03044L29.9047 1.03044L29.9011 1.03044L29.8974 1.03044L29.8938 1.03044L29.8902 1.03044L29.8866 1.03044L29.883 1.03044L29.8794 1.03044L29.8758 1.03044L29.8722 1.03044L29.8686 1.03044L29.8651 1.03044L29.8615 1.03044L29.858 1.03044L29.8544 1.03044L29.8509 1.03044L29.8473 1.03044L29.8438 1.03044L29.8403 1.03044L29.8368 1.03044L29.8333 1.03044L29.8298 1.03044L29.8263 1.03044L29.8228 1.03044L29.8193 1.03044L29.8158 1.03044L29.8124 1.03044L29.8089 1.03044L29.8055 1.03044L29.802 1.03044L29.7986 1.03044L29.7951 1.03044L29.7917 1.03044L29.7883 1.03044L29.7849 1.03044L29.7815 1.03044L29.7781 1.03044L29.7747 1.03044L29.7714 1.03044L29.768 1.03044L29.7646 1.03044L29.7613 1.03044L29.7579 1.03044L29.7546 1.03044L29.7513 1.03044L29.748 1.03044L29.7446 1.03044L29.7413 1.03044L29.738 1.03044L29.7348 1.03044L29.7315 1.03044L29.7282 1.03044L29.7249 1.03044L29.7217 1.03044L29.7184 1.03044L29.7152 1.03044L29.712 1.03044L29.7088 1.03044L29.7056 1.03044L29.7024 1.03044L29.6992 1.03044L29.696 1.03044L29.6928 1.03044L29.6896 1.03044L29.6865 1.03044L29.6833 1.03044L29.6802 1.03044L29.677 1.03044L29.6739 1.03044L29.6708 1.03044L29.6677 1.03044L29.6646 1.03044L29.6615 1.03044L29.6585 1.03044L29.6554 1.03044L29.6523 1.03044L29.6493 1.03044L29.6462 1.03044L29.6432 1.03044L29.6402 1.03044L29.6372 1.03044L29.6342 1.03044L29.6312 1.03044L29.6282 1.03044L29.6252 1.03044L29.6223 1.03044L29.6193 1.03044L29.6164 1.03044L29.6134 1.03044L29.6105 1.03044L29.6076 1.03044L29.6047 1.03044L29.6018 1.03044L29.5989 1.03044L29.596 1.03044L29.5932 1.03044L29.5903 1.03044L29.5875 1.03044L29.5847 1.03044L29.5818 1.03044L29.579 1.03044L29.5762 1.03044L29.5734 1.03044L29.5707 1.03044L29.5679 1.03044L29.5651 1.03044L29.5624 1.03044L29.5596 1.03044L29.5569 1.03044L29.5542 1.03044L29.5515 1.03044L29.5488 1.03044L29.5461 1.03044L29.5434 1.03044L29.5408 1.03044L29.5381 1.03044L29.5355 1.03044L29.5329 1.03044L29.5302 1.03044L29.5276 1.03044L29.525 1.03044L29.5225 1.03044L29.5199 1.03044L29.5173 1.03044L29.5148 1.03044L29.5122 1.03044L29.5097 1.03044L29.5072 1.03044L29.5047 1.03044L29.5022 1.03044L29.4997 1.03044L29.4973 1.03044L29.4948 1.03044L29.4924 1.03044L29.4899 1.03044L29.4875 1.03044L29.4851 1.03044L29.4827 1.03044L29.4803 1.03044L29.4779 1.03044L29.4756 1.03044L29.4732 1.03044L29.4709 1.03044L29.4686 1.03044L29.4663 1.03044L29.464 1.03044L29.4617 1.03044L29.4594 1.03044L29.4571 1.03044L29.4549 1.03044L29.4526 1.03044L29.4504 1.03044L29.4482 1.03044L29.446 1.03044L29.4438 1.03044L29.4417 1.03044L29.4395 1.03044L29.4373 1.03044L29.4352 1.03044L29.4331 1.03044L29.431 1.03044L29.4289 1.03044L29.4268 1.03044L29.4247 1.03044L29.4227 1.03044L29.4206 1.03044L29.4186 1.03044L29.4166 1.03044L29.4146 1.03044L29.4126 1.03044L29.4106 1.03044L29.4086 1.03044L29.4067 1.03044L29.4047 1.03044L29.4028 1.03044L29.4009 1.03044L29.399 1.03044L29.3971 1.03044L29.3953 1.03044L29.3934 1.03044L29.3916 1.03044L29.3897 1.03044L29.3879 1.03044L29.3861 1.03044L29.3843 1.03044L29.3826 1.03044L29.3808 1.03044L29.3791 1.03044L29.3773 1.03044L29.3756 1.03044L29.3739 1.03044L29.3722 1.03044L29.3705 1.03044L29.3689 1.03044L29.3672 1.03044L29.3656 1.03044L29.364 1.03044L29.3624 1.03044L29.3608 1.03044L29.3592 1.03044L29.3577 1.03044L29.3561 1.03044L29.3546 1.03044L29.3531 1.03044L29.3516 1.03044L29.3501 1.03044L29.3486 1.03044L29.3472 1.03044L29.3457 1.03044L29.3443 1.03044L29.3429 1.03044L29.3415 1.03044L29.3401 1.03044L29.3388 1.03044L29.3374 1.03044L29.3361 1.03044L29.3348 1.03044L29.3335 1.03044L29.3322 1.03044L29.3309 1.03044L29.3297 1.03044L29.3284 1.03044L29.3272 1.03044L29.326 1.03044L29.3248 1.03044L29.3236 1.03044L29.3225 1.03044L29.3213 1.03044L29.3202 1.03044L29.3191 1.03044L29.318 1.03044L29.3169 1.03044L29.3158 1.03044L29.3148 1.03044L29.3137 1.03044L29.3127 1.03044L29.3117 1.03044L29.3107 1.03044L29.3098 1.03044L29.3088 1.03044L29.3079 1.03044L29.307 1.03044L29.3061 1.03044L29.3052 1.03044L29.3043 1.03044L29.3034 1.03044L29.3026 1.03044L29.3018 1.03044L29.301 1.03044L29.3002 1.03044L29.2994 1.03044L29.2987 1.03044L29.2979 1.03044L29.2972 1.03044L29.2965 1.03044L29.2958 1.03044L29.2951 1.03044L29.2945 1.03044L29.2939 1.03044L29.2932 1.03044L29.2926 1.03044L29.2921 1.03044L29.2915 1.03044L29.2909 1.03044L29.2904 1.03044L29.2899 1.03044L29.2894 1.03044L29.2889 1.03044L29.2885 1.03044L29.288 1.03044L29.2876 1.03044L29.2872 1.03044L29.2868 1.03044L29.2864 1.03044L29.2861 1.03044L29.2857 1.03044L29.2854 1.03044L29.2851 1.03044L29.2848 1.03044L29.2846 1.03044L29.2843 1.03044L29.2841 1.03044L29.2839 1.03044L29.2837 1.03044L29.2835 1.03044L29.2833 1.03044L29.2832 1.03044L29.2831 1.03044L29.283 1.03044L29.2829 1.03044L29.2828 1.03044L29.2827 1.03044L10.8891 1.03044C5.39644 1.03044 0.929099 5.24002 0.9291 10.4505L0.929101 44.0543C0.929101 49.2648 5.39644 53.4744 10.8891 53.4744L17.0203 53.4744L19.2885 53.4744L19.2892 53.4744L20.3877 53.4845L20.3877 53.4845L20.39 53.4845L21.9253 53.4744L21.9258 53.4744L23.1515 53.4744L23.1515 53.4744L23.1516 53.4744L23.152 53.4744L23.1534 53.4744L23.1591 53.4744L23.1808 53.4744L23.2617 53.4744L23.5358 53.4744L24.2385 53.4744L27.4379 53.4744L28.6862 53.4744L29.0544 53.4744L29.1534 53.4744L29.179 53.4744L29.1855 53.4744L29.1872 53.4744L29.1876 53.4744L29.1877 53.4744L29.1877 53.3244L29.1877 53.4744L30.1023 53.4744L30.3978 53.4744L30.48 53.4744L30.5016 53.4744L30.5071 53.4744L30.5085 53.4744L30.5089 53.4744L30.509 53.4744L30.509 53.4744L31.734 53.4744L31.7347 53.4744L31.7401 53.4745L31.7612 53.4748L31.8414 53.4759C31.9107 53.4769 32.0101 53.4781 32.1307 53.4794C32.3718 53.4819 32.6978 53.4845 33.0372 53.4845C33.1831 53.4845 33.4692 53.4853 33.8562 53.4864C35.2616 53.4904 37.9977 53.4982 40.187 53.4845C40.4525 53.4828 40.7924 53.4803 41.0658 53.4782L41.4087 53.4755L41.5098 53.4747L41.537 53.4744L41.544 53.4744L41.5452 53.4744ZM3.68159 44.0543L3.68159 10.4505C3.68159 6.70143 6.90038 3.64795 10.8891 3.64795L99.1787 3.64795C103.167 3.64795 106.386 6.70143 106.386 10.4505L106.386 44.0543C106.386 47.8034 103.167 50.8569 99.1787 50.8569L10.8891 50.8569C6.90038 50.8569 3.68159 47.8034 3.68159 44.0543Z" fill="white" stroke="white" stroke-width="0.3"/>
<rect x="9.71187" y="18.4739" width="4.31638" height="17.3873" rx="2.15819" fill="white"/>
</g>
<defs>
<clipPath id="clip0_5168_4542">
<rect width="54.3353" height="110.068" fill="white" transform="translate(0 54.3352) rotate(-90)"/>
</clipPath>
</defs>
</svg>
