<svg width="69" height="52" viewBox="0 0 69 52" fill="none" xmlns="http://www.w3.org/2000/svg">
<g opacity="0.6" clip-path="url(#clip0_5135_3220)">
<path d="M0.821775 5.97408L0.821777 46.5234C0.821777 49.3837 3.21629 51.7114 6.15975 51.7114L63.6272 51.7114C66.5706 51.7114 68.9661 49.3846 68.9661 46.5234L68.9661 5.97407C68.9661 3.11474 66.5716 0.786992 63.6272 0.786992L6.15975 0.786995C3.21629 0.786995 0.821775 3.11474 0.821775 5.97408ZM63.6272 2.62638C65.5276 2.62638 67.0732 4.12824 67.0732 5.97407L67.0732 46.5234C67.0732 48.3693 65.5276 49.872 63.6272 49.872L6.15975 49.872C4.26023 49.872 2.71467 48.3702 2.71467 46.5234L2.71467 5.97408C2.71467 4.12825 4.26022 2.62638 6.15975 2.62638L63.6272 2.62638Z" fill="white"/>
<rect x="5.04785" y="21.3062" width="2.11213" height="8.32371" rx="1.05606" fill="white"/>
</g>
<defs>
<clipPath id="clip0_5135_3220">
<rect width="51.5029" height="68.1443" fill="white" transform="translate(0.821777 52) rotate(-90)"/>
</clipPath>
</defs>
</svg>
