<svg width="55" height="27" viewBox="0 0 55 27" fill="none" xmlns="http://www.w3.org/2000/svg">
<g opacity="0.6" clip-path="url(#clip0_5135_3230)">
<path d="M20.8969 25.6776L49.1097 25.6776C51.8334 25.6776 54.062 23.6345 54.062 21.0898L54.062 5.0028C54.062 2.4581 51.8334 0.41502 49.1097 0.41502L20.8963 0.415021L20.188 0.415021L20.188 0.565021L20.188 0.415021L20.1878 0.415021L20.1876 0.415021L20.1872 0.415021L20.1868 0.415021L20.1863 0.415021L20.1857 0.415021L20.1849 0.415021L20.1841 0.415021L20.1832 0.415021L20.1822 0.415021L20.1811 0.415021L20.18 0.415021L20.1787 0.415021L20.1773 0.415021L20.1759 0.415021L20.1743 0.415021L20.1727 0.415021L20.1709 0.415021L20.1691 0.415021L20.1672 0.415021L20.1652 0.415021L20.1631 0.415021L20.1609 0.415021L20.1587 0.415021L20.1563 0.415021L20.1539 0.415021L20.1514 0.415021L20.1488 0.415021L20.1461 0.415021L20.1433 0.415021L20.1404 0.415021L20.1374 0.415021L20.1344 0.415021L20.1313 0.415021L20.1281 0.415021L20.1248 0.415021L20.1214 0.415021L20.1179 0.415021L20.1144 0.415021L20.1108 0.415021L20.1071 0.415021L20.1033 0.415021L20.0994 0.415021L20.0954 0.415021L20.0914 0.415021L20.0873 0.415021L20.0831 0.415021L20.0788 0.415021L20.0745 0.415021L20.0701 0.415021L20.0656 0.415021L20.061 0.415021L20.0563 0.415021L20.0516 0.415021L20.0467 0.415021L20.0419 0.415021L20.0369 0.415021L20.0318 0.415021L20.0267 0.415021L20.0215 0.415021L20.0163 0.415021L20.0109 0.415021L20.0055 0.415021L20 0.415021L19.9944 0.415021L19.9888 0.415021L19.9831 0.415021L19.9773 0.415021L19.9714 0.415021L19.9655 0.415021L19.9595 0.415021L19.9535 0.415021L19.9473 0.415021L19.9411 0.415021L19.9348 0.415021L19.9285 0.415021L19.9221 0.415021L19.9156 0.415021L19.909 0.415021L19.9024 0.415021L19.8957 0.415021L19.889 0.415021L19.8821 0.415021L19.8753 0.415021L19.8683 0.415021L19.8613 0.415021L19.8542 0.415021L19.847 0.415021L19.8398 0.415021L19.8326 0.415021L19.8252 0.415021L19.8178 0.415021L19.8103 0.415021L19.8028 0.415021L19.7952 0.415021L19.7876 0.415021L19.7798 0.415021L19.7721 0.415021L19.7642 0.415021L19.7563 0.415021L19.7484 0.415021L19.7403 0.415021L19.7323 0.415021L19.7241 0.415021L19.7159 0.415021L19.7077 0.415021L19.6994 0.415021L19.691 0.415021L19.6826 0.415021L19.6741 0.415021L19.6655 0.415021L19.6569 0.415021L19.6483 0.415021L19.6396 0.415021L19.6308 0.415021L19.622 0.415021L19.6131 0.415021L19.6042 0.415021L19.5952 0.415021L19.5862 0.415021L19.5771 0.415021L19.5679 0.415021L19.5588 0.415021L19.5495 0.415021L19.5402 0.415021L19.5309 0.415021L19.5215 0.415021L19.512 0.415021L19.5025 0.415021L19.493 0.415021L19.4834 0.415021L19.4737 0.415021L19.4641 0.415021L19.4543 0.415021L19.4445 0.415021L19.4347 0.415021L19.4248 0.415021L19.4149 0.415021L19.4049 0.415021L19.3949 0.415021L19.3848 0.415021L19.3747 0.415021L19.3645 0.415021L19.3543 0.415021L19.3441 0.415021L19.3338 0.415021L19.3235 0.415021L19.3131 0.415021L19.3027 0.415021L19.2922 0.415021L19.2817 0.415021L19.2711 0.415021L19.2606 0.415021L19.2499 0.415021L19.2393 0.415021L19.2286 0.415021L19.2178 0.415021L19.207 0.415021L19.1962 0.415021L19.1853 0.415021L19.1744 0.415021L19.1635 0.415021L19.1525 0.415021L19.1415 0.415021L19.1304 0.415021L19.1193 0.415021L19.1082 0.415021L19.0971 0.415021L19.0859 0.415021L19.0746 0.415021L19.0634 0.415021L19.0521 0.415021L19.0407 0.415021L19.0293 0.415021L19.0179 0.415021L19.0065 0.415021L18.995 0.415021L18.9835 0.415021L18.972 0.415021L18.9604 0.415021L18.9489 0.415021L18.9372 0.415021L18.9256 0.415021L18.9139 0.415021L18.9022 0.415021L18.8904 0.415021L18.8787 0.415021L18.8669 0.415021L18.855 0.415021L18.8432 0.415021L18.8313 0.415021L18.8194 0.415021L18.8074 0.415021L18.7955 0.415021L18.7835 0.415021L18.7715 0.415021L18.7594 0.415021L18.7474 0.415021L18.7353 0.415021L18.7231 0.415021L18.711 0.415021L18.6988 0.415021L18.6867 0.415021L18.6744 0.415021L18.6622 0.415021L18.65 0.415021L18.6377 0.415021L18.6254 0.415021L18.6131 0.415021L18.6007 0.415021L18.5884 0.415021L18.576 0.415021L18.5636 0.415021L18.5512 0.415021L18.5388 0.415021L18.5263 0.415021L18.5138 0.415021L18.5013 0.415021L18.4888 0.415021L18.4763 0.415021L18.4638 0.415021L18.4512 0.415021L18.4387 0.415021L18.4261 0.415021L18.4135 0.415021L18.4009 0.415021L18.3882 0.415021L18.3756 0.415021L18.3629 0.415021L18.3503 0.415021L18.3376 0.415021L18.3249 0.415021L18.3122 0.415021L18.2994 0.415021L18.2867 0.415021L18.274 0.415021L18.2612 0.415021L18.2484 0.415021L18.2357 0.415021L18.2229 0.415021L18.2101 0.415021L18.1973 0.415021L18.1845 0.415021L18.1717 0.415021L18.1588 0.415021L18.146 0.415021L18.1332 0.415021L18.1203 0.415021L18.1075 0.415021L18.0946 0.415021L18.0817 0.415021L18.0689 0.415021L18.056 0.415021L18.0431 0.415021L18.0302 0.415021L18.0173 0.415021L18.0045 0.415021L17.9916 0.415021L17.9787 0.415021L17.9658 0.415021L17.9529 0.415021L17.94 0.415021L17.9271 0.415021L17.9141 0.415021L17.9012 0.415021L17.8883 0.415021L17.8754 0.415021L17.8625 0.415021L17.8496 0.415021L17.8367 0.415021L17.8238 0.415021L17.8109 0.415021L17.798 0.415021L17.7851 0.415021L17.7722 0.415021L17.7593 0.415021L17.7465 0.415021L17.7336 0.415021L17.7207 0.415021L17.7078 0.415021L17.695 0.415021L17.6821 0.415021L17.6693 0.415021L17.6564 0.415021L17.6436 0.415021L17.6307 0.415021L17.6179 0.415021L17.6051 0.415021L17.5923 0.415021L17.5795 0.415021L17.5667 0.415021L17.5539 0.415021L17.5411 0.415021L17.5284 0.415021L17.5156 0.415021L17.5029 0.415021L17.4902 0.415021L17.4774 0.415021L17.4647 0.415021L17.452 0.415021L17.4394 0.415021L17.4267 0.415021L17.414 0.415021L17.4014 0.415021L17.3888 0.415021L17.3761 0.415021L17.3635 0.415021L17.351 0.415021L17.3384 0.415021L17.3258 0.415021L17.3133 0.415021L17.3008 0.415021L17.2883 0.415021L17.2758 0.415021L17.2633 0.415021L17.2509 0.415021L17.2384 0.415021L17.226 0.415021L17.2136 0.415021L17.2013 0.415021L17.1889 0.415021L17.1766 0.415021L17.1643 0.415021L17.152 0.415021L17.1397 0.415021L17.1274 0.415021L17.1152 0.415021L17.103 0.415021L17.0908 0.415021L17.0787 0.415021L17.0665 0.415021L17.0544 0.415021L17.0423 0.415021L17.0303 0.415021L17.0182 0.415021L17.0062 0.415021L16.9942 0.415021L16.9823 0.415021L16.9703 0.415021L16.9584 0.415021L16.9465 0.415021L16.9347 0.415021L16.9229 0.415021L16.9111 0.415021L16.8993 0.415021L16.8876 0.415021L16.8758 0.415021L16.8642 0.415021L16.8525 0.415021L16.8409 0.415021L16.8293 0.415021L16.8177 0.415021L16.8062 0.415021L16.7947 0.415021L16.7833 0.415021L16.7718 0.415021L16.7604 0.415021L16.7491 0.415021L16.7377 0.415021L16.7264 0.415021L16.7152 0.415021L16.7039 0.415021L16.6928 0.415021L16.6816 0.415021L16.6705 0.415021L16.6594 0.415021L16.6483 0.415021L16.6373 0.415021L16.6264 0.415021L16.6154 0.415021L16.6045 0.415021L16.5937 0.415021L16.5828 0.415021L16.572 0.415021L16.5613 0.415021L16.5506 0.415021L16.5399 0.415021L16.5293 0.415021L16.5187 0.415021L16.5082 0.415021L16.4977 0.415021L16.4872 0.415021L16.4768 0.415021L16.4665 0.415021L16.4561 0.415021L16.4458 0.415021L16.4356 0.415021L16.4254 0.415021L16.4153 0.415021L16.4051 0.415021L16.3951 0.415021L16.3851 0.415021L16.3751 0.415021L16.3652 0.415021L16.3553 0.415021L16.3455 0.415021L16.3357 0.415021L16.3259 0.415021L16.3163 0.415021L16.3066 0.415021L16.297 0.415021L16.2875 0.415021L16.278 0.415021L16.2686 0.415021L16.2592 0.415021L16.2498 0.415021L16.2405 0.415021L16.2313 0.415021L16.2221 0.415021L16.213 0.415021L16.2039 0.415021L16.1949 0.415021L16.1859 0.415021L16.177 0.415021L16.1681 0.415021L16.1593 0.415021L16.1506 0.415021L16.1419 0.415021L16.1332 0.415021L16.1246 0.415021L16.1161 0.415021L16.1076 0.415021L16.0992 0.415021L16.0908 0.415021L16.0825 0.415021L16.0743 0.415021L16.0661 0.415021L16.0579 0.415021L16.0499 0.415021L16.0419 0.415021L16.0339 0.415021L16.026 0.415021L16.0182 0.415021L16.0104 0.415021L16.0027 0.415021L15.9951 0.415021L15.9875 0.415021L15.9799 0.415021L15.9725 0.415021L15.9651 0.415021L15.9578 0.415021L15.9505 0.415021L15.9433 0.415021L15.9361 0.415021L15.9291 0.415021L15.9221 0.415021L15.9151 0.415021L15.9082 0.415021L15.9014 0.415021L15.8947 0.415021L15.888 0.415021L15.8814 0.415021L15.8748 0.415021L15.8684 0.415021L15.862 0.415021L15.8556 0.415021L15.8493 0.415021L15.8431 0.415021L15.837 0.415021L15.831 0.415021L15.825 0.415021L15.8191 0.415021L15.8132 0.415021L15.8074 0.415021L15.8017 0.415021L15.7961 0.415021L15.7905 0.415021L15.7851 0.415021L15.7797 0.415021L15.7743 0.415021L15.7691 0.415021L15.7639 0.415021L15.7588 0.415021L15.7537 0.415021L15.7488 0.415021L15.7439 0.415021L15.7391 0.415021L15.7343 0.415021L15.7297 0.415021L15.7251 0.415021L15.7206 0.415021L15.7162 0.415021L15.7119 0.415021L15.7076 0.415021L15.7034 0.415021L15.6993 0.415021L15.6953 0.415021L15.6914 0.415021L15.6875 0.415021L15.6837 0.415021L15.68 0.415021L15.6764 0.415021L15.6729 0.415021L15.6694 0.415021L15.6661 0.415021L15.6628 0.415021L15.6596 0.415021L15.6565 0.415021L15.6534 0.415021L15.6505 0.415021L15.6476 0.415021L15.6449 0.415021L15.6422 0.415021L15.6396 0.415021L15.6371 0.415021L15.6346 0.415021L15.6323 0.415021L15.63 0.415021L15.6279 0.415021L15.6258 0.415021L15.6238 0.415021L15.6219 0.415021L15.6199 0.415021L15.618 0.415021L15.616 0.415021L15.6141 0.415021L15.6121 0.415021L15.6102 0.415021L15.6082 0.415021L15.6063 0.415021L15.6043 0.415021L15.6023 0.415021L15.6004 0.415021L15.5984 0.415021L15.5965 0.415021L15.5945 0.415021L15.5925 0.415021L15.5906 0.415021L15.5886 0.415021L15.5866 0.415021L15.5847 0.415021L15.5827 0.415021L15.5807 0.415021L15.5788 0.415021L15.5768 0.415021L15.5748 0.415021L15.5728 0.415021L15.5709 0.415021L15.5689 0.415021L15.5669 0.415021L15.5649 0.415021L15.5629 0.415021L15.561 0.415021L15.559 0.415021L15.557 0.415021L15.555 0.415021L15.553 0.415021L15.551 0.415021L15.5491 0.415021L15.5471 0.415021L15.5451 0.415021L15.5431 0.415021L15.5411 0.415021L15.5391 0.415021L15.5371 0.415021L15.5351 0.415021L15.5332 0.415021L15.5312 0.415021L15.5292 0.415021L15.5272 0.415021L15.5252 0.415021L15.5232 0.415021L15.5212 0.415021L15.5192 0.415021L15.5172 0.415021L15.5152 0.415021L15.5132 0.415021L15.5112 0.415021L15.5092 0.415021L15.5072 0.415021L15.5052 0.415021L15.5032 0.415021L15.5012 0.415021L15.4992 0.415021L15.4972 0.415021L15.4952 0.415021L15.4932 0.415021L15.4912 0.415021L15.4892 0.415021L15.4872 0.415021L15.4852 0.415021L15.4832 0.415021L15.4812 0.415021L15.4792 0.415021L15.4772 0.415021L15.4752 0.415021L15.4732 0.415021L15.4712 0.415021L15.4692 0.415021L15.4672 0.415021L15.4652 0.415021L15.4632 0.415021L15.4612 0.415021L15.4592 0.415021L15.4572 0.415021L15.4553 0.415021L15.4533 0.415021L15.4513 0.415021L15.4493 0.415021L15.4473 0.415021L15.4453 0.415021L15.4433 0.415021L15.4413 0.415021L15.4393 0.415021L15.4373 0.415021L15.4353 0.415021L15.4333 0.415021L15.4313 0.415021L15.4293 0.415021L15.4273 0.415021L15.4253 0.415021L15.4233 0.415021L15.4213 0.415021L15.4193 0.415021L15.4174 0.415021L15.4154 0.415021L15.4134 0.415021L15.4114 0.415021L15.4094 0.415021L15.4074 0.415021L15.4054 0.415021L15.4034 0.415021L15.4015 0.415021L15.3995 0.415021L15.3975 0.415021L15.3955 0.415021L15.3935 0.415021L15.3915 0.415021L15.3896 0.415021L15.3876 0.415021L15.3856 0.415021L15.3836 0.415021L15.3817 0.415021L15.3797 0.415021L15.3777 0.415021L15.3757 0.415021L15.3738 0.415021L15.3718 0.415021L15.3698 0.415021L15.3678 0.415021L15.3659 0.415021L15.3639 0.415021L15.362 0.415021L15.36 0.415021L15.358 0.415021L15.3561 0.415021L15.3541 0.415021L15.3521 0.415021L15.3502 0.415021L15.3482 0.415021L15.3463 0.415021L15.3443 0.415021L15.3424 0.415021L15.3404 0.415021L15.3385 0.415021L15.3365 0.415021L15.3346 0.415021L15.3326 0.415021L15.3307 0.415021L15.3287 0.415021L15.3268 0.415021L15.3249 0.415021L15.3229 0.415021L15.321 0.415021L15.3191 0.415021L15.3171 0.415021L15.3152 0.415021L15.3133 0.415021L15.3113 0.415021L15.3094 0.415021L15.3075 0.415021L15.3056 0.415021L15.3037 0.415021L15.3017 0.415021L15.2998 0.415021L15.2979 0.415021L15.296 0.415021L15.2941 0.415021L15.2922 0.415021L15.2903 0.415021L15.2884 0.415021L15.2865 0.415021L15.2846 0.415021L15.2827 0.415021L15.2808 0.415021L15.2789 0.415021L15.277 0.415021L15.2751 0.415021L15.2732 0.415021L15.2713 0.415021L15.2694 0.415021L15.2676 0.415021L15.2657 0.415021L15.2638 0.415021L15.2619 0.415021L15.2601 0.415021L15.2582 0.415021L15.2563 0.415021L15.2545 0.415021L15.2526 0.415021L15.2507 0.415021L15.2489 0.415021L15.247 0.415021L15.2452 0.415021L15.2433 0.415021L15.2415 0.415021L15.2396 0.415021L15.2378 0.415021L15.2359 0.415021L15.2341 0.415021L15.2323 0.415021L15.2304 0.415021L15.2286 0.415021L15.2268 0.415021L15.225 0.415021L15.2231 0.415021L15.2213 0.415021L15.2195 0.415021L15.2177 0.415021L15.2159 0.415021L15.2141 0.415021L15.2123 0.415021L15.2105 0.415021L15.2087 0.415021L15.2069 0.415021L15.2051 0.415021L15.2033 0.415021L15.2015 0.415021L15.1997 0.415021L15.1979 0.415021L15.1961 0.415021L15.1944 0.415021L15.1926 0.415021L15.1908 0.415021L15.1891 0.415021L15.1873 0.415021L15.1855 0.415021L15.1838 0.415021L15.182 0.415021L15.1803 0.415021L15.1785 0.415021L15.1768 0.415021L15.175 0.415021L15.1733 0.415021L15.1716 0.415021L15.1698 0.415021L15.1681 0.415021L15.1664 0.415021L15.1647 0.415021L15.163 0.415021L15.1612 0.415021L15.1595 0.415021L15.1578 0.415021L15.1561 0.415021L15.1544 0.415021L15.1527 0.415021L15.151 0.415021L15.1493 0.415021L15.1477 0.415021L15.146 0.415021L15.1443 0.415021L15.1426 0.415021L15.141 0.415021L15.1393 0.415021L15.1376 0.415021L15.136 0.415021L15.1343 0.415021L15.1327 0.415021L15.131 0.415021L15.1294 0.415021L15.1277 0.415021L15.1261 0.415021L15.1244 0.415021L15.1228 0.415021L15.1212 0.415021L15.1196 0.415021L15.118 0.415021L15.1163 0.415021L15.1147 0.415021L15.1131 0.415021L15.1115 0.415021L15.1099 0.415021L15.1083 0.415021L15.1068 0.415021L15.1052 0.415021L15.1036 0.415021L15.102 0.415021L15.1004 0.415021L15.0989 0.415021L15.0973 0.415021L15.0957 0.415021L15.0942 0.415021L15.0926 0.415021L15.0911 0.415021L15.0896 0.415021L15.088 0.415021L15.0865 0.415021L15.085 0.415021L15.0834 0.415021L15.0819 0.415021L15.0804 0.415021L15.0789 0.415021L15.0774 0.415021L15.0759 0.415021L15.0744 0.415021L15.0729 0.415021L15.0714 0.415021L15.0699 0.415021L15.0684 0.415021L15.067 0.415021L15.0655 0.415021L15.064 0.415021L15.0626 0.415021L15.0611 0.415021L15.0597 0.415021L15.0582 0.415021L15.0568 0.415021L15.0553 0.415021L15.0539 0.415021L15.0525 0.415021L15.0511 0.415021L15.0496 0.415021L15.0482 0.415021L15.0468 0.415021L15.0454 0.415021L15.044 0.415021L15.0426 0.415021L15.0413 0.415021L15.0399 0.415021L15.0385 0.415021L15.0371 0.415021L15.0358 0.415021L15.0344 0.415021L15.033 0.415021L15.0317 0.415021L15.0303 0.415021L15.029 0.415021L15.0277 0.415021L15.0263 0.415021L15.025 0.415021L15.0237 0.415021L15.0224 0.415021L15.0211 0.415021L15.0198 0.415021L15.0185 0.415021L15.0172 0.415021L15.0159 0.415021L15.0146 0.415021L15.0133 0.415021L15.0121 0.415021L15.0108 0.415021L15.0096 0.415021L15.0083 0.415021L15.0071 0.415021L15.0058 0.415021L15.0046 0.415021L15.0033 0.415021L15.0021 0.415021L15.0009 0.415021L14.9997 0.415021L14.9985 0.415021L14.9973 0.415021L14.9961 0.415021L14.9949 0.415021L14.9937 0.415021L14.9925 0.415021L14.9913 0.415021L14.9902 0.415021L14.989 0.415021L14.9879 0.415021L14.9867 0.415021L14.9856 0.415021L14.9844 0.415021L14.9833 0.415021L14.9822 0.415021L14.9811 0.415021L14.9799 0.415021L14.9788 0.415021L14.9777 0.415021L14.9766 0.415021L14.9755 0.415021L14.9745 0.415021L14.9734 0.415021L14.9723 0.415021L14.9713 0.415021L14.9702 0.415021L14.9691 0.415021L14.9681 0.415021L14.9671 0.415021L14.966 0.415021L14.965 0.415021L14.964 0.415021L14.963 0.415021L14.962 0.415021L14.961 0.415021L14.96 0.415021L14.959 0.415021L14.958 0.415021L14.957 0.415021L14.956 0.415021L14.9551 0.415021L14.9541 0.415021L14.9532 0.415021L14.9522 0.415021L14.9513 0.415021L14.9504 0.415021L14.9495 0.415021L14.9485 0.415021L14.9476 0.415021L14.9467 0.415021L14.9458 0.415021L14.9449 0.415021L14.9441 0.415021L14.9432 0.415021L14.9423 0.415021L14.9415 0.415021L14.9406 0.415021L14.9398 0.415021L14.9389 0.415021L14.9381 0.415021L14.9373 0.415021L14.9364 0.415021L14.9356 0.415021L14.9348 0.415021L14.934 0.415021L14.9332 0.415021L14.9324 0.415021L14.9317 0.415021L14.9309 0.415021L14.9301 0.415021L14.9294 0.415021L14.9286 0.415021L14.9279 0.415021L14.9272 0.415021L14.9264 0.415021L14.9257 0.415021L14.925 0.415021L14.9243 0.415021L14.9236 0.415021L14.9229 0.415021L14.9222 0.415021L14.9216 0.415021L14.9209 0.415021L14.9202 0.415021L14.9196 0.415021L14.9189 0.415021L14.9183 0.415021L14.9177 0.415021L14.917 0.415021L14.9164 0.415021L14.9158 0.415021L14.9152 0.415021L14.9146 0.415021L14.914 0.415021L14.9135 0.415021L14.9129 0.415021L14.9123 0.415021L14.9118 0.415021L14.9112 0.415021L14.9107 0.415021L14.9102 0.415021L14.9097 0.415021L14.9091 0.415021L14.9086 0.415021L14.9081 0.415021L14.9076 0.415021L14.9072 0.415021L14.9067 0.415021L14.9062 0.415021L14.9058 0.415021L14.9053 0.415021L14.9049 0.415021L14.9044 0.415021L14.904 0.415021L14.9036 0.415021L14.9032 0.415021L14.9028 0.415021L14.9024 0.415021L14.902 0.415021L14.9016 0.415021L14.9013 0.415021L14.9009 0.415021L14.9005 0.415021L14.9002 0.415021L14.8999 0.415021L14.8995 0.415021L14.8992 0.415021L14.8989 0.415021L14.8986 0.415021L14.8983 0.415021L14.898 0.415021L14.8977 0.415021L14.8975 0.415021L14.8972 0.415021L14.897 0.415021L14.8967 0.415021L14.8965 0.415021L14.8963 0.415021L14.896 0.415021L14.8958 0.415021L14.8956 0.415021L14.8954 0.415021L14.8953 0.415021L14.8951 0.415021L14.8949 0.415021L14.8948 0.415021L14.8946 0.415021L14.8945 0.415021L14.8943 0.415021L14.8942 0.415021L14.8941 0.415021L14.894 0.415021L14.8939 0.415021L14.8938 0.415021L14.8938 0.415021L14.8937 0.415021L14.8936 0.415021L14.8936 0.415021L14.8935 0.415021L14.8935 0.415021L14.8935 0.415021L5.88919 0.415022C3.16549 0.415022 0.936913 2.4581 0.936913 5.00281L0.936914 21.0898C0.936914 23.6345 3.16549 25.6776 5.88919 25.6776L8.89061 25.6776L10.0007 25.6776L10.0013 25.6776L10.5384 25.6824L10.5384 25.6824L10.5407 25.6824L11.2918 25.6776L11.2922 25.6776L11.892 25.6776L11.892 25.5276L11.892 25.6776L11.8921 25.6776L11.8921 25.6776L11.8923 25.6776L11.893 25.6776L11.8957 25.6776L11.9064 25.6776L11.946 25.6776L12.0802 25.6776L12.4241 25.6776L13.9904 25.6776L14.6014 25.6776L14.7817 25.6776L14.8301 25.6776L14.8427 25.6776L14.8459 25.6776L14.8467 25.6776L14.8469 25.6776L14.8469 25.6776L14.847 25.5276L14.847 25.6776L15.2947 25.6776L15.4393 25.6776L15.4796 25.6776L15.4901 25.6776L15.4928 25.6776L15.4935 25.6776L15.4937 25.6776L15.4937 25.6776L15.4937 25.6776L15.4937 25.5276L15.4937 25.6776L16.0929 25.6776L16.0953 25.6776L16.1056 25.6777L16.145 25.6783L16.2868 25.68C16.405 25.6812 16.5649 25.6824 16.7314 25.6824C16.8026 25.6824 16.9424 25.6828 17.1316 25.6833C17.8193 25.6852 19.1597 25.689 20.2319 25.6824C20.3619 25.6816 20.5284 25.6804 20.6622 25.6794L20.8301 25.6781L20.8796 25.6777L20.8929 25.6776L20.8963 25.6776L20.8969 25.6776ZM2.43748 21.0898L2.43748 5.00281C2.43748 3.25839 3.9715 1.82447 5.88919 1.82447L49.1097 1.82447C51.0274 1.82447 52.5614 3.25839 52.5614 5.0028L52.5614 21.0898C52.5614 22.8342 51.0274 24.2681 49.1097 24.2681L5.88919 24.2681C3.9715 24.2681 2.43748 22.8342 2.43748 21.0898Z" fill="white" stroke="white" stroke-width="0.3"/>
<rect x="5.31348" y="8.84424" width="2.11213" height="8.3237" rx="1.05606" fill="white"/>
</g>
<defs>
<clipPath id="clip0_5135_3230">
<rect width="26.0116" height="53.8816" fill="white" transform="translate(0.559082 26.0117) rotate(-90)"/>
</clipPath>
</defs>
</svg>
