<svg width="32" height="32" viewBox="0 0 32 32" fill="none" xmlns="http://www.w3.org/2000/svg">
<path d="M11.2948 5.05811L11.7088 4.84546C12.8419 4.28117 13.9791 3.72622 15.107 3.14741C15.2795 3.05075 15.4738 3 15.6715 3C15.8691 3 16.0634 3.05075 16.2359 3.14741C20.0729 5.06641 23.9141 6.97744 27.7593 8.88053C28.197 9.09733 28.373 9.39918 28.3719 9.87841C28.3636 14.114 28.3636 18.3496 28.3719 22.5852C28.3719 23.0811 28.1732 23.3912 27.7376 23.607C23.8468 25.5322 19.9584 27.4629 16.0725 29.3992C15.7103 29.5797 15.4029 29.5175 15.0687 29.3505C11.6491 27.6369 8.22808 25.9257 4.8057 24.2169C4.39179 24.0094 3.97787 23.7958 3.55671 23.5945C3.17384 23.4089 3 23.1143 3 22.6848C3.00552 18.3973 3.00552 14.1099 3 9.82239C3 9.3691 3.18316 9.08073 3.58672 8.88883C5.09441 8.14302 6.59381 7.38579 8.1015 6.64413C8.15613 6.62079 8.21491 6.60876 8.2743 6.60876C8.3337 6.60876 8.39248 6.62079 8.44711 6.64413C12.369 8.66408 16.2887 10.6878 20.2064 12.7154C20.2765 12.7435 20.3354 12.7938 20.3743 12.8586C20.4131 12.9234 20.4298 12.9991 20.4217 13.0743C20.4155 15.0545 20.4217 17.0337 20.4217 19.0128C20.4217 19.49 20.5841 19.5885 21.0063 19.3676C21.7007 19.0045 22.3919 18.6332 23.0914 18.2794C23.1901 18.2377 23.2729 18.1655 23.3278 18.0734C23.3827 17.9812 23.4068 17.8739 23.3967 17.767C23.3905 15.7267 23.3874 13.6863 23.3967 11.647C23.409 11.5337 23.3838 11.4194 23.3249 11.3219C23.2659 11.2244 23.1766 11.1491 23.0707 11.1076C20.2154 9.64847 17.3639 8.18382 14.5161 6.71363L11.2948 5.05811Z" fill="#3374FB"/>
</svg>
