<svg width="32" height="20" viewBox="0 0 32 20" fill="none" xmlns="http://www.w3.org/2000/svg">
<rect width="32" height="20" rx="4" fill="#151515"/>
<path d="M14.8125 6.39941C14.7302 6.39948 14.6505 6.42892 14.5879 6.48245C14.5253 6.53598 14.4838 6.61008 14.4709 6.69144L13.9033 10.2914C13.9298 10.1233 14.0747 9.9994 14.2449 9.9994H15.9082C17.5822 9.9994 19.0026 8.77824 19.2621 7.12339C19.2814 6.99985 19.2924 6.87513 19.2949 6.75011C18.8695 6.52705 18.3697 6.39941 17.8222 6.39941H14.8125Z" fill="#2C2C2C"/>
<path d="M19.2951 6.75C19.2926 6.87502 19.2817 6.99974 19.2624 7.12328C19.0028 8.77813 17.5823 9.99929 15.9084 9.99929H14.2452C14.075 9.99929 13.93 10.123 13.9036 10.2913L13.3817 13.5994L13.0548 15.6747C13.0484 15.7148 13.0508 15.7558 13.0618 15.7949C13.0728 15.834 13.0921 15.8702 13.1185 15.9011C13.1449 15.9319 13.1776 15.9567 13.2145 15.9737C13.2514 15.9907 13.2915 15.9995 13.3321 15.9995H15.1374C15.2198 15.9994 15.2994 15.97 15.3621 15.9164C15.4247 15.8629 15.4661 15.7888 15.479 15.7075L15.9545 12.6914C15.9674 12.61 16.0089 12.5358 16.0716 12.4823C16.1343 12.4288 16.214 12.3994 16.2964 12.3994H17.3593C19.0333 12.3994 20.4537 11.1782 20.7133 9.52336C20.8976 8.34885 20.306 7.28005 19.2951 6.75Z" fill="#BABABA"/>
<path d="M12.7618 4C12.5916 4 12.4466 4.12376 12.4202 4.29176L11.0035 13.2751C10.9766 13.4457 11.1084 13.5999 11.2811 13.5999H13.3819L13.9036 10.2918L14.4712 6.69183C14.484 6.61047 14.5255 6.53637 14.5881 6.48285C14.6507 6.42932 14.7304 6.39988 14.8128 6.39981H17.8224C18.3701 6.39981 18.8697 6.52758 19.2951 6.75051C19.3242 5.24388 18.081 4 16.3718 4H12.7618Z" fill="#3C3C3C"/>
</svg>
