<svg width="36" height="48" viewBox="0 0 36 48" fill="none" xmlns="http://www.w3.org/2000/svg">
<path fill-rule="evenodd" clip-rule="evenodd" d="M31.4732 15.8369C31.8801 15.9838 32.3125 16.1848 32.7321 16.4684C33.1518 16.752 34.1418 17.6934 34.581 18.52C35.0202 19.3465 35.25 20.2694 35.25 21.2068C35.25 22.1441 35.0202 23.067 34.581 23.8936C34.1418 24.7201 33.5067 25.4248 32.7321 25.9452C32.7321 25.9452 31.8801 26.4297 31.4732 26.5767C31.0663 26.7236 30.6438 26.8227 30.2143 26.8719V38.3144C30.2129 39.4903 29.7482 40.6176 28.9222 41.4491C28.0961 42.2806 26.9762 42.7483 25.808 42.7497H8.18442C8.18442 42.7497 7.42821 42.7705 6.59867 42.4482C5.76913 42.1258 5.05577 41.5586 4.55219 40.8209C4.0486 40.0832 3.77831 39.2095 3.77678 38.3144H3.14732C2.3129 38.3134 1.51294 37.9793 0.922915 37.3854C0.33289 36.7915 0.000982877 35.9863 0 35.1463V27.5429C2.79737e-05 27.4501 0.0203011 27.3583 0.0593896 27.2742C0.0984781 27.19 0.15543 27.1155 0.226229 27.0559L3.77678 24.0776V16.7715C3.77678 16.6883 3.79306 16.6059 3.82471 16.529C3.85636 16.4521 3.90274 16.3823 3.96122 16.3235L14.0326 6.18565C14.0911 6.12679 14.1604 6.0801 14.2368 6.04824C14.3132 6.01639 14.395 5.99999 14.4777 6H25.808C26.6981 6.00154 27.5668 6.2741 28.3001 6.78186C29.0333 7.28962 29.5968 8.00882 29.9165 8.84494L30.2143 10.4347V15.5416C30.6438 15.5909 31.0663 15.6899 31.4732 15.8369ZM13.8482 8.16323V12.9698C13.8472 13.8097 13.5153 14.6149 12.9253 15.2089C12.3353 15.8028 11.5353 16.1369 10.7009 16.1379H5.92584L13.8482 8.16323ZM3.77678 25.7278V26.9093H2.36786L3.77678 25.7278ZM3.14732 37.0472C2.64666 37.0466 2.16666 36.8462 1.81263 36.4898C1.45861 36.1335 1.25948 35.6503 1.25893 35.1463V28.1766H23.9196C24.4203 28.1771 24.9003 28.3776 25.2543 28.7339C25.6084 29.0903 25.8075 29.5734 25.808 30.0774V35.1463C25.8075 35.6503 25.6084 36.1335 25.2543 36.4898C24.9003 36.8462 24.4203 37.0466 23.9196 37.0472H3.14732ZM5.03571 38.3144H23.9196C24.7541 38.3134 25.554 37.9793 26.144 37.3854C26.7341 36.7915 27.066 35.9863 27.067 35.1463V30.0774C27.066 29.2375 26.7341 28.4322 26.144 27.8383C25.554 27.2444 24.7541 26.9103 23.9196 26.9093H5.03571V17.4051H10.7009C11.8691 17.4037 12.989 16.9359 13.815 16.1044C14.641 15.273 15.1057 14.1457 15.1071 12.9698V7.26723H25.808C26.6424 7.26822 27.4424 7.60232 28.0324 8.19623C28.6225 8.79015 28.9544 9.59539 28.9554 10.4353V15.5416C27.5706 15.6969 26.2913 16.3606 25.3622 17.4058C24.4331 18.451 23.9194 19.8043 23.9194 21.2068C23.9194 22.6093 24.4331 23.9626 25.3622 25.0078C26.2913 26.053 27.5706 26.7167 28.9554 26.8719V38.3144C28.9544 39.1543 28.6225 39.9596 28.0324 40.5535C27.4424 41.1474 26.6424 41.4815 25.808 41.4825H8.18303C7.34861 41.4815 6.54865 41.1474 5.95863 40.5535C5.3686 39.9596 5.0367 39.1543 5.03571 38.3144ZM29.5848 25.6421C28.7133 25.6421 27.8614 25.382 27.1368 24.8946C26.4122 24.4073 25.8475 23.7146 25.514 22.9041C25.1805 22.0937 25.0932 21.2019 25.2632 20.3415C25.4332 19.4811 25.8529 18.6908 26.4691 18.0705C27.0854 17.4503 27.8705 17.0278 28.7252 16.8567C29.5799 16.6856 30.4659 16.7734 31.271 17.1091C32.0761 17.4448 32.7643 18.0133 33.2485 18.7427C33.7326 19.472 33.9911 20.3296 33.9911 21.2068C33.9896 22.3827 33.525 23.51 32.6989 24.3414C31.8729 25.1729 30.753 25.6407 29.5848 25.6421ZM31.8509 21.3335C31.9171 21.3833 31.973 21.4459 32.0152 21.5174C32.0573 21.589 32.0851 21.6683 32.0968 21.7507C32.1085 21.8331 32.1039 21.9171 32.0833 21.9977C32.0627 22.0783 32.0265 22.1541 31.9768 22.2206L30.592 24.0793C30.4748 24.2368 30.3227 24.3647 30.1479 24.4528C29.9731 24.5408 29.7803 24.5867 29.5848 24.5867C29.3893 24.5867 29.1965 24.5408 29.0217 24.4528C28.8469 24.3647 28.6949 24.2368 28.5777 24.0793L27.1929 22.2206C27.1433 22.154 27.1072 22.0783 27.0867 21.9977C27.0661 21.917 27.0616 21.8332 27.0733 21.7508C27.085 21.6684 27.1127 21.5892 27.1548 21.5176C27.1969 21.446 27.2526 21.3834 27.3187 21.3335C27.3849 21.2836 27.4601 21.2473 27.5402 21.2266C27.6203 21.206 27.7036 21.2014 27.7854 21.2132C27.8673 21.2249 27.946 21.2528 28.0171 21.2952C28.0883 21.3376 28.1504 21.3937 28.2 21.4602L28.9554 22.474V19.3059C28.9554 19.1379 29.0217 18.9767 29.1397 18.8579C29.2578 18.7391 29.4179 18.6723 29.5848 18.6723C29.7518 18.6723 29.9119 18.7391 30.0299 18.8579C30.148 18.9767 30.2143 19.1379 30.2143 19.3059V22.4745L30.9696 21.4607C31.0192 21.394 31.0812 21.3378 31.1524 21.2954C31.2235 21.2529 31.3022 21.2249 31.3841 21.2131C31.4659 21.2013 31.5493 21.2059 31.6294 21.2265C31.7095 21.2472 31.7848 21.2835 31.8509 21.3335ZM8.18303 29.4438H6.92411C6.75716 29.4438 6.59705 29.5105 6.47901 29.6294C6.36096 29.7482 6.29464 29.9094 6.29464 30.0774V35.1463C6.29464 35.3144 6.36096 35.4755 6.47901 35.5944C6.59705 35.7132 6.75716 35.78 6.92411 35.78C7.09105 35.78 7.25116 35.7132 7.3692 35.5944C7.48725 35.4755 7.55357 35.3144 7.55357 35.1463V33.2455H8.18303C8.68387 33.2455 9.16419 33.0452 9.51833 32.6887C9.87247 32.3323 10.0714 31.8488 10.0714 31.3446C10.0714 30.8405 9.87247 30.357 9.51833 30.0005C9.16419 29.6441 8.68387 29.4438 8.18303 29.4438ZM8.18303 31.9783H7.55357V30.711H8.18303C8.34998 30.711 8.51009 30.7778 8.62813 30.8966C8.74618 31.0154 8.8125 31.1766 8.8125 31.3446C8.8125 31.5127 8.74618 31.6739 8.62813 31.7927C8.51009 31.9115 8.34998 31.9783 8.18303 31.9783ZM13.2187 29.4438H11.9598C11.7929 29.4438 11.6328 29.5105 11.5147 29.6294C11.3967 29.7482 11.3304 29.9094 11.3304 30.0774V35.1463C11.3304 35.3144 11.3967 35.4755 11.5147 35.5944C11.6328 35.7132 11.7929 35.78 11.9598 35.78H13.2187C14.0535 35.78 14.854 35.4462 15.4442 34.852C16.0345 34.2579 16.3661 33.4521 16.3661 32.6119C16.3661 31.7716 16.0345 30.9658 15.4442 30.3717C14.854 29.7776 14.0535 29.4438 13.2187 29.4438ZM13.2187 34.5127H12.5893V30.711H13.2187C13.7196 30.711 14.1999 30.9113 14.554 31.2678C14.9082 31.6242 15.1071 32.1077 15.1071 32.6119C15.1071 33.116 14.9082 33.5995 14.554 33.956C14.1999 34.3125 13.7196 34.5127 13.2187 34.5127ZM21.4018 30.0774C21.4018 30.2455 21.3355 30.4066 21.2174 30.5254C21.0994 30.6443 20.9393 30.711 20.7723 30.711H18.8839V31.9783H20.1429C20.3098 31.9783 20.4699 32.045 20.588 32.1638C20.706 32.2827 20.7723 32.4438 20.7723 32.6119C20.7723 32.7799 20.706 32.9411 20.588 33.0599C20.4699 33.1787 20.3098 33.2455 20.1429 33.2455H18.8839V35.1463C18.8839 35.3144 18.8176 35.4755 18.6996 35.5944C18.5815 35.7132 18.4214 35.78 18.2545 35.78C18.0875 35.78 17.9274 35.7132 17.8094 35.5944C17.6913 35.4755 17.625 35.3144 17.625 35.1463V30.0774C17.625 29.9094 17.6913 29.7482 17.8094 29.6294C17.9274 29.5105 18.0875 29.4438 18.2545 29.4438H20.7723C20.9393 29.4438 21.0994 29.5105 21.2174 29.6294C21.3355 29.7482 21.4018 29.9094 21.4018 30.0774Z" fill="#1657FC"/>
</svg>
