<svg width="128" height="100" viewBox="0 0 128 100" fill="none" xmlns="http://www.w3.org/2000/svg">
<path fill-rule="evenodd" clip-rule="evenodd" d="M74.5 0.849998C85.575 2.775 95.6 7.225 104.125 14C107.1 16.375 112.875 22.275 115.025 25.125C121.6 33.925 125.725 43.775 127.425 54.75C128.025 58.725 128.025 67.925 127.425 72.125C126.075 81.275 123.1 89.4 118.2 97.2L116.45 100H11.525L9.99999 97.575C5.12499 89.85 1.75 80.525 0.474998 71.25C0 67.85 0.0499954 58.375 0.574997 54.925C2.375 43.025 7.05 32.3 14.2 23.65C16.55 20.825 21.25 16.15 23.875 14.025C33.025 6.65 44.35 1.925 56.6 0.375C61 -0.200005 69.875 0.0500031 74.5 0.849998ZM24.125 15.55C33.025 8.10001 44.625 3.2 57.125 1.65001C59.3 1.37501 61.525 1.3 65.125 1.4C70.425 1.525 73.675 1.9 78.1 2.9C86.725 4.825 96.025 9.3 103.175 14.925C105.725 16.95 111.875 23.125 113.65 25.5C120.575 34.65 124.525 44.1 126.15 55.375C126.75 59.425 126.75 67.525 126.175 71.625C124.925 80.35 121.775 89.05 117.15 96.425L115.725 98.75H12.3L10.625 96.075C7.64999 91.25 5.39999 86.2 3.84999 80.9C-1.65001 61.925 2.025 41.975 13.975 26C15.775 23.575 21.25 17.95 24.125 15.55Z" fill="#E0E0E0"/>
<path fill-rule="evenodd" clip-rule="evenodd" d="M108.125 55.025C108.225 55.35 108.175 55.7 107.95 55.9C107.75 56.1 99.675 58.4 90 61C80.3 63.625 72.125 65.875 71.825 66C71.35 66.2 71.25 66.425 71.25 67.425C71.25 70.075 68.825 73.1 66.05 73.9C62.775 74.85 59.175 73.25 57.55 70.15C56.675 68.425 56.625 65.7 57.475 63.95C59.25 60.275 63.625 58.725 67.2 60.525C68.575 61.2 70.5 62.975 70.5 63.55C70.5 64.1 72 63.725 89.625 59C106.05 54.575 106.275 54.525 107.175 54.5C107.775 54.5 108 54.625 108.125 55.025ZM60.025 71.175C57.075 68.375 57.925 63.45 61.625 61.725C62.85 61.15 64.95 61.125 66.2 61.65C68.325 62.525 69.75 64.65 69.75 67C69.75 72.075 63.7 74.65 60.025 71.175Z" fill="#E0E0E0"/>
<path d="M108.825 86.15C109.55 86.5 111.275 87.475 112.7 88.325C114.75 89.525 115.25 89.95 115.25 90.4C115.25 91.325 114.55 91.525 113.375 90.95C110.325 89.4 106.75 87.175 106.625 86.725C106.45 86.225 106.85 85.5 107.3 85.5C107.425 85.5 108.1 85.8 108.825 86.15Z" fill="#E0E0E0"/>
<path d="M23.075 89.05C23.475 89.65 23.05 90.05 19.9 91.85C15.275 94.525 14.5 94.75 14.5 93.375C14.5 92.675 14.975 92.325 19.25 89.95C21.925 88.475 22.625 88.3 23.075 89.05Z" fill="#E0E0E0"/>
<path d="M15.65 64.9C15.75 65.275 15.7 65.65 15.525 65.825C15.125 66.225 7.22499 66.4 6.52499 66C6.02499 65.75 5.8 64.775 6.175 64.425C6.24999 64.325 8.39999 64.25 10.9 64.25H15.5L15.65 64.9Z" fill="#E0E0E0"/>
<path d="M16.75 37.2C20.7 39.4 21.5 39.95 21.5 40.475C21.5 40.725 21.325 41.1 21.1 41.275C20.75 41.575 20.4 41.45 18.65 40.55C15.725 39 13.2 37.425 12.925 36.975C12.55 36.375 12.9 35.75 13.55 35.75C13.875 35.75 15.325 36.4 16.75 37.2Z" fill="#E0E0E0"/>
<path d="M35.325 15.55C35.775 16.275 36.8 18.025 37.6 19.425C38.825 21.575 39 22.05 38.75 22.475C38.425 23.125 37.7 23.15 37.2 22.55C36.575 21.85 33 15.575 33 15.2C33 15 33.125 14.725 33.3 14.55C33.9 13.95 34.475 14.25 35.325 15.55Z" fill="#E0E0E0"/>
<path d="M72.25 6.4C95.875 9.825 114.85 27 120.5 50.05C121.375 53.6 122.05 58.775 121.95 61L121.875 62.625L117.4 62.7C112.675 62.775 112.15 62.65 112.3 61.65C112.4 61 113.525 60.8 117.325 60.775L120 60.75V59.8C119.975 56.925 118.65 50.2 117.225 45.875C116.175 42.75 112.675 35.25 112.225 35.25C112.1 35.25 110.625 36 109 36.9C106 38.55 105.4 38.725 104.925 37.95C104.525 37.325 104.95 36.95 108.175 35.075C110.225 33.85 110.975 33.275 110.875 33.025C110.6 32.275 107.95 28.8 106.1 26.725C103.975 24.325 100.425 21.05 97.875 19.125C95.55 17.35 91.75 14.975 91.475 15.125C91.375 15.2 90.475 16.625 89.5 18.275C87.875 21.025 87.65 21.275 87.05 21.2C85.9 21.075 86.05 20.225 87.875 17.05C89.85 13.55 90.05 13.925 85.4 12.025C79.875 9.75 73.65 8.375 66.825 7.875L64.5 7.7V11.3C64.5 15.1 64.4 15.5 63.325 15.5C62.55 15.5 62.425 14.6 62.525 10C62.6 7.00001 62.7 6.175 63 5.975C63.475 5.65 68.725 5.875 72.25 6.4Z" fill="#E0E0E0"/>
</svg>
