<svg width="221" height="107" viewBox="0 0 221 107" fill="none" xmlns="http://www.w3.org/2000/svg">
<rect x="4.25" y="4.25" width="212.5" height="98.5" rx="15.75" stroke="#E0E0E0" stroke-width="0.5"/>
<path d="M37.4912 57H33.9229V47.1357H37.4707C39.166 47.1357 40.3145 48.1133 40.3145 49.5693C40.3145 50.6631 39.5625 51.5996 38.5098 51.791V51.8389C39.877 52.0029 40.8271 52.9258 40.8271 54.293C40.8271 55.9746 39.5762 57 37.4912 57ZM34.8525 47.9629V51.5176H36.999C38.4961 51.5176 39.3711 50.834 39.3711 49.6719C39.3711 48.5986 38.585 47.9629 37.2725 47.9629H34.8525ZM34.8525 56.1729H37.3613C38.9746 56.1729 39.8701 55.4688 39.8701 54.2451C39.8701 53.0146 38.9404 52.3242 37.2383 52.3242H34.8525V56.1729ZM44.9082 57.1162C42.9736 57.1162 41.668 55.7012 41.668 53.4453C41.668 51.1826 42.9805 49.7744 44.9082 49.7744C46.8428 49.7744 48.1484 51.1826 48.1484 53.4453C48.1484 55.7012 46.8428 57.1162 44.9082 57.1162ZM44.9082 56.3164C46.3027 56.3164 47.2324 55.25 47.2324 53.4453C47.2324 51.6406 46.3027 50.5742 44.9082 50.5742C43.5137 50.5742 42.5908 51.6406 42.5908 53.4453C42.5908 55.25 43.5137 56.3164 44.9082 56.3164ZM52.2363 57.1162C50.3018 57.1162 48.9961 55.7012 48.9961 53.4453C48.9961 51.1826 50.3086 49.7744 52.2363 49.7744C54.1709 49.7744 55.4766 51.1826 55.4766 53.4453C55.4766 55.7012 54.1709 57.1162 52.2363 57.1162ZM52.2363 56.3164C53.6309 56.3164 54.5605 55.25 54.5605 53.4453C54.5605 51.6406 53.6309 50.5742 52.2363 50.5742C50.8418 50.5742 49.9189 51.6406 49.9189 53.4453C49.9189 55.25 50.8418 56.3164 52.2363 56.3164ZM56.5361 51.791C56.5361 50.6152 57.5889 49.7744 59.0928 49.7744C60.5488 49.7744 61.5879 50.6289 61.6768 51.8799H60.8086C60.6992 51.0391 60.0498 50.5195 59.0654 50.5195C58.0947 50.5195 57.4316 51.0322 57.4316 51.7432C57.4316 52.3242 57.8486 52.6797 58.7988 52.9121L59.8516 53.165C61.2734 53.5205 61.8066 54.04 61.8066 55.0586C61.8066 56.2617 60.6787 57.1162 59.0723 57.1162C57.5479 57.1162 56.4473 56.2617 56.3311 55.0107H57.2334C57.3633 55.8516 58.0605 56.3711 59.127 56.3711C60.1934 56.3711 60.8975 55.8721 60.8975 55.127C60.8975 54.5117 60.542 54.1836 59.5918 53.9512L58.4365 53.6641C57.1514 53.3428 56.5361 52.7344 56.5361 51.791ZM63.4131 48.1133H64.3154V49.8906H65.7168V50.6426H64.3154V55.209C64.3154 55.9404 64.6025 56.2549 65.2588 56.2549C65.3545 56.2549 65.6963 56.2412 65.751 56.2275V57C65.6553 57.0205 65.2725 57.041 65.0811 57.041C63.8916 57.041 63.4131 56.5352 63.4131 55.25V50.6426H62.3535V49.8906H63.4131V48.1133ZM69.8867 59.0781H69.0938L72.5801 47.1357H73.373L69.8867 59.0781ZM77.167 47.1357H80.5234C82.4102 47.1357 83.6885 48.373 83.6885 50.2051C83.6885 52.0371 82.3965 53.2812 80.5166 53.2812H78.0967V57H77.167V47.1357ZM78.0967 47.9697V52.4473H80.3047C81.8223 52.4473 82.7314 51.6064 82.7314 50.2051C82.7314 48.8037 81.8291 47.9697 80.3047 47.9697H78.0967ZM87.4482 50.5674C86.1768 50.5674 85.2949 51.5449 85.2197 52.9463H89.6084C89.5879 51.5449 88.7334 50.5674 87.4482 50.5674ZM89.5537 54.9834H90.4492C90.2373 56.2139 89.082 57.1162 87.5166 57.1162C85.5205 57.1162 84.2832 55.7217 84.2832 53.4658C84.2832 51.2578 85.5342 49.7744 87.4619 49.7744C89.3486 49.7744 90.5381 51.1621 90.5381 53.2812V53.6641H85.2129V53.7188C85.2129 55.3252 86.1221 56.3232 87.5371 56.3232C88.6104 56.3232 89.3555 55.7627 89.5537 54.9834ZM91.748 57V49.8906H92.6025V51.1553H92.623C92.8828 50.2871 93.5459 49.7744 94.4209 49.7744C94.6602 49.7744 94.8721 49.8223 94.9814 49.8496V50.7383C94.8652 50.6836 94.6123 50.6357 94.3047 50.6357C93.293 50.6357 92.6504 51.4219 92.6504 52.5703V57H91.748ZM96.4307 57V50.6426H95.4395V49.8906H96.4307V48.9883C96.4307 47.7031 97.0596 47.1152 98.249 47.1152C98.4951 47.1152 98.7549 47.1426 98.9053 47.1699V47.915C98.7617 47.8877 98.5703 47.8672 98.3789 47.8672C97.6953 47.8672 97.333 48.2158 97.333 49.0088V49.8906H98.8643V50.6426H97.3398V57H96.4307ZM102.521 57.1162C100.587 57.1162 99.2812 55.7012 99.2812 53.4453C99.2812 51.1826 100.594 49.7744 102.521 49.7744C104.456 49.7744 105.762 51.1826 105.762 53.4453C105.762 55.7012 104.456 57.1162 102.521 57.1162ZM102.521 56.3164C103.916 56.3164 104.846 55.25 104.846 53.4453C104.846 51.6406 103.916 50.5742 102.521 50.5742C101.127 50.5742 100.204 51.6406 100.204 53.4453C100.204 55.25 101.127 56.3164 102.521 56.3164ZM106.965 57V49.8906H107.819V51.1553H107.84C108.1 50.2871 108.763 49.7744 109.638 49.7744C109.877 49.7744 110.089 49.8223 110.198 49.8496V50.7383C110.082 50.6836 109.829 50.6357 109.521 50.6357C108.51 50.6357 107.867 51.4219 107.867 52.5703V57H106.965ZM111.176 57V49.8906H112.03V51.2031H112.051C112.358 50.3691 113.09 49.7744 114.122 49.7744C115.161 49.7744 115.913 50.376 116.18 51.2715H116.2C116.535 50.3965 117.369 49.7744 118.442 49.7744C119.83 49.7744 120.739 50.7041 120.739 52.1396V57H119.837V52.3447C119.837 51.2441 119.222 50.5811 118.189 50.5811C117.137 50.5811 116.412 51.3877 116.412 52.5225V57H115.503V52.2627C115.503 51.2441 114.847 50.5811 113.876 50.5811C112.83 50.5811 112.078 51.4219 112.078 52.6318V57H111.176ZM124.554 56.3369C125.798 56.3369 126.775 55.4551 126.775 54.3271V53.541L124.67 53.6846C123.549 53.7598 122.927 54.2451 122.927 55.0312C122.927 55.8037 123.59 56.3369 124.554 56.3369ZM124.369 57.1162C122.968 57.1162 122.011 56.2754 122.011 55.0312C122.011 53.8145 122.92 53.0762 124.561 52.9668L126.775 52.8301V52.2148C126.775 51.1895 126.126 50.5742 125.019 50.5742C123.973 50.5742 123.303 51.0869 123.146 51.9482H122.271C122.373 50.6768 123.419 49.7744 125.039 49.7744C126.659 49.7744 127.678 50.6836 127.678 52.1328V57H126.816V55.6465H126.796C126.399 56.5283 125.429 57.1162 124.369 57.1162ZM129.195 57V49.8906H130.05V51.2031H130.07C130.433 50.3418 131.267 49.7744 132.415 49.7744C133.974 49.7744 134.931 50.7793 134.931 52.3926V57H134.028V52.5361C134.028 51.292 133.345 50.5811 132.155 50.5811C130.925 50.5811 130.098 51.4697 130.098 52.7891V57H129.195ZM142.238 52.1396H141.35C141.158 51.2646 140.44 50.5742 139.319 50.5742C137.932 50.5742 137.022 51.6885 137.022 53.4453C137.022 55.2295 137.938 56.3164 139.326 56.3164C140.399 56.3164 141.145 55.7217 141.35 54.7988H142.245C142.047 56.1592 140.892 57.1162 139.319 57.1162C137.378 57.1162 136.1 55.7217 136.1 53.4453C136.1 51.2031 137.378 49.7744 139.312 49.7744C140.987 49.7744 142.061 50.8682 142.238 52.1396ZM146.183 50.5674C144.911 50.5674 144.029 51.5449 143.954 52.9463H148.343C148.322 51.5449 147.468 50.5674 146.183 50.5674ZM148.288 54.9834H149.184C148.972 56.2139 147.816 57.1162 146.251 57.1162C144.255 57.1162 143.018 55.7217 143.018 53.4658C143.018 51.2578 144.269 49.7744 146.196 49.7744C148.083 49.7744 149.272 51.1621 149.272 53.2812V53.6641H143.947V53.7188C143.947 55.3252 144.856 56.3232 146.271 56.3232C147.345 56.3232 148.09 55.7627 148.288 54.9834Z" fill="#E0E0E0"/>
<rect x="173" y="47" width="24" height="12" rx="6" fill="#E0E0E0"/>
<ellipse cx="191" cy="53.0002" rx="4.8" ry="4.8" fill="#171717"/>
<rect x="8.25" y="39.25" width="8.5" height="28.5" rx="4.25" stroke="#E0E0E0" stroke-width="0.5"/>
<rect x="0.5" y="0.5" width="220" height="106" rx="19.5" stroke="#E0E0E0"/>
<circle cx="12.5" cy="43.5" r="1.5" fill="#E0E0E0"/>
</svg>
