<svg width="36" height="36" viewBox="0 0 36 36" fill="none" xmlns="http://www.w3.org/2000/svg">
<path fill-rule="evenodd" clip-rule="evenodd" d="M4.29945 17.977C3.3976 17.977 2.6665 18.7177 2.6665 19.6313V24.2186C2.6665 24.639 2.78637 25.055 2.94032 25.4454L3.97721 28.1789C4.22633 28.8106 4.67264 29.2537 5.34415 29.2497H11.4865H15.1418H15.3219C15.8434 29.2528 16.2291 28.9862 16.4921 28.571C16.5868 28.4514 16.6649 28.3196 16.7213 28.1789L17.7594 25.4456C17.9048 25.0828 17.9854 24.6971 17.9978 24.3063C17.9989 24.2771 17.9995 24.2479 17.9995 24.2186V19.6313C17.9995 19.6269 17.9995 19.6226 17.9995 19.6183C17.9969 18.7069 17.2668 17.9688 16.3665 17.9688L12.3127 17.9715L10.2618 17.9688C10.2221 17.9688 10.1827 17.9702 10.1437 17.973L4.29945 17.977Z" fill="#808080"/>
<path d="M30.8795 5.39844H23.5197C22.1648 5.39844 21.0664 6.3692 21.0664 7.56669V27.0809C21.0664 28.2784 22.1648 29.2492 23.5197 29.2492H30.8795C32.2344 29.2492 33.3328 28.2784 33.3328 27.0809V7.56669C33.3328 6.3692 32.2344 5.39844 30.8795 5.39844Z" fill="#808080"/>
<path d="M24.7462 8.4037C24.7462 8.11225 24.4029 7.87598 23.9795 7.87598C23.5561 7.87598 23.2129 8.11225 23.2129 8.4037V26.3463C23.2129 26.6377 23.5561 26.874 23.9795 26.874C24.4029 26.874 24.7462 26.6377 24.7462 26.3463V8.4037Z" fill="#1B1B1B"/>
<path d="M27.9664 8.4037C27.9664 8.11225 27.6232 7.87598 27.1998 7.87598C26.7763 7.87598 26.4331 8.11225 26.4331 8.4037V26.3463C26.4331 26.6377 26.7763 26.874 27.1998 26.874C27.6232 26.874 27.9664 26.6377 27.9664 26.3463V8.4037Z" fill="#1B1B1B"/>
<path d="M31.1891 8.4037C31.1891 8.11225 30.8458 7.87598 30.4224 7.87598C29.999 7.87598 29.6558 8.11225 29.6558 8.4037V26.3463C29.6558 26.6377 29.999 26.874 30.4224 26.874C30.8458 26.874 31.1891 26.6377 31.1891 26.3463V8.4037Z" fill="#1B1B1B"/>
</svg>
