<svg width="306" height="102" viewBox="0 0 306 102" fill="none" xmlns="http://www.w3.org/2000/svg">
<path fill-rule="evenodd" clip-rule="evenodd" d="M164.838 0.138201C159.044 0.413577 152.404 0.973424 149.686 1.41502C149.221 1.49027 148.079 1.67551 147.149 1.82684C143.17 2.47104 139.475 3.2798 136.084 4.24899C135.658 4.37138 135.119 4.51858 134.886 4.57729C134.654 4.63601 134.241 4.75509 133.97 4.84275C133.698 4.9304 132.874 5.1942 132.138 5.42906C130.73 5.87809 127.896 6.86713 127.415 7.07635C127.261 7.14416 126.467 7.45592 125.654 7.77017C124.839 8.08358 123.983 8.42181 123.751 8.52187C123.518 8.6211 122.54 9.02218 121.576 9.41333C120.614 9.80447 119.567 10.2378 119.251 10.3776C118.935 10.5173 118.244 10.8225 117.715 11.0565C117.186 11.2897 116.731 11.4807 116.704 11.4807C116.676 11.4807 116.252 11.661 115.761 11.881C115.272 12.1001 114.141 12.6012 113.25 12.994C109.881 14.4776 103.055 17.7565 100.917 18.9183C100.529 19.1284 99.7817 19.5278 99.2565 19.8065C97.9042 20.521 94.7683 22.2369 94.1974 22.5743C94.068 22.6512 93.783 22.8108 93.5631 22.9299C92.8214 23.3318 89.3625 25.3033 88.8652 25.6076C88.5937 25.773 88.0863 26.0649 87.7379 26.2551C84.0988 28.239 77.1014 32.7186 74.6547 34.6297C72.5286 36.2918 72.8584 36.1827 69.5551 36.3059C66.4682 36.4208 63.7019 36.6119 61.8726 36.8368C61.2527 36.9129 59.9207 37.0733 58.9126 37.1932C57.9054 37.3123 56.795 37.4678 56.4465 37.5381C56.0973 37.6075 55.3361 37.7266 54.7551 37.8019C53.3724 37.9813 50.7786 38.4394 46.5796 39.2457C44.5271 39.6402 39.0849 40.7557 38.1927 40.965C37.8832 41.0377 37.122 41.2023 36.5013 41.3305C32.6905 42.1194 25.3641 44.1446 23.8156 44.8368C23.6608 44.9062 23.1534 45.0873 22.6883 45.2387C21.4696 45.6348 17.5599 47.0952 16.7683 47.4491C16.1289 47.7361 14.8054 48.3017 14.0189 48.625C9.87151 50.3327 2.67112 54.2549 1.00422 55.717C-0.112965 56.6953 -0.293101 58.1284 0.439285 60.2024C2.26095 65.3585 2.30492 68.0072 0.634644 72.0775C-0.503684 74.8519 0.245614 76.0353 3.20561 76.1428C5.10846 76.2114 4.95539 76.0435 6.06411 79.2827C7.31154 82.9296 7.39357 82.7369 4.59511 82.7369H2.7633L2.2601 83.2008C0.409685 84.9077 3.45425 87.0619 7.89339 87.1868C9.64147 87.2356 9.77171 87.2595 10.5718 87.678C15.1707 90.0844 18.672 90.9519 25.7185 91.4315C29.832 91.7119 31.2587 91.1777 32.3226 88.9598L32.6956 88.1808L32.7793 82.1167C32.8715 75.4589 32.9671 74.5559 33.8872 71.6417C36.6544 62.8793 44.0687 56.0643 53.0637 54.0176C64.4216 51.4326 76.0713 56.4762 81.9312 66.5162C83.1431 68.5927 84.1944 71.3101 84.6882 73.6404C85.1745 75.9319 85.2481 77.0119 85.3293 83.0123C85.4282 90.3772 85.4976 90.617 87.8157 91.6995C88.9828 92.2436 88.3155 92.2237 108.528 92.3155C117.598 92.3569 126.256 92.4197 127.768 92.4545C129.279 92.4892 138.445 92.5504 148.135 92.5901C157.826 92.629 171.019 92.7075 177.454 92.7646C183.888 92.8208 194.893 92.8671 201.909 92.8671H214.665L215.313 92.5545C216.137 92.1576 216.837 91.4729 217.357 90.5566L217.766 89.8347L217.855 83.2885C217.904 79.6879 218.01 76.3694 218.092 75.9145C220.078 64.7879 227.519 56.7135 238.204 54.0887C251.832 50.7404 266.336 58.9835 270.059 72.1933C270.188 72.6481 270.349 73.2063 270.418 73.4337C270.852 74.8594 271.105 77.8637 271.111 81.6635C271.118 86.0067 271.469 86.9296 273.542 88.0526L274.288 88.457L281.052 88.4975C288.888 88.5446 289.377 88.5033 293.809 87.4249C294.657 87.219 296.061 86.9023 298.109 86.4574C302.058 85.599 302.264 85.5345 302.793 84.9862C303.366 84.3917 303.421 83.5366 302.946 82.5906C302.336 81.3749 302.404 80.763 303.517 77.4105C305.594 71.1587 306.003 68.94 306 63.9237C305.997 59.8675 305.899 59.4854 304.292 57.3602C302.121 54.4898 301.314 50.9653 301.235 44.0115L301.209 41.7406L301.985 41.634C303.506 41.4239 303.904 40.5763 303.316 38.7959C302.862 37.4215 302.75 34.4436 303.098 32.9815C303.392 31.7502 304.243 29.2437 304.607 28.5424C305.544 26.7339 304.736 25.6448 302.337 25.4835C299.485 25.2925 297.331 25.0502 294.655 24.6202C293.317 24.4052 292.658 24.1885 288.03 22.4403C286.674 21.9276 284.866 21.2628 284.013 20.9617C280.105 19.584 279.285 19.2963 278.163 18.9109C276.035 18.1799 267.425 15.3872 265.901 14.9341C265.087 14.6918 264.167 14.4098 263.857 14.3072C263.547 14.2055 262.754 13.9657 262.095 13.7739C261.436 13.5828 260.263 13.2396 259.488 13.0122C257.888 12.5425 256.325 12.1051 255.189 11.809C254.762 11.6974 254.223 11.5543 253.99 11.4906C251.766 10.8828 249.048 10.1807 247.506 9.8144C246.886 9.6672 246.189 9.49106 245.956 9.42242C245.724 9.35461 245.311 9.25868 245.04 9.20989C244.769 9.1611 244.388 9.06849 244.195 9.00481C244.001 8.94031 243.367 8.78815 242.785 8.66493C242.204 8.54254 241.347 8.354 240.882 8.24566C240.417 8.13816 239.592 7.9521 239.049 7.83219C238.507 7.71311 237.809 7.55598 237.499 7.48404C237.189 7.41127 236.016 7.16153 234.892 6.9275C233.767 6.6943 232.467 6.42058 232.002 6.32051C230.699 6.03935 229.785 5.85825 227.492 5.4241C226.329 5.20413 224.553 4.86673 223.545 4.6757C222.537 4.48385 221.332 4.2647 220.866 4.18862C219.677 3.99429 217.837 3.68087 216.396 3.42783C213.719 2.95646 206.198 1.89713 203.107 1.55477C202.409 1.47704 201.648 1.38359 201.415 1.34638C200.973 1.27609 199.379 1.12145 195.707 0.792322C188.362 0.133239 172.153 -0.209947 164.838 0.138201ZM189.435 1.83925C191.837 1.99141 194.755 2.20311 195.918 2.30978C199.811 2.6662 201.127 2.79851 202.12 2.93413C202.662 3.00856 203.852 3.16237 204.763 3.27649C208.749 3.77597 209.777 3.9116 210.506 4.03564C210.933 4.10758 211.948 4.2647 212.762 4.38379C214.648 4.66164 217.309 5.09662 221.149 5.7557C222.146 5.92688 223.419 6.16587 227.104 6.87375C227.666 6.98208 228.585 7.15905 229.148 7.26655C229.71 7.37488 230.93 7.62462 231.861 7.82226C232.791 8.01991 233.996 8.27295 234.539 8.38459C235.082 8.49623 235.938 8.68064 236.442 8.79394C236.946 8.90723 237.675 9.0627 238.063 9.1396C239.052 9.33394 241.725 9.95581 242.609 10.1965C243.21 10.3602 243.349 10.4545 243.351 10.6984C243.364 11.9289 244.721 13.3339 246.309 13.7623C246.863 13.912 247.757 14.1625 251.242 15.1441C251.668 15.264 252.176 15.4145 252.369 15.4782C252.564 15.5419 253.261 15.7486 253.92 15.9372C257.545 16.975 257.906 17.0817 261.461 18.17C267.6 20.0488 271.722 21.3918 277.106 23.2665C283.565 25.5158 284.892 25.7829 290.426 25.9491C295.677 26.1071 298.32 26.4899 296.873 26.8827C296.545 26.9721 295.451 27.2681 294.443 27.5418C293.436 27.8147 292.294 28.1306 291.906 28.2431C291.519 28.3547 290.885 28.5333 290.497 28.6392C290.109 28.745 288.245 29.3322 286.354 29.9441L282.917 31.058L281.139 30.0417C280.162 29.4819 279.013 28.836 278.586 28.6053C278.16 28.3737 277.399 27.9561 276.895 27.6766C275.5 26.9026 269.166 23.8701 267.099 22.9878C266.091 22.5578 265.076 22.1236 264.843 22.0227C264.611 21.9227 263.692 21.5505 262.8 21.1966C261.908 20.8427 261.052 20.4995 260.897 20.4333C260.386 20.2158 257.402 19.1044 255.752 18.5173C254.861 18.1997 253.909 17.8541 253.638 17.7482C252.124 17.1627 244.519 14.7141 242.503 14.1634C242.154 14.0683 241.076 13.7681 240.106 13.4977C235.732 12.2738 233.804 11.7743 230.733 11.0689C229.725 10.8373 228.679 10.5893 228.408 10.5173C228.136 10.4462 227.565 10.318 227.139 10.232C226.713 10.1468 225.952 9.98889 225.448 9.88056C224.944 9.77222 223.897 9.55887 223.122 9.40671C222.346 9.25455 221.458 9.07262 221.149 9.0015C220.839 8.93038 220.014 8.77243 219.316 8.65087C218.619 8.52848 217.572 8.3449 216.991 8.24236C215.084 7.90496 213.554 7.6486 212.551 7.49892C212.008 7.41871 210.961 7.26242 210.225 7.15243C207.849 6.79849 206.796 6.65378 205.573 6.51071C204.915 6.43381 203.583 6.27751 202.613 6.16339C201.644 6.0501 200.218 5.89877 199.442 5.82765C198.667 5.7557 197.43 5.63662 196.693 5.56054C195.336 5.42244 191.203 5.12143 186.968 4.85267C175.171 4.1051 157.95 4.79644 148.911 6.38006C138.425 8.21755 132.49 10.2676 121.778 15.7503C115.487 18.9688 108.314 23.1813 103.121 26.7041C101.775 27.6179 100.538 28.4564 100.372 28.5681C94.0799 32.8203 91.9411 35.2954 91.5622 38.7644C91.4269 40.0073 91.7711 39.8907 87.8495 40.0206C84.5893 40.1281 81.5549 40.2604 75.2636 40.5689C73.7126 40.6449 71.2076 40.7673 69.6955 40.8409C63.6799 41.1337 57.0851 41.5463 54.2612 41.8068C49.324 42.2624 48.2541 42.3683 47.4253 42.4874C46.9213 42.5593 46.1602 42.6536 45.7339 42.6974C45.3077 42.7404 44.5778 42.8339 44.1127 42.905C43.6475 42.9761 42.6014 43.1332 41.787 43.2548C30.2836 44.9749 17.537 49.9052 13.0937 54.3542C11.8082 55.6418 12.5203 56.9186 14.4916 56.8599C16.6084 56.7962 21.6311 55.9825 23.1813 55.4515C23.3758 55.3854 24.1048 55.1638 24.8025 54.9603C27.1976 54.2599 30.802 52.7425 33.1184 51.4582C35.8374 49.9515 38.0379 48.52 40.4812 46.6685C42.0196 45.5033 42.3333 45.1783 42.5397 44.5391C42.5929 44.3753 42.8568 44.2877 43.5038 44.2207C43.9934 44.1694 44.7436 44.0727 45.1698 44.0057C46.2608 43.8328 49.3282 43.5004 52.1469 43.2498C53.4654 43.1324 55.2093 42.9753 56.0237 42.9009C57.6432 42.752 60.0061 42.5891 64.9739 42.284C66.7566 42.1748 68.7229 42.0532 69.3437 42.0135C69.9636 41.9738 72.4051 41.849 74.7697 41.7365C77.1344 41.624 80.4648 41.4661 82.1697 41.3851C88.3087 41.0931 91.1926 41.0038 91.2983 41.1006C91.3584 41.156 91.3897 43.1167 91.3694 45.4595L91.3321 49.7191L90.7681 49.8134C90.4577 49.8646 88.7138 50.0085 86.8922 50.1326C85.0705 50.2558 83.0087 50.4137 82.3109 50.4832C81.6132 50.5527 80.4715 50.6453 79.7738 50.6883C79.0761 50.7321 77.871 50.8264 77.0955 50.9C76.3208 50.9728 74.4492 51.1291 72.9379 51.2465C69.4697 51.5169 66.0868 51.8171 64.2694 52.0156C63.2368 52.128 62.6363 52.128 62.0232 52.0164C59.5402 51.5632 54.6815 51.9841 51.1608 52.9575C50.9283 53.022 50.3574 53.1791 49.8923 53.3073C47.701 53.9093 40.9328 55.1439 34.7397 56.0709C34.003 56.1817 32.9882 56.3347 32.4841 56.4116C31.6418 56.5406 30.1314 56.7449 27.4099 57.0955C26.8289 57.1708 25.8774 57.294 25.2956 57.3693C24.7146 57.4453 23.4139 57.6033 22.4066 57.7207C21.3986 57.839 20.0666 57.9977 19.4467 58.0738C17.4795 58.317 12.1921 58.8214 9.20424 59.0496L6.99609 59.2192L6.45568 58.8156C5.40107 58.0283 4.6078 57.5338 3.60647 57.041C3.0483 56.7656 2.62714 56.4844 2.67112 56.4158C2.93329 55.9998 7.457 53.4189 10.7578 51.8014C12.8509 50.7751 13.0505 50.6842 15.4295 49.6629C16.1653 49.347 16.8951 49.0336 17.0499 48.9674C19.6885 47.8295 26.7409 45.3611 29.454 44.6259C29.8413 44.5209 30.5077 44.334 30.934 44.2108C32.1856 43.8494 36.9825 42.7289 39.1796 42.2856C39.7226 42.1764 40.6106 41.9904 41.1527 41.873C41.6956 41.7555 42.7739 41.5347 43.5494 41.3826C44.3241 41.2304 45.2121 41.0485 45.5225 40.9774C45.8329 40.9071 47.1327 40.6573 48.4123 40.4233C49.691 40.1884 51.023 39.9379 51.3723 39.8659C51.7207 39.7932 52.4184 39.6749 52.9225 39.6021C53.4265 39.5294 54.4414 39.3722 55.178 39.2532C60.9626 38.3171 66.3676 37.844 72.5853 37.7299C81.0035 37.5753 83.7732 36.8343 89.1663 33.2983C99.5305 26.5015 101.699 25.1147 104.201 23.6783C104.332 23.603 105.138 23.1284 105.991 22.6248C107.529 21.7159 109.776 20.4375 110.995 19.7775C111.343 19.589 112.121 19.1623 112.724 18.8307C114.3 17.9607 114.813 17.6887 116.704 16.7178C117.634 16.2407 118.839 15.618 119.381 15.3351C119.924 15.0515 121.796 14.1286 123.539 13.2835C127.568 11.3327 127.36 11.4493 127.732 10.9233C128.143 10.3445 128.132 9.98475 127.688 9.34469C127.224 8.67651 127.474 8.53345 131.221 7.32196C131.454 7.24753 131.771 7.13258 131.926 7.06808C133.12 6.56943 139.5 4.84275 142.427 4.22584C146.38 3.39309 152.021 2.54299 155.606 2.23949C162.057 1.6937 164.883 1.59943 175.339 1.58041C183.675 1.5647 185.69 1.60191 189.435 1.83925ZM174.141 6.17166C174.141 6.28413 174.055 6.60995 173.95 6.89525C173.719 7.52125 173.496 8.21093 172.731 10.6538C172.219 12.2903 171.42 14.8191 170.816 16.7186C170.707 17.0593 170.466 17.8036 170.28 18.3726C170.094 18.9407 169.745 20.0413 169.504 20.8187C168.75 23.2532 168.201 24.9989 167.65 26.7107C167.067 28.5209 166.663 29.7969 165.96 32.0413C165.436 33.7159 165.5 33.6663 163.852 33.6687C163.271 33.6704 161.622 33.7308 160.187 33.8027C156.97 33.9664 151.613 34.1889 146.585 34.3683C138.962 34.6396 130.977 34.9083 126.499 35.044C123.98 35.12 120.206 35.2433 118.112 35.3177C116.019 35.3921 112.721 35.4913 110.784 35.5393C108.845 35.5864 107.037 35.6452 106.766 35.6691C106.495 35.6931 103.894 35.7518 100.987 35.799C98.0801 35.8461 95.3687 35.9189 94.9611 35.9594C93.942 36.0619 93.9792 35.8205 95.1725 34.604C98.0547 31.6675 107.624 25.1858 115.717 20.6897C130.171 12.6575 137.918 9.65728 148.911 7.83384C149.647 7.71145 150.567 7.5535 150.955 7.48321C156.276 6.51485 174.141 5.50514 174.141 6.17166ZM179.836 6.38171C179.829 6.57108 179.715 7.28392 179.584 7.96615C179.452 8.64839 179.257 9.70276 179.149 10.3097C178.967 11.336 178.649 13.0552 178.372 14.5132C178.308 14.8539 178.157 15.6601 178.038 16.3052C177.547 18.9638 177.355 19.9893 177.242 20.5772C176.971 21.9797 176.653 23.7287 176.529 24.5052C176.456 24.9601 176.337 25.5803 176.265 25.8838C176.193 26.1873 176.031 27.0242 175.904 27.7444C175.777 28.4647 175.582 29.5497 175.469 30.1567C174.854 33.4645 174.993 33.2577 173.374 33.2569C172.75 33.2561 171.112 33.3289 169.736 33.4173C168.36 33.5058 167.204 33.5497 167.169 33.5149C167.133 33.4802 167.289 32.8649 167.515 32.148C167.959 30.7388 169.312 26.3221 170.215 23.3343C170.524 22.3105 170.868 21.1784 170.979 20.8187C171.33 19.6816 171.611 18.7397 171.812 18.0277C171.918 17.649 172.099 17.0593 172.213 16.7186C172.327 16.3771 172.56 15.6329 172.732 15.0647C172.903 14.4958 173.136 13.7515 173.249 13.4108C173.364 13.0693 173.649 12.139 173.882 11.3434C174.583 8.95685 175.32 6.55372 175.48 6.13197C175.533 5.99139 176.024 5.96079 177.699 5.99387L179.849 6.03687L179.836 6.38171ZM186.615 6.24443C191.317 6.50575 195.58 6.8324 199.935 7.26407C202.919 7.56012 208.51 8.25559 210.578 8.58802C211.043 8.66245 212.248 8.84934 213.255 9.00398C214.263 9.1578 215.405 9.34221 215.792 9.41333C216.18 9.48527 217.068 9.64156 217.766 9.76147C218.464 9.88138 219.32 10.0385 219.669 10.1113C220.017 10.1849 221.096 10.3974 222.065 10.5851C223.034 10.772 224.27 11.0218 224.813 11.1392C225.356 11.2574 226.085 11.4129 226.435 11.4857C226.783 11.5584 227.449 11.7048 227.915 11.8107C228.38 11.9165 229.204 12.1001 229.746 12.2192C230.289 12.3391 231.368 12.5979 232.143 12.7964C232.918 12.994 233.838 13.2198 234.186 13.2975C238.357 14.227 252.579 18.5685 255.14 19.6932C255.383 19.8007 255.669 19.8908 255.774 19.8933C255.878 19.8958 256.113 19.9793 256.297 20.0786L256.629 20.2588L256.014 20.7426C253.977 22.3469 250.179 24.468 246.943 25.8077C245.9 26.2394 245.568 26.3684 244.688 26.6843C243.824 26.9936 241.75 27.6171 240.248 28.0206C238.182 28.5747 234.965 29.1585 232.636 29.4008C229.136 29.7655 225.284 30.0988 219.951 30.4982C218.981 30.571 217.872 30.6644 217.484 30.7066C217.096 30.7488 215.828 30.8447 214.665 30.9208C213.502 30.996 211.155 31.1507 209.449 31.264C207.744 31.3772 205.302 31.5294 204.023 31.603C202.744 31.6758 200.714 31.799 199.512 31.8751C198.31 31.952 195.584 32.1091 193.452 32.224C191.32 32.3398 188.529 32.4961 187.249 32.5714C179.019 33.0568 176.456 33.1221 176.497 32.8443C176.514 32.7301 176.662 31.8933 176.826 30.9836C176.991 30.074 177.18 28.9882 177.249 28.5714C177.392 27.6923 177.639 26.2964 178.163 23.4029C178.369 22.2659 178.623 20.8394 178.726 20.2332C179.302 16.8534 179.414 16.2142 180.484 10.1716C180.999 7.26738 181.187 6.1882 181.188 6.14024C181.19 6.06002 184.403 6.12122 186.615 6.24443ZM126.559 9.85326C126.838 10.2419 126.696 10.4057 125.675 10.8762C124.366 11.4782 117.593 14.7943 116.985 15.1301C116.675 15.3021 115.66 15.8321 114.73 16.3093C112.78 17.3083 109.995 18.8117 107.964 19.9603C107.189 20.3994 106.269 20.9138 105.921 21.1048C103.855 22.2328 97.1921 26.3303 93.9395 28.473C85.2625 34.1864 84.0675 34.8405 81.0627 35.5219C78.9476 36.0016 75.3338 36.3464 75.3338 36.0686C75.3338 35.6658 88.7291 27.0556 89.3557 27.0556C89.3929 27.0556 89.8319 26.8116 90.33 26.5131C91.333 25.9127 94.6414 24.0322 95.6309 23.5005C95.9793 23.3128 96.3286 23.1135 96.4064 23.0581C96.4834 23.0027 96.8327 22.8034 97.1811 22.6157C97.5304 22.4279 98.1647 22.0831 98.5909 21.8499C100.471 20.822 102.315 19.8851 106.202 17.9839C110.026 16.1133 111.069 15.6221 114.095 14.2667C116.642 13.1264 116.937 12.9973 116.984 12.9973C117.012 12.9973 117.509 12.7823 118.09 12.5202C118.96 12.1274 121.897 10.9068 125.227 9.55473C125.915 9.27522 126.189 9.33724 126.559 9.85326ZM247.436 11.3443C250.545 12.1042 251.245 12.2862 253.849 13.0056C254.082 13.0701 254.621 13.2148 255.048 13.3273C255.474 13.4389 256.172 13.6324 256.598 13.7557C257.024 13.8797 257.5 14.0137 257.655 14.055C258.273 14.2188 260.777 14.949 261.109 15.0614C261.302 15.1276 261.937 15.3153 262.518 15.4782C263.1 15.6411 263.734 15.8272 263.928 15.8925C264.121 15.9578 265.422 16.3639 266.817 16.7947C268.213 17.2256 270.75 18.0393 272.455 18.6033C274.161 19.1673 276.095 19.8065 276.754 20.0248C277.413 20.2423 278.492 20.6153 279.15 20.8526C279.809 21.0908 280.507 21.3372 280.701 21.4C283.074 22.1765 289.296 24.4995 289.297 24.6086C289.3 24.7773 287.613 24.7269 286.177 24.516C283.635 24.143 281.13 23.4153 275.486 21.4116C273.663 20.7641 267.38 18.7 265.337 18.0773C264.601 17.8524 263.49 17.5117 262.87 17.319C262.25 17.1263 261.457 16.8873 261.109 16.7873C260.76 16.6872 259.935 16.4391 259.276 16.2357C257.96 15.8305 257.519 15.7015 255.329 15.0871C254.516 14.858 253.564 14.5801 253.215 14.4685C252.866 14.3569 252.105 14.1328 251.523 13.9698C250.943 13.8069 249.959 13.5283 249.339 13.3513C248.719 13.1743 247.831 12.9271 247.366 12.8014C246.086 12.4557 245.379 12.0612 244.979 11.4691C244.556 10.8448 244.52 10.6074 244.864 10.7059C245 10.7447 246.157 11.0317 247.436 11.3443ZM261.063 21.8904C262.522 22.461 263.843 22.9853 263.998 23.0548C264.153 23.1242 264.565 23.302 264.914 23.4501C268.081 24.793 269.689 25.5257 272.666 26.982C274.566 27.9107 276.374 28.812 276.683 28.984C276.994 29.1569 277.66 29.5158 278.163 29.7812C278.667 30.0475 279.401 30.4577 279.793 30.6934C280.185 30.9282 280.629 31.1945 280.779 31.2846C282.697 32.4316 283.225 32.7649 283.184 32.8046C283.158 32.8302 281.495 32.7715 279.488 32.6747C274.196 32.42 261.478 32.4589 255.329 32.7475C246.882 33.1453 244.9 33.2478 242.926 33.3884C241.879 33.4628 240.262 33.5637 239.332 33.6117L237.64 33.6993L237.404 33.3057C237.275 33.0899 236.688 32.3646 236.099 31.6948C234.905 30.3353 234.898 30.2939 235.841 30.1666C238.752 29.7721 242.332 28.798 247.013 27.125C248.025 26.7637 251.772 24.9336 252.991 24.2059C253.603 23.8404 254.315 23.417 254.572 23.2648C255.262 22.858 256.711 21.8135 257.29 21.3041C257.978 20.6996 258.044 20.7104 261.063 21.8904ZM303.394 27.2904C303.394 27.4203 303.164 28.0512 302.881 28.6938C301.431 31.995 300.94 36.1124 301.697 38.6329C302.128 40.0669 302.128 40.0801 301.632 40.0801C301.224 40.0801 301.157 39.9792 299.729 37.261C297.625 33.252 297.786 33.3388 292.118 33.185C285.859 33.0163 285.662 32.9857 284.454 32.0008C284.347 31.9139 285.456 31.5451 290.003 30.1567C290.585 29.9789 291.695 29.6679 292.47 29.4653C293.246 29.2627 294.229 29.0022 294.655 28.8865C295.081 28.7715 295.652 28.6301 295.923 28.573C296.195 28.516 296.962 28.3349 297.627 28.1711C301.318 27.2615 303.394 26.9448 303.394 27.2904ZM234.52 32.1629C236.138 33.9697 236.156 33.8829 234.156 33.9929C231.498 34.1401 222.345 34.8777 215.933 35.4624C212.891 35.7394 210.057 36.033 204.745 36.621C203.106 36.8029 202.641 36.9642 202.843 37.2825C202.947 37.4471 204.123 37.4157 206.264 37.1924C207.319 37.0816 209.228 36.8947 210.506 36.7756C211.786 36.6574 213.466 36.4969 214.242 36.42C215.77 36.2679 218.12 36.0793 221.008 35.8775C222.016 35.8064 223.538 35.6857 224.391 35.6096C225.243 35.5327 227.495 35.3731 229.395 35.254C231.293 35.1358 233.598 34.9778 234.514 34.9042C236.877 34.7132 236.757 34.2079 235.556 39.3218L235.088 41.3205L233.616 41.4165C232.805 41.4694 230.525 41.5819 228.549 41.6662C223.645 41.8771 220.209 42.035 215.299 42.2773C213.012 42.3906 209.777 42.5461 208.111 42.6222C206.444 42.6991 204.033 42.8231 202.755 42.8984C201.475 42.9736 199.668 43.0687 198.738 43.1101C197.807 43.1506 195.999 43.2449 194.72 43.3193C193.441 43.3937 190.587 43.5475 188.378 43.6625C186.168 43.7766 183.346 43.9346 182.105 44.0131C176.319 44.3786 168.925 44.7417 168.845 44.6639C168.4 44.229 169.725 37.5017 170.663 35.4335C171.101 34.4667 170.78 34.5403 175.339 34.3642C177.355 34.2865 180.082 34.1608 181.4 34.0855C182.718 34.0094 185.096 33.8813 186.686 33.8002C190.424 33.6109 193.377 33.4512 197.821 33.1974C204.877 32.7955 206.373 32.7053 208.252 32.5681C209.298 32.492 211.55 32.3349 213.255 32.2191C214.961 32.1041 217.467 31.9214 218.823 31.813C220.18 31.7047 221.733 31.5832 222.276 31.5418C223.755 31.431 227.936 31.0696 230.169 30.8596C233.43 30.5544 232.954 30.4122 234.52 32.1629ZM270.612 33.7473C270.936 33.8068 271.116 33.9168 271.116 34.0558C271.116 34.4535 273.632 36.6367 276.436 38.6718C277.231 39.2482 277.829 39.751 277.767 39.7882C277.704 39.8262 274.993 39.9222 271.742 40.0016C265.994 40.1413 262.015 40.2744 254.906 40.5655C253.007 40.6433 249.772 40.7681 247.718 40.8434C245.664 40.9186 242.651 41.0394 241.023 41.1113C236.526 41.3106 236.564 41.3123 236.648 40.941C237.02 39.302 237.607 36.812 237.716 36.4117C237.791 36.1372 237.852 35.6576 237.852 35.3458C237.852 34.6627 237.799 34.6793 240.248 34.5767C241.217 34.5362 244.102 34.4097 246.661 34.2956C249.219 34.1823 253.659 34.0252 256.528 33.9474C259.396 33.8689 262.25 33.7903 262.87 33.7721C266.116 33.6787 270.169 33.6654 270.612 33.7473ZM280.842 34.0863C282.198 34.1558 284.831 34.2501 286.692 34.2956C292.393 34.4328 292.909 34.6875 293.443 37.6208C293.579 38.3667 293.747 39.2565 293.818 39.5972C294.163 41.2643 294.33 42.7065 294.196 42.8711C293.694 43.4905 287.016 42.4576 284.577 41.3834C284.422 41.3148 283.964 41.1345 283.56 40.9832C280.66 39.8965 276.369 37.1742 273.794 34.7876L272.737 33.8085L275.556 33.8829C277.106 33.9243 279.485 34.0161 280.842 34.0863ZM169.208 34.7562C169.208 34.8223 169.052 35.3433 168.861 35.9139C168.133 38.0963 167.712 40.224 167.466 42.9728L167.305 44.7632L166.671 44.8583C166.322 44.9095 164.704 45.0237 163.076 45.1097C159.952 45.2759 158.048 45.3859 152.435 45.7241C150.535 45.8382 147.935 45.992 146.655 46.0664C145.377 46.14 143.378 46.2649 142.215 46.3443C141.052 46.4229 138.547 46.5808 136.648 46.6958C134.748 46.8107 132.338 46.9678 131.292 47.0464C130.245 47.1249 128.342 47.2506 127.063 47.3259C124.265 47.4905 119.791 47.7807 115.575 48.071C113.87 48.1876 111.618 48.3406 110.572 48.41C106.476 48.6829 104.375 48.8334 102.819 48.9649C101.928 49.0402 100.501 49.1394 99.648 49.1849C98.7956 49.2295 97.8441 49.2949 97.5338 49.3288C96.3557 49.457 93.0346 49.6472 92.9754 49.5893C92.7885 49.4065 92.7817 41.1717 92.9686 41.0286C93.153 40.8864 95.7704 40.7574 105.215 40.4241C108.526 40.3067 111.927 40.176 119.734 39.8659C121.71 39.7874 125.262 39.6642 127.627 39.5914C140.859 39.1862 140.944 39.1804 140.448 38.7132C140.274 38.5503 139.489 38.5395 135.45 38.6412C132.814 38.7074 127.771 38.8265 124.244 38.9058C116.802 39.0729 105.123 39.3987 99.648 39.5922C97.5549 39.6666 95.1954 39.7287 94.4046 39.7311L92.9661 39.7353L93.0498 39.0117C93.0955 38.6139 93.2037 38.0706 93.29 37.806L93.4464 37.3231L94.5738 37.2321C95.1945 37.1816 98.7457 37.0708 102.467 36.9848C106.188 36.8988 109.772 36.8021 110.431 36.769C111.09 36.7367 114.134 36.6433 117.197 36.5614C120.259 36.4804 122.986 36.3902 123.258 36.3621C123.528 36.334 125.748 36.272 128.191 36.2249C130.632 36.1777 132.79 36.1124 132.983 36.0801C133.177 36.0471 135.492 35.9577 138.128 35.88C140.764 35.8023 144.411 35.6758 146.232 35.5989C148.054 35.5219 151.924 35.3673 154.831 35.2548C157.738 35.1432 161.544 34.9861 163.288 34.9059C165.033 34.8256 166.84 34.7438 167.305 34.7239C167.77 34.7041 168.388 34.676 168.679 34.6619C168.97 34.6479 169.208 34.69 169.208 34.7562ZM296.605 34.9001C296.96 35.077 297.255 35.3838 297.501 35.8304C298.203 37.1056 299.729 40.0197 299.729 40.0843C299.729 40.1198 299.136 40.1488 298.411 40.1488C297.001 40.1488 296.316 40.3034 295.833 40.7293C295.438 41.0783 295.349 40.9335 295.139 39.5997C294.8 37.4446 294.359 35.7105 294.015 35.1771L293.664 34.6354H294.87C295.78 34.6354 296.206 34.7008 296.605 34.9001ZM281.594 41.7142C285.297 43.4351 289.736 44.4903 293.277 44.4903C294.687 44.4903 294.543 44.3274 294.796 46.2128C294.872 46.7818 295.027 47.8047 295.14 48.4869C295.254 49.1692 295.413 50.1309 295.495 50.6238C296.056 54.0193 297.292 57.1733 298.563 58.4559C299.162 59.0604 299.088 59.1687 298.078 59.1679C297.552 59.1671 296.17 59.2283 295.007 59.3035C291.62 59.5218 286.043 59.7162 279.15 59.8567C275.623 59.9279 270.917 60.0271 268.692 60.0767L264.647 60.1668L263.759 59.3581C263.27 58.9124 262.839 58.5162 262.8 58.4774C262.057 57.7323 259.123 55.7939 257.443 54.9388C250.128 51.2151 241.162 50.8537 233.643 53.9796C232.251 54.5584 232.285 54.7809 233.313 51.8642C234.14 49.5182 234.97 46.9116 235.595 44.697C236.28 42.2724 235.983 42.5345 238.159 42.4378C242.762 42.2319 247.076 42.0582 250.466 41.9416C252.483 41.8721 255.717 41.753 257.655 41.6778C259.593 41.6017 263.336 41.4719 265.972 41.3884C268.607 41.3057 271.176 41.2213 271.68 41.2023C272.183 41.1824 274.33 41.1543 276.449 41.1403L280.303 41.1138L281.594 41.7142ZM299.555 42.905C299.653 45.9813 300.166 51.1729 300.561 53.0823C300.889 54.6693 301.567 56.1735 302.642 57.705C303.061 58.3029 303.386 58.809 303.364 58.8305C303.342 58.8512 302.816 58.9115 302.196 58.9636L301.069 59.0596L300.494 58.4584C298.65 56.5307 297.683 54.503 297.055 51.244C295.807 44.7747 295.68 43.5831 296.15 42.7983C296.811 41.6968 296.904 41.6489 298.29 41.6943L299.518 41.734L299.555 42.905ZM234.75 42.7255C234.75 42.7785 234.601 43.3218 234.418 43.9321C234.235 44.5424 233.974 45.4446 233.838 45.9374C233.703 46.4303 233.54 46.9885 233.478 47.1779C233.415 47.3672 233.162 48.1735 232.916 48.9699C232.669 49.7654 232.152 51.316 231.766 52.415C231.379 53.514 231.002 54.6163 230.926 54.8644C230.834 55.1679 230.596 55.4334 230.197 55.6757C225.957 58.2615 222.379 61.7819 220.232 65.4784C219.696 66.4021 219.594 66.4641 218.048 66.799C217.505 66.9173 216.49 67.1455 215.792 67.3076C214.294 67.6549 213.056 67.9038 209.238 68.6241C206.744 69.0947 203.005 69.7132 200.218 70.1159C197.569 70.4988 194.901 70.8685 193.24 71.0818C192.31 71.2009 191.105 71.3622 190.562 71.4399C190.019 71.5176 189.004 71.6433 188.307 71.7186C187.609 71.7947 186.246 71.9501 185.276 72.0634C181.221 72.5406 175.108 73.1591 170.865 73.5222C169.8 73.614 168.88 73.6413 168.821 73.5842C168.647 73.4138 168.689 46.2525 168.864 46.0813C168.951 45.9953 170.651 45.8498 172.952 45.7299C180.553 45.3354 181.983 45.2577 184.289 45.1179C189.961 44.7731 191.713 44.6739 194.227 44.5539C195.7 44.4845 198.712 44.3356 200.922 44.2248C203.131 44.1132 206.271 43.9577 207.899 43.8792C209.527 43.8014 211.97 43.6732 213.326 43.5955C214.683 43.5169 217.854 43.3606 220.373 43.2482C222.893 43.1349 226.254 42.9778 227.844 42.8992C229.433 42.8206 231.082 42.7396 231.509 42.7189C233.268 42.6321 234.75 42.6354 234.75 42.7255ZM40.7958 44.8004C40.7933 44.8574 40.2063 45.3437 39.4917 45.8812C33.8322 50.1425 27.9173 53.0426 21.9838 54.4658C18.4555 55.3118 13.7381 55.9568 13.7381 55.5938C13.7381 54.809 19.1769 51.4904 23.4638 49.6604C24.2004 49.3461 24.9294 49.0336 25.0842 48.9666C26.2335 48.4688 27.8539 47.8742 29.947 47.1845C33.3798 46.0524 40.8136 44.4192 40.7958 44.8004ZM167.291 57.098C167.331 63.1224 167.407 69.3709 167.461 70.9834L167.56 73.9158H166.898C166.535 73.9158 165.652 73.9778 164.939 74.0539C163.094 74.2499 157.015 74.7179 152.435 75.0173C151.311 75.0901 149.661 75.2125 148.77 75.2894C147.878 75.3654 145.531 75.5226 143.555 75.6367C141.578 75.7516 139.104 75.9071 138.058 75.9824C137.011 76.0568 135.425 76.1511 134.534 76.1916C133.642 76.2321 131.898 76.3264 130.658 76.4016C125.026 76.7423 112.495 77.2914 102.749 77.6255C95.3671 77.8786 94.6254 77.8868 94.5628 77.7223C94.463 77.4552 93.7509 68.1238 93.5209 64.0618C93.2925 60.0205 93.1048 55.8816 93.0388 53.4073C92.961 50.5502 92.6134 50.8619 96.124 50.6395C100.084 50.3881 102.313 50.2351 104.299 50.0788C105.308 49.9994 107.559 49.8415 109.304 49.7274C111.047 49.6141 113.3 49.457 114.307 49.3784C115.315 49.2998 117.122 49.175 118.324 49.0997C119.526 49.0245 121.872 48.874 123.539 48.7656C125.206 48.6565 127.584 48.5035 128.825 48.4266C131.065 48.2868 133.333 48.1355 137.318 47.8618C138.461 47.7832 140.443 47.6616 141.722 47.5913C146.924 47.306 149.019 47.1804 149.741 47.1084C150.16 47.0671 152.158 46.9405 154.181 46.8264C158.935 46.5601 162.405 46.3526 164.345 46.2186C165.197 46.1599 166.193 46.1185 166.557 46.1276L167.218 46.1442L167.291 57.098ZM91.4573 51.6228C91.4979 51.9453 91.5656 53.4487 91.6087 54.9653C91.6518 56.4811 91.7508 58.7139 91.8286 59.927C92.2185 66.0109 92.3995 68.6787 92.468 69.3675C92.5094 69.7843 92.6329 71.2422 92.7428 72.6067C93.0413 76.3148 93.2189 78.2714 93.3686 79.4977C93.8668 83.5978 93.9826 84.8084 93.8854 84.9027C93.8253 84.9623 92.2269 85.0309 90.3334 85.0549L86.8922 85.0987L86.8871 82.3673C86.8744 75.8856 86.3907 72.7498 84.8058 68.8854C81.8103 61.5801 75.2543 55.5475 67.7926 53.2287L67.2294 53.0542L67.7275 52.9492C68.1969 52.8516 70.0879 52.6837 76.1093 52.2049C77.5048 52.0941 79.7882 51.9097 81.1836 51.7956C82.579 51.6806 84.6087 51.5219 85.6938 51.4425C86.7788 51.3631 88.1743 51.2481 88.795 51.1869C89.4149 51.1258 90.2513 51.067 90.6539 51.0563L91.3854 51.0373L91.4573 51.6228ZM56.9658 55.1811C56.0499 55.2432 55.0985 55.3548 54.8515 55.43C54.6046 55.5045 54.1166 55.6078 53.7682 55.6599C51.8721 55.9411 48.4656 57.3147 46.227 58.7023C31.7661 67.664 31.2486 87.9831 45.2358 97.6717C55.7573 104.96 70.3864 102.691 78.1644 92.562C78.7006 91.864 79.1395 91.262 79.1395 91.2248C79.1395 91.1876 79.3036 90.9213 79.5049 90.6335C80.9494 88.5661 82.1731 85.1574 82.7922 81.4808C84.6392 70.4988 76.4493 58.637 65.1151 55.8766C64.4174 55.7062 63.6241 55.5136 63.3526 55.4474C62.8892 55.3341 61.6714 55.2291 59.5469 55.1175C59.0429 55.091 57.8817 55.1199 56.9658 55.1811ZM242.644 55.1762C228.996 56.0643 218.734 68.5249 220.731 81.7826C222.122 91.0222 228.36 98.0455 237.852 101.06C245.713 103.556 255.591 100.952 261.684 94.7774C266.184 90.2151 268.346 84.9284 268.353 78.4641C268.369 64.7598 256.773 54.2558 242.644 55.1762ZM44.4653 55.8311C44.4653 55.8907 44.259 56.056 44.007 56.1991C41.1975 57.7943 37.8663 61.0674 35.6065 64.4563C34.8361 65.6107 33.1895 68.7854 33.1895 69.1153C33.1895 69.2237 33.1353 69.3717 33.0685 69.4436C32.7945 69.7413 32.0114 72.4918 31.5395 74.8122C31.3661 75.6648 31.3018 77.1244 31.2545 81.255L31.1927 86.5963H29.0548C27.8792 86.5971 23.6186 86.6377 19.587 86.6865L12.2581 86.7758L11.6238 86.4706C10.3789 85.8711 9.76748 85.7437 7.66758 85.6486C5.63618 85.556 3.44833 84.9002 3.44833 84.3834C3.44833 84.3247 6.47682 84.2511 10.1785 84.2205C17.7857 84.1576 17.795 84.156 18.8733 83.0933C19.9042 82.0778 20.0945 81.5048 20.6459 77.7752C20.8387 76.4719 21.1829 74.7047 21.8417 71.6417C22.657 67.8534 23.6355 64.5199 25.0799 60.6159C25.8901 58.4278 25.792 58.5253 27.3397 58.3492C28.0374 58.2698 28.9888 58.1458 29.454 58.0738C29.9191 58.0019 31.0287 57.8439 31.9209 57.7224C32.8123 57.6016 33.8906 57.4412 34.3168 57.3668C34.743 57.2932 35.5363 57.1667 36.0784 57.0873C38.6815 56.7052 39.5746 56.5572 42.9854 55.9386C44.2252 55.7137 44.4653 55.6963 44.4653 55.8311ZM63.1412 56.6787C84.7847 60.8747 88.5244 89.3914 68.6383 98.5946C63.926 100.776 57.4123 101.333 52.9225 99.9376C49.9371 99.0097 46.3953 97.2864 45.2358 96.1956C45.1428 96.1088 44.6455 95.6994 44.1313 95.2876C39.3158 91.4257 36.2966 84.9705 36.2966 78.5335C36.2949 64.6895 49.406 54.0151 63.1412 56.6787ZM248.685 56.6845C263.3 59.4077 271.35 74.9602 264.95 88.1096C259.699 98.8973 246.294 103.689 235.135 98.7666C225.145 94.3598 219.789 83.5912 222.412 73.1848C225.279 61.8125 236.932 54.4939 248.685 56.6845ZM2.88424 58.3112C5.78249 59.4333 9.15096 62.9065 15.1428 70.947C17.0897 73.5594 17.0499 73.4577 16.1695 73.5759C15.8008 73.6255 15.3094 73.719 15.0769 73.7843C14.8443 73.8496 14.0832 73.9952 13.3854 74.1077C12.6877 74.2209 11.6729 74.3946 11.1299 74.4938C9.40721 74.8089 2.2897 74.7452 1.91251 74.412C1.53025 74.0729 1.53871 73.7876 1.95987 72.8879C3.43818 69.7273 3.72403 66.6948 2.8817 63.105C2.61699 61.9762 2.49775 61.5594 1.82625 59.4044C1.35773 57.9018 1.40424 57.6984 2.1417 58.0068C2.43347 58.1292 2.76837 58.2657 2.88424 58.3112ZM24.3645 59.134C24.3146 59.3424 24.1945 59.6996 24.0972 59.927C24 60.1544 23.7175 60.8987 23.4697 61.5809C23.2219 62.2632 22.9606 62.976 22.8895 63.1654C22.7382 63.5681 22.0785 65.6653 21.9153 66.2665C21.8527 66.4939 21.6971 67.0521 21.5677 67.5069C21.1973 68.8127 20.8463 70.1722 20.5715 71.3663C20.2577 72.7258 20.256 72.7283 19.319 72.9483C18.3126 73.1839 18.321 73.1889 17.274 71.6929C14.9737 68.4074 10.6555 62.8726 9.06216 61.1675C8.23336 60.281 8.13526 60.3446 10.6369 60.1495C12.615 59.9957 15.9006 59.6839 17.9667 59.454C18.6255 59.3804 20.0843 59.2192 21.2083 59.0951C22.3322 58.9719 23.2786 58.8445 23.3107 58.8131C23.6033 58.5262 24.449 58.7842 24.3645 59.134ZM56.5869 59.8493C42.6555 61.8026 35.3224 76.7308 42.6082 88.3048C52.2307 103.589 75.8666 98.3556 78.1027 80.4454C79.5649 68.7349 68.5335 58.1747 56.5869 59.8493ZM242.362 59.8154C226.051 61.5222 219.334 81.7776 231.549 92.428C238.812 98.7617 249.409 98.9436 256.88 92.8622C258.58 91.4787 261.672 87.6647 261.672 86.9519C261.672 86.918 261.853 86.4987 262.074 86.0199C268.064 73.026 256.977 58.2872 242.362 59.8154ZM304.374 60.7879C304.454 61.0724 304.521 61.6926 304.521 62.1664L304.522 63.0281H303.496C301.983 63.0281 301.497 62.551 301.589 61.1526L301.632 60.4778L302.619 60.3992C303.162 60.3554 303.745 60.3091 303.916 60.2958C304.163 60.276 304.257 60.3769 304.374 60.7879ZM300.173 61.7058C300.253 63.564 301.311 64.5414 303.248 64.5464C304.58 64.5489 304.581 64.5497 304.462 66.1275C304.321 68.0022 304.529 67.8451 302.218 67.8178C299.228 67.7823 298.96 67.9998 296.91 72.1246C294.086 77.8083 293.62 78.6542 293.151 78.9586C292.657 79.2794 292.562 79.2893 286.515 79.6367C282.932 79.8426 276.971 80.1866 274.204 80.3462L272.71 80.433L272.613 78.4492C272.314 72.3694 270.006 66.2516 266.489 62.2251C265.607 61.2154 265.409 61.2485 272.242 61.2452C278.517 61.2411 287.055 61.0509 294.092 60.7581C296.378 60.6622 298.671 60.5762 299.186 60.5654L300.123 60.5472L300.173 61.7058ZM61.0937 61.093C61.2079 61.1633 61.2713 61.2402 61.235 61.2634C61.1978 61.2865 61.0413 61.3725 60.8865 61.4561C60.7309 61.5388 60.3901 61.8803 60.1288 62.2136L59.6526 62.8214L58.3672 62.9082C57.6593 62.9553 56.7569 63.0405 56.362 63.0967L55.644 63.1993L55.2837 62.3211C55.0858 61.8381 54.9386 61.4263 54.9581 61.4065C55.2744 61.0806 60.6303 60.8061 61.0937 61.093ZM246.519 61.0963C246.566 61.1708 246.376 61.4288 246.097 61.6678C245.817 61.9076 245.5 62.2731 245.391 62.479C245.198 62.8429 245.147 62.8569 243.672 62.9396C242.835 62.9868 241.923 63.0628 241.646 63.1083C241.114 63.1943 240.197 61.8125 240.545 61.4495C240.909 61.0707 246.301 60.7515 246.519 61.0963ZM63.8964 61.6347C64.085 61.7513 64.0529 62.0465 63.7814 62.6833C63.5962 63.1199 63.2596 64.1271 62.9983 65.026C62.8663 65.4809 62.6769 66.1325 62.5771 66.4732C62.4782 66.8147 62.2997 67.559 62.1813 68.1271C61.2079 72.7961 61.2688 73.5172 62.6515 73.6967C64.4749 73.9332 65.4559 73.1294 69.3952 68.1718C71.5476 65.4635 71.3082 65.5412 72.6478 67.1124C73.853 68.5265 73.8927 68.2528 72.2867 69.5743C67.3562 73.6321 64.9231 74.9371 61.7466 75.2282C60.2438 75.3663 60.3503 75.9575 60.6802 69.3262C60.7546 67.8244 60.8155 65.9009 60.8155 65.0508C60.8155 63.0281 60.9533 62.7627 62.375 62.0465C63.4972 61.4801 63.6021 61.4519 63.8964 61.6347ZM249.388 61.6339C249.542 61.729 249.485 62.025 249.089 63.1819C248.251 65.6297 248.117 66.1019 247.492 68.8168C246.713 72.1957 246.865 73.5255 248.048 73.6991C249.924 73.9737 251.12 72.9416 255.74 67.0595C256.818 65.6868 256.764 65.6909 257.907 66.8759C259.395 68.4182 259.466 68.2272 256.528 70.5319C251.918 74.1473 250.241 74.99 247.156 75.2422C245.807 75.3522 245.916 75.7467 246.053 71.2282C246.233 65.4015 246.376 63.2233 246.605 62.8859C247.036 62.2508 248.976 61.3783 249.388 61.6339ZM54.5817 63.889C56.4635 68.5042 56.9252 70.1697 56.9227 72.3314C56.9218 73.948 56.5886 75.8806 56.2799 76.0675C56.1793 76.1287 54.5014 75.5705 52.711 74.88C52.5563 74.8205 51.8586 74.5749 51.1608 74.3342C50.0318 73.9456 49.4373 73.7289 48.4825 73.3609C48.3277 73.3005 47.4397 72.9838 46.5094 72.6555C44.5863 71.9782 44.2379 71.7037 44.1068 70.7676C44.0577 70.4145 43.9621 69.9158 43.8953 69.6586C43.7676 69.174 43.9224 68.6787 44.2006 68.6787C44.2827 68.6787 45.0227 69.1591 45.8447 69.7471C49.8272 72.5902 54.3314 74.8436 54.9809 74.3177C56.663 72.9574 55.6372 70.3185 50.957 63.9634L50.3777 63.177L50.6991 62.9719C50.9799 62.7924 51.3511 62.6229 52.9225 61.9556C53.6489 61.6471 53.6844 61.6884 54.5817 63.889ZM239.215 61.9597C239.286 62.0548 239.558 62.6593 239.817 63.3035C240.077 63.9477 240.369 64.6613 240.467 64.8888C240.637 65.2898 241.114 66.5832 241.558 67.8517C242.567 70.7353 242.715 73.3196 241.995 75.4663C241.719 76.2892 242.362 76.4041 237.64 74.6931C236.477 74.2714 234.542 73.5825 233.341 73.1616C229.665 71.874 229.609 71.8261 229.432 69.8182C229.305 68.3785 229.439 68.3694 231.272 69.7025C235.717 72.9325 240.02 74.9536 240.632 74.1002C241.862 72.3868 241.31 70.923 237.227 65.0756C235.766 62.9851 235.779 63.0786 236.897 62.5658C238.488 61.8365 239.018 61.6975 239.215 61.9597ZM67.5812 63.0628C70.0845 64.4422 70.416 64.7904 69.9086 65.5065C69.2371 66.4542 69.2701 66.4542 67.8628 65.5379C67.1634 65.0831 66.179 64.5348 65.6766 64.3206C64.6457 63.8815 64.6609 63.9154 65.0441 62.89C65.1997 62.4749 65.3265 62.1201 65.3265 62.1011C65.3265 62.0143 66.8852 62.6791 67.5812 63.0628ZM252.247 62.6775C253.56 63.3151 255.305 64.3893 255.607 64.7457C255.75 64.9144 255.689 65.074 255.262 65.6429C254.631 66.484 254.687 66.4815 253.606 65.7041C253.124 65.356 252.17 64.8135 251.487 64.4976C250.104 63.8592 250.08 63.803 250.615 62.5485C250.87 61.9531 250.733 61.9423 252.247 62.6775ZM49.7392 64.3901C50.3963 65.265 50.3828 65.3394 49.4483 65.9911C49.0136 66.2946 48.1679 67.0264 47.5691 67.6169L46.4815 68.6919L45.7525 68.1288C45.1664 67.6764 45.0506 67.5201 45.1555 67.3299C45.4278 66.8404 48.8986 63.7492 49.2106 63.7194C49.2233 63.7178 49.461 64.0196 49.7392 64.3901ZM235.279 64.5125C235.865 65.3543 235.865 65.3535 235.036 65.9067C234.652 66.1631 233.798 66.895 233.139 67.5325L231.943 68.6927L231.232 68.1734C230.842 67.8881 230.522 67.5855 230.522 67.5011C230.522 67.1042 234.215 63.8542 234.666 63.8551C234.751 63.8551 235.027 64.1511 235.279 64.5125ZM59.6273 64.7854C59.5867 65.2212 59.4852 67.4068 59.4023 69.6437C59.3203 71.8798 59.2391 74.0498 59.2239 74.4657L59.1951 75.2216L58.631 75.3125C57.8893 75.4308 57.8699 75.4101 58.0187 74.6419C58.4669 72.3289 58.0965 69.6785 56.8576 66.3359C55.9772 63.9584 55.9324 64.0304 58.3206 64.0064L59.7025 63.9923L59.6273 64.7854ZM245.039 64.854C245.035 66.3252 244.77 73.2443 244.677 74.2664C244.599 75.1322 244.557 75.2398 244.286 75.2596C244.119 75.272 243.832 75.3191 243.647 75.3646C243.334 75.4407 243.317 75.4159 243.398 75.0181C244.019 71.9832 243.759 70.1441 242.077 65.6462C241.836 65.0021 241.627 64.4166 241.613 64.3446C241.573 64.1437 242.309 64.0271 243.736 64.0089L245.04 63.9923L245.039 64.854ZM65.5379 65.4056C66.4319 65.8422 68.4269 67.143 68.4269 67.2894C68.4269 67.5284 65.6445 70.8213 64.7844 71.6003C63.9472 72.3578 63.1666 72.6869 62.8773 72.4033C62.6439 72.1751 63.3628 68.1188 63.9962 66.087C64.3945 64.8102 64.3548 64.8284 65.5379 65.4056ZM251.03 65.404C251.803 65.7794 253.92 67.1563 253.92 67.2836C253.92 67.4424 251.562 70.3012 250.696 71.1926C249.893 72.0196 248.854 72.6233 248.479 72.4827C248.103 72.3413 248.452 69.8712 249.287 66.7552C249.843 64.6812 249.726 64.7713 251.03 65.404ZM52.245 67.9898C54.0819 70.675 54.915 72.6679 54.3458 73.0119C53.9187 73.2699 47.5666 69.7909 47.5666 69.2989C47.5666 68.8391 50.502 66.2979 50.9494 66.3707C51.0653 66.3889 51.6488 67.1174 52.245 67.9898ZM237.775 68.1023C240.133 71.6268 240.703 73.5801 239.168 72.8887C237.133 71.9716 233.45 69.8968 233.078 69.4585C232.791 69.1211 235.76 66.3417 236.411 66.3368C236.511 66.3359 237.124 67.1306 237.775 68.1023ZM218.823 68.0998C218.823 68.2363 218.77 68.4066 218.705 68.4786C218.563 68.6365 217.802 70.6559 217.486 71.7111C217.362 72.1279 217.204 72.6547 217.135 72.8821C216.644 74.5071 216.286 77.8223 216.286 80.7547V82.8386L215.757 82.9238C215.467 82.9709 213.643 83.0115 211.705 83.014C209.766 83.0173 205.326 83.0776 201.838 83.1488C194.535 83.2976 178.32 83.5515 172.943 83.5994L169.278 83.6325L169.191 82.6683C168.937 79.874 168.895 75.0603 169.122 74.9743C169.246 74.928 170.188 74.8254 171.216 74.7469C172.243 74.6675 173.56 74.5418 174.141 74.4665C174.723 74.3921 175.928 74.2639 176.819 74.1821C179.237 73.9613 183.313 73.5271 186.333 73.1682C187.264 73.0582 188.596 72.902 189.293 72.8209C189.991 72.7407 191.006 72.6133 191.549 72.5381C192.091 72.4628 193.963 72.2148 195.707 71.9857C197.451 71.7566 199.227 71.511 199.653 71.4391C200.08 71.3671 201.063 71.2125 201.838 71.0942C204.26 70.7262 205.899 70.4641 206.631 70.3285C207.018 70.2557 208.065 70.0688 208.956 69.9117C210.902 69.5685 211.922 69.3684 214.524 68.8193C218.027 68.08 218.453 67.9841 218.521 67.9171C218.669 67.7724 218.823 67.8658 218.823 68.0998ZM304.099 69.3394C304.099 70.3417 302.438 76.2875 301.569 78.3954C300.866 80.1022 300.868 82.4913 301.574 83.2124C301.873 83.5176 301.716 84.1072 301.315 84.1882C301.102 84.2312 300.706 84.3214 300.434 84.3875C300.163 84.4545 299.529 84.6025 299.025 84.7167C298.521 84.8308 297.411 85.083 296.558 85.2773C295.705 85.4708 294.722 85.6883 294.373 85.7594C294.024 85.8306 293.485 85.9488 293.175 86.0216C291.218 86.4805 291.25 86.5988 292.594 83.9162C294.137 80.8366 295.428 78.2176 295.824 77.3617C296.016 76.9449 296.601 75.7351 297.123 74.6741C297.644 73.6131 298.289 72.2793 298.557 71.7111C299.755 69.1683 300.047 68.9623 302.443 68.9574L304.099 68.9541V69.3394ZM74.9668 70.4616C75.7262 71.8749 76.862 75.0702 76.6743 75.267C76.6531 75.2894 76.3309 75.1198 75.9596 74.89C75.5884 74.6592 75.0733 74.4318 74.8154 74.3847C74.5583 74.3375 74.3469 74.2234 74.3469 74.1316C74.3469 73.9084 73.7151 72.3628 73.283 71.5259C72.8331 70.6559 72.8398 70.627 73.6153 70.0316C74.4627 69.3816 74.3706 69.3527 74.9668 70.4616ZM260.581 70.713C261.18 71.922 261.911 73.9447 262.044 74.7634L262.134 75.3125L261.456 74.8916C261.083 74.6601 260.573 74.4335 260.323 74.3872C259.91 74.3119 259.841 74.2226 259.554 73.3865C259.381 72.8821 259.058 72.1139 258.835 71.6805C258.316 70.6692 258.321 70.6344 259.092 70.0341C259.903 69.4015 259.939 69.418 260.581 70.713ZM43.1942 71.9948C43.2923 72.18 43.5258 72.4926 43.7135 72.6894C43.9977 72.988 44.0307 73.1046 43.9106 73.3791C43.6983 73.8653 43.1968 75.8492 43.1968 76.2048C43.1968 76.8738 43.0826 76.9482 42.0542 76.9482C40.9447 76.9482 40.9996 77.0516 41.288 75.5011C41.7599 72.9689 42.7122 70.5418 42.9262 71.3241C42.9761 71.5077 43.097 71.8095 43.1942 71.9948ZM228.538 71.7318C228.628 72.0088 228.868 72.4099 229.07 72.6224C229.411 72.9838 229.425 73.0483 229.274 73.5668C229.184 73.8728 228.98 74.7122 228.82 75.4324C228.474 77.0003 228.551 76.9143 227.442 76.9714L226.546 77.0169L226.642 76.1965C226.843 74.4608 228.004 70.8337 228.269 71.1157C228.326 71.1777 228.447 71.4548 228.538 71.7318ZM72.4559 72.228C73.5545 74.4914 73.5409 74.565 71.951 74.9892C71.37 75.1446 70.1961 75.4696 69.3437 75.7119C68.4903 75.9551 67.6023 76.2031 67.3698 76.2643C67.1372 76.3255 66.2492 76.5712 65.3967 76.8101C63.1387 77.4428 62.8909 77.5114 62.5636 77.59C62.3268 77.647 62.2109 77.5511 61.9885 77.112L61.7111 76.562L62.567 76.3958C65.5675 75.8145 66.8353 75.2207 69.8181 73.0012C72.2715 71.1753 71.9856 71.2588 72.4559 72.228ZM257.882 72.1552C258.452 73.2451 258.839 74.4467 258.663 74.5749C258.509 74.6873 258.085 74.8221 256.809 75.1645C256.5 75.2472 256.056 75.3679 255.823 75.4324C254.56 75.7814 252.252 76.4264 250.889 76.8118C249.328 77.2526 247.887 77.6371 247.796 77.6371C247.769 77.6371 247.616 77.3931 247.457 77.0946L247.168 76.5513L247.971 76.4024C250.973 75.8467 252.25 75.2604 255.217 73.074C257.534 71.3671 257.482 71.3853 257.882 72.1552ZM46.7429 74.039C48.2364 74.5889 52.2171 76.0121 53.9796 76.6274C55.8892 77.2931 55.7412 77.1897 55.7412 77.8612C55.7412 78.5757 55.6135 78.6096 54.7044 78.1374C52.5647 77.0243 50.0766 76.5902 46.5069 76.7051C43.9258 76.7878 44.0501 76.8755 44.4721 75.2778C44.6404 74.6427 44.8104 73.9836 44.8493 73.8124C44.944 73.4014 45.0438 73.413 46.7429 74.039ZM232.521 74.1391C233.476 74.4889 234.955 75.0239 235.808 75.3274C236.66 75.6309 237.558 75.965 237.803 76.0692C238.046 76.1734 238.317 76.2594 238.403 76.2594C238.489 76.2594 238.67 76.3173 238.805 76.3884C238.939 76.4595 239.557 76.6993 240.177 76.9218C240.797 77.1434 241.287 77.3799 241.266 77.4469C241.244 77.5139 241.189 77.7992 241.142 78.0803L241.059 78.5922L240.125 78.1225C237.856 76.9821 235.494 76.5794 231.842 76.7101L229.647 76.7878L229.743 76.1444C229.903 75.0628 230.412 73.5023 230.605 73.5023C230.704 73.5023 231.566 73.7893 232.521 74.1391ZM19.8814 74.5707C19.6564 75.7847 19.3469 77.5122 19.1591 78.6021C18.4445 82.7377 18.5722 82.6551 12.8569 82.7096L8.5226 82.7518L8.52091 82.2962C8.51921 81.7206 8.30187 80.9689 7.40626 78.4376C7.01216 77.3237 6.68994 76.3462 6.68994 76.2668C6.68994 76.1742 7.19906 76.1213 8.07606 76.1213C8.83889 76.1213 9.83768 76.0568 10.2961 75.9774C13.0615 75.5011 14.084 75.3034 16.3454 74.8097C16.8106 74.708 17.6673 74.5211 18.2483 74.3946C18.8301 74.2681 19.3689 74.144 19.4467 74.1201C19.8983 73.9778 19.9761 74.058 19.8814 74.5707ZM167.57 75.7425C167.723 77.0384 167.972 83.5779 167.872 83.6755C167.819 83.7276 164.815 83.8103 161.197 83.8583C157.579 83.9062 152.811 83.9873 150.602 84.0386C148.392 84.0898 142.97 84.1891 138.551 84.2577C134.132 84.3272 124.554 84.4917 117.267 84.624C109.98 84.7563 102.052 84.8663 99.648 84.8688L95.2782 84.8729L95.1759 84.1155C95.0508 83.1843 94.6609 79.229 94.6922 79.2042C94.781 79.1322 97.8517 78.9958 101.974 78.8808C104.648 78.8056 107.407 78.7105 108.105 78.6683C108.803 78.627 110.927 78.5327 112.827 78.4591C121.065 78.1415 133.298 77.5271 140.101 77.0896C141.264 77.0144 143.77 76.8581 145.669 76.7423C147.568 76.6266 149.851 76.4719 150.743 76.3991C151.635 76.3255 152.967 76.2304 153.703 76.1883C154.439 76.1461 155.708 76.0535 156.522 75.9815C157.337 75.9096 159.207 75.7574 160.681 75.6425C164.222 75.3654 166.832 75.1413 167.094 75.0909C167.209 75.0686 167.346 75.0438 167.395 75.0347C167.444 75.0256 167.522 75.3439 167.57 75.7425ZM75.9596 76.4976C77.6232 77.9985 77.6071 78.0084 73.5012 78.0985C70.3213 78.1688 69.3572 78.2648 66.886 78.7593C65.0534 79.1256 64.8436 79.2389 64.7886 79.8922C64.666 81.346 65.8737 82.5657 68.4269 83.568C68.8531 83.7359 69.3927 83.9517 69.6253 84.0493C69.8578 84.146 70.3331 84.3214 70.6824 84.438C73.1011 85.2484 74.9955 85.9339 75.1021 86.0389C75.2383 86.1721 74.527 87.5051 73.7955 88.4892L73.3608 89.0739L72.5506 88.5744C66.5105 84.8539 64.6474 83.2579 63.3484 80.6935C62.3631 78.7485 62.2591 78.8742 65.5379 78.0456C65.7705 77.9869 66.6585 77.7396 67.511 77.4965C68.3635 77.2534 69.2515 77.0045 69.484 76.9425C69.7166 76.8813 70.6046 76.6357 71.4579 76.3967C74.9516 75.4175 74.7587 75.4134 75.9596 76.4976ZM260.496 75.7475C261.179 76.1238 262.377 77.3568 262.377 77.6826V78.0117L259.17 78.0894C253.019 78.2399 249.982 78.9412 250.206 80.1618C250.582 82.2135 251.914 83.009 259.065 85.4543C260.891 86.0787 260.863 85.9926 259.795 87.678C258.898 89.0912 258.922 89.0821 257.836 88.4437C252.262 85.1649 249.941 83.119 248.617 80.3164C247.928 78.8593 247.925 78.8684 249.145 78.5434C249.561 78.4326 250.601 78.1473 251.453 77.91C252.306 77.6727 253.194 77.4279 253.426 77.3659C254.039 77.2029 255.281 76.8573 256.175 76.6017C259.676 75.5995 260.082 75.5193 260.496 75.7475ZM59.9757 76.5372C62.1187 77.6065 61.3652 80.7374 58.9718 80.7101C56.6588 80.6828 55.9205 77.5982 57.9731 76.5381C58.6437 76.1916 59.2822 76.1916 59.9757 76.5372ZM245.474 76.5406C246.87 77.2368 247.122 79.0983 245.956 80.0998C244.781 81.1087 243.175 80.854 242.495 79.5515C241.493 77.6305 243.531 75.5705 245.474 76.5406ZM51.7951 78.3094C53.3741 78.756 55.7438 79.9534 55.7395 80.3024C55.7387 80.4537 55.1628 81.193 51.2615 86.0596C47.7501 90.4384 48.1527 90.1208 46.3877 89.9083C44.3875 89.666 44.3892 89.4518 46.4071 88.0162C49.8534 85.5643 53.0891 82.6137 53.6642 81.3981C54.301 80.0526 50.8665 79.0793 48.2009 79.8492C47.8905 79.9385 47.2875 80.1047 46.8613 80.218C45.3043 80.6315 43.2518 81.2112 42.5228 81.4427C41.2829 81.8364 41.2905 81.843 41.0927 80.0303C40.8948 78.2184 40.8998 78.2052 41.858 78.1754C42.1675 78.1655 43.2458 78.1085 44.2539 78.0481C47.1378 77.8769 50.7033 78.0001 51.7951 78.3094ZM235.686 78.0506C237.42 78.2292 239.256 78.8949 240.917 79.9484C241.353 80.2255 241.318 80.4173 240.706 81.1285C240.415 81.4667 239.797 82.2217 239.332 82.8072C238.867 83.3927 238.101 84.3453 237.631 84.9242C237.161 85.5023 236.092 86.8328 235.255 87.8806C233.508 90.0654 233.452 90.0985 231.893 89.9074C229.812 89.6519 229.812 89.4535 231.881 88.0079C235.58 85.4229 239.118 82.0795 239.119 81.1649C239.122 79.5796 236.428 79.1422 232.706 80.1237C231.075 80.5546 230.607 80.6836 229.006 81.145C226.477 81.8752 226.741 81.9968 226.58 80.0286C226.434 78.2424 226.45 78.1928 227.189 78.1721C227.51 78.163 228.629 78.1118 229.676 78.058C232.603 77.9075 234.278 77.905 235.686 78.0506ZM73.8039 79.358C74.0577 79.6061 73.1105 83.8393 72.8009 83.8393C72.7434 83.8393 72.2597 83.678 71.7252 83.4812C71.1907 83.2844 70.6088 83.0909 70.4338 83.0512C70.2579 83.0123 70.0803 82.9246 70.038 82.8585C69.9957 82.7915 69.8655 82.7369 69.7496 82.7369C68.4979 82.7369 65.5312 80.5083 66.2906 80.1386C67.122 79.7326 73.5096 79.0694 73.8039 79.358ZM76.8358 80.4421C76.714 81.9836 76.0231 84.6307 75.7127 84.7415C75.5266 84.8076 74.5592 84.5389 74.1642 84.3123C73.9511 84.1891 73.9359 84.1039 74.0644 83.7714C74.3799 82.961 74.7494 81.3964 74.8459 80.4628C74.9736 79.229 74.9127 79.291 75.9969 79.291H76.9263L76.8358 80.4421ZM259.274 80.0146C259.273 80.4132 259.139 81.2343 258.977 81.8413C258.814 82.4475 258.649 83.0809 258.611 83.2496C258.436 84.0063 257.139 83.7045 253.695 82.1068C252.304 81.4618 250.872 80.118 251.575 80.118C251.603 80.118 251.967 80.0501 252.385 79.9675C253.991 79.6474 256.724 79.3257 257.972 79.3092L259.276 79.291L259.274 80.0146ZM262.377 79.9881C262.377 80.6762 262.312 81.0458 261.856 82.9437C261.388 84.8887 261.346 84.9292 260.192 84.5513C259.381 84.285 259.377 84.2651 259.818 82.8312C259.977 82.3135 260.188 81.3063 260.286 80.591L260.464 79.291H261.421H262.377V79.9881ZM247.577 81.0433C248.746 83.4771 250.426 85.1467 254.132 87.5581C254.752 87.9616 255.287 88.3147 255.321 88.3428C255.42 88.4247 254.193 89.6048 253.452 90.1398C252.614 90.7452 253.086 91.2463 249.35 85.7818L246.297 81.3146L246.753 80.8548C247.308 80.2949 247.205 80.2718 247.577 81.0433ZM62.1348 81.0756C63.1471 83.3199 65.4094 85.5552 68.7787 87.6432C70.1361 88.4834 70.1352 88.4867 68.1622 90.0083C67.1795 90.7658 67.4044 90.9147 65.6606 88.3536C64.8216 87.1214 63.3881 85.0359 62.4739 83.7185L60.8121 81.3237L61.2011 80.9383C61.7255 80.4206 61.8473 80.4388 62.1348 81.0756ZM52.0209 80.9573C52.1292 81.045 52.2171 81.1864 52.2163 81.2724C52.2138 81.5097 49.2056 84.3627 47.7856 85.4741L46.5247 86.4615L46.1069 85.8049C45.876 85.4444 45.5673 84.8696 45.4202 84.5289C45.2722 84.1874 45.0971 83.7847 45.0303 83.6325C44.4315 82.2813 44.4789 82.1523 45.6984 81.7992C49.2665 80.7638 51.4281 80.476 52.0209 80.9573ZM237.434 80.9482C237.875 81.1789 237.795 81.3005 236.125 82.9313C233.81 85.1905 232.06 86.5227 231.814 86.2126C231.271 85.5287 230.099 82.861 230.099 82.3102C230.099 82.0654 230.055 82.0803 232.848 81.3675C235.629 80.6571 236.692 80.5604 237.434 80.9482ZM292.682 80.7216C292.682 80.806 292.261 81.7669 291.749 82.8502C291.487 83.4051 291.272 83.8823 291.272 83.9104C291.272 83.9385 291.018 84.4959 290.709 85.1491C290.398 85.8024 290.145 86.3929 290.145 86.4615C290.145 86.9048 289.542 86.9403 282.017 86.9403H274.523L273.923 86.5269C272.957 85.8628 272.676 85.1607 272.671 83.4134L272.666 81.9538L276.226 81.7206C278.183 81.5924 280.609 81.427 281.617 81.3534C282.625 81.279 284.56 81.1483 285.916 81.0623C287.273 80.9755 289.049 80.8622 289.863 80.8109C291.832 80.6852 292.682 80.6588 292.682 80.7216ZM57.8521 81.7098C57.8538 81.7892 57.595 82.0993 57.2762 82.3987C55.3936 84.17 54.3982 86.1299 53.062 90.6964C52.9013 91.2463 52.7381 91.6953 52.7 91.6953C52.3322 91.6953 49.8212 90.1423 49.8212 89.9149C49.8212 89.8578 50.1232 89.4402 50.491 88.9862C51.1752 88.1427 53.4147 85.3575 55.0105 83.3654C55.4993 82.7543 56.1193 81.9927 56.3882 81.6735L56.8753 81.0921L57.3624 81.3286C57.6297 81.4593 57.8504 81.6305 57.8521 81.7098ZM242.96 81.3824C243.482 81.6296 243.454 81.7529 242.704 82.4673C240.827 84.2544 239.896 86.0737 238.545 90.593C238.376 91.1619 238.22 91.6465 238.199 91.6705C238.056 91.8359 235.315 90.1564 235.315 89.9041C235.315 89.8413 235.933 89.021 236.689 88.0815C237.444 87.1413 239.015 85.1822 240.177 83.7276C241.34 82.273 242.355 81.1087 242.432 81.1409C242.51 81.1731 242.748 81.2815 242.96 81.3824ZM63.2342 87.0065C67.0907 92.6273 66.8987 92.208 66.2543 93.599C65.6369 94.932 64.7624 95.5175 64.7624 94.5971C64.7624 93.8479 63.0862 89.4956 61.9183 87.2116C60.407 84.256 59.9317 83.8632 58.7663 84.6042C57.3718 85.4907 57.069 86.6525 56.8635 91.9021C56.691 96.3287 56.7958 96.0253 55.5239 95.7656C53.1153 95.2727 53.1102 95.2678 53.572 93.5651C55.3141 87.1363 55.9526 85.6139 57.6559 83.8227C58.6166 82.8122 59.552 82.0266 59.7271 82.0836C59.8176 82.1134 61.3965 84.3288 63.2342 87.0065ZM247.449 85.1831C252.178 92.0509 252.131 91.9773 252.118 92.3908C252.1 93.016 251.178 94.8229 250.821 94.9337C250.422 95.0577 250.507 95.2165 249.704 92.8357C248.141 88.1973 246.069 84.2527 245.195 84.2527C243.888 84.2527 242.827 85.7892 242.577 88.0435C242.526 88.4983 242.46 89.0565 242.43 89.2839C242.4 89.5113 242.331 91.0792 242.276 92.7695C242.221 94.459 242.13 95.869 242.074 95.9029C241.989 95.9541 241.07 95.778 239.015 95.3182C238.616 95.2289 238.607 95.3529 239.182 93.1078C240.478 88.0468 241.349 85.8975 242.823 84.1237C243.526 83.2769 244.916 82.0481 245.171 82.0481C245.236 82.0481 246.261 83.4589 247.449 85.1831ZM43.8412 83.4812C44.2167 84.5711 44.736 85.6768 45.2375 86.4533L45.591 87.0007L45.2747 87.2901C45.1013 87.4489 44.7444 87.7086 44.4831 87.8674L44.007 88.156L43.7524 87.8252C43.0014 86.8527 41.4918 83.2414 41.7388 83.0098C41.8859 82.8717 43.2213 82.4698 43.393 82.512C43.4615 82.5294 43.6636 82.9652 43.8412 83.4812ZM228.972 82.5087C228.972 82.7609 229.941 85.0731 230.382 85.8727C231.085 87.1471 231.087 87.1223 230.22 87.6763C229.355 88.2296 229.375 88.242 228.502 86.5938C227.725 85.1301 227.046 83.186 227.243 82.9933C227.423 82.8171 228.972 82.3838 228.972 82.5087ZM216.215 87.0321V89.6056L215.786 90.2027C215.55 90.531 215.081 90.9494 214.743 91.1313L214.129 91.4638L202.909 91.4415C196.738 91.429 189.058 91.3885 185.84 91.3513C173.084 91.2041 164.534 91.1429 146.021 91.0677C135.4 91.0247 125.696 90.966 124.455 90.9387C123.215 90.9114 115.001 90.8502 106.202 90.8039C97.4035 90.7576 89.8784 90.6873 89.48 90.6484C87.8064 90.4838 86.8566 89.3294 86.9209 87.5374L86.9624 86.3896L90.204 86.3044C91.9876 86.2573 97.1887 86.1787 101.762 86.1291C106.336 86.0803 113.123 85.9786 116.844 85.9042C120.565 85.8297 128.839 85.7024 135.229 85.6222C141.619 85.542 147.169 85.4518 147.562 85.4237C147.955 85.3948 152.548 85.3303 157.768 85.2806C162.988 85.231 167.428 85.1715 167.635 85.1483C167.841 85.1252 171.911 85.0681 176.678 85.0218C181.446 84.9747 185.95 84.9077 186.686 84.8729C187.422 84.8374 190.879 84.7679 194.368 84.7191C207.088 84.5413 214.264 84.4504 215.229 84.4553L216.215 84.4595V87.0321ZM60.418 87.0437C60.8459 87.821 61.4641 89.1078 61.7923 89.9041C62.1196 90.6997 62.4782 91.5547 62.5889 91.8037C62.6989 92.0526 62.7894 92.337 62.7894 92.4363C62.7894 92.7299 61.2925 92.997 59.6222 93.0011L58.0762 93.0052L58.1185 91.2818C58.2005 87.8665 58.7376 85.6313 59.4742 85.6313C59.5655 85.6313 59.9901 86.2672 60.418 87.0437ZM245.708 86.7377C246.487 88.0708 247.83 91.0743 248.234 92.3883C248.37 92.8324 243.838 93.3757 243.567 92.9473C243.406 92.691 243.763 88.0079 244.014 87.1057C244.49 85.389 244.87 85.3071 245.708 86.7377ZM27.6568 88.0782C31.416 88.1543 31.3923 88.1444 30.2405 89.2302C29.3897 90.0315 28.9609 90.1167 26.4441 89.9827C22.1994 89.7569 15.0067 88.5322 15.0067 88.0352C15.0067 87.9558 22.9674 87.9823 27.6568 88.0782ZM71.8004 89.5113C72.6851 90.0489 72.7003 89.9513 71.5636 91.0396C69.8113 92.7166 67.3182 94.3937 67.6649 93.661C67.7283 93.5279 67.8053 92.9846 67.8357 92.4536L67.8916 91.4886L68.6375 90.961C69.0477 90.6716 69.6912 90.1316 70.0676 89.7619C70.8845 88.9606 70.893 88.9589 71.8004 89.5113ZM257.291 89.5485L258.055 90.0133L257.229 90.8601C256.328 91.7838 254.81 92.9548 253.72 93.5651L253.027 93.9537L253.136 93.6172C253.196 93.4319 253.277 92.877 253.315 92.3833L253.384 91.4861L254.126 90.9602C254.533 90.6716 255.174 90.1291 255.551 89.7561C256.361 88.9523 256.32 88.9573 257.291 89.5485ZM50.0631 91.4547C50.672 91.8525 51.4442 92.299 51.7799 92.447L52.3905 92.7166L52.3042 93.4344C52.1918 94.3697 52.0979 94.5897 51.8095 94.5897C51.1473 94.5897 46.7209 91.716 46.7209 91.286C46.7209 91.2413 47.0676 91.1992 47.4922 91.1934C47.9514 91.1867 48.3937 91.0941 48.5848 90.9643C48.7607 90.8436 48.9172 90.7418 48.9316 90.7377C48.9459 90.7344 49.4551 91.0561 50.0631 91.4547ZM235.526 91.439C236.068 91.7904 236.782 92.2155 237.112 92.3833C237.442 92.5512 237.751 92.7505 237.798 92.8258C237.949 93.0648 237.549 94.5897 237.335 94.5897C236.608 94.5897 232.213 91.7656 232.213 91.2976C232.213 91.2421 232.522 91.1925 232.899 91.1868C233.277 91.181 233.769 91.0834 233.992 90.9693C234.487 90.7162 234.341 90.6724 235.526 91.439ZM63.4177 94.3391C63.537 94.7319 63.6351 95.1594 63.6351 95.2893C63.6351 95.63 62.0054 95.9591 59.7939 96.0633L57.9967 96.1485V95.1834V94.2175L59.6526 94.1216C60.5635 94.0687 61.6578 93.9405 62.0841 93.8371C63.2004 93.5659 63.181 93.5584 63.4177 94.3391ZM248.669 93.7974C248.848 94.0166 249.204 95.3885 249.106 95.4836C248.876 95.7085 246.045 96.0873 244.512 96.0989L243.489 96.1063V95.1412V94.1762L244.37 94.1704C245.301 94.1638 246.847 93.9876 247.789 93.7809C248.098 93.7123 248.392 93.6494 248.441 93.6412C248.489 93.6321 248.592 93.7023 248.669 93.7974Z" fill="#A2A2A2"/>
</svg>
