<svg width="132" height="104" viewBox="0 0 132 104" fill="none" xmlns="http://www.w3.org/2000/svg">
<path d="M106.844 15.7904C106.844 15.7899 106.843 15.7895 106.843 15.789L106.469 16.2587C96.4847 8.25444 85.2432 3.64329 72.2966 2.23674C70.8228 2.07723 63.6415 1.93224 62.3266 2.03374M106.844 15.7904C96.769 7.71338 85.4193 3.05888 72.3614 1.64025L72.3612 1.64022C71.5924 1.55701 69.3988 1.4808 67.2642 1.43748C65.133 1.39425 62.9744 1.38198 62.2806 1.4355M106.844 15.7904C109.104 17.5871 114.088 22.5016 115.891 24.6938L115.891 24.6941C122.876 33.1955 127.674 43.454 129.586 54.0414C131.438 64.2582 130.739 75.1322 127.602 84.8562C125.808 90.4162 123.474 95.3361 120.223 100.325C120.223 100.325 120.222 100.326 120.222 100.327L118.938 102.324L118.761 102.6H118.433H66.0112H13.5892H13.2648L13.0872 102.329L11.7868 100.342L11.7862 100.341C-1.57464 79.8483 -2.08519 53.7037 10.488 32.6986L10.4882 32.6981C13.2895 28.0275 15.9789 24.611 20.128 20.4326L20.1297 20.4309C23.2568 17.3073 25.7544 15.1809 28.8657 13.0114C33.578 9.70289 39.3207 6.77726 44.5761 4.97529C50.4521 2.95606 55.4443 1.96098 62.2806 1.4355M62.2806 1.4355L62.3266 2.03374M62.2806 1.4355C62.2806 1.4355 62.2805 1.43552 62.2804 1.43552L62.3266 2.03374M62.3266 2.03374C55.5355 2.55576 50.5938 3.54179 44.7707 5.54285" stroke="#E0E0E0" stroke-width="1.2"/>
<path d="M91.1265 62.5649L91.1279 62.5646C97.5345 60.8382 103.284 59.2806 106.482 58.4144C108.035 57.9937 108.986 57.736 109.118 57.7012C109.393 57.6255 109.508 57.53 109.548 57.4791C109.572 57.4489 109.598 57.4045 109.575 57.2848C109.568 57.2481 109.519 57.1521 109.431 57.0739C109.388 57.0751 109.314 57.0801 109.199 57.0963C108.825 57.1486 108.163 57.2905 106.937 57.5965C104.498 58.2047 99.9425 59.4315 91.2765 61.7765L91.2764 61.7765C85.0662 63.4561 80.4943 64.6737 77.4627 65.4553C75.9478 65.8459 74.8131 66.1287 74.0494 66.3061C73.6692 66.3944 73.3723 66.4586 73.1634 66.4968C73.0617 66.5154 72.9649 66.5308 72.884 66.5383C72.847 66.5417 72.7874 66.546 72.7223 66.5419C72.6915 66.54 72.6304 66.5347 72.5585 66.5134C72.5136 66.5002 72.3556 66.4508 72.2274 66.2962C72.1465 66.2006 72.0251 66.0217 71.9192 65.8641C71.7892 65.6708 71.6305 65.4295 71.4742 65.192L71.4733 65.1906C71.4731 65.1904 71.473 65.1902 71.4729 65.19C70.5088 63.7308 68.6619 62.6118 66.8171 62.3913L66.817 62.3913C66.3847 62.3396 65.7583 62.3687 65.1021 62.4693C64.4501 62.5692 63.8282 62.7304 63.4015 62.911C60.0792 64.3753 58.55 68.2948 60.0175 71.6597C60.9362 73.7504 63.2644 75.3854 65.6224 75.5501L65.626 75.5504C69.2972 75.8268 72.5867 72.8265 72.6633 69.1352C72.6719 68.7125 72.6847 68.3577 72.7538 68.0997C72.7935 67.9515 72.8642 67.781 73.0054 67.633C73.1481 67.4834 73.3103 67.412 73.4306 67.3727L73.4306 67.3727C73.5837 67.3245 76.5099 66.531 80.8763 65.3468C83.7852 64.5579 87.3334 63.5956 91.1265 62.5649Z" stroke="#E0E0E0" stroke-width="1.33"/>
<circle cx="66" cy="69" r="6.4" fill="#171717" stroke="#E0E0E0" stroke-width="1.2"/>
</svg>
