<svg width="153" height="200" viewBox="0 0 153 200" fill="none" xmlns="http://www.w3.org/2000/svg">
<path d="M52.3867 10.4104C52.3867 11.1004 52.946 11.6597 53.636 11.6597C54.3259 11.6597 54.8852 11.1004 54.8852 10.4104C54.8852 9.7205 54.3259 9.16119 53.636 9.16119C52.946 9.16119 52.3867 9.7205 52.3867 10.4104Z" fill="#E0E0E0"/>
<path fill-rule="evenodd" clip-rule="evenodd" d="M53.636 6.66268C55.7058 6.66268 57.3837 8.34061 57.3837 10.4104C57.3837 12.4803 55.7058 14.1582 53.636 14.1582L36.9793 14.1582C34.9095 14.1582 33.2315 12.4803 33.2315 10.4104C33.2315 8.34061 34.9095 6.66268 36.9793 6.66268L53.636 6.66268ZM53.636 13.7418L36.9793 13.7418C35.1394 13.7418 33.6479 12.2503 33.6479 10.4104C33.6479 8.57059 35.1394 7.0791 36.9793 7.0791L53.636 7.0791C55.4758 7.0791 56.9673 8.57059 56.9673 10.4104C56.9673 12.2503 55.4758 13.7418 53.636 13.7418Z" fill="#E0E0E0"/>
<path fill-rule="evenodd" clip-rule="evenodd" d="M65.2124 3.33134C72.6753 3.33134 76.4067 3.33134 79.2572 4.78372C81.7645 6.06127 83.803 8.09979 85.0806 10.6071C86.5329 13.4576 86.5329 17.189 86.5329 24.6519L86.5329 159.405C86.5329 166.868 86.5329 170.599 85.0806 173.449C83.803 175.957 81.7645 177.995 79.2572 179.273C76.4067 180.725 72.6753 180.725 65.2124 180.725H25.4029C17.94 180.725 14.2085 180.725 11.3581 179.273C8.85075 177.995 6.81224 175.957 5.53469 173.449C4.08231 170.599 4.08231 166.868 4.08231 159.405L4.08232 24.6519C4.08232 17.189 4.08232 13.4576 5.5347 10.6071C6.81224 8.09978 8.85076 6.06126 11.3581 4.78372C14.2085 3.33134 17.94 3.33134 25.4029 3.33134L65.2124 3.33134ZM86.1165 24.6519V159.405C86.1165 163.143 86.1162 165.922 85.9363 168.123C85.7569 170.319 85.4008 171.904 84.7095 173.26C83.4719 175.689 81.4971 177.664 79.0681 178.902C77.7114 179.593 76.1268 179.949 73.9305 180.129C71.7294 180.308 68.9507 180.309 65.2124 180.309H25.4029C21.6646 180.309 18.8859 180.308 16.6847 180.129C14.4884 179.949 12.9039 179.593 11.5471 178.902C9.11816 177.664 7.14334 175.689 5.90572 173.26C5.21443 171.904 4.85834 170.319 4.67889 168.123C4.49905 165.922 4.49873 163.143 4.49873 159.405L4.49874 24.6519C4.49874 20.9136 4.49906 18.1349 4.6789 15.9338C4.85834 13.7375 5.21444 12.1529 5.90573 10.7962C7.14335 8.36719 9.11817 6.39237 11.5471 5.15475C12.9039 4.46345 14.4885 4.10736 16.6847 3.92792C18.8859 3.74808 21.6646 3.74776 25.4029 3.74776L65.2124 3.74776C68.9507 3.74776 71.7294 3.74808 73.9305 3.92792C76.1268 4.10737 77.7114 4.46346 79.0681 5.15475C81.4971 6.39237 83.4719 8.36719 84.7095 10.7962C85.4008 12.1529 85.7569 13.7375 85.9363 15.9338C86.1162 18.1349 86.1165 20.9136 86.1165 24.6519Z" fill="#E0E0E0"/>
<path fill-rule="evenodd" clip-rule="evenodd" d="M80.7696 1.81547C77.2065 2.12463e-06 72.5422 2.02309e-06 63.2136 1.61532e-06L27.4017 0C18.0731 0 13.4088 0 9.84569 1.81547C6.71154 3.41241 4.16338 5.96056 2.56645 9.09472C0.750982 12.6578 0.750982 17.3221 0.750982 26.6507L0.750977 157.406C0.750977 166.734 0.750977 171.399 2.56645 174.962C4.16338 178.096 6.71153 180.644 9.84569 182.241C13.4087 184.057 18.0731 184.057 27.4017 184.057H63.2136C72.5422 184.057 77.2065 184.057 80.7696 182.241C83.9037 180.644 86.4519 178.096 88.0488 174.962C89.8643 171.399 89.8643 166.734 89.8643 157.406L89.8643 26.6507C89.8643 17.3221 89.8643 12.6578 88.0488 9.09472C86.4519 5.96056 83.9037 3.41241 80.7696 1.81547ZM89.0314 157.406L89.0314 26.6507C89.0314 21.9727 89.0308 18.5142 88.8073 15.7785C88.5845 13.0524 88.1447 11.1174 87.3067 9.47282C85.7897 6.49537 83.3689 4.07462 80.3915 2.55754C78.7469 1.71959 76.8119 1.27973 74.0858 1.05701C71.3501 0.833485 67.8916 0.832837 63.2136 0.832837L27.4017 0.832835C22.7236 0.832835 19.2652 0.833482 16.5294 1.057C13.8034 1.27973 11.8683 1.71959 10.2238 2.55753C7.24634 4.07462 4.8256 6.49536 3.30851 9.47281C2.47057 11.1174 2.03071 13.0524 1.80799 15.7784C1.58446 18.5142 1.58382 21.9727 1.58382 26.6507L1.58381 157.406C1.58381 162.084 1.58446 165.542 1.80798 168.278C2.0307 171.004 2.47056 172.939 3.30851 174.584C4.82559 177.561 7.24634 179.982 10.2238 181.499C11.8683 182.337 13.8034 182.777 16.5294 183C19.2652 183.223 22.7236 183.224 27.4017 183.224H63.2136C67.8916 183.224 71.3501 183.223 74.0858 183C76.8119 182.777 78.7469 182.337 80.3914 181.499C83.3689 179.982 85.7896 177.561 87.3067 174.584C88.1447 172.939 88.5845 171.004 88.8073 168.278C89.0308 165.542 89.0314 162.084 89.0314 157.406Z" fill="#E0E0E0"/>
<circle cx="45.308" cy="91.0936" r="23.3635" fill="#171717" stroke="#E0E0E0" stroke-width="0.8"/>
<ellipse cx="48.5266" cy="113.182" rx="9.94034" ry="5.59402" transform="rotate(16.9632 48.5266 113.182)" fill="#171717"/>
<path d="M38.4086 86.9153H31.4458V86.1436H46.2031V86.9153H39.2404V96.045H38.4086V86.9153Z" fill="white"/>
<path d="M49.1779 86.1436V95.2733H60.9972V96.045H48.3462V86.1436H49.1779Z" fill="white"/>
<ellipse cx="85.9037" cy="170.306" rx="23.7635" ry="22.7734" fill="#171717"/>
<rect x="81.9434" y="141.592" width="7.92118" height="6.93103" fill="#171717"/>
<path d="M85.4087 201C85.4087 201 65.7457 188.304 60.6548 173.771C57.3091 164.219 58.6745 151.492 56.1992 143.571C53.7238 135.65 42.3369 120.798 39.8617 114.362C38.9595 112.016 38.3939 108.506 40.3566 106.936C47.7831 100.995 56.6941 107.926 61.1499 120.303C65.6057 132.68 76.4974 141.591 89.8643 141.591M151.749 201C151.749 201 131.482 176.395 129.965 157.433C128.3 136.615 126.396 118.322 120.559 106.936C115.737 97.5293 105.029 87.9259 89.3693 75.7461" stroke="url(#paint0_linear_6713_2696)" stroke-width="0.8"/>
<defs>
<linearGradient id="paint0_linear_6713_2696" x1="95.3916" y1="75.7461" x2="95.8052" y2="201" gradientUnits="userSpaceOnUse">
<stop offset="0.853946" stop-color="#E0E0E0"/>
<stop offset="0.953448" stop-color="#171717"/>
</linearGradient>
</defs>
</svg>
