<svg width="300" height="92" viewBox="0 0 300 92" fill="none" xmlns="http://www.w3.org/2000/svg">
<g clip-path="url(#clip0_6358_3072)">
<path d="M298.68 53.4992C298.658 53.4944 296.625 52.945 295.054 49.3838C293.593 46.0633 293.257 38.2838 293.202 36.6037L294.58 36.2633L292.989 31.6935L293.986 24.4998L293.522 24.4935C285.185 24.3922 278.278 20.747 278.155 20.6885C239.683 6.39462 219.47 0.572266 173.781 0.572266C160.925 0.572266 149.049 2.33504 138.337 5.04235C113.684 9.30837 75.6027 31.2788 74.8857 31.6958C48.093 32.0614 28.3655 38.6911 16.1029 44.5598L15.993 44.5701L15.9968 44.6103C7.51833 48.6788 2.57798 52.3545 1.44921 53.2443C1.03948 53.5673 0.816873 54.0471 0.839456 54.5601C0.894302 55.6986 1.34275 57.727 1.77828 59.6873C2.09768 61.1298 2.42675 62.6215 2.57516 63.657C2.8268 65.4353 2.21705 67.2752 1.83313 68.2126C1.55245 68.8951 1.69763 69.6726 2.2106 70.241C3.33977 71.4999 4.05922 73.153 4.34635 73.8956C2.87197 74.3453 2.00089 74.9439 1.75248 75.6786C1.56858 76.2265 1.78796 76.7047 1.92992 76.8773C1.93213 76.8805 1.93677 76.8834 1.93899 76.8866C1.94161 76.8902 1.94746 76.8945 1.95008 76.8981C4.53549 80.5697 22.8824 82.7109 23.6649 82.7994L24.3715 82.8802L24.3096 82.7369L30.3793 82.0443C34.4235 87.9749 41.3065 91.89 49.1069 91.89C57.6285 91.89 65.0595 87.2194 68.8864 80.3504C69.9591 80.4488 74.1534 80.888 77.06 81.8812C77.0912 82.5629 77.1033 82.9803 77.1039 83.0021L77.1136 83.3979H209.014C214.592 83.3979 216.793 84.6726 216.815 84.6853L217.17 84.8975L217.386 84.5491C217.882 83.7384 218.123 83.029 218.28 82.4045C218.824 82.3028 222.257 81.6902 225.73 81.6579C229.737 87.7998 236.734 91.89 244.699 91.89C253.372 91.89 260.902 87.0464 264.665 79.9771C265.538 79.9557 268.963 79.9535 271.897 80.9107L271.896 81.0164H272.313C289.582 81.0164 291.492 77.593 291.692 76.6588C297.867 70.5387 298.948 54.5981 298.993 53.9188L299.009 53.5831L298.68 53.4992ZM293.509 35.6933L292.36 35.9751L292.367 36.2997C292.367 36.3255 292.369 36.3949 292.372 36.4939C292.027 36.5036 291.465 36.5105 290.628 36.4882C290.637 35.7186 290.686 34.0037 290.928 33.1502C291.141 32.4108 291.715 32.4725 291.88 32.5026L291.934 32.5153L292.397 32.4988L293.509 35.6933ZM289.802 36.8856L289.805 37.2751L290.202 37.2878C290.789 37.3068 291.273 37.3131 291.66 37.3131C291.988 37.3131 292.213 37.3076 292.401 37.302C292.415 37.6476 292.436 38.0752 292.463 38.5548C291.764 38.6288 289.939 38.7046 286.672 38.0795C283.1 37.3969 275.146 31.3033 272.443 29.1669C278.041 29.2656 283.609 29.5008 288.979 29.9263C289.001 29.9279 291.292 30.1175 292.16 31.6604L292.155 31.696L292.009 31.7014C291.473 31.6111 290.47 31.741 290.134 32.9317C289.782 34.1573 289.802 36.7748 289.802 36.8856ZM113.518 13.632C102.927 18.3212 94.4255 23.4342 88.5151 27.4656C82.482 31.5794 77.1975 31.638 77.1459 31.638C76.9612 31.638 76.7914 31.6511 76.6073 31.6517C81.1609 29.0835 96.954 20.3811 113.518 13.632ZM16.1866 45.3668L29.4915 44.1251C27.517 45.2035 24.2553 46.9896 21.8744 48.3118C19.0605 49.8727 9.62807 50.7933 5.89131 51.1044C8.31621 49.5229 11.7513 47.5078 16.1866 45.3668ZM2.60097 76.4054C2.58484 76.3833 2.44611 76.1869 2.5429 75.9209C2.64936 75.6264 3.10749 75.0563 4.98837 74.5559L5.40455 74.4451L5.2755 74.0429C5.24324 73.94 4.44314 71.5015 2.83003 69.7058C2.71651 69.579 2.66449 69.4266 2.61287 69.2761C4.12798 68.6679 10.8569 66.032 17.2415 64.501L17.048 63.7125C10.974 65.1686 4.64256 67.5977 2.64735 68.3882C3.13975 67.1513 3.64788 65.3537 3.39462 63.5462C3.24299 62.4774 2.92359 61.0396 2.58484 59.5147C2.15575 57.5877 1.71376 55.5957 1.66537 54.5253C1.66335 54.4716 1.72062 54.4394 1.72888 54.3879C3.66018 54.284 13.8042 53.7258 17.6997 53.2601C20.9071 52.8765 24.9231 52.2405 27.7943 51.2808C24.482 54.5617 23.1766 57.7824 22.0518 60.5867C21.8066 61.1916 21.5743 61.7743 21.3324 62.3269C19.4612 66.5579 19.5934 75.6169 19.6483 77.6801C13.3731 77.8414 3.53193 77.6346 2.61166 76.4169C2.60903 76.4131 2.60359 76.4092 2.60097 76.4054ZM49.1069 91.0793C37.1408 91.0793 27.4073 81.5231 27.4073 69.7771C27.4073 58.031 37.1408 48.4749 49.1069 48.4749C61.0729 48.4749 70.8096 58.031 70.8096 69.7771C70.8096 81.5231 61.0729 91.0793 49.1069 91.0793ZM69.2737 79.5733C70.7713 76.616 71.6355 73.2973 71.6355 69.7771C71.6355 57.5845 61.5278 47.6642 49.1069 47.6642C36.6859 47.6642 26.5814 57.5845 26.5814 69.7771C26.5814 73.9944 27.812 77.9255 29.9077 81.2827L23.9976 81.957C23.6671 80.9303 22.6124 76.7332 23.5681 67.2151C24.0005 62.9445 29.3753 46.7458 47.7938 45.5218C60.247 44.7269 69.1675 50.9577 74.281 64.1352C76.1629 68.9778 76.8112 77.2466 77.0164 81.0172C74.2288 80.1228 70.6378 79.7045 69.2737 79.5733ZM244.699 91.0793C232.733 91.0793 222.997 81.5231 222.997 69.7771C222.997 58.031 232.733 48.4749 244.699 48.4749C256.665 48.4749 266.399 58.031 266.399 69.7771C266.399 81.5231 256.665 91.0793 244.699 91.0793ZM265.066 79.1622C266.436 76.3086 267.225 73.1352 267.225 69.7771C267.225 57.5845 257.12 47.6642 244.699 47.6642C232.278 47.6642 222.171 57.5845 222.171 69.7771C222.171 73.8175 223.299 77.5964 225.235 80.8595C222.301 80.9307 219.504 81.3668 218.462 81.5489C218.524 81.0034 218.502 80.6305 218.499 80.6285C218.915 70.7509 221.832 60.734 221.851 60.6659C227.584 45.9382 244.506 45.7038 244.674 45.7038C259.027 45.7038 264.489 52.2688 268.251 59.3627C271.596 65.6599 271.876 77.4592 271.898 80.0648C269.218 79.2448 266.32 79.1541 265.066 79.1622ZM291.012 76.179L290.905 76.3041L290.889 76.4498C290.886 76.4878 290.321 80.1487 272.725 80.2057C272.722 77.7751 272.513 65.6332 268.986 58.989C265.102 51.6671 259.469 44.8931 244.674 44.8931C244.496 44.8931 227.016 45.1227 221.067 60.4094C221.038 60.5107 218.093 70.6179 217.677 80.6602C217.677 80.6744 217.828 82.0473 216.867 83.8033C215.999 83.417 213.605 82.5872 209.014 82.5872H77.917C77.8395 80.3751 77.3588 69.785 75.0553 63.8471C69.8675 50.489 60.447 43.837 47.7357 44.7142C28.7398 45.9762 23.1939 62.7196 22.7487 67.1359C21.8453 76.0856 22.6874 80.41 23.1165 81.919C18.5965 81.365 9.37138 79.9023 4.91114 77.9491C7.79618 78.4247 12.1362 78.5415 15.5316 78.5415C17.5932 78.5415 19.2934 78.5019 20.0871 78.4797L20.5032 78.4671L20.4871 78.0585C20.4839 77.9509 20.0903 67.1723 22.0873 62.65C22.3357 62.0878 22.5745 61.4988 22.8197 60.8844C24.6263 56.3811 26.875 50.7772 37.7151 45.612C49.636 39.929 61.1471 44.4498 64.6088 46.6919C64.6927 46.7347 72.997 51.1873 76.1232 60.4189L76.9039 60.1624C73.6745 50.6157 65.0831 46.0221 65.0314 45.9952C61.4891 43.7008 49.6263 39.0248 37.3538 44.8836C34.009 46.4768 31.4722 48.1121 29.4929 49.746L29.4721 49.71C27.4686 50.8152 23.3617 51.7653 17.5996 52.4557C14.0889 52.8753 5.43359 53.3713 2.41022 53.5376C2.9129 53.153 3.58093 52.6604 4.50585 52.0252C5.74028 51.9409 18.7028 51.0037 22.2809 49.018C25.92 46.9975 31.6143 43.894 31.6143 43.894L33.3436 42.9518L18.3431 44.351C19.9505 43.6178 21.6366 42.8807 23.4746 42.1474C39.5992 35.7123 57.6563 32.4488 77.1459 32.4488C77.3717 32.4488 82.7272 32.3997 89.0151 28.1101C98.9293 21.3476 116.129 11.4949 138.514 5.83388C138.522 5.8325 138.53 5.83072 138.538 5.82933C149.188 3.13766 160.998 1.38299 173.781 1.38299C219.332 1.38299 239.489 7.18952 277.813 21.4232C277.881 21.4596 284.708 25.0651 293.044 25.2947L292.316 30.5312C291.072 29.289 289.135 29.1253 289.04 29.1188C272.456 27.8025 254.014 28.2538 238.535 29.1736C237.92 28.5531 236.682 27.1925 235.449 25.3933C252.206 22.6357 255.82 17.5083 255.991 17.2476L256.227 16.885L255.846 16.6744C255.607 16.5414 231.275 3.46523 176.316 2.84927C175.775 2.84294 175.236 2.83977 174.694 2.83977C120.642 2.83977 88.0505 33.1011 87.7246 33.4099L86.9278 34.1636L87.4034 34.1391C86.3878 36.979 82.5204 50.2084 87.6053 75.7182L87.673 76.0523L183.479 74.4926C184.247 74.4942 202.571 74.6652 209.634 67.2182L210.514 66.2903C213.901 62.7224 218.94 57.4087 223.947 51.5638L223.952 51.5674C224.029 51.4755 231.804 42.3913 245.412 42.3913C254.446 42.3913 262.176 45.8859 268.389 52.7803L268.467 52.869C270.506 55.1254 273.961 61.9659 274.658 64.3601L275.452 64.1384C274.719 61.6207 271.229 54.7026 269.086 52.3306L269.006 52.2435C262.631 45.1686 254.694 41.5805 245.412 41.5805C237.179 41.5805 231.039 44.8137 227.342 47.5034C232.188 41.5485 236.631 35.3396 239.037 30.034L239.074 29.9536C248.982 29.3739 260.076 28.9913 271.1 29.1417C272.246 30.071 282.162 38.0441 286.518 38.8744C288.766 39.3051 290.363 39.416 291.408 39.416C291.897 39.416 292.254 39.3914 292.513 39.3647C292.718 42.4877 293.197 47.2048 294.299 49.7068C295.579 52.6117 297.162 53.6957 297.964 54.0827C296.348 55.6103 287.291 56.6792 281.569 57.0097L281.62 57.8204C284.013 57.6817 294.798 56.9531 298.074 54.9536C297.716 58.6884 296.151 71.221 291.012 76.179ZM210.098 63.6159L212.176 63.3431C211.367 64.1992 210.594 65.0148 209.908 65.7377L209.027 66.6672C202.229 73.8418 183.695 73.6882 183.479 73.6819L164.705 73.9873C164.658 73.0445 164.539 70.3784 164.458 66.7424C182.482 65.997 199.68 64.9812 210.098 63.6159ZM164.442 65.9317C164.434 65.5087 164.427 65.059 164.421 64.614C185.444 63.6465 196.921 63.4116 203.088 63.4116C203.681 63.4116 204.223 63.4132 204.723 63.4179C194.288 64.4808 179.661 65.3022 164.442 65.9317ZM210.111 62.8131C209.81 62.7663 204.103 61.9794 164.407 63.8043C164.273 53.4327 164.592 38.0506 167.232 29.9105C190.617 28.6469 212.746 27.4189 223.177 26.7515C227.518 26.4744 231.244 26.0441 234.539 25.533C235.621 27.165 236.715 28.4446 237.461 29.2397C218.394 30.4095 204.077 32.2558 203.817 32.2888L203.926 33.0932C204.186 33.0582 218.791 31.1751 238.139 30.0104C233.21 40.6022 220.27 54.7663 212.332 63.1773L210.111 62.8131ZM163.582 63.8423C146.852 64.6174 124.231 65.847 93.5512 67.7803L93.5835 68.5895C94.1402 68.5834 130.153 68.1432 163.633 66.7757C163.712 70.3632 163.83 73.0147 163.878 74.0005L88.3505 75.2289C83.1479 48.8333 87.6065 35.8706 88.2983 34.0928C91.437 33.9289 130.199 31.9104 166.345 29.9584C163.761 38.2727 163.45 53.5406 163.582 63.8423ZM163.616 65.9645C144.851 66.7309 125.286 67.2075 111.615 67.4779C133.366 66.1678 150.34 65.2666 163.593 64.652C163.6 65.1015 163.608 65.5374 163.616 65.9645ZM228.62 24.2671C245.357 22.8198 250.561 17.5801 250.774 17.3585L251.19 16.923L250.626 16.7029C222.059 5.53995 189.416 4.30961 178.573 4.22866C178.622 4.01865 178.662 3.85001 178.693 3.71859C227.735 4.61086 251.544 15.4391 254.997 17.1542C253.588 18.6411 246.632 24.4412 223.126 25.9439C213.685 26.5476 194.656 27.6107 173.791 28.7437C173.827 28.5083 173.865 28.2748 173.901 28.04C198.664 26.4685 220.924 24.9321 228.62 24.2671ZM227.433 23.5525L228.925 10.9144C235.836 12.5339 242.875 14.5884 249.694 17.2128C248.084 18.4764 242.196 22.2798 228.549 23.4595C228.219 23.488 227.815 23.5209 227.433 23.5525ZM228.117 10.7271L226.594 23.6218C217.56 24.3504 196.879 25.7688 174.031 27.2194C175.592 17.4974 177.564 8.59582 178.385 5.03642C186.298 5.0855 206.489 5.75847 228.117 10.7271ZM177.725 4.22351C175.924 4.21876 174.902 4.24568 174.842 4.24746C174.065 4.23361 173.332 4.28487 172.563 4.28467C172.655 4.04379 172.729 3.85061 172.783 3.71027C173.428 3.70156 174.042 3.6505 174.694 3.6505C175.226 3.6505 175.771 3.65367 176.31 3.66C176.84 3.66594 177.324 3.68949 177.848 3.6978C177.814 3.84091 177.772 4.02122 177.725 4.22351ZM174.849 5.05819C174.909 5.05581 175.867 5.03068 177.538 5.03266C176.688 8.73734 174.731 17.6162 173.184 27.273C170.135 27.4662 167.056 27.6596 163.956 27.8522C167.591 17.4818 170.938 8.56554 172.277 5.0384C172.318 5.0384 172.356 5.03444 172.397 5.03444C173.21 5.03444 174.026 5.04235 174.849 5.05819ZM113.47 29.3452C113.47 29.3452 112.889 26.6454 112.65 25.6827C112.36 24.5188 111.215 24.1404 111.182 24.1309C111.102 24.1024 110.331 23.8443 107.308 23.5371C106.567 23.4639 105.959 23.4401 105.448 23.4429C118.32 15.7514 141.313 5.30442 171.384 5.06828C169.957 8.83651 166.639 17.6947 163.064 27.9074C145.455 28.9992 127.497 30.0477 113.228 30.7725C113.626 30.1173 113.476 29.3703 113.47 29.3452ZM98.8196 30.338L93.9438 31.3876C94.2273 31.1438 96.2711 29.4297 99.9407 26.9387C99.1985 28.3359 98.9099 29.7371 98.8196 30.338ZM102.073 25.5303C102.628 25.1724 103.238 24.7993 103.846 24.4224C104.1 24.3486 104.59 24.2481 105.511 24.2481C105.975 24.2481 106.54 24.275 107.224 24.3446C110.137 24.6392 110.866 24.8814 110.908 24.8957C110.937 24.9068 111.67 25.157 111.85 25.8743C112.041 26.6602 112.464 28.5968 112.609 29.268L109.608 29.1789C109.589 29.1789 107.663 29.0808 105.53 29.1789C103.831 29.2615 100.935 29.8689 99.6987 30.1423C99.8903 29.1389 100.489 26.995 102.073 25.5303ZM99.5778 31.0047L99.578 31.0013C100.534 30.7863 103.802 30.0748 105.569 29.9897C107.656 29.8883 109.544 29.9881 109.573 29.9897L112.649 30.0807C112.621 30.2018 112.576 30.3248 112.489 30.4362C112.29 30.6931 111.926 30.834 111.416 30.8643C111.056 30.8823 110.703 30.8995 110.348 30.9172C107.792 31.0302 101.767 31.282 97.4581 31.4607L99.5778 31.0047ZM163.666 28.6825C166.819 28.4868 169.952 28.29 173.055 28.0935C173.019 28.3258 172.981 28.5566 172.945 28.7896C169.81 28.9598 166.636 29.1314 163.449 29.303C163.522 29.095 163.594 28.8898 163.666 28.6825ZM171.676 4.29932C140.128 4.50062 116.243 15.8373 103.556 23.6566C103.353 23.7182 103.25 23.7718 103.243 23.7794C102.49 24.0889 101.881 24.5378 101.359 25.0416C96.3128 28.3116 93.4734 30.7103 93.306 30.8558L91.2928 32.5089L92.4833 32.4757C92.5664 32.4733 92.6668 32.4695 92.7511 32.4672C92.7535 32.467 92.7904 32.4662 92.7991 32.4658C97.1752 32.3397 103.178 32.0826 110.246 31.7338C110.776 31.7107 111.199 31.6917 111.424 31.6808C111.438 31.68 111.447 31.6739 111.461 31.6731C125.914 30.951 144.517 29.8687 162.774 28.7377C162.703 28.943 162.632 29.1447 162.56 29.3509C129.739 31.1185 95.8017 32.8892 89.1506 33.2357C94.493 28.6311 124.635 4.67618 171.89 3.73838C171.83 3.89435 171.756 4.08733 171.676 4.29932Z" fill="#A2A2A2" stroke="#A2A2A2" stroke-width="0.3"/>
<path d="M224.868 35.5682C225.029 35.5619 228.833 35.3814 229.191 32.7449L229.255 32.2588L224.839 32.509L224.732 32.718C224.71 32.7639 224.161 33.8137 222.955 33.8137C221.471 33.8137 214.825 34.1985 214.557 34.2144C214.492 34.2159 213.937 34.2429 213.586 34.6641C213.428 34.8541 213.26 35.1961 213.357 35.7376L213.421 36.0892L224.868 35.5682ZM214.225 35.1787C214.318 35.0615 214.515 35.0282 214.592 35.0251C214.66 35.0203 221.493 34.6245 222.955 34.6245C224.306 34.6245 225.065 33.7171 225.348 33.2912L228.23 33.1281C227.546 34.6261 224.865 34.7559 224.832 34.7575L214.186 35.2436C214.195 35.2198 214.208 35.1977 214.225 35.1787Z" fill="#A2A2A2" stroke="#A2A2A2" stroke-width="0.3"/>
<path d="M156.259 35.6946C156.237 35.7405 155.688 36.7903 154.482 36.7903C152.997 36.7903 146.355 37.1751 146.084 37.1909C146.022 37.1925 145.464 37.2194 145.113 37.6422C144.954 37.8338 144.787 38.1742 144.884 38.7158L144.948 39.0657L156.398 38.5464C156.559 38.54 160.363 38.3595 160.721 35.7215L160.786 35.2354L156.366 35.4855L156.259 35.6946ZM156.875 36.2678L159.76 36.1047C159.076 37.6042 156.395 37.734 156.362 37.7356L145.713 38.2202C145.722 38.1964 145.735 38.1758 145.751 38.1584C145.848 38.0396 146.045 38.0048 146.122 38.0016C146.19 37.9969 153.02 37.601 154.482 37.601C155.833 37.601 156.591 36.6937 156.875 36.2678Z" fill="#A2A2A2" stroke="#A2A2A2" stroke-width="0.3"/>
<path d="M261.608 69.5186C261.453 67.1197 261.127 65.5552 260.356 63.5379C260.098 62.8649 259.688 62.4057 259.133 62.1761C258.246 61.8024 257.352 62.1856 257.339 62.192C251.239 64.3708 247.764 67.5219 247.622 67.6549L248.183 68.2471C248.219 68.2154 251.69 65.0739 257.646 62.9457C257.646 62.9457 258.259 62.6892 258.811 62.9219C259.149 63.0629 259.407 63.3653 259.582 63.8229C260.269 65.6186 260.588 67.0452 260.75 69.0927C259.165 68.9422 254.036 68.5543 248.961 69.1417L249.058 69.9461C255.017 69.2605 261.088 69.9382 261.146 69.9461L261.637 70.0031L261.608 69.5186Z" fill="#A2A2A2" stroke="#A2A2A2" stroke-width="0.3"/>
<path d="M258.775 74.1981C253.107 71.0977 248.406 70.5831 248.206 70.5625L248.122 71.3701C248.167 71.3748 252.861 71.8926 258.394 74.917C258.401 74.9202 258.998 75.2131 259.178 75.7736C259.288 76.1141 259.227 76.5036 258.991 76.928C258.052 78.6191 257.162 79.7893 255.694 81.2445C254.771 79.9745 251.713 75.9146 247.938 72.5307L247.383 73.1293C251.823 77.1117 255.265 82.0505 255.297 82.0995L255.575 82.5002L255.93 82.1613C257.672 80.4812 258.662 79.2129 259.714 77.3159C260.066 76.6841 260.149 76.0793 259.962 75.5187C259.669 74.6256 258.791 74.2044 258.775 74.1981Z" fill="#A2A2A2" stroke="#A2A2A2" stroke-width="0.3"/>
<path d="M246.222 72.7695L245.532 73.2161C245.557 73.2541 248.125 77.1335 249.258 83.2647C249.258 83.2647 249.406 83.9107 249.08 84.4032C248.88 84.7024 248.535 84.9004 248.048 84.9922C246.125 85.3516 244.635 85.4197 242.56 85.2297C242.976 83.7239 244.231 78.8262 244.506 73.8178L243.68 73.7734C243.357 79.6671 241.654 85.4118 241.634 85.4704L241.496 85.9359L241.986 85.9882C242.97 86.0911 243.822 86.145 244.631 86.145C245.822 86.145 246.919 86.0294 248.203 85.7871C248.922 85.6525 249.451 85.3326 249.777 84.8354C250.293 84.0469 250.068 83.1126 250.064 83.0968C248.906 76.8263 246.332 72.9326 246.222 72.7695Z" fill="#A2A2A2" stroke="#A2A2A2" stroke-width="0.3"/>
<path d="M242.412 72.6239C242.399 72.6682 241.082 77.1225 237.111 81.9663C237.111 81.9663 236.711 82.4999 236.117 82.5806C235.746 82.6202 235.379 82.5031 234.988 82.2022C233.452 81.0114 232.43 79.9537 231.213 78.2847C232.646 77.607 237.237 75.3316 241.273 72.2549L240.77 71.6152C236.017 75.235 230.478 77.7305 230.423 77.7559L229.975 77.957L230.255 78.356C231.649 80.329 232.752 81.5023 234.478 82.8387C234.962 83.2124 235.459 83.4025 235.959 83.4025C236.053 83.4025 236.146 83.3945 236.243 83.3819C237.188 83.2473 237.759 82.4698 237.769 82.4571C241.841 77.4946 243.15 73.0324 243.205 72.844L242.412 72.6239Z" fill="#A2A2A2" stroke="#A2A2A2" stroke-width="0.3"/>
<path d="M241.076 69.9992L240.844 69.2233C240.799 69.236 236.272 70.5217 229.965 69.8139C229.965 69.8139 229.294 69.768 228.907 69.3199C228.671 69.0475 228.578 68.6643 228.629 68.183C228.836 66.2717 229.197 64.8545 229.984 62.956C231.333 63.781 235.746 66.3778 240.553 68.0816L240.831 67.3184C235.179 65.3137 230.068 62.0487 230.017 62.017L229.604 61.751L229.41 62.1975C228.458 64.408 228.039 65.9519 227.81 68.099C227.732 68.8132 227.894 69.4022 228.284 69.8503C228.904 70.5645 229.881 70.6215 229.894 70.6215C231.304 70.7814 232.62 70.8432 233.824 70.8432C238.121 70.8432 240.928 70.0435 241.076 69.9992Z" fill="#A2A2A2" stroke="#A2A2A2" stroke-width="0.3"/>
<path d="M242.044 67.2123L242.509 66.541C242.47 66.5156 238.576 63.8918 235.143 58.6664C235.137 58.6601 234.753 58.1249 234.859 57.5469C234.927 57.1954 235.169 56.8819 235.579 56.6159C237.215 55.5597 238.56 54.9358 240.557 54.3294C240.763 55.8748 241.518 60.8706 243.222 65.5988L244.003 65.3296C241.996 59.7654 241.322 53.8179 241.315 53.7577L241.264 53.2764L240.789 53.4125C238.441 54.0918 236.96 54.7521 235.124 55.9382C234.514 56.334 234.153 56.8296 234.046 57.4092C233.879 58.3339 234.45 59.1114 234.459 59.1241C237.979 64.4793 241.88 67.1031 242.044 67.2123Z" fill="#A2A2A2" stroke="#A2A2A2" stroke-width="0.3"/>
<path d="M245.622 65.9124C245.615 65.8664 245.089 61.2586 246.867 55.289C246.867 55.289 247.025 54.6461 247.541 54.3484C247.854 54.1679 248.258 54.1457 248.732 54.2724C250.619 54.7949 251.977 55.3856 253.749 56.4671C252.694 57.6325 249.342 61.4629 246.819 65.8253L247.535 66.2243C250.506 61.0939 254.646 56.7014 254.687 56.6571L255.023 56.3024L254.607 56.0411C252.552 54.7443 251.074 54.0776 248.958 53.4933C248.245 53.2986 247.628 53.3524 247.112 53.6549C246.293 54.1362 246.07 55.0689 246.067 55.0831C244.244 61.2 244.78 65.8142 244.802 66.0074L245.622 65.9124Z" fill="#A2A2A2" stroke="#A2A2A2" stroke-width="0.3"/>
<path d="M244.699 51.6641C234.524 51.6641 226.245 59.7903 226.245 69.7772C226.245 79.764 234.524 87.8903 244.699 87.8903C254.871 87.8903 263.15 79.764 263.15 69.7772C263.15 59.7903 254.871 51.6641 244.699 51.6641ZM244.699 87.0796C234.978 87.0796 227.071 79.3175 227.071 69.7772C227.071 60.2369 234.978 52.4748 244.699 52.4748C254.416 52.4748 262.324 60.2369 262.324 69.7772C262.324 79.3175 254.416 87.0796 244.699 87.0796Z" fill="#A2A2A2" stroke="#A2A2A2" stroke-width="0.3"/>
<path d="M241.912 69.7772C241.912 71.2847 243.163 72.5118 244.699 72.5118C246.235 72.5118 247.487 71.2847 247.487 69.7772C247.487 68.2682 246.235 67.041 244.699 67.041C243.163 67.041 241.912 68.2682 241.912 69.7772ZM244.699 67.8517C245.78 67.8517 246.661 68.7163 246.661 69.7772C246.661 70.8381 245.78 71.7011 244.699 71.7011C243.618 71.7011 242.738 70.8381 242.738 69.7772C242.738 68.7163 243.618 67.8517 244.699 67.8517Z" fill="#A2A2A2" stroke="#A2A2A2" stroke-width="0.3"/>
<path d="M66.0187 69.5188C65.8606 67.1167 65.5347 65.5522 64.7637 63.5381C64.5056 62.8651 64.0958 62.4075 63.5441 62.1763C62.6602 61.8074 61.7633 62.1842 61.7504 62.1922C55.6464 64.371 52.1717 67.5221 52.0298 67.6551L52.5911 68.2473C52.6266 68.2156 56.098 65.074 62.0569 62.9459C62.0633 62.9427 62.6731 62.6973 63.2215 62.9221C63.557 63.0631 63.8151 63.3655 63.9894 63.8231C64.6765 65.6172 64.9959 67.0439 65.1605 69.0913C63.5796 68.9472 58.4467 68.556 53.3719 69.1419L53.4687 69.9463C59.4436 69.2654 65.5025 69.94 65.5573 69.9463L66.0477 70.0033L66.0187 69.5188Z" fill="#A2A2A2" stroke="#A2A2A2" stroke-width="0.3"/>
<path d="M63.183 74.1981C57.5145 71.0977 52.8139 70.5831 52.6139 70.5625L52.53 71.3701C52.5752 71.3748 57.2693 71.8926 62.8055 74.9186C62.812 74.9217 63.4024 75.2115 63.5862 75.7689C63.6992 76.1093 63.6346 76.5004 63.3991 76.9296C62.4668 78.6128 61.5763 79.7829 60.1019 81.2445C59.1792 79.9745 56.1208 75.9146 52.3493 72.5307L51.7944 73.1293C56.2305 77.1117 59.6728 82.0505 59.7051 82.0995L59.9826 82.5002L60.3375 82.1613C62.0861 80.4733 63.0765 79.2066 64.1218 77.3159C64.4735 76.6857 64.5573 76.0808 64.3734 75.5187C64.0766 74.6256 63.1991 74.2044 63.183 74.1981Z" fill="#A2A2A2" stroke="#A2A2A2" stroke-width="0.3"/>
<path d="M50.6327 72.7695L49.9422 73.2161C49.9681 73.2541 52.5361 77.1446 53.6653 83.2662C53.6653 83.2662 53.8105 83.906 53.4911 84.3984C53.2943 84.7008 52.9458 84.9004 52.4587 84.9922C50.5359 85.3532 49.0518 85.4213 46.9709 85.2297C47.3839 83.7239 48.6389 78.8262 48.9131 73.8178L48.0872 73.7734C47.7645 79.6671 46.0643 85.4134 46.045 85.4704L45.9062 85.9359L46.3966 85.9882C47.3806 86.0911 48.2291 86.145 49.0389 86.145C50.2294 86.145 51.3263 86.0294 52.6135 85.7871C53.333 85.6525 53.8621 85.3326 54.1847 84.837C54.7009 84.0469 54.4751 83.1126 54.4718 83.0984C53.3169 76.8279 50.7423 72.9326 50.6327 72.7695Z" fill="#A2A2A2" stroke="#A2A2A2" stroke-width="0.3"/>
<path d="M46.8194 72.6239C46.8065 72.6682 45.4902 77.1225 41.5187 81.9663C41.5187 81.9663 41.1187 82.4999 40.525 82.5806C40.1798 82.6202 39.7895 82.5015 39.3991 82.2022C37.8634 81.013 36.8375 79.9553 35.6212 78.2847C37.0536 77.607 41.6445 75.3316 45.6805 72.2549L45.1772 71.6152C40.425 75.235 34.8856 77.7305 34.8308 77.7559L34.3823 77.957L34.663 78.356C36.0567 80.3306 37.1633 81.5039 38.8893 82.8387C39.3733 83.2124 39.8669 83.4025 40.367 83.4025C40.4605 83.4025 40.5541 83.3945 40.6509 83.3819C41.5961 83.2489 42.1672 82.4698 42.1769 82.4571C46.2483 77.4946 47.5582 73.0324 47.613 72.844L46.8194 72.6239Z" fill="#A2A2A2" stroke="#A2A2A2" stroke-width="0.3"/>
<path d="M45.4838 69.9992L45.2515 69.2233C45.2063 69.236 40.68 70.5217 34.3727 69.8139C34.3727 69.8139 33.7017 69.768 33.3145 69.3199C33.079 69.0475 32.9854 68.6643 33.0371 68.183C33.2435 66.2702 33.6081 64.853 34.3953 62.956C35.7439 63.781 40.1573 66.3762 44.9579 68.0816L45.2418 67.3184C39.5895 65.3137 34.4792 62.0487 34.4276 62.017L34.0146 61.751L33.821 62.1975C32.8661 64.4064 32.4467 65.9503 32.2176 68.099C32.1402 68.8132 32.3015 69.4022 32.6919 69.8503C33.3113 70.5645 34.2888 70.6215 34.3017 70.6215C35.7116 70.7814 37.0279 70.8432 38.2313 70.8432C42.5286 70.8432 45.3354 70.0435 45.4838 69.9992Z" fill="#A2A2A2" stroke="#A2A2A2" stroke-width="0.3"/>
<path d="M46.4549 67.2123L46.9195 66.541C46.8808 66.5156 42.9835 63.8918 39.5508 58.6649C39.5508 58.6649 39.1604 58.1249 39.2701 57.5469C39.3346 57.1954 39.5798 56.8819 39.9896 56.6159C41.6252 55.5581 42.9706 54.9342 44.9676 54.3294C45.1709 55.8748 45.9258 60.8706 47.6292 65.5988L48.41 65.3296C46.4033 59.7654 45.7322 53.8179 45.7258 53.7593L45.6741 53.2764L45.1999 53.4125C42.8544 54.0903 41.3736 54.7506 39.5379 55.9382C38.9249 56.334 38.5603 56.8296 38.4571 57.4092C38.2893 58.3339 38.8604 59.1114 38.8701 59.1241C42.3866 64.4793 46.2904 67.1031 46.4549 67.2123Z" fill="#A2A2A2" stroke="#A2A2A2" stroke-width="0.3"/>
<path d="M50.0326 65.9117C50.0262 65.8658 49.5003 61.2579 51.2747 55.2867C51.2747 55.2867 51.4328 54.6502 51.9458 54.3509C52.2619 54.164 52.6716 54.145 53.1394 54.2717C55.0268 54.7943 56.385 55.3849 58.1594 56.4664C57.1045 57.6318 53.7492 61.4638 51.2263 65.8246L51.9425 66.2236C54.9139 61.0932 59.0563 56.7007 59.0983 56.6564L59.4338 56.3017L59.0176 56.0389C56.9593 54.7436 55.4785 54.077 53.3653 53.4927C52.6555 53.2995 52.0425 53.3517 51.5231 53.6542C50.7037 54.134 50.4778 55.0666 50.4746 55.0824C48.655 61.1993 49.1906 65.8135 49.2131 66.0067L50.0326 65.9117Z" fill="#A2A2A2" stroke="#A2A2A2" stroke-width="0.3"/>
<path d="M49.107 51.6641C38.9347 51.6641 30.6562 59.7903 30.6562 69.7772C30.6562 79.764 38.9347 87.8903 49.107 87.8903C59.2825 87.8903 67.5609 79.764 67.5609 69.7772C67.5609 59.7903 59.2825 51.6641 49.107 51.6641ZM49.107 87.0796C39.3896 87.0796 31.4822 79.3175 31.4822 69.7772C31.4822 60.2369 39.3896 52.4748 49.107 52.4748C58.8276 52.4748 66.735 60.2369 66.735 69.7772C66.735 79.3175 58.8276 87.0796 49.107 87.0796Z" fill="#A2A2A2" stroke="#A2A2A2" stroke-width="0.3"/>
<path d="M46.3193 69.7772C46.3193 71.2847 47.5711 72.5118 49.1068 72.5118C50.6425 72.5118 51.8942 71.2847 51.8942 69.7772C51.8942 68.2682 50.6425 67.041 49.1068 67.041C47.5711 67.041 46.3193 68.2682 46.3193 69.7772ZM49.1068 67.8517C50.1876 67.8517 51.0683 68.7163 51.0683 69.7772C51.0683 70.8381 50.1876 71.7011 49.1068 71.7011C48.026 71.7011 47.1452 70.8381 47.1452 69.7772C47.1452 68.7163 48.026 67.8517 49.1068 67.8517Z" fill="#A2A2A2" stroke="#A2A2A2" stroke-width="0.3"/>
</g>
<defs>
<clipPath id="clip0_6358_3072">
<rect width="300" height="92" fill="white"/>
</clipPath>
</defs>
</svg>
