<svg width="36" height="36" viewBox="0 0 36 36" fill="none" xmlns="http://www.w3.org/2000/svg">
<path d="M28.9619 13.9404H5.19032C4.34874 13.9404 3.6665 14.6816 3.6665 15.5959V24.2046C3.6665 25.1189 4.34874 25.8601 5.19032 25.8601H28.9619C29.8036 25.8601 30.4858 25.1189 30.4858 24.2046V15.5959C30.4858 14.6816 29.8036 13.9404 28.9619 13.9404Z" fill="#808080"/>
<path d="M31.3555 17.7054C31.3555 17.4361 31.569 17.2178 31.8323 17.2178C32.2931 17.2178 32.6666 17.5998 32.6666 18.0711V21.7283C32.6666 22.1995 32.2931 22.5817 31.8323 22.5817C31.569 22.5817 31.3555 22.3633 31.3555 22.094V17.7054Z" fill="#808080"/>
<path d="M11.8143 19.7734C14.7802 17.0547 11.8143 14.3359 11.8143 14.3359C11.8143 14.3359 8.84837 11.6172 11.8143 8.89844" stroke="#1B1B1B" stroke-width="2" stroke-miterlimit="10" stroke-linecap="round" stroke-linejoin="round"/>
<path d="M16.7659 19.5009C19.7319 16.7822 16.7659 14.0635 16.7659 14.0635C16.7659 14.0635 13.8 11.3447 16.7659 8.62598" stroke="#1B1B1B" stroke-width="2" stroke-miterlimit="10" stroke-linecap="round" stroke-linejoin="round"/>
<path d="M21.7474 19.7734C24.7133 17.0547 21.7474 14.3359 21.7474 14.3359C21.7474 14.3359 18.7815 11.6172 21.7474 8.89844" stroke="#1B1B1B" stroke-width="2" stroke-miterlimit="10" stroke-linecap="round" stroke-linejoin="round"/>
<path fill-rule="evenodd" clip-rule="evenodd" d="M17.4559 9.6356C17.863 9.26241 17.8905 8.62984 17.5173 8.22272C17.1441 7.8156 16.5115 7.7881 16.1044 8.16129C15.2355 8.95782 14.7415 9.81276 14.5519 10.6819C14.3636 11.5447 14.4941 12.3348 14.7281 12.9785C14.8698 13.368 15.0521 13.7122 15.2348 14.001H17.8338C17.7562 13.9093 17.6863 13.8322 17.6284 13.771C17.5814 13.7213 17.5421 13.6817 17.5126 13.6529C17.4979 13.6384 17.4856 13.6266 17.4761 13.6176L17.4638 13.6061L17.4597 13.6023L17.4592 13.6019L17.4475 13.5905C17.4349 13.5782 17.4135 13.5567 17.3851 13.5268C17.3283 13.4666 17.2453 13.3739 17.1519 13.254C16.9613 13.0095 16.7464 12.6764 16.6077 12.295C16.471 11.9191 16.4161 11.5198 16.5059 11.1082C16.5944 10.7029 16.8419 10.1984 17.4559 9.6356ZM10.2685 14.001C10.0858 13.7122 9.90349 13.368 9.76184 12.9785C9.52779 12.3348 9.39734 11.5447 9.58559 10.6819C9.77521 9.81276 10.2692 8.95782 11.1381 8.16129C11.5452 7.7881 12.1778 7.8156 12.551 8.22272C12.9242 8.62984 12.8967 9.26241 12.4896 9.6356C11.8756 10.1984 11.6281 10.7029 11.5396 11.1082C11.4498 11.5198 11.5047 11.9191 11.6414 12.295C11.7801 12.6764 11.995 13.0095 12.1856 13.254C12.279 13.3739 12.362 13.4666 12.4188 13.5268C12.4471 13.5567 12.4686 13.5782 12.4811 13.5905L12.4929 13.6019L12.4934 13.6023L12.4936 13.6025L12.4975 13.6061L12.5098 13.6176C12.5193 13.6267 12.5316 13.6384 12.5463 13.6529C12.5758 13.6817 12.6151 13.7213 12.6621 13.771C12.72 13.8322 12.7899 13.9093 12.8675 14.001H12.1209C12.4897 13.5989 12.49 13.5992 12.4903 13.5995L12.4903 13.5994C12.49 13.5991 12.4897 13.5989 12.1209 14.001H10.2685ZM24 17.8643V16.4369C24.0786 16.8755 24.0936 17.3565 24 17.8643ZM22.8001 14.001C22.7225 13.9093 22.6526 13.8322 22.5948 13.771C22.5478 13.7213 22.5084 13.6817 22.4789 13.6529C22.4642 13.6384 22.4519 13.6267 22.4424 13.6176L22.4301 13.6061L22.4262 13.6025L22.4255 13.6019L22.4138 13.5905C22.4012 13.5782 22.3798 13.5567 22.3515 13.5268C22.2946 13.4666 22.2116 13.3739 22.1182 13.254C21.9277 13.0095 21.7128 12.6764 21.574 12.295C21.4374 11.9191 21.3824 11.5198 21.4722 11.1082C21.5607 10.7029 21.8082 10.1984 22.4222 9.6356C22.8293 9.26241 22.8568 8.62984 22.4836 8.22272C22.1104 7.8156 21.4779 7.7881 21.0707 8.16129C20.2018 8.95782 19.7078 9.81276 19.5182 10.6819C19.33 11.5447 19.4604 12.3348 19.6945 12.9785C19.8361 13.368 20.0184 13.7122 20.2011 14.001H22.0536H22.8001ZM22.0536 14.001C22.4223 13.5989 22.4226 13.5992 22.4229 13.5995L22.4229 13.5994C22.4226 13.5991 22.4223 13.5989 22.0536 14.001ZM17.114 13.9718C17.456 13.5989 17.4563 13.5991 17.4566 13.5994L17.4566 13.5995C17.4563 13.5992 17.456 13.5989 17.114 13.9718Z" fill="#808080"/>
</svg>
