<svg width="128" height="100" viewBox="0 0 128 100" fill="none" xmlns="http://www.w3.org/2000/svg">
<path d="M121.375 60.4505L121.375 60.4484C120.49 43.4961 112.037 27.9014 98.2213 17.6641C89.3677 11.1152 78.9279 7.31574 67.6514 6.55549C65.7801 6.43176 64.6589 6.3923 63.9677 6.44112C63.6232 6.46546 63.4337 6.50924 63.3297 6.54996C63.323 6.55257 63.3168 6.55512 63.3111 6.55759C63.3086 6.59402 63.306 6.63562 63.3033 6.68253C63.2903 6.91308 63.2779 7.24268 63.2671 7.64961C63.2456 8.46193 63.2312 9.56524 63.2312 10.7641C63.2312 12.7975 63.2351 13.8682 63.2681 14.461C63.2816 14.7023 63.2986 14.8304 63.3119 14.8968C63.4507 14.9819 63.6615 14.9507 63.7592 14.8241L63.7656 14.8157L63.7657 14.8157C63.8143 14.7548 63.8186 14.7424 63.8259 14.7209C63.8407 14.6779 63.8643 14.5794 63.8827 14.3401C63.92 13.8558 63.9241 12.9974 63.9241 11.3006V7.74803V7.04041L64.6304 7.08431L66.2592 7.18558C66.2599 7.18562 66.2606 7.18566 66.2612 7.18569C74.5867 7.65413 81.4919 9.32512 88.3256 12.5705L88.3299 12.5725C88.9241 12.8599 89.3462 13.0773 89.6143 13.2538C89.7429 13.3384 89.8918 13.4487 90.0026 13.5919C90.1312 13.7578 90.2515 14.0326 90.1452 14.3524L90.1351 14.3828L90.1222 14.412C90.0922 14.4796 90.0126 14.6248 89.926 14.7807C89.829 14.9553 89.6964 15.1908 89.5379 15.4699C89.2206 16.0285 88.7968 16.7663 88.3407 17.551C87.8893 18.3276 87.4823 19.0623 87.1895 19.6196C87.0427 19.8991 86.9276 20.1283 86.8507 20.2934C86.8288 20.3403 86.8113 20.3794 86.7976 20.4112C86.8116 20.4468 86.8379 20.4909 86.8841 20.5359C86.9639 20.6136 87.0494 20.641 87.1011 20.641C87.1643 20.641 87.2443 20.6309 87.3155 20.6133C87.317 20.6129 87.3185 20.6125 87.32 20.6121C87.3427 20.5781 87.3699 20.5368 87.4014 20.4879C87.5075 20.3236 87.6518 20.092 87.8249 19.8085C88.1704 19.2425 88.623 18.482 89.098 17.6659C89.5699 16.85 90.0177 16.1009 90.3583 15.5533C90.5279 15.2805 90.6745 15.0521 90.7856 14.889C90.84 14.8091 90.8928 14.7347 90.9393 14.6759C90.9609 14.6486 90.9932 14.6092 91.0314 14.5712C91.0494 14.5533 91.0848 14.5195 91.1334 14.4856L91.1355 14.4841C91.1622 14.4653 91.3086 14.3623 91.5226 14.3623C91.6747 14.3623 91.8084 14.4138 91.8504 14.43L91.8541 14.4314C91.9226 14.4578 91.9962 14.4914 92.0684 14.5268C92.2147 14.5984 92.397 14.6973 92.6015 14.8137C93.0128 15.048 93.5462 15.3718 94.1258 15.7371C95.284 16.4669 96.6523 17.3784 97.6373 18.1012C97.6375 18.1014 97.6377 18.1016 97.638 18.1018L121.375 60.4505ZM121.375 60.4505L121.458 61.9326L121.327 62.0356C121.326 62.036 121.326 62.0363 121.325 62.0367C121.247 62.0979 121.235 62.1019 121.215 62.109L121.213 62.1095C121.168 62.125 121.062 62.1506 120.79 62.1702C120.245 62.2097 119.251 62.2138 117.242 62.2138C115.021 62.2138 113.893 62.1975 113.292 62.1102C113.103 62.0827 113.009 62.0531 112.969 62.0372C112.966 62.0271 112.962 62.014 112.958 61.9975L112.957 61.9939M121.375 60.4505L112.957 61.9939M112.957 61.9939C112.905 61.8025 112.912 61.7302 112.917 61.7047C112.92 61.6908 112.927 61.6602 112.971 61.5964C113.028 61.585 113.142 61.5675 113.351 61.5541C113.859 61.5213 114.755 61.5138 116.419 61.5138H120.089H120.807M112.957 61.9939L120.807 61.5138M120.807 61.5138L120.752 60.7979M120.807 61.5138L120.752 60.7979M120.752 60.7979L120.665 59.6669L120.665 59.6636M120.752 60.7979L120.665 59.6636M120.665 59.6636C120.066 52.3385 118.357 45.8071 115.387 39.5384L115.387 39.5377M120.665 59.6636L115.387 39.5377M115.387 39.5377C114.86 38.4304 114.255 37.2581 113.756 36.3595C113.508 35.9115 113.282 35.5234 113.104 35.243C113.016 35.105 112.931 34.9794 112.855 34.8828C112.819 34.8365 112.771 34.7784 112.715 34.7257C112.687 34.6999 112.641 34.6599 112.581 34.6228C112.533 34.5933 112.4 34.5179 112.214 34.5179C112.101 34.5179 112.012 34.5482 112.005 34.5504C111.976 34.5594 111.952 34.569 111.936 34.5753C111.903 34.5885 111.87 34.6038 111.84 34.6177C111.779 34.6465 111.701 34.6857 111.612 34.7317C111.432 34.8246 111.185 34.9568 110.89 35.117C110.3 35.438 109.506 35.8783 108.652 36.3576L108.646 36.3608M115.387 39.5377L108.646 36.3608M108.646 36.3608C107.288 37.1409 106.526 37.5641 106.066 37.7803C105.853 37.8808 105.739 37.918 105.689 37.9314L108.646 36.3608ZM37.2511 22.7415C37.3667 22.8865 37.6701 23.0025 37.9302 23.0025C38.407 23.0025 38.7683 22.7125 38.9272 22.205M37.2511 22.7415L34.578 14.4763M37.2511 22.7415C37.121 22.611 36.4564 21.509 35.7628 20.3199M37.2511 22.7415L35.7628 20.3199M38.9272 22.205C39.0139 21.8715 38.7972 21.4365 36.4997 17.4923C35.6472 16.0133 34.7803 14.6648 34.578 14.4763M38.9272 22.205L38.2926 22.0063C38.2854 22.0294 38.2778 22.051 38.2699 22.0711C38.2768 22.0935 38.2786 22.1028 38.2787 22.1027C38.2789 22.1027 38.2741 22.0743 38.2836 22.0377L38.9272 22.205ZM34.578 14.4763L34.1246 14.9628C34.1245 14.9627 34.1244 14.9626 34.1243 14.9625C34.1249 14.963 34.1255 14.9636 34.1261 14.9641L34.578 14.4763ZM35.7628 20.3199L36.339 19.9879C36.3387 19.9874 36.3385 19.987 36.3382 19.9865C36.3379 19.986 36.3376 19.9854 36.3372 19.9849L35.7628 20.3199ZM37.7397 22.2901C37.7394 22.2896 37.739 22.2892 37.7386 22.2887L37.7222 22.2721C37.7293 22.2793 37.7349 22.2853 37.7386 22.2895M37.7397 22.2901C37.7393 22.2899 37.7389 22.2897 37.7386 22.2895M37.7397 22.2901C37.7399 22.2902 37.7401 22.2903 37.7404 22.2904L37.7481 22.2982L37.7711 22.327C37.7418 22.2902 37.7207 22.2788 37.7283 22.2837C37.7302 22.2849 37.7336 22.2869 37.7386 22.2895M37.7397 22.2901C37.7425 22.2938 37.7438 22.2955 37.7438 22.2955C37.7438 22.2955 37.742 22.2933 37.7386 22.2895M89.1265 60.565L89.1279 60.5646C95.5504 58.8339 101.308 57.2743 104.499 56.4098L104.518 56.4046C106.046 55.9908 106.987 55.7359 107.119 55.7012C107.393 55.6255 107.508 55.53 107.548 55.4791C107.572 55.449 107.598 55.4045 107.575 55.2849C107.568 55.2481 107.519 55.1521 107.431 55.074C107.388 55.0751 107.314 55.0802 107.199 55.0964C106.825 55.1487 106.163 55.2906 104.937 55.5965C102.498 56.2048 97.9425 57.4315 89.2765 59.7765L89.2764 59.7765C83.0662 61.4561 78.4942 62.6738 75.4627 63.4553C73.9478 63.8459 72.813 64.1287 72.0494 64.3061C71.6692 64.3944 71.3722 64.4586 71.1634 64.4968C71.0617 64.5154 70.9649 64.5308 70.884 64.5383C70.847 64.5417 70.7874 64.5461 70.7223 64.542C70.6915 64.54 70.6303 64.5347 70.5585 64.5135C70.5136 64.5002 70.3556 64.4509 70.2274 64.2963C70.1465 64.2007 70.0251 64.0218 69.9192 63.8641C69.7891 63.6707 69.6303 63.4293 69.4739 63.1917L69.4732 63.1906C68.5092 61.7311 66.6621 60.6119 64.8171 60.3913L64.817 60.3913C64.3847 60.3396 63.7583 60.3688 63.1021 60.4693C62.45 60.5692 61.8281 60.7304 61.4014 60.9111C58.0794 62.3753 56.5502 66.2943 58.0172 69.659C58.9356 71.75 61.2641 73.3854 63.6224 73.5502L63.6259 73.5504C67.2972 73.8268 70.5866 70.8265 70.6632 67.1353C70.6632 67.1352 70.6633 67.1351 70.6633 67.135L89.1265 60.565ZM89.1265 60.565C85.1403 61.6481 81.4341 62.6532 78.4562 63.4608L77.8871 63.6151C74.0958 64.6433 71.5787 65.3259 71.4306 65.3727L89.1265 60.565ZM87.2544 20.7062C87.2498 20.7122 87.2505 20.7107 87.2559 20.7043C87.2553 20.7051 87.2548 20.7057 87.2544 20.7062ZM63.2363 6.60705C63.2369 6.60599 63.2379 6.60433 63.2396 6.60212C63.2383 6.60406 63.237 6.606 63.2357 6.60795C63.2359 6.60772 63.2361 6.60742 63.2363 6.60705ZM112.926 61.6073C112.924 61.608 112.923 61.6084 112.923 61.6084C112.923 61.6083 112.924 61.608 112.926 61.6073ZM33.9961 14.8515C34.0089 14.8477 34.0195 14.8449 34.0283 14.8429C34.0376 14.8407 34.0418 14.8402 34.0418 14.8402C34.0418 14.8401 34.0258 14.842 34.0006 14.8376C33.9738 14.8329 33.9582 14.8249 33.9576 14.8247C33.9573 14.8245 33.9601 14.826 33.9663 14.83C33.9742 14.8353 33.984 14.8422 33.9961 14.8515ZM33.6196 15.1856C33.6066 15.1535 33.5997 15.134 33.5968 15.1251C33.6014 15.1435 33.6102 15.1875 33.6102 15.2448C33.6102 15.2308 33.6128 15.2104 33.6196 15.1856ZM17.2693 38.2394L17.2716 38.2407C18.2495 38.7963 19.1583 39.3299 19.8335 39.7379C20.1716 39.9422 20.4484 40.1133 20.6449 40.2392C20.7334 40.2959 20.8022 40.3412 20.8515 40.3749C20.8886 40.4792 20.8651 40.6401 20.7428 40.7364L20.7383 40.7401C20.6854 40.7825 20.6247 40.8223 20.5677 40.8541C20.5363 40.839 20.501 40.8216 20.4616 40.802C20.2585 40.7008 19.9767 40.553 19.6384 40.3708C18.9632 40.0073 18.0809 39.5169 17.1911 39.0125C16.3014 38.5083 15.4078 37.9922 14.7103 37.5779C14.3611 37.3705 14.0641 37.1904 13.8423 37.0508C13.7312 36.9808 13.6425 36.9233 13.5771 36.8789C13.515 36.8368 13.4925 36.8188 13.4923 36.8191C13.4922 36.8191 13.4933 36.8201 13.4952 36.8218L13.4919 36.8188C13.3753 36.7146 13.3512 36.576 13.3918 36.4548C13.426 36.353 13.4894 36.2996 13.5699 36.2863C13.6116 36.3 13.6747 36.3238 13.7629 36.3615C13.9471 36.44 14.2031 36.5625 14.5333 36.7317C15.1916 37.0692 16.1096 37.5744 17.2693 38.2394ZM13.5329 36.2755C13.5328 36.2754 13.5343 36.2757 13.5374 36.2765C13.5345 36.2759 13.533 36.2755 13.5329 36.2755ZM15.0111 65.4377C15.0051 65.4385 14.9981 65.4394 14.9902 65.4405C14.9299 65.4481 14.8409 65.4565 14.7217 65.465C14.4848 65.4817 14.1573 65.4968 13.7591 65.5094C12.9643 65.5345 11.9096 65.5489 10.78 65.5489C8.8087 65.5489 7.81275 65.5449 7.2582 65.507C6.98161 65.4881 6.86492 65.4632 6.81123 65.446C6.78382 65.4372 6.7719 65.433 6.70827 65.3839C6.58216 65.2855 6.55008 65.0712 6.63561 64.9299C6.70329 64.9165 6.83337 64.8994 7.07785 64.8859C7.67957 64.8528 8.76827 64.8489 10.8378 64.8489C12.8686 64.8489 13.9596 64.8564 14.5712 64.8896C14.8418 64.9043 14.9851 64.9246 15.0534 64.9373C15.1014 65.0242 15.1219 65.1372 15.1023 65.2519C15.0822 65.3696 15.0358 65.4194 15.0111 65.4377ZM18.5949 91.0505L18.5971 91.0492C19.7487 90.3847 20.6777 89.8721 21.3471 89.5274C21.6829 89.3544 21.9452 89.2279 22.1337 89.1463C22.2144 89.1113 22.2748 89.0875 22.3174 89.0725C22.34 89.0784 22.3666 89.0872 22.3948 89.0989C22.4274 89.1124 22.456 89.1274 22.4782 89.1412C22.5016 89.1558 22.5085 89.1634 22.5041 89.1591C22.6076 89.2629 22.6244 89.3838 22.532 89.5095C22.5245 89.5153 22.5143 89.523 22.501 89.5326C22.4487 89.5708 22.3717 89.6235 22.2688 89.6908C22.0643 89.8247 21.7796 90.0024 21.4327 90.2128C20.7403 90.633 19.8173 91.1737 18.8307 91.7374C17.8434 92.2999 17.0978 92.7205 16.5239 93.0237C15.941 93.3316 15.574 93.4973 15.3327 93.5715C15.2685 93.5913 15.2226 93.6016 15.1913 93.607C15.1715 93.5765 15.1409 93.5257 15.0983 93.4442C15.0647 93.3791 15.0461 93.336 15.036 93.3097C15.0589 93.2799 15.1048 93.2279 15.1927 93.151C15.6298 92.7694 16.5969 92.1931 18.5949 91.0505ZM22.3709 89.0557C22.3708 89.0557 22.3689 89.0563 22.3654 89.057C22.3692 89.0559 22.371 89.0556 22.3709 89.0557ZM15.1357 93.6122C15.1358 93.6122 15.1371 93.6122 15.1394 93.6125L15.1357 93.6122ZM114.522 90.6151L114.522 90.6151L114.514 90.6217C114.462 90.6634 114.406 90.7013 114.355 90.7318C114.331 90.7203 114.305 90.7075 114.277 90.6936C114.086 90.5982 113.82 90.4587 113.499 90.2862C112.859 89.9421 112.017 89.4759 111.159 88.9915C110.301 88.5071 109.429 88.0063 108.728 87.593C108.007 87.1679 107.514 86.8623 107.372 86.7544L107.372 86.7543L107.364 86.7484C107.157 86.5953 107.136 86.4176 107.16 86.3207C107.172 86.2695 107.197 86.2349 107.224 86.213C107.245 86.1965 107.285 86.1732 107.359 86.1665C107.398 86.1788 107.459 86.2012 107.546 86.2376C107.722 86.3118 107.969 86.4282 108.29 86.5911C108.93 86.9156 109.829 87.4058 110.988 88.0632C111.938 88.6124 112.833 89.139 113.506 89.5439C113.842 89.7468 114.121 89.9175 114.321 90.0444C114.422 90.1081 114.499 90.1584 114.553 90.1949C114.57 90.2063 114.582 90.215 114.591 90.2211C114.665 90.3175 114.667 90.5031 114.522 90.6151ZM107.329 86.158C107.33 86.1582 107.331 86.1584 107.332 86.1587C107.328 86.1579 107.326 86.1575 107.329 86.158Z" fill="black" stroke="#E0E0E0" stroke-width="1.33"/>
<path d="M42.9864 4.17191L42.9869 4.17176C48.7511 2.19092 53.6366 1.21494 60.3776 0.696784L60.3778 0.696768C60.9952 0.649106 63.0808 0.658445 65.2385 0.702227C67.3925 0.745931 69.523 0.821938 70.2248 0.897853C83.0479 2.29098 94.1695 6.85403 104.053 14.7776L104.055 14.7792C106.243 16.5187 111.166 21.372 112.914 23.4971C119.765 31.8368 124.469 41.8977 126.341 52.2666L126.341 52.2671C128.157 62.2826 127.47 72.9454 124.398 82.4677L124.398 82.4678C122.638 87.922 120.352 92.7407 117.162 97.6359L117.16 97.6394L116.07 99.335H11.9487L10.8458 97.6502C10.8457 97.65 10.8455 97.6498 10.8454 97.6495C-2.2508 77.5621 -2.75111 51.9384 9.57307 31.3488C12.3172 26.7734 14.9416 23.4369 19.0247 19.3249C22.1081 16.245 24.5491 14.169 27.5892 12.0491L27.591 12.0478C32.2078 8.80611 37.8449 5.93484 42.9864 4.17191Z" stroke="#E0E0E0" stroke-width="1.33"/>
<circle cx="64" cy="67" r="6.4" fill="#171717" stroke="#E0E0E0" stroke-width="1.2"/>
</svg>
