<svg width="36" height="36" viewBox="0 0 36 36" fill="none" xmlns="http://www.w3.org/2000/svg">
<path d="M10.4006 22.9363C10.4445 22.8699 10.3968 22.7812 10.3171 22.7812C9.61476 22.7812 8.94983 22.7812 8.28211 22.7812C8.25864 22.7813 8.23551 22.7864 8.21463 22.796C8.19375 22.8057 8.17571 22.8196 8.16197 22.8368C7.85115 23.2859 7.56907 23.7842 7.51285 24.4088C7.45979 24.9064 7.57179 25.407 7.8347 25.8474C8.10474 26.2895 8.7353 26.6697 9.00975 27.1079C9.3867 27.7097 9.39111 28.2748 9.02187 28.8925C8.80143 29.2603 8.2292 29.5994 8.00325 29.9622C7.90063 30.1228 7.81029 30.3028 7.70182 30.5076C7.66626 30.5747 7.71468 30.6562 7.79066 30.6562H8.11347C8.64694 30.6562 9.17931 30.6562 9.71167 30.6562C9.74755 30.6561 9.78289 30.6485 9.81486 30.6338C9.84683 30.6192 9.89574 30.572 9.89574 30.572C9.89574 30.572 10.781 29.7253 11.0477 29.29C11.5658 28.4493 11.5691 27.6155 11.0477 26.7807C10.7788 26.3475 10.1493 25.9772 9.8837 25.54C9.71141 25.2651 9.62089 24.9549 9.62089 24.6393C9.62089 24.3237 9.71141 24.0135 9.8837 23.7386C10.042 23.4797 10.2161 23.2154 10.4006 22.9363Z" fill="#808080"/>
<path d="M27.4631 22.9363C27.507 22.8699 27.4593 22.7812 27.3796 22.7812C26.6773 22.7812 26.0123 22.7812 25.3446 22.7812C25.3211 22.7813 25.298 22.7864 25.2771 22.796C25.2563 22.8057 25.2382 22.8196 25.2245 22.8368C24.9136 23.2859 24.6316 23.7842 24.5754 24.4088C24.5223 24.9064 24.6343 25.407 24.8972 25.8474C25.1672 26.2895 25.7978 26.6697 26.0722 27.1079C26.4492 27.7097 26.4536 28.2748 26.0844 28.8925C25.8639 29.2603 25.2917 29.5994 25.0658 29.9622C24.9631 30.1228 24.8728 30.3028 24.7643 30.5076C24.7288 30.5747 24.7772 30.6562 24.8532 30.6562H25.176C25.7094 30.6562 26.2418 30.6562 26.7742 30.6562C26.81 30.6561 26.8454 30.6485 26.8774 30.6338C26.9093 30.6192 26.9582 30.572 26.9582 30.572C26.9582 30.572 27.8435 29.7253 28.1102 29.29C28.6283 28.4493 28.6316 27.6155 28.1102 26.7807C27.8413 26.3475 27.2118 25.9772 26.9462 25.54C26.7739 25.2651 26.6834 24.9549 26.6834 24.6393C26.6834 24.3237 26.7739 24.0135 26.9462 23.7386C27.1045 23.4797 27.2786 23.2154 27.4631 22.9363Z" fill="#808080"/>
<path d="M25.1216 20.5273C25.1216 20.5273 24.2922 20.5188 23.0608 20.5876C18.9564 20.8163 14.969 20.7865 11.0987 20.4981C10.5283 20.4556 10.4541 20.4839 10.4541 20.4839C10.4541 20.4839 10.4245 21.1729 10.353 21.3611C10.2358 21.6691 10.0334 21.874 9.74572 21.9758C9.63094 22.0165 9.45704 22.0356 9.22403 22.0331C8.99171 22.0309 8.73449 22.0565 8.5255 21.984C8.18946 21.8669 7.97218 21.6287 7.87365 21.2694C7.7217 20.7158 7.65118 20.0694 7.60762 19.4246C7.51427 18.0576 7.44323 16.6629 7.56354 15.2954C7.60433 14.835 7.66311 14.5082 7.73985 14.3151C8.02248 13.6011 8.95229 13.1713 9.59118 12.9116C9.60743 12.9051 9.60743 12.8982 9.59118 12.8909C9.42316 12.8174 9.3108 12.7816 9.25411 12.7834C8.7682 12.7976 7.58687 12.9863 7.75437 12.0661C7.85654 11.5065 8.79413 11.441 9.2038 11.4497C9.2211 11.4501 9.23745 11.4573 9.24944 11.4699C9.42161 11.6521 9.50043 12.1065 9.55436 12.3552C9.55581 12.362 9.55871 12.3684 9.56284 12.3739C9.56696 12.3793 9.57222 12.3838 9.57822 12.3869L9.87122 12.5401C9.89369 12.5522 9.90855 12.5452 9.91581 12.5194C10.3452 10.955 11.3621 9.3622 13.0034 9.05346C13.1963 9.01746 13.5409 8.99964 14.037 9.00001C16.5092 9.00182 18.9813 9.00182 21.4532 9.00001C21.9379 8.99964 22.2824 9.02073 22.4867 9.06328C24.0793 9.39493 25.1242 11.0035 25.5966 12.5145C25.6021 12.5323 25.6136 12.5389 25.6308 12.5341C25.7895 12.4889 25.9726 12.4049 26.013 12.238C26.0696 12.0039 26.1142 11.729 26.2293 11.519C26.241 11.4976 26.2578 11.4798 26.2781 11.4675C26.2984 11.4551 26.3215 11.4486 26.3449 11.4487C26.7396 11.4481 27.8597 11.5283 27.7689 12.2134C27.7358 12.4671 27.562 12.7338 27.3001 12.7491C27.0163 12.7654 26.6576 12.7756 26.2241 12.7796C26.0865 12.7807 25.9513 12.818 25.8186 12.8914C25.8016 12.9013 25.8023 12.9096 25.8206 12.9165C26.2694 13.0853 26.6979 13.318 27.1062 13.6147C27.4127 13.8373 27.6222 14.1133 27.7155 14.4908C27.8581 15.0657 27.923 15.6761 27.952 16.3241C27.9997 17.3816 28.0001 18.4386 27.953 19.495C27.9261 20.0917 27.8426 20.7305 27.7046 21.2541C27.6154 21.5938 27.4224 21.8269 27.1254 21.9534C27.0051 22.0047 26.8333 22.0313 26.6099 22.0331C26.1572 22.0364 25.8243 22.0822 25.4924 21.8051C25.1527 21.5209 25.1558 21.1412 25.1216 20.7267C25.1199 20.7056 25.1216 20.5273 25.1216 20.5273ZM22.6744 9.71294C22.4041 9.58712 22.0748 9.52421 21.6865 9.52421C18.9813 9.52312 16.276 9.51875 13.5708 9.51112C12.3365 9.50784 11.5799 10.6146 11.162 11.6898C11.0702 11.9259 11.0567 12.1665 11.2755 12.3067C11.3471 12.3525 11.4551 12.3723 11.5996 12.3661C14.7578 12.2303 17.821 12.2352 21.0902 12.287C22.0564 12.3023 22.9351 12.3309 23.7261 12.3727C23.8582 12.3796 23.9576 12.3678 24.0243 12.3372C24.2955 12.2129 24.2815 11.9385 24.1902 11.6668C23.9289 10.8884 23.4098 10.0555 22.6744 9.71294ZM23.9833 15.9827C23.9833 15.9827 25.8129 16.1027 26.0727 15.9952C26.3283 15.8888 26.6701 15.7901 26.7873 15.5337C26.9532 15.1699 26.8666 14.7166 26.8308 14.3271C26.8291 14.3089 26.8198 14.3 26.8028 14.3004C25.5276 14.3091 23.8023 14.6004 22.8611 15.6123C22.8582 15.6155 22.8559 15.6193 22.8545 15.6235C22.853 15.6277 22.8524 15.6321 22.8526 15.6365C22.8529 15.6409 22.854 15.6452 22.8559 15.6491C22.8578 15.653 22.8605 15.6564 22.8637 15.6592C23.1866 15.9363 23.9833 15.9827 23.9833 15.9827ZM9.43457 16.0225C9.43457 16.0225 10.4122 16.118 11.1039 16.1443C11.362 16.1541 11.7333 16.0517 11.8667 16.0274C12.0942 15.9863 12.3002 15.8828 12.4849 15.717C12.4994 15.7039 12.5002 15.6897 12.4874 15.6745C12.1524 15.2708 11.5618 14.9582 11.1039 14.7941C10.2904 14.5031 9.43803 14.3593 8.54676 14.3626C8.53052 14.3626 8.52222 14.3711 8.52187 14.3882C8.51565 14.8088 8.45964 15.3063 8.65878 15.603C8.79879 15.8125 9.43457 16.0225 9.43457 16.0225Z" fill="#808080"/>
</svg>
