<svg width="40" height="40" viewBox="0 0 40 40" fill="none" xmlns="http://www.w3.org/2000/svg">
<path d="M34.8525 13.4144C34.705 13.235 30.87 8.96399 24.7488 10.0766C19.2913 11.0456 16.5626 7.09768 16.452 6.91823C16.3413 6.73877 16.157 6.66699 15.9357 6.66699C15.7145 6.70288 15.567 6.81055 15.4932 6.99001L9.9613 20.2695L5.02007 32.6159C4.90944 32.903 5.27888 33.1901 5.57387 33.2978C5.64762 33.3337 5.72137 33.3337 5.75825 33.3337C5.9795 33.3337 6.20075 33.1901 6.2745 32.9748L10.8839 21.4898C12.1376 22.7818 15.1613 25.2583 19.8444 24.2892C25.3019 23.1766 28.7313 27.4117 28.8419 27.5912C28.9525 27.7347 29.1738 27.8424 29.3582 27.8065C29.5425 27.7706 29.7269 27.663 29.8006 27.4476L34.9631 13.9528C35.0369 13.7733 35 13.558 34.8525 13.4144ZM27.035 19.5876C25.7075 19.0851 24.1219 18.7621 22.3519 18.9057L23.9744 14.85C25.7813 14.6347 27.3669 14.9577 28.6944 15.4602L27.035 19.5876ZM18.0376 14.4552L16.4151 18.6185C14.6082 17.9007 13.4651 16.7163 12.9857 16.1421L14.6082 12.0865C15.2351 12.7325 16.3782 13.7733 18.0376 14.4552ZM24.8963 11.1174L23.5688 14.3835C23.4213 14.4193 23.3107 14.4193 23.1632 14.4552C21.4301 14.7783 19.9551 14.5988 18.7382 14.204L20.0657 10.7944C21.3932 11.2251 23.0157 11.4404 24.8963 11.1174ZM15.272 23.069L16.747 19.3005C18.0376 19.7311 19.5863 19.9106 21.4301 19.5876H21.4669L19.9919 23.2125C19.8444 23.2484 19.7338 23.2484 19.5863 23.2843C17.9269 23.6073 16.4888 23.4638 15.272 23.069ZM29.1 26.2273C28.4732 25.5813 27.3669 24.684 25.8919 23.9662L27.3669 20.2695C28.9894 20.9873 30.1325 21.9564 30.575 22.387L29.1 26.2273ZM32.5294 17.2188C31.9394 16.6805 30.87 15.855 29.395 15.2089L30.7225 11.8352C32.3081 12.553 33.3775 13.4862 33.7831 13.881L32.5294 17.2188Z" fill="#A2A2A2" stroke="#A2A2A2" stroke-width="0.4"/>
</svg>
