<svg width="40" height="40" viewBox="0 0 40 40" fill="none" xmlns="http://www.w3.org/2000/svg">
<path d="M25.0775 34.6409C24.3637 34.8788 23.6163 35.0001 22.8639 35.0001H12.1248C10.2839 35.0001 9.2558 34.1328 9.2558 32.2918V31.4585C9.2558 29.6175 10.91 28.6849 12.7498 28.7501C14.3041 28.8053 22.5995 30.9976 25.1369 31.6767C25.573 31.7934 25.8748 32.1886 25.8748 32.6401V33.6544C25.8748 34.0848 25.5994 34.4669 25.1911 34.6031L25.0775 34.6409Z" fill="#A2A2A2"/>
<path d="M29 4.3633C29 3.73431 29.5911 3.27278 30.2013 3.42533C30.9826 3.62066 31.5611 4.27978 31.6533 5.07983L31.7312 5.75586C31.7528 5.94306 31.7779 6.1295 31.8025 6.31634C31.9306 7.29338 32.302 10.6169 31.7639 12.8591C31.1269 15.513 27.9522 28.7411 27.9522 28.7411C27.9522 28.7411 27.9522 28.7411 27.9522 28.7411C27.8778 29.0512 27.5061 29.157 27.2788 28.9632C27.2345 28.9255 27.1929 28.8838 27.1437 28.8528L26.9154 28.7092C25.0381 27.5282 23.4915 25.7081 23.3861 23.4928C23.2675 21.0035 24.0972 19.0973 25.875 16.875L27.936 13.5774C28.6313 12.4649 29 11.1794 29 9.86743V4.3633Z" fill="#A2A2A2"/>
<path d="M16.7497 8.66602C16.7497 8.66602 20.1249 11.9387 16.7501 14.666C13.3753 17.3933 16.7497 20.666 16.7497 20.666" stroke="#A2A2A2" stroke-width="2.4" stroke-linecap="round" stroke-linejoin="round"/>
<path d="M11.7497 8.66602C11.7497 8.66602 15.1249 11.9387 11.7501 14.666C8.37526 17.3933 11.7497 20.666 11.7497 20.666" stroke="#A2A2A2" stroke-width="2.4" stroke-linecap="round" stroke-linejoin="round"/>
<path d="M6.74973 8.66602C6.74973 8.66602 10.1249 11.9387 6.7501 14.666C3.37526 17.3933 6.74972 20.666 6.74972 20.666" stroke="#A2A2A2" stroke-width="2.4" stroke-linecap="round" stroke-linejoin="round"/>
</svg>
