<svg width="40" height="40" viewBox="0 0 40 40" fill="none" xmlns="http://www.w3.org/2000/svg">
<path d="M8.95345 20.728C8.20719 20.8065 7.48749 20.875 7.25 20.875V23.5H8.12605C10.0061 23.5 11.8516 24.011 13.4638 24.9783C16.5882 26.8529 18.5 30.2309 18.5 33.8747V34.75H21.5V33.8747C21.5 30.2309 23.4118 26.8529 26.5362 24.9783C28.1484 24.011 29.9939 23.5 31.874 23.5H32.75V20.875L31.1485 20.7148C29.7291 20.5729 28.3547 20.1486 27.0188 19.6485C25.3171 19.0116 22.715 18.25 20 18.25C17.2355 18.25 14.5879 19.0396 12.8889 19.6833C11.6158 20.1656 10.3074 20.5856 8.95345 20.728Z" fill="#A2A2A2"/>
<path fill-rule="evenodd" clip-rule="evenodd" d="M35 22C35 30.2843 28.2843 37 20 37C11.7157 37 5 30.2843 5 22C5 17.438 7.03651 13.3517 10.25 10.6006L11.9393 12.75C9.36101 14.9998 7.73193 18.31 7.73193 22.0006C7.73193 28.7787 13.2266 34.2734 20.0047 34.2734C26.7827 34.2734 32.2774 28.7787 32.2774 22.0006C32.2774 18.31 30.6483 14.9998 28.07 12.75L29.75 10.6006C32.9635 13.3517 35 17.438 35 22Z" fill="#A2A2A2"/>
<path d="M14.8338 3.33301C14.8338 3.33301 11.4586 6.60574 14.8334 9.33301C18.2082 12.0603 14.8338 15.333 14.8338 15.333" stroke="#A2A2A2" stroke-width="2.4" stroke-linecap="round" stroke-linejoin="round"/>
<path d="M19.8338 3.33301C19.8338 3.33301 16.4584 6.60574 19.8334 9.33301C23.2084 12.0603 19.8338 15.333 19.8338 15.333" stroke="#A2A2A2" stroke-width="2.4" stroke-linecap="round" stroke-linejoin="round"/>
<path d="M24.8338 3.33301C24.8338 3.33301 21.4586 6.60574 24.8334 9.33301C28.2082 12.0603 24.8338 15.333 24.8338 15.333" stroke="#A2A2A2" stroke-width="2.4" stroke-linecap="round" stroke-linejoin="round"/>
</svg>
