<svg width="40" height="40" viewBox="0 0 40 40" fill="none" xmlns="http://www.w3.org/2000/svg">
<path d="M12.4767 26.5392C12.4767 26.5392 24.574 27.505 26.2919 26.6402C27.9824 25.7841 30.2421 24.9895 31.017 22.9261C32.1143 19.9979 31.5417 16.3497 31.3051 13.2152C31.2936 13.0689 31.2319 12.9972 31.1199 13.0001C22.6881 13.0703 11.28 15.4146 5.05646 23.5583C5.03716 23.5843 5.02221 23.615 5.01255 23.6486C5.00289 23.6822 4.99873 23.7178 5.00034 23.7533C5.00195 23.7888 5.00929 23.8234 5.0219 23.8548C5.03452 23.8862 5.05212 23.9138 5.0736 23.9358C7.20869 26.166 12.4767 26.5392 12.4767 26.5392Z" fill="#A2A2A2"/>
</svg>
