<svg width="227" height="129" viewBox="0 0 227 129" fill="none" xmlns="http://www.w3.org/2000/svg">
<path d="M1 32L11 40.5V88.5L1 97V123.5C1 126.5 3 128 6 128H180C183 128 185 126.5 185 123.5V97L175 88.5V40.5L185 32V6.5C185 3.5 182 1 179 1H7C4 1 1 3.5 1 6.5V32Z" fill="#171717" stroke="#E0E0E0" stroke-width="1.2"/>
<path d="M45.0785 60.8593H39V60.1855H51.8832V60.8593H45.8047V68.8296H45.0785V60.8593Z" fill="white"/>
<path d="M65.5988 64.6983H54.6246V68.1559H66.1376V68.8296H53.8984V60.1855H66.0439V60.8593H54.6246V64.0627H65.5988V64.6983Z" fill="white"/>
<path d="M79.9446 64.9322C79.2419 64.7712 77.6608 64.6907 75.2012 64.6907C72.1951 64.6907 70.3173 64.5551 69.5677 64.2839C68.8416 64.0212 68.4785 63.4703 68.4785 62.6314C68.4785 61.75 68.9197 61.1186 69.802 60.7373C70.9654 60.2457 72.6753 60 74.9319 60C76.0328 60 77.1571 60.0678 78.3049 60.2034C79.4527 60.339 80.3897 60.4873 81.1158 60.6483L81.0104 61.2712C79.0584 60.8475 77.0322 60.6356 74.9319 60.6356C72.7847 60.6356 71.1996 60.8475 70.1768 61.2712C69.5365 61.5339 69.2164 61.9873 69.2164 62.6314C69.2164 62.911 69.2788 63.142 69.4038 63.3242C69.5287 63.5063 69.7473 63.6441 70.0596 63.7373C70.739 63.9492 72.3747 64.0551 74.967 64.0551C77.7701 64.0551 79.5581 64.161 80.3311 64.3729C81.3461 64.6441 81.8537 65.2712 81.8537 66.2542C81.8537 67.1949 81.4789 67.8559 80.7293 68.2373C79.7455 68.7458 77.9809 69 75.4355 69C74.0847 69 72.8061 68.9301 71.5998 68.7903C70.3934 68.6504 69.4272 68.4915 68.7011 68.3136L68.8064 67.6653C70.8599 68.1314 73.0696 68.3644 75.4355 68.3644C77.7388 68.3644 79.3473 68.1483 80.2608 67.7161C80.8308 67.4534 81.1158 66.9661 81.1158 66.2542C81.1158 65.5509 80.7254 65.1102 79.9446 64.9322Z" fill="white"/>
<path d="M85.3506 60.1855V68.1559H95.6689V68.8296H84.6245V60.1855H85.3506Z" fill="white"/>
<path d="M109.741 67.7797C108.531 68.5932 106.688 69 104.213 69C101.738 69 99.8948 68.5932 98.6846 67.7797C98.1537 67.4237 97.7535 66.9873 97.4841 66.4703C97.2147 65.9534 97.0801 65.2966 97.0801 64.5C97.0801 63.0339 97.6149 61.9407 98.6846 61.2203C99.9183 60.4068 101.761 60 104.213 60C106.664 60 108.507 60.4068 109.741 61.2203C110.818 61.9491 111.357 63.0424 111.357 64.5C111.357 65.2966 111.22 65.9534 110.947 66.4703C110.674 66.9873 110.272 67.4237 109.741 67.7797ZM104.213 68.3263C106.469 68.3263 108.14 67.9703 109.225 67.2585C110.155 66.6483 110.619 65.7288 110.619 64.5C110.619 63.2627 110.162 62.3432 109.249 61.7415C108.164 61.0297 106.485 60.6737 104.213 60.6737C101.941 60.6737 100.262 61.0297 99.1765 61.7415C98.2708 62.3517 97.8179 63.2712 97.8179 64.5C97.8179 65.7458 98.2786 66.6652 99.2 67.2585C99.6919 67.5805 100.373 67.839 101.244 68.0339C102.114 68.2288 103.104 68.3263 104.213 68.3263Z" fill="white"/>
<path d="M127.238 60.8263L127.086 61.4746C124.884 60.9407 122.862 60.6737 121.019 60.6737C119.778 60.6737 118.7 60.786 117.787 61.0106C116.873 61.2352 116.174 61.5381 115.69 61.9195C114.894 62.5382 114.496 63.4491 114.496 64.6525C114.496 65.2881 114.621 65.8411 114.87 66.3114C115.12 66.7818 115.464 67.1526 115.901 67.4237C116.893 68.0254 118.599 68.3263 121.019 68.3263C123.112 68.3263 125.033 68.0339 126.782 67.4492V64.9322H118.466V64.2966H127.508V67.9195C125.446 68.6398 123.284 69 121.019 69C119.606 69 118.464 68.9174 117.594 68.7521C116.723 68.5869 116.003 68.3305 115.433 67.9831C114.917 67.6695 114.509 67.2267 114.209 66.6547C113.908 66.0826 113.758 65.4153 113.758 64.6525C113.758 63.2203 114.258 62.1271 115.257 61.3729C115.788 60.9661 116.559 60.6356 117.57 60.3814C118.581 60.1271 119.731 60 121.019 60C123.19 60 125.263 60.2754 127.238 60.8263Z" fill="white"/>
<path d="M131.427 60.1855H130.701V68.8296H131.427V60.1855Z" fill="white"/>
<path d="M147.645 61.0297C147.645 61.072 147.594 61.2839 147.492 61.6653C145.533 61.0042 143.514 60.6737 141.437 60.6737C139.181 60.6737 137.537 61.0509 136.507 61.8051C135.624 62.4407 135.183 63.3856 135.183 64.6398C135.183 65.8941 135.616 66.7924 136.483 67.3347C137.529 67.9958 139.247 68.3263 141.637 68.3263C142.659 68.3263 143.725 68.2204 144.834 68.0085C145.943 67.7966 146.872 67.5551 147.621 67.2839L147.762 67.9322C147.012 68.2034 146.075 68.4492 144.951 68.6695C143.827 68.8898 142.722 69 141.637 69C139.083 69 137.233 68.6441 136.085 67.9322C135.577 67.6186 135.177 67.1758 134.885 66.6038C134.592 66.0318 134.445 65.3771 134.445 64.6398C134.445 63.1737 134.98 62.0551 136.05 61.2839C137.229 60.428 139.025 60 141.437 60C143.694 60 145.763 60.3432 147.645 61.0297Z" fill="white"/>
<path d="M175 55.5H226.5M175 73H226.5" stroke="url(#paint0_linear_6703_9525)" stroke-width="1.2"/>
<defs>
<linearGradient id="paint0_linear_6703_9525" x1="175" y1="64.25" x2="226.5" y2="64.25" gradientUnits="userSpaceOnUse">
<stop stop-color="#E0E0E0"/>
<stop offset="0.711904" stop-color="#171717"/>
</linearGradient>
</defs>
</svg>
