<svg width="36" height="36" viewBox="0 0 36 36" fill="none" xmlns="http://www.w3.org/2000/svg">
<path d="M14.3019 28.216C13.7858 28.8922 13.1724 29.4662 12.4616 29.9381C12.3916 29.9843 12.3077 30.0058 12.2245 29.9987C12.1413 29.9916 12.064 29.9564 12.0059 29.8993C11.7729 29.6748 11.5045 29.5195 11.2007 29.4331C11.0252 29.3821 10.8774 29.2655 10.7896 29.1087C10.7018 28.9518 10.681 28.7675 10.7318 28.5958L11.36 26.4767C11.4042 26.3213 11.3526 26.2062 11.2052 26.1314C10.3735 25.717 9.80425 25.3976 9.49752 25.1732C8.43282 24.3877 8.56554 23.9331 9.89568 23.8093C11.0282 23.7058 12.3067 23.6626 13.1959 22.8426C13.8418 22.2513 14.8549 21.5909 14.5453 20.5766C13.9923 18.7855 12.1784 19.7264 10.9707 20.0544C10.8291 20.0918 10.7097 20.1652 10.6124 20.2745L8.46231 22.7433C8.39776 22.8176 8.30975 22.869 8.21209 22.8893C8.11442 22.9096 8.0126 22.8977 7.92259 22.8555C7.51559 22.6598 7.33863 22.2901 7.39172 21.7463C7.4507 21.1593 7.49642 20.5651 7.52886 19.9638C7.53476 19.8256 7.47135 19.7393 7.33863 19.7048L4.99836 19.0703C4.90181 19.0445 4.81682 18.9881 4.75675 18.9099C4.69669 18.8318 4.66496 18.7364 4.66656 18.6387L4.67983 17.3655C4.6797 17.2542 4.71727 17.1458 4.78678 17.0569C4.85628 16.9681 4.95391 16.9036 5.06472 16.8735L7.23688 16.2865C7.41384 16.2376 7.50232 16.1225 7.50232 15.9412L7.48462 14.2234C7.47282 12.7704 7.94619 12.5992 8.90471 13.7098L10.577 15.6477C10.6743 15.7599 10.7952 15.8405 10.9397 15.8894C11.9351 16.2131 14.5806 17.1627 14.6293 15.1643C14.6514 14.258 13.8065 13.6796 13.1606 13.0667C11.9971 11.9618 9.89125 12.6049 9.08167 11.923C8.62747 11.5432 8.65844 11.2123 9.17457 10.9303L11.2096 9.81676C11.3482 9.73907 11.3954 9.62542 11.3512 9.47579L10.7141 7.33504C10.6728 7.1998 10.7008 7.07752 10.7982 6.96818C11.158 6.56247 11.6077 6.25171 12.1475 6.03591C12.2979 5.97549 12.4409 5.99131 12.5766 6.08339C13.2225 6.51787 13.7652 7.05594 14.2046 7.69759C14.2606 7.78141 14.3476 7.84103 14.4479 7.86429C14.5482 7.88755 14.6542 7.87269 14.7443 7.82275L16.3016 6.9466C17.4193 6.31645 17.8028 6.60707 17.4518 7.81844C17.151 8.84997 16.4387 9.78223 16.5891 10.9519C16.6923 11.7518 16.8781 12.3762 17.1465 12.825C17.6376 13.6494 19.1993 13.8523 19.6063 12.8164C19.8864 12.1057 20.1091 11.3763 20.2743 10.6282C20.3038 10.4901 20.2934 10.3563 20.2433 10.2268L19.3098 7.79686C19.2526 7.65018 19.2439 7.48968 19.2849 7.33792C19.326 7.18616 19.4147 7.05076 19.5387 6.95074C19.6627 6.85073 19.8157 6.79113 19.9762 6.78032C20.1367 6.76952 20.2966 6.80804 20.4335 6.89049L21.9288 7.78391C22.0308 7.84539 22.1516 7.87002 22.2698 7.85343C22.3879 7.83685 22.4959 7.78013 22.5747 7.69327L23.8886 6.2474C23.9534 6.1757 24.0322 6.11744 24.1205 6.0761C24.2088 6.03475 24.3047 6.01116 24.4026 6.00673C24.5004 6.0023 24.5981 6.01712 24.69 6.05031C24.7818 6.0835 24.8659 6.13438 24.9371 6.19992C25.1052 6.3553 25.2925 6.45888 25.499 6.51068C25.5944 6.53572 25.6837 6.57896 25.7618 6.63787C25.8399 6.69677 25.9052 6.77017 25.9538 6.85376C26.0024 6.93735 26.0334 7.02945 26.0449 7.12469C26.0565 7.21993 26.0483 7.31638 26.021 7.40841L25.4193 9.45421C25.3751 9.60671 25.4223 9.72181 25.5609 9.7995L27.7994 11.0684C28.0236 11.195 28.0708 11.3691 27.941 11.5907C27.7906 11.8381 27.4971 11.992 27.0606 12.0525C25.8263 12.2251 24.3487 12.333 23.4197 13.2351C22.9198 13.7228 22.212 14.2364 22.15 14.9442C21.9554 17.1972 24.8 16.2477 25.8396 15.8722C25.9782 15.8232 26.0947 15.7441 26.1891 15.6348L28.3524 13.166C28.4081 13.1003 28.4858 13.0558 28.5722 13.04C28.6586 13.0243 28.7482 13.0383 28.8258 13.0797C29.5778 13.4897 29.2195 15.0176 29.2814 16.0189C29.2903 16.1455 29.3566 16.2261 29.4805 16.2606L31.7898 16.908C31.9904 16.9627 32.0907 17.0907 32.0907 17.2921L32.0951 18.6733C32.0952 18.7601 32.0659 18.8447 32.0116 18.9141C31.9572 18.9835 31.8809 19.0338 31.7942 19.0574L29.538 19.6875C29.3434 19.7393 29.2475 19.8645 29.2505 20.063L29.2814 21.7679C29.308 23.2152 28.8435 23.3864 27.8879 22.2815L26.2245 20.3565C26.1272 20.2443 26.0077 20.1609 25.8661 20.1062C24.825 19.712 24.0612 19.5149 23.5745 19.5149C22.6322 19.5192 21.9377 20.3134 22.1677 21.2111C22.3093 21.7851 23.1277 22.4541 23.5834 22.8685C24.4903 23.6885 25.9944 23.7532 27.1933 23.8439C27.8481 23.8957 28.0678 24.2237 27.8525 24.8279C27.8142 24.9401 27.593 25.0955 27.1889 25.2941C26.6315 25.5674 26.0814 25.858 25.5388 26.1659C25.412 26.2378 25.3692 26.3443 25.4105 26.4853L26.0387 28.5872C26.0643 28.6714 26.0724 28.7597 26.0626 28.8469C26.0528 28.9342 26.0253 29.0187 25.9816 29.0954C25.9379 29.1722 25.879 29.2397 25.8083 29.294C25.7376 29.3482 25.6565 29.3882 25.5697 29.4116C25.3279 29.4777 25.1082 29.5943 24.9106 29.7612C24.7601 29.8876 24.5645 29.9508 24.3664 29.9371C24.1683 29.9233 23.9839 29.8337 23.8532 29.6878L22.6234 28.3196C22.5401 28.2259 22.4254 28.1638 22.2993 28.1441C22.1733 28.1244 22.0437 28.1483 21.9333 28.2117L20.4468 29.049C19.1816 29.7655 18.807 29.4547 19.3231 28.1168L20.2743 25.6609C20.3244 25.5314 20.3288 25.4005 20.2875 25.2682C19.9779 24.2755 19.6947 21.6902 17.8234 22.5577C16.8944 22.9893 16.713 24.3963 16.4829 25.3372C16.4511 25.4722 16.4619 25.6136 16.5139 25.7429C16.8737 26.632 17.2188 27.5168 17.5491 28.3973C17.6582 28.685 17.6745 28.9051 17.5978 29.0576C17.5122 29.2245 17.3486 29.3224 17.1067 29.3511C16.9799 29.3684 16.8619 29.3454 16.7528 29.2821L14.7443 28.1297C14.5703 28.029 14.4229 28.0578 14.3019 28.216Z" fill="#808080"/>
</svg>
