<svg width="36" height="36" viewBox="0 0 36 36" fill="none" xmlns="http://www.w3.org/2000/svg">
<g clip-path="url(#clip0_6291_3004)">
<path d="M22.0854 15.8141L17.1446 20.406C17.0888 20.455 17.04 20.513 17.0189 20.5863L16.0219 23.1128C15.9404 23.3086 16.0054 23.5588 16.1892 23.691C16.38 23.83 16.6446 23.83 16.8354 23.7118L19.2068 22.2007C19.2672 22.1582 19.3279 22.1101 19.3625 22.0465L22.9361 16.4413C23.0754 16.2203 23.015 15.9429 22.7942 15.7744C22.583 15.6195 22.2781 15.6316 22.0854 15.8141Z" fill="#808080"/>
<path d="M30.392 11.2988L26.1538 15.2815C27.5325 16.7957 28.4136 18.7046 28.609 20.7948H34.5771C34.3682 17.1619 32.829 13.8561 30.392 11.2988Z" fill="#808080"/>
<path d="M19.0415 6.20312L19.0554 11.8148C21.2806 11.9985 23.2985 12.8119 24.9026 14.1064L29.1365 10.1203C26.4375 7.84547 22.9243 6.40113 19.0415 6.20312Z" fill="#808080"/>
<path d="M17.2749 6.20312C13.4083 6.40113 9.89543 7.86502 7.19141 10.1203L11.4322 14.1064C13.041 12.8119 15.0685 11.9985 17.2934 11.8148L17.2749 6.20312Z" fill="#808080"/>
<path d="M1.75586 20.7948H7.7612C7.93577 18.7046 8.81918 16.7957 10.1768 15.2815L5.9429 11.2988C3.50651 13.8561 1.96937 17.1619 1.75586 20.7948Z" fill="#808080"/>
</g>
<defs>
<clipPath id="clip0_6291_3004">
<rect width="33" height="18" fill="white" transform="translate(1.6665 6)"/>
</clipPath>
</defs>
</svg>
