<svg width="36" height="36" viewBox="0 0 36 36" fill="none" xmlns="http://www.w3.org/2000/svg">
<g clip-path="url(#clip0_6291_2982)">
<path fill-rule="evenodd" clip-rule="evenodd" d="M25.9009 14.2607L25.1138 15.3651C29.0128 18.9519 31.2728 23.9998 31.2728 29.3386L32.6186 29.3386C32.6186 23.5661 30.1487 18.108 25.9009 14.2607Z" fill="#808080"/>
<path fill-rule="evenodd" clip-rule="evenodd" d="M21.0067 20.9414L20.2095 22.0267C22.3481 23.7856 23.6224 26.4664 23.6224 29.3354L24.9696 29.3354C24.9699 26.0435 23.4934 22.9583 21.0067 20.9414Z" fill="#808080"/>
<path fill-rule="evenodd" clip-rule="evenodd" d="M23.5274 17.5186L22.728 18.6078C25.7612 21.2699 27.5366 25.1804 27.5366 29.3294L28.8824 29.3294C28.8824 24.7561 26.9123 20.4414 23.5274 17.5186Z" fill="#808080"/>
<path d="M5.96531 27.2861C6.35526 27.6055 6.77955 27.8799 7.22688 28.112C7.67364 28.3437 8.14578 28.5241 8.63006 28.6599C9.1174 28.7966 9.62153 28.8825 10.1261 28.9213C10.3805 28.9409 10.6358 28.9466 10.8906 28.9295C11.1322 28.9133 11.3874 28.8826 11.6079 28.7761C11.8358 28.666 12.005 28.4808 12.1742 28.2978C12.3568 28.1001 12.532 27.8955 12.7093 27.6931C13.0691 27.2825 13.4207 26.8644 13.7762 26.4501C14.1237 26.0451 14.4802 25.6459 14.7814 25.2041C14.9312 24.9844 15.0578 24.7501 15.2046 24.5284C15.3507 24.3077 15.5157 24.1029 15.6852 23.8999C15.7723 23.7955 15.8594 23.6912 15.9465 23.5869C15.9677 23.5615 15.9889 23.5361 16.0101 23.5107C16.0219 23.4967 16.045 23.4564 16.0611 23.4497C16.075 23.4439 16.108 23.4563 16.1233 23.4591C16.1559 23.465 16.1885 23.4705 16.2213 23.4753C16.3465 23.4935 16.4722 23.5091 16.5986 23.5167C16.712 23.5235 16.8263 23.5325 16.9397 23.5213C17.0427 23.5112 17.1342 23.482 17.2194 23.4233C17.3118 23.3596 17.4027 23.2755 17.4743 23.1888C17.5021 23.1551 17.5446 23.1 17.5273 23.0531C17.5093 23.0039 17.44 22.9838 17.3956 22.9693C17.2727 22.9292 17.1474 22.8972 17.0224 22.8643C16.8958 22.831 16.7691 22.7983 16.6424 22.7652C16.6926 22.6997 16.7544 22.6402 16.8098 22.5788C16.8699 22.5121 16.9301 22.4454 16.9903 22.3787C17.1095 22.2465 17.2288 22.1143 17.3481 21.9821C17.586 21.7184 17.8258 21.4562 18.061 21.19C18.5341 20.6546 19.0069 20.119 19.4743 19.5786C19.9328 19.0484 20.3931 18.5185 20.8331 17.9727C21.2784 17.4203 21.7142 16.8591 22.1703 16.3156C22.2783 16.187 22.3878 16.0593 22.5036 15.9377C22.6228 15.8123 22.7475 15.6923 22.8712 15.5714C23.1172 15.3311 23.3472 15.0796 23.5759 14.8221C23.8112 14.5572 24.0388 14.2848 24.2642 14.0115C24.4941 13.7328 24.7256 13.4553 24.9539 13.1751C25.1804 12.8971 25.4057 12.618 25.6248 12.3342C25.7316 12.1959 25.838 12.0547 25.9147 11.8969C25.9879 11.7463 26.0318 11.584 26.0757 11.423C26.1699 11.0771 26.2593 10.7298 26.359 10.3854C26.4055 10.2244 26.4521 10.0646 26.4975 9.90353C26.5392 9.75548 26.5838 9.6039 26.5695 9.44835C26.5552 9.29315 26.5004 9.14487 26.4449 9.00045C26.3831 8.83984 26.3121 8.68292 26.2366 8.52834C26.0814 8.21055 25.9037 7.9046 25.7119 7.60757C25.3339 7.02198 24.8923 6.46138 24.3776 5.98986C24.112 5.74651 23.8359 5.51483 23.5486 5.2974C23.2655 5.08309 22.9634 4.89612 22.6521 4.72576C22.0366 4.38902 21.3873 4.11256 20.7118 3.92144C20.5458 3.87448 20.3779 3.83465 20.2084 3.80276C20.0568 3.77422 19.893 3.7475 19.7394 3.77676C19.5804 3.80705 19.4348 3.88433 19.2906 3.95458C19.1402 4.0278 18.9898 4.10183 18.839 4.1754C18.5295 4.32643 18.2154 4.46804 17.9041 4.61535C17.7732 4.67729 17.642 4.74072 17.5232 4.82422C17.395 4.91436 17.2836 5.02509 17.1774 5.13983C16.6934 5.66283 16.2363 6.2108 15.7738 6.75267C15.322 7.28198 14.8648 7.81605 14.471 8.38859C14.274 8.67487 14.079 8.95947 13.8568 9.22712C13.6251 9.50626 13.3832 9.77691 13.1442 10.0498C12.9054 10.3226 12.6666 10.5954 12.4278 10.8682C12.1906 11.1393 11.9618 11.4178 11.7299 11.6935C11.2716 12.2382 10.8242 12.7933 10.3808 13.3501C9.92929 13.917 9.47999 14.4853 9.0344 15.0568C8.92862 15.1925 8.82283 15.3282 8.71705 15.4639C8.66462 15.5311 8.6122 15.5984 8.55977 15.6656C8.53251 15.7006 8.50525 15.7355 8.47799 15.7705C8.46436 15.788 8.45073 15.8054 8.4371 15.8229C8.42993 15.8321 8.41996 15.8529 8.40899 15.8557C8.35055 15.7282 8.29247 15.6005 8.23363 15.4732C8.17957 15.3562 8.12732 15.2379 8.06367 15.1257C8.04153 15.0867 8.00673 15.03 7.95431 15.0357C7.91273 15.0401 7.87733 15.0786 7.85232 15.1084C7.77271 15.203 7.6995 15.3121 7.65085 15.426C7.5609 15.6367 7.6385 15.8825 7.69273 16.0926C7.72585 16.221 7.76507 16.3479 7.81053 16.4724C7.81573 16.4867 7.82105 16.5009 7.82625 16.5152C7.83471 16.5384 7.84104 16.543 7.82472 16.5624C7.8016 16.5899 7.77846 16.6173 7.75532 16.6447C7.71056 16.6978 7.66581 16.7509 7.62106 16.804C7.44714 17.0102 7.27773 17.2222 7.08957 17.4159C6.9054 17.6054 6.70284 17.7733 6.50681 17.95C6.10809 18.3095 5.76848 18.7225 5.42846 19.1364C5.08326 19.5565 4.73954 19.9778 4.39612 20.3993C4.225 20.6094 4.05213 20.8181 3.88331 21.03C3.72716 21.2261 3.56218 21.4263 3.44714 21.6503C3.3304 21.8775 3.31001 22.1273 3.32081 22.3789C3.33186 22.6364 3.37547 22.8922 3.43024 23.1436C3.53681 23.6328 3.70209 24.1162 3.90434 24.5738C4.11009 25.0393 4.36429 25.4843 4.6609 25.8979C4.95864 26.313 5.30076 26.7028 5.68183 27.0434C5.77459 27.1263 5.86905 27.2073 5.96531 27.2861ZM10.7252 15.4078C11.3387 14.8317 11.947 14.2494 12.5257 13.638C12.926 13.2152 13.3193 12.7855 13.7125 12.3559C13.8873 12.165 14.062 11.9742 14.2373 11.7839C14.8076 11.165 15.3778 10.5462 15.9481 9.92732C16.2334 9.61768 16.5188 9.30804 16.8041 8.99838C17.0526 8.72874 17.3054 8.46329 17.5582 8.19781C17.5964 8.15771 17.6346 8.11761 17.6728 8.07749C17.9619 7.77367 18.2549 7.47381 18.5548 7.18051C18.5583 7.17711 18.5617 7.17372 18.5652 7.17032C18.7107 7.028 18.8565 6.88542 19.0075 6.74895C19.1542 6.61641 19.3098 6.49073 19.4853 6.39819C19.8113 6.22629 20.1778 6.18207 20.5377 6.2542C20.9223 6.33128 21.2935 6.50014 21.6289 6.70014C21.9893 6.91505 22.3189 7.17743 22.6382 7.44848C22.954 7.71657 23.2575 8.00744 23.5112 8.33584C23.7437 8.63664 23.9582 8.97881 24.0579 9.34902C24.1526 9.70108 24.1121 10.0719 23.9615 10.4023C23.8773 10.5869 23.7664 10.7575 23.655 10.9265C23.5385 11.103 23.4199 11.2781 23.2988 11.4515C23.0581 11.7959 22.8109 12.1349 22.5615 12.473C22.1272 13.0618 22.3527 12.7686 21.9087 13.3501C21.8409 13.4389 21.1037 14.4023 21.0359 14.4912C20.5247 15.1612 20.0135 15.8312 19.5023 16.5013C19.248 16.8347 18.9936 17.1681 18.7392 17.5015C18.6863 17.571 18.6332 17.6403 18.5801 17.7097C18.3783 17.9731 18.1766 18.2367 17.9814 18.505C17.488 19.1834 17.0255 19.8828 16.5663 20.5845C16.4949 20.6937 16.6382 20.4756 16.5663 20.5845C16.4079 20.8247 16.7203 20.3416 16.5663 20.5845C16.34 20.9418 15.4275 22.3495 15.2011 22.7068C14.9746 23.0643 14.7516 23.4243 14.5063 23.7695C14.3873 23.9371 14.2636 24.102 14.1286 24.257C14.111 24.2772 14.0933 24.2972 14.0754 24.317C14.0588 24.3354 14.0415 24.3618 14.0213 24.3761C14.0189 24.3778 14.0145 24.3854 14.0117 24.3864C14.0036 24.3894 13.9819 24.3833 13.9732 24.3823C13.9432 24.3791 13.9132 24.3759 13.8833 24.3725C13.7849 24.3615 13.6867 24.349 13.5892 24.3321C13.1889 24.2625 12.7965 24.132 12.4142 23.9971C12.0272 23.8604 11.6483 23.7072 11.2865 23.5123C10.5499 23.1154 9.8649 22.6194 9.27857 22.0216C8.98743 21.7248 8.71053 21.4117 8.46338 21.0771C8.21824 20.7452 8.00935 20.387 7.81438 20.0238C7.62169 19.6649 7.43911 19.2994 7.3217 18.9081C7.31716 18.893 7.31269 18.8779 7.30826 18.8627C7.2998 18.8338 7.29148 18.8047 7.28318 18.7758C7.28238 18.773 7.28158 18.7702 7.28078 18.7674C7.2718 18.7361 7.26672 18.7329 7.2864 18.707C7.30275 18.6855 7.31923 18.6642 7.33592 18.6429C7.40239 18.5583 7.47245 18.4766 7.5444 18.3967C7.68494 18.2405 7.83301 18.091 7.98366 17.9446C8.28284 17.6538 8.59581 17.3771 8.90407 17.096C9.21664 16.811 10.4168 15.6973 10.7252 15.4078C10.6466 15.4816 10.8038 15.334 10.7252 15.4078ZM11.5993 28.0827C11.454 28.242 11.3022 28.4037 11.1004 28.4896C10.9185 28.567 10.7184 28.5926 10.5228 28.6071C10.0909 28.639 9.65048 28.5881 9.24156 28.4432C9.12477 28.4018 9.00866 28.3534 8.90064 28.2924C8.86821 28.2741 8.79952 28.2407 8.80321 28.1951C8.80456 28.1786 8.81666 28.1658 8.82897 28.1559C8.83785 28.1487 8.87364 28.1222 8.88321 28.1292C8.88043 28.1244 9.01316 28.0826 9.0332 28.0762C9.09872 28.0553 9.16471 28.0358 9.23119 28.018C9.36068 27.9835 9.49219 27.9559 9.62517 27.9388C9.76259 27.9211 9.90028 27.9219 10.0383 27.9137C10.1739 27.9058 10.3034 27.8766 10.4305 27.8293C10.7027 27.7278 10.9562 27.5803 11.216 27.4518C11.3372 27.392 11.4605 27.3293 11.5904 27.2905C11.6924 27.2599 11.8632 27.2241 11.9434 27.3193C12.0296 27.4216 11.9476 27.5954 11.893 27.6928C11.8132 27.8351 11.7088 27.9624 11.5993 28.0827ZM22.0186 15.1396C21.529 15.8719 21.0253 16.5948 20.4997 17.3018C19.9772 18.0047 19.4351 18.6925 18.8885 19.3768C18.3383 20.0655 17.7722 20.7425 17.1933 21.4071C16.8057 21.8521 16.408 22.2879 16.0093 22.7229C15.9141 22.8268 15.8192 22.9309 15.7229 23.0337C15.7116 23.0457 15.6692 23.1051 15.6541 23.1044C15.6426 23.1038 15.6154 23.0719 15.6066 23.0646C15.5922 23.0524 15.5777 23.0403 15.5633 23.0282C15.5513 23.0182 15.5394 23.0082 15.5275 22.9982C15.5175 22.9898 15.4807 22.9687 15.4772 22.9559C15.4745 22.9464 15.5044 22.9073 15.51 22.8976C15.521 22.8783 15.5321 22.8589 15.5432 22.8396C15.572 22.7893 15.6008 22.7391 15.6297 22.6889C16.0676 21.9301 16.546 21.1943 17.032 20.4656C17.5142 19.7423 18.0085 19.0275 18.5148 18.3209C19.0281 17.6044 19.5427 16.8889 20.0808 16.1907C20.6231 15.4872 21.1878 14.8007 21.7449 14.1089C22.2947 13.4262 22.8451 12.7442 23.3988 12.0648C23.5282 11.9061 23.6576 11.7473 23.787 11.5886C23.7429 11.8369 23.6935 12.0832 23.6071 12.3208C23.5194 12.5621 23.4078 12.7946 23.2916 13.0232C23.0532 13.4921 22.7843 13.9451 22.5051 14.3907C22.347 14.6429 22.1841 14.8921 22.0186 15.1396ZM26.2785 9.76732C26.3018 9.92211 26.3044 10.0702 26.2545 10.2203C26.2036 10.3736 26.1229 10.5205 26.0341 10.6549C25.943 10.7926 25.8328 10.9122 25.7114 11.0235C25.6524 11.0777 25.5913 11.1295 25.5286 11.1794C25.5052 11.198 25.4781 11.2251 25.4488 11.2336C25.3929 11.2498 25.4571 11.1536 25.4662 11.138C25.5089 11.0648 25.5505 10.9905 25.5897 10.9153C25.6645 10.7716 25.7315 10.6238 25.7891 10.4724C25.8455 10.3246 25.8991 10.1715 25.9238 10.0148C25.9478 9.86205 25.9312 9.71069 25.8986 9.56052C25.8213 9.20316 25.7086 8.84888 25.5809 8.50648C25.584 8.51458 25.5871 8.52267 25.5903 8.53077C25.5737 8.48258 25.5557 8.43491 25.5356 8.3881C25.5439 8.40996 25.5523 8.43183 25.5607 8.45369C25.4918 8.27489 25.4059 8.1038 25.3346 7.9261C25.3317 7.91887 25.3114 7.87919 25.325 7.87546C25.3403 7.87128 25.3898 7.95543 25.3953 7.9634C25.4499 8.04255 25.5017 8.1236 25.5521 8.20547C25.7503 8.5271 25.9438 8.85601 26.0995 9.20068C26.1811 9.38154 26.2489 9.5704 26.2785 9.76732ZM18.2763 5.09398C18.4196 4.82191 18.6028 4.57739 18.8437 4.38467C18.9585 4.29279 19.083 4.20303 19.2234 4.15514C19.3529 4.11099 19.4967 4.10608 19.6323 4.11076C19.9159 4.12054 20.1926 4.20003 20.4611 4.28626C20.752 4.37969 21.0406 4.48578 21.3224 4.60384C21.3979 4.63545 21.476 4.66609 21.5472 4.70673C21.5698 4.71963 21.5673 4.72804 21.5414 4.72551C21.515 4.72294 21.488 4.71501 21.4622 4.70934C21.2923 4.67193 21.1259 4.62249 20.955 4.58908C20.978 4.59354 21.001 4.598 21.024 4.60247C20.9744 4.59078 20.9243 4.58127 20.874 4.57338C20.8825 4.57504 20.8911 4.57669 20.8996 4.57834C20.6857 4.53892 20.4696 4.50919 20.2536 4.48494C20.0461 4.46165 19.8325 4.43624 19.6235 4.44966C19.4178 4.46288 19.2355 4.54321 19.0567 4.64075C18.8671 4.74418 18.6866 4.86396 18.5156 4.99585C18.466 5.03411 18.4179 5.0741 18.3696 5.11401C18.3484 5.1316 18.3271 5.14913 18.3064 5.16734C18.2933 5.17886 18.2688 5.20495 18.2493 5.20358C18.2115 5.20091 18.2672 5.11124 18.2763 5.09398ZM14.5012 9.70855C14.9416 9.27691 15.3874 8.85121 15.8485 8.44156C16.3032 8.03752 16.7756 7.64102 17.2857 7.30798C17.4233 7.21812 17.5653 7.13458 17.7144 7.06505C17.8647 6.99494 18.0202 6.93709 18.1759 6.88022C17.6193 7.52483 17.0623 8.16904 16.5018 8.81026C15.9358 9.4578 15.3697 10.1053 14.8037 10.7529C14.2371 11.401 13.6466 12.0303 13.0449 12.6459C12.4521 13.2524 11.8586 13.8578 11.2521 14.4507C10.638 15.0509 10.0144 15.6411 9.37678 16.2163C9.22086 16.357 9.06394 16.4964 8.9049 16.6335C8.82396 16.7033 8.74246 16.7724 8.66057 16.8411C8.62302 16.8726 8.58539 16.904 8.54775 16.9354C8.52722 16.9525 8.50667 16.9696 8.48613 16.9867C8.47584 16.9953 8.43591 17.0389 8.42411 17.0377C8.41364 17.0367 8.39155 17.0104 8.38405 17.0041C8.36884 16.9914 8.35363 16.9786 8.33843 16.9658C8.32634 16.9557 8.31426 16.9456 8.30217 16.9354C8.29552 16.9298 8.25663 16.9057 8.25601 16.8967C8.25564 16.8913 8.27026 16.8766 8.27357 16.8722C8.29067 16.8492 8.30778 16.8262 8.32488 16.8032C8.54114 16.5126 8.75495 16.22 8.97645 15.9333C9.49942 15.2565 10.0406 14.594 10.5942 13.9421C11.1525 13.2845 11.7209 12.6347 12.3004 11.9956C12.8722 11.3648 13.4571 10.7459 14.0588 10.1435C14.205 9.99723 14.3535 9.85331 14.5012 9.70855ZM4.28009 24.4021C3.9995 24.0312 3.82627 23.5774 3.74915 23.1209C3.71306 22.9073 3.68956 22.684 3.70952 22.4674C3.71917 22.3628 3.74097 22.2588 3.78152 22.1616C3.82642 22.054 3.89413 21.9556 3.96236 21.8617C4.10102 21.6708 4.2548 21.468 4.4539 21.3361C4.52853 21.2867 4.64239 21.2275 4.7323 21.271C4.82826 21.3175 4.83841 21.4566 4.83559 21.5491C4.83226 21.658 4.80505 21.7648 4.77718 21.8695C4.74514 21.99 4.70856 22.1092 4.67177 22.2283C4.60053 22.4589 4.52144 22.6922 4.48858 22.9322C4.47297 23.0462 4.4741 23.1589 4.48828 23.273C4.50257 23.388 4.52275 23.5019 4.53045 23.6176C4.54585 23.8492 4.52557 24.0792 4.49559 24.3088C4.49333 24.3261 4.48067 24.4321 4.47447 24.4298C4.48344 24.4385 4.46152 24.4814 4.45577 24.4911C4.44665 24.5064 4.43375 24.5208 4.41463 24.5214C4.35955 24.5232 4.30901 24.4393 4.28009 24.4021Z" fill="#808080"/>
<path d="M14.5012 9.70855C14.9416 9.27691 15.3874 8.85121 15.8485 8.44156C16.3032 8.03752 16.7756 7.64102 17.2857 7.30798C17.4233 7.21812 17.5653 7.13458 17.7144 7.06505C17.8647 6.99494 18.0202 6.93709 18.1759 6.88022C17.6193 7.52483 17.0623 8.16904 16.5018 8.81026L14.8037 10.7529C14.2371 11.401 13.6466 12.0303 13.0449 12.6459C12.4521 13.2524 11.8586 13.8578 11.2521 14.4507C10.638 15.0509 10.0144 15.6411 9.37678 16.2163C9.22086 16.357 9.06394 16.4964 8.9049 16.6335C8.82396 16.7033 8.74246 16.7724 8.66057 16.8411C8.62302 16.8726 8.58539 16.904 8.54775 16.9354L8.48613 16.9867C8.47584 16.9953 8.43591 17.0389 8.42411 17.0377C8.41364 17.0367 8.39155 17.0104 8.38405 17.0041L8.33843 16.9658L8.30217 16.9354C8.29552 16.9298 8.25663 16.9057 8.25601 16.8967C8.25564 16.8913 8.27026 16.8766 8.27357 16.8722L8.32488 16.8032C8.54114 16.5126 8.75495 16.22 8.97645 15.9333C9.49942 15.2565 10.0406 14.594 10.5942 13.9421C11.1525 13.2845 11.7209 12.6347 12.3004 11.9956C12.8722 11.3648 13.4571 10.7459 14.0588 10.1435C14.205 9.99723 14.3535 9.85331 14.5012 9.70855Z" fill="#808080"/>
<path d="M22.0186 15.1396C21.529 15.8719 21.0253 16.5948 20.4997 17.3018C19.9772 18.0047 19.4351 18.6925 18.8885 19.3768C18.3383 20.0655 17.7722 20.7425 17.1933 21.4071C16.8057 21.8521 16.408 22.2879 16.0093 22.7229C15.9141 22.8268 15.8192 22.9309 15.7229 23.0337C15.7116 23.0457 15.6692 23.1051 15.6541 23.1044C15.6426 23.1038 15.6154 23.0719 15.6066 23.0646L15.5633 23.0282L15.5275 22.9982C15.5175 22.9898 15.4807 22.9687 15.4772 22.9559C15.4745 22.9464 15.5044 22.9073 15.51 22.8976L15.5432 22.8396C15.572 22.7893 15.6008 22.7391 15.6297 22.6889C16.0676 21.9301 16.546 21.1943 17.032 20.4656C17.5142 19.7423 18.0085 19.0275 18.5148 18.3209C19.0281 17.6044 19.5427 16.8889 20.0808 16.1907C20.6231 15.4872 21.1878 14.8007 21.7449 14.1089C22.2947 13.4262 22.8451 12.7442 23.3988 12.0648L23.787 11.5886C23.7429 11.8369 23.6935 12.0832 23.6071 12.3208C23.5194 12.5621 23.4078 12.7946 23.2916 13.0232C23.0532 13.4921 22.7843 13.9451 22.5051 14.3907C22.347 14.6429 22.1841 14.8921 22.0186 15.1396Z" fill="#808080"/>
<path fill-rule="evenodd" clip-rule="evenodd" d="M10.7252 15.4078C11.3387 14.8317 11.947 14.2494 12.5257 13.638C12.926 13.2152 13.3193 12.7855 13.7125 12.3559C13.8873 12.165 14.062 11.9742 14.2373 11.7839L15.9481 9.92732C17.4474 12.0027 18.5713 12.996 21.0359 14.4912L19.5023 16.5013L18.7392 17.5015C18.6863 17.571 18.6332 17.6403 18.5801 17.7097C18.3783 17.9731 18.1766 18.2367 17.9814 18.505C17.488 19.1834 17.0255 19.8828 16.5663 20.5845C16.4949 20.6937 16.6382 20.4756 16.5663 20.5845C16.4079 20.8247 16.7203 20.3416 16.5663 20.5845C14.5218 18.118 13.3904 17.1855 10.7252 15.4078Z" fill="#808080"/>
</g>
<defs>
<clipPath id="clip0_6291_2982">
<rect width="36" height="36" fill="white"/>
</clipPath>
</defs>
</svg>
