<svg width="20" height="20" viewBox="0 0 20 20" fill="none" xmlns="http://www.w3.org/2000/svg">
<path fill-rule="evenodd" clip-rule="evenodd" d="M8.28205 2.71191H11.7175C13.253 2.7119 14.4689 2.71189 15.4204 2.8395C16.3994 2.9708 17.1916 3.24737 17.8165 3.87073C18.6745 4.72656 18.883 5.90512 18.9488 7.46855L18.9496 7.48869C18.9554 7.62523 18.9613 7.76465 18.9561 7.88207C18.9506 8.00698 18.9313 8.18737 18.8315 8.36555C18.7625 8.48886 18.6701 8.57409 18.6085 8.62512C18.5417 8.68044 18.4675 8.73058 18.3968 8.77519C18.2604 8.86126 18.0758 8.9643 17.8595 9.0851L17.8436 9.09398C17.5222 9.27347 17.3081 9.61439 17.3081 10.0036C17.3081 10.3928 17.5222 10.7337 17.8436 10.9132L17.8596 10.9221C18.0759 11.0429 18.2604 11.1459 18.3968 11.232C18.4675 11.2766 18.5417 11.3267 18.6085 11.382C18.6701 11.4331 18.7625 11.5183 18.8315 11.6416C18.9313 11.8198 18.9506 12.0002 18.9561 12.1251C18.9613 12.2425 18.9554 12.3819 18.9496 12.5185L18.9488 12.5386C18.883 14.102 18.6745 15.2806 17.8165 16.1364C17.1916 16.7598 16.3994 17.0364 15.4204 17.1677C14.4689 17.2953 13.253 17.2953 11.7175 17.2952H8.28205C6.74659 17.2953 5.53072 17.2953 4.57921 17.1677C3.60022 17.0364 2.80796 16.7598 2.18305 16.1364C1.32509 15.2806 1.11656 14.102 1.05083 12.5386L1.04998 12.5185C1.04421 12.3819 1.03833 12.2425 1.04349 12.1251C1.04899 12.0002 1.0683 11.8198 1.16805 11.6416C1.23707 11.5183 1.32951 11.4331 1.3911 11.382C1.45788 11.3267 1.53206 11.2766 1.60277 11.232C1.73921 11.1459 1.92374 11.0429 2.14006 10.9221L2.15597 10.9132C2.47738 10.7337 2.69152 10.3928 2.69152 10.0036C2.69152 9.61439 2.47738 9.27347 2.15597 9.09398L2.14004 9.08508C1.92373 8.96429 1.73921 8.86125 1.60277 8.77519C1.53206 8.73058 1.45788 8.68044 1.3911 8.62512C1.32951 8.57409 1.23707 8.48886 1.16805 8.36555C1.0683 8.18737 1.04899 8.00698 1.04349 7.88207C1.03833 7.76465 1.04421 7.62524 1.04998 7.4887C1.05026 7.48198 1.05054 7.47526 1.05083 7.46855C1.11656 5.90512 1.32509 4.72656 2.18305 3.87073C2.80796 3.24737 3.60022 2.9708 4.57921 2.8395C5.53072 2.71189 6.74659 2.7119 8.28205 2.71191ZM17.7055 12.1571C17.7055 12.1571 17.7057 12.1579 17.7059 12.1599L17.7055 12.1571ZM17.7075 12.2752C17.7074 12.2807 17.7073 12.2864 17.7071 12.2923C17.7058 12.3456 17.7032 12.4075 17.6999 12.4861C17.6348 14.0328 17.4236 14.7628 16.9338 15.2514C16.5799 15.6044 16.0952 15.816 15.2542 15.9288C14.3954 16.0439 13.2635 16.0452 11.6706 16.0452H8.32897C6.73608 16.0452 5.60414 16.0439 4.74537 15.9288C3.90441 15.816 3.41966 15.6044 3.06583 15.2514C2.57601 14.7628 2.36475 14.0328 2.29972 12.4861C2.29642 12.4075 2.29383 12.3456 2.29246 12.2923C2.29231 12.2864 2.29218 12.2807 2.29206 12.2752C2.39595 12.2111 2.54515 12.1276 2.76542 12.0045C3.46529 11.6137 3.94152 10.8649 3.94152 10.0036C3.94152 9.14224 3.4653 8.39345 2.76542 8.00262C2.54515 7.87961 2.39594 7.79607 2.29206 7.73192C2.29217 7.72646 2.29231 7.72079 2.29246 7.71489C2.29383 7.66159 2.29642 7.59965 2.29972 7.52106C2.36475 5.97436 2.57601 5.24432 3.06583 4.75572C3.41966 4.40277 3.90441 4.19119 4.74537 4.07841C5.60414 3.96324 6.73608 3.96191 8.32897 3.96191H11.6706C13.2635 3.96191 14.3954 3.96324 15.2542 4.07841C16.0952 4.19119 16.5799 4.40277 16.9338 4.75572C17.4236 5.24432 17.6348 5.97436 17.6999 7.52106C17.7032 7.59965 17.7058 7.66159 17.7071 7.71489C17.7073 7.72079 17.7074 7.72646 17.7075 7.73192C17.6036 7.79606 17.4544 7.87961 17.2342 8.00262C16.5343 8.39345 16.0581 9.14224 16.0581 10.0036C16.0581 10.8649 16.5343 11.6137 17.2342 12.0045C17.4544 12.1276 17.6036 12.2111 17.7075 12.2752ZM17.8111 7.66251L17.8101 7.66329C17.8136 7.66007 17.8143 7.65981 17.8111 7.66251ZM17.7055 7.85007C17.7055 7.85007 17.7056 7.84909 17.7059 7.84731L17.7055 7.85007ZM2.18853 7.66251C2.18527 7.65982 2.18595 7.66007 2.18947 7.66329L2.18853 7.66251ZM2.2937 7.84731C2.29399 7.84908 2.29408 7.85007 2.29408 7.85007L2.2937 7.84731ZM2.29408 12.1571C2.29408 12.1571 2.29399 12.1581 2.2937 12.1599L2.29408 12.1571ZM2.18948 12.3439C2.18595 12.3471 2.18527 12.3474 2.18853 12.3447L2.18948 12.3439ZM17.8101 12.3439L17.8111 12.3447C17.8143 12.3473 17.8136 12.3471 17.8101 12.3439ZM12.9417 7.06164C13.1858 7.30572 13.1858 7.70145 12.9417 7.94552L7.94174 12.9455C7.69766 13.1896 7.30193 13.1896 7.05785 12.9455C6.81377 12.7014 6.81377 12.3057 7.05785 12.0616L12.0579 7.06164C12.3019 6.81756 12.6977 6.81756 12.9417 7.06164Z" fill="#1657FC"/>
<path d="M12.9165 12.0869C12.9165 12.5472 12.5434 12.9202 12.0831 12.9202C11.6229 12.9202 11.2498 12.5472 11.2498 12.0869C11.2498 11.6267 11.6229 11.2536 12.0831 11.2536C12.5434 11.2536 12.9165 11.6267 12.9165 12.0869Z" fill="#1657FC"/>
<path d="M8.74979 7.92025C8.74979 8.38049 8.3767 8.75358 7.91646 8.75358C7.45622 8.75358 7.08313 8.38049 7.08313 7.92025C7.08313 7.46001 7.45622 7.08691 7.91646 7.08691C8.3767 7.08691 8.74979 7.46001 8.74979 7.92025Z" fill="#1657FC"/>
</svg>
