<svg width="20" height="20" viewBox="0 0 20 20" fill="none" xmlns="http://www.w3.org/2000/svg">
<path d="M12.9813 2.82254L14.6479 3.69716C16.441 4.63812 17.3375 5.10859 17.8353 5.95402C18.3332 6.79944 18.3332 7.85146 18.3332 9.95549V10.053C18.3332 12.157 18.3332 13.209 17.8353 14.0544C17.3375 14.8999 16.441 15.3703 14.6479 16.3113L12.9813 17.1859C11.5182 17.9537 10.7867 18.3376 9.99984 18.3376C9.21294 18.3376 8.48143 17.9537 7.01841 17.1859L5.35175 16.3113C3.55869 15.3703 2.66217 14.8999 2.16433 14.0544C1.6665 13.209 1.6665 12.157 1.6665 10.053V9.95549C1.6665 7.85146 1.6665 6.79944 2.16433 5.95402C2.66217 5.10859 3.55869 4.63812 5.35175 3.69716L7.01841 2.82254C8.48143 2.05478 9.21294 1.6709 9.99984 1.6709C10.7867 1.6709 11.5182 2.05478 12.9813 2.82254Z" stroke="#1657FC" stroke-width="1.2" stroke-linecap="round"/>
<path d="M17.5 6.25391L14.1667 7.92057M10 10.0039L2.5 6.25391M10 10.0039V17.9206M10 10.0039C10 10.0039 12.2855 8.86114 13.75 8.12891C13.9127 8.04755 14.1667 7.92057 14.1667 7.92057M14.1667 7.92057V10.8372M14.1667 7.92057L6.25 3.75391" stroke="#1657FC" stroke-width="1.2" stroke-linecap="round"/>
</svg>
