<svg width="20" height="20" viewBox="0 0 20 20" fill="none" xmlns="http://www.w3.org/2000/svg">
<path d="M11.9096 2.55951L13.443 3.36417C15.0926 4.22986 15.9174 4.6627 16.3754 5.44049C16.8334 6.21828 16.8334 7.18614 16.8334 9.12187V9.21155C16.8334 11.1473 16.8334 12.1151 16.3754 12.8929C15.9174 13.6707 15.0926 14.1036 13.443 14.9692L11.9096 15.7739C10.5636 16.4802 9.89065 16.8334 9.16671 16.8334C8.44276 16.8334 7.76977 16.4802 6.42378 15.7739L4.89044 14.9692C3.24082 14.1036 2.41601 13.6707 1.95801 12.8929C1.5 12.1151 1.5 11.1473 1.5 9.21155V9.12187C1.5 7.18614 1.5 6.21828 1.95801 5.44049C2.41601 4.6627 3.24082 4.22986 4.89044 3.36417L6.42378 2.55951C7.76977 1.85317 8.44276 1.5 9.16671 1.5C9.89065 1.5 10.5636 1.85317 11.9096 2.55951Z" stroke="white" stroke-linecap="round"/>
<path d="M16.0667 5.717L13 7.25035M9.16664 9.16702L2.2666 5.717M9.16664 9.16702V16.4504M9.16664 9.16702C9.16664 9.16702 11.2693 8.11567 12.6167 7.44201C12.7664 7.36716 13 7.25035 13 7.25035M13 7.25035V9.93369M13 7.25035L5.71662 3.41699" stroke="white" stroke-linecap="round"/>
<circle cx="15" cy="15" r="4" fill="#061A38" stroke="white"/>
<path d="M15 13.4004V14.7328C15 14.9 15.0836 15.0561 15.2226 15.1488L16.2 15.8004" stroke="white" stroke-linecap="round"/>
</svg>
