<svg width="40" height="40" viewBox="0 0 40 40" fill="none" xmlns="http://www.w3.org/2000/svg">
<path fill-rule="evenodd" clip-rule="evenodd" d="M18.7899 33.5949C18.0023 34.3825 16.933 34.8254 15.8175 34.8254C14.7033 34.8254 13.6341 34.3825 12.845 33.5949L4.23045 24.9803C3.44286 24.1928 3 23.1235 3 22.0079C3 20.8938 3.44286 19.8245 4.23045 19.0355L19.5001 3.76587C20.2036 3.06237 21.1355 2.63071 22.1277 2.54945L28.6317 2.0141C29.8622 1.9132 31.0758 2.35745 31.9489 3.23052L34.5934 5.87499C35.4664 6.74808 35.9121 7.9603 35.8098 9.19215L35.2744 15.6962C35.1932 16.6883 34.7615 17.6189 34.058 18.3238L18.7884 33.5934L18.7899 33.5949ZM17.7991 32.6042L33.0687 17.3345C33.5382 16.865 33.8255 16.2442 33.8801 15.5827L34.4155 9.07874C34.4828 8.2589 34.1857 7.45028 33.6041 6.86729L30.9596 4.22282C30.378 3.64123 29.5694 3.34414 28.7482 3.41141L22.2442 3.94675C21.5827 4.00141 20.9619 4.2887 20.4924 4.75817L5.22275 20.0278C4.69723 20.5533 4.40151 21.2667 4.40151 22.0094C4.40151 22.7521 4.6972 23.4655 5.22275 23.991L13.8374 32.6056C14.3629 33.1311 15.0748 33.4268 15.8189 33.4268C16.5617 33.4268 17.275 33.1311 17.8005 32.6056L17.7991 32.6042Z" fill="white" stroke="white" stroke-width="0.8"/>
<path fill-rule="evenodd" clip-rule="evenodd" d="M28.5028 6.70551C28.2295 6.43224 28.2295 5.98799 28.5028 5.71472C28.7761 5.44145 29.2203 5.44144 29.4936 5.71472L32.1115 8.33257C32.3847 8.60585 32.3847 9.0501 32.1115 9.32337C31.8382 9.59664 31.3939 9.59664 31.1207 9.32337L28.5028 6.70551Z" fill="white" stroke="white" stroke-width="0.8"/>
<path fill-rule="evenodd" clip-rule="evenodd" d="M12.3111 19.1143C11.9243 19.1143 11.6104 18.8004 11.6104 18.4136C11.6104 18.0268 11.9243 17.7129 12.3111 17.7129H26.5762C26.9629 17.7129 27.2769 18.0268 27.2769 18.4136C27.2769 18.8004 26.9629 19.1143 26.5762 19.1143H12.3111Z" fill="white" stroke="white" stroke-width="0.8"/>
<path fill-rule="evenodd" clip-rule="evenodd" d="M21.1721 12.0195C22.1265 12.9739 22.1265 14.5224 21.1721 15.4768C20.2177 16.4312 18.6692 16.4312 17.7148 15.4768C16.7604 14.5224 16.7604 12.9738 17.7148 12.0195C18.6692 11.0651 20.2177 11.0651 21.1721 12.0195ZM20.1813 13.0103C19.7735 12.6025 19.112 12.6025 18.7056 13.0103C18.2978 13.4181 18.2978 14.0796 18.7056 14.486C19.1134 14.8938 19.7749 14.8938 20.1813 14.486C20.5891 14.0782 20.5891 13.4167 20.1813 13.0103Z" fill="white" stroke="white" stroke-width="0.2"/>
<path fill-rule="evenodd" clip-rule="evenodd" d="M21.1721 21.3506C22.1265 22.3049 22.1265 23.8535 21.1721 24.8078C20.2177 25.7622 18.6691 25.7622 17.7148 24.8078C16.7605 23.8535 16.7604 22.3049 17.7148 21.3506C18.6692 20.3962 20.2177 20.3962 21.1721 21.3506ZM20.1813 22.3413C19.7735 21.9335 19.112 21.9335 18.7056 22.3413C18.2978 22.7491 18.2978 23.4106 18.7056 23.817C19.1134 24.2248 19.7749 24.2248 20.1813 23.817C20.5891 23.4092 20.5891 22.7478 20.1813 22.3413Z" fill="white" stroke="white" stroke-width="0.2"/>
</svg>
