<svg width="40" height="40" viewBox="0 0 40 40" fill="none" xmlns="http://www.w3.org/2000/svg">
<path d="M23.8193 5.11903L26.886 6.72835C30.1852 8.45971 31.8348 9.32539 32.7508 10.881C33.6668 12.4366 33.6668 14.3723 33.6668 18.2437V18.4231C33.6668 22.2945 33.6668 24.2303 32.7508 25.7859C31.8348 27.3414 30.1852 28.2071 26.886 29.9385L23.8193 31.5478C21.1273 32.9605 19.7813 33.6668 18.3334 33.6668C16.8855 33.6668 15.5395 32.9605 12.8476 31.5478L9.78089 29.9385C6.48165 28.2071 4.83203 27.3414 3.91601 25.7859C3 24.2303 3 22.2945 3 18.4231V18.2437C3 14.3723 3 12.4366 3.91601 10.881C4.83203 9.32539 6.48165 8.45971 9.78089 6.72835L12.8476 5.11903C15.5395 3.70634 16.8855 3 18.3334 3C19.7813 3 21.1273 3.70634 23.8193 5.11903Z" stroke="white" stroke-width="2" stroke-linecap="round"/>
<path d="M32.1334 11.434L26 14.5007M18.3333 18.334L4.5332 11.434M18.3333 18.334V32.9008M18.3333 18.334C18.3333 18.334 22.5387 16.2313 25.2333 14.884C25.5327 14.7343 26 14.5007 26 14.5007M26 14.5007V19.8674M26 14.5007L11.4332 6.83398" stroke="white" stroke-width="2" stroke-linecap="round"/>
<circle cx="30" cy="30" r="8" fill="#120C41" stroke="white" stroke-width="2"/>
<path d="M30 26.7998V29.7322C30 29.8994 30.0836 30.0555 30.2226 30.1482L32.4 31.5998" stroke="white" stroke-width="2" stroke-linecap="round"/>
</svg>
