<svg width="256" height="8" viewBox="0 0 256 8" fill="none" xmlns="http://www.w3.org/2000/svg">
<path d="M122.484 0.790003C122.658 0.789565 122.813 0.849102 122.942 0.961552L122.944 0.962505L122.968 0.984325L128.001 5.64002L133.032 0.985158C133.166 0.858132 133.33 0.790493 133.515 0.790493C133.7 0.790493 133.865 0.85848 133.999 0.986137C134.134 1.11387 134.21 1.27479 134.21 1.4606C134.21 1.63885 134.145 1.79691 134.015 1.91983L134.015 1.91985L134.013 1.92175L128.499 7.0154C128.362 7.14573 128.191 7.21 128 7.21C127.809 7.21 127.639 7.14577 127.501 7.01551L121.987 1.93718L121.981 1.93197L121.976 1.92636C121.853 1.7948 121.79 1.6332 121.79 1.45274C121.79 1.26389 121.865 1.09997 122.005 0.974125C122.14 0.853252 122.303 0.790462 122.484 0.790003Z" fill="#D1D1D1" stroke="#D1D1D1" stroke-width="0.42"/>
</svg>
