<svg width="48" height="76" viewBox="0 0 48 76" fill="none" xmlns="http://www.w3.org/2000/svg">
<g clip-path="url(#clip0_5123_3732)">
<path d="M36.277 28.5133L45.8522 38.0009L36.2769 47.4886C36.093 47.6664 36.001 47.8738 36.001 48.111C36.001 48.3482 36.093 48.5557 36.2769 48.7334C36.4609 48.9111 36.6757 49 36.9212 49C37.1667 49 37.3713 48.9209 37.535 48.7628L47.724 38.6528C47.908 38.475 48 38.2574 48 38C48 37.7426 47.908 37.525 47.724 37.3472L37.5654 27.2372C37.3815 27.0791 37.1615 27 36.9055 27C36.6495 27 36.4347 27.0889 36.2612 27.2666C36.0877 27.4443 36.0007 27.6518 36 27.889C35.9993 28.1262 36.0913 28.3336 36.276 28.5114L36.277 28.5133Z" fill="#3C3C3C"/>
</g>
<defs>
<clipPath id="clip0_5123_3732">
<rect width="76" height="48" fill="white" transform="matrix(4.37114e-08 1 1 -4.37114e-08 0 0)"/>
</clipPath>
</defs>
</svg>
