<svg width="48" height="76" viewBox="0 0 48 76" fill="none" xmlns="http://www.w3.org/2000/svg">
<g clip-path="url(#clip0_5123_3189)">
<path d="M11.723 28.5133L2.1478 38.0009L11.7231 47.4886C11.907 47.6664 11.999 47.8738 11.999 48.111C11.999 48.3482 11.907 48.5557 11.7231 48.7334C11.5391 48.9111 11.3243 49 11.0788 49C10.8333 49 10.6287 48.9209 10.465 48.7628L0.275964 38.6528C0.0919881 38.475 4.84102e-07 38.2574 4.72849e-07 38C4.61596e-07 37.7426 0.0919881 37.525 0.275964 37.3472L10.4346 27.2372C10.6185 27.0791 10.8385 27 11.0945 27C11.3505 27 11.5653 27.0889 11.7388 27.2666C11.9123 27.4443 11.9993 27.6518 12 27.889C12.0007 28.1262 11.9087 28.3336 11.724 28.5114L11.723 28.5133Z" fill="#C2C2C2"/>
</g>
<defs>
<clipPath id="clip0_5123_3189">
<rect width="76" height="48" fill="white" transform="translate(48) rotate(90)"/>
</clipPath>
</defs>
</svg>
