<svg width="24" height="24" viewBox="0 0 24 24" fill="none" xmlns="http://www.w3.org/2000/svg">
<g clip-path="url(#clip0_1249_5198)">
<circle cx="12" cy="12" r="12" fill="#2E69FD"/>
<path d="M10.1385 17.1746L14.9261 11.9995L10.1385 6.82439C10.0465 6.72745 10.0005 6.61428 10.0005 6.48491C10.0005 6.35553 10.0465 6.24237 10.1385 6.14542C10.2305 6.04847 10.3378 6 10.4606 6C10.5834 6 10.6857 6.04313 10.7675 6.12938L15.862 11.644C15.954 11.7409 16 11.8596 16 12C16 12.1404 15.954 12.2591 15.862 12.356L10.7827 17.8706C10.6907 17.9569 10.5807 18 10.4527 18C10.3247 18 10.2174 17.9515 10.1306 17.8546C10.0439 17.7576 10.0003 17.6445 10 17.5151C9.99968 17.3857 10.0457 17.2726 10.138 17.1756L10.1385 17.1746Z" fill="#020201" stroke="#020201" stroke-width="0.8"/>
</g>
<defs>
<clipPath id="clip0_1249_5198">
<rect width="24" height="24" fill="white" transform="translate(0 24) rotate(-90)"/>
</clipPath>
</defs>
</svg>
