<svg width="613" height="58" viewBox="0 0 613 58" fill="none" xmlns="http://www.w3.org/2000/svg">
<path d="M19.1434 26.3297H34.833C43.3679 26.3297 50.5695 33.6034 50.3932 42.4982C50.2229 51.0933 43.4854 58 35.1913 58H0.0176221C0.0176221 58 0 57.9939 0 57.9816V52.5921C0 52.5921 0.00587402 52.5738 0.0176221 52.5738H35.1971C40.4603 52.5738 44.8129 48.3955 45.2417 43.0366C45.741 36.7967 40.9067 31.6642 34.8917 31.6642H19.2257H31.2909H15.6014C7.06645 31.6642 -0.135103 24.3905 0.0411182 15.4956C0.217339 6.60078 6.9431 0 15.2372 0H50.4167C50.4167 0 50.4344 0.0061175 50.4344 0.0183525V5.40787C50.4344 5.40787 50.4285 5.42622 50.4167 5.42622H15.2372C9.97409 5.42622 5.62144 9.60447 5.19264 14.9634C4.69334 21.2032 9.52767 26.3358 15.5427 26.3358H31.2087" fill="white"/>
<path d="M64.4264 16.9829V41.0171C64.4264 47.3743 69.5183 52.5988 75.7839 52.5988H109.769V58H75.7839C66.6804 58 59.3345 50.3397 59.3345 41.0171V16.9829C59.3345 7.5811 66.6804 0 75.7839 0H109.769V5.30982H75.7839C69.5183 5.30982 64.4264 10.5344 64.4264 16.9768V16.9829Z" fill="white"/>
<path d="M240.82 17.2351V20.1952H246.069V17.2351C246.069 10.7047 251.231 5.39466 257.578 5.39466H292.015V0H257.578C248.354 0 240.826 7.75067 240.826 17.2351H240.82Z" fill="white"/>
<path d="M246.068 37.8835H240.818V40.759C240.818 50.2495 248.352 57.9941 257.57 57.9941H292.007V52.5934H257.57C251.223 52.5934 246.062 47.2834 246.062 40.753V37.8774L246.068 37.8835Z" fill="white"/>
<path fill-rule="evenodd" clip-rule="evenodd" d="M292.014 26.3932L197.658 26.3992V31.6711L292.014 31.7939V26.3932Z" fill="white"/>
<path d="M234.371 0V5.31819H200.386C194.121 5.31819 189.029 10.551 189.029 17.0036V40.9903C189.029 47.3575 194.121 52.5903 200.386 52.5903H234.371V58H200.386C191.283 58 183.937 50.3276 183.937 40.9903V17.0097C183.937 7.59306 191.283 0 200.386 0H234.371Z" fill="white"/>
<path d="M432.071 1.95435e-06C434.711 8.74993e-07 436.85 2.13998 436.85 4.77979V58H431.659V5.40864L407.55 55.6884C406.873 57.1012 405.445 58 403.878 58C402.312 58 400.885 57.102 400.207 55.6903L376.032 5.34007V58H370.841V4.77997C370.841 2.14011 372.981 6.70677e-05 375.621 6.60809e-05C377.459 6.53937e-05 379.135 1.05435 379.93 2.7117L403.846 52.5405L427.762 2.71157C428.557 1.05427 430.232 2.706e-06 432.071 1.95435e-06Z" fill="white"/>
<path fill-rule="evenodd" clip-rule="evenodd" d="M495.807 58H501.371L482.249 6.5305V6.44524C480.755 2.52961 477.18 0.0852547 473.191 0V5.31257C475.248 5.36508 476.835 6.47658 477.585 8.39481L495.807 58Z" fill="white"/>
<path fill-rule="evenodd" clip-rule="evenodd" d="M450.578 58H445.015L464.136 6.5305V6.44524C465.63 2.52961 469.206 0.0852547 473.194 0V5.31257C471.137 5.36508 469.55 6.47658 468.8 8.39481L450.578 58Z" fill="white"/>
<rect x="467.63" y="37.0132" width="11.1252" height="5.3421" fill="white"/>
<path d="M500.264 5.27437V0H554.407V5.26833H500.264V5.27437ZM524.369 58V11.4474H529.562V58H524.369Z" fill="white"/>
<path d="M612.629 0.326172V5.5945H578.419C572.112 5.5945 566.986 10.7783 566.986 17.1703V40.9322C566.986 47.2397 572.112 52.4234 578.419 52.4234H612.629V57.7824H578.419C569.255 57.7824 561.861 50.182 561.861 40.9322V17.1764C561.861 7.84805 569.255 0.326172 578.419 0.326172H612.629ZM576.202 31.6885V26.3295H612.629V31.6885H576.202Z" fill="white"/>
<path fill-rule="evenodd" clip-rule="evenodd" d="M171.825 57.9536C171.825 57.9536 168.661 57.9536 166.634 57.9536C166.634 41.7244 165.024 31.6855 157.236 31.6855C153.283 31.6855 144.628 31.6855 144.628 31.6855H126.761V58H121.636V5C121.636 2.23858 123.874 0 126.636 0H155.429C165.395 0 172.07 6.18254 172.07 15.4564C172.07 22.4555 169.103 25.1166 169.103 25.1166C167.719 26.867 166.842 27.7314 165.024 28.9807C165.024 28.9807 166.15 29.9373 167.004 30.905C169.6 33.8439 171.825 40.1788 171.825 57.9536ZM166.878 15.4564C166.878 25.4289 157.236 26.2758 157.236 26.2758H144.628H126.744V5.36561H155.411C161.718 5.36561 166.878 9.68083 166.878 15.4564Z" fill="white"/>
<path d="M171.825 57.9536C171.825 57.9536 168.661 57.9536 166.634 57.9536C166.634 57.9566 166.634 57.9613 166.634 57.9613H171.825V57.9536Z" fill="white"/>
<path fill-rule="evenodd" clip-rule="evenodd" d="M309.222 57.9526V5.33565V0H309.089C306.328 0 304.089 2.23857 304.089 5V57.9526H309.222Z" fill="white"/>
<path d="M353.974 58C356.735 58 358.974 55.7614 358.974 53V0H353.753V52.5517L313.389 1.88456C312.441 0.693713 311.001 0 309.479 0H309.222V5.33565L349.752 56.1189C350.7 57.3077 352.139 58 353.66 58H353.753H353.974Z" fill="white"/>
</svg>
