<svg width="25" height="24" viewBox="0 0 25 24" fill="none" xmlns="http://www.w3.org/2000/svg">
<g clip-path="url(#clip0_2345_1345)">
<circle cx="12.4512" cy="12" r="12" fill="white"/>
<path d="M10.5896 17.1746L15.3773 11.9995L10.5896 6.82439C10.4977 6.72745 10.4517 6.61428 10.4517 6.48491C10.4517 6.35553 10.4977 6.24237 10.5896 6.14542C10.6816 6.04847 10.789 6 10.9118 6C11.0345 6 11.1368 6.04313 11.2187 6.12938L16.3132 11.644C16.4052 11.7409 16.4512 11.8596 16.4512 12C16.4512 12.1404 16.4052 12.2591 16.3132 12.356L11.2339 17.8706C11.1419 17.9569 11.0319 18 10.9039 18C10.7759 18 10.6685 17.9515 10.5818 17.8546C10.495 17.7576 10.4515 17.6445 10.4512 17.5151C10.4508 17.3857 10.4968 17.2726 10.5892 17.1756L10.5896 17.1746Z" fill="#2E69FD" stroke="#2E69FD" stroke-width="0.8"/>
</g>
<defs>
<clipPath id="clip0_2345_1345">
<rect width="24" height="24" fill="white" transform="translate(0.451172 24) rotate(-90)"/>
</clipPath>
</defs>
</svg>
