<svg width="336" height="30" viewBox="0 0 336 30" fill="none" xmlns="http://www.w3.org/2000/svg">
<path d="M10.493 13.6188H19.0928C23.771 13.6188 27.7183 17.3811 27.6217 21.9819C27.5284 26.4276 23.8354 30 19.2892 30H0.00965908C0.00965908 30 0 29.9968 0 29.9905V27.2028C0 27.2028 0.00321969 27.1933 0.00965908 27.1933H19.2924C22.1772 27.1933 24.563 25.0322 24.7981 22.2603C25.0717 19.0328 22.4219 16.378 19.125 16.378H10.5381H17.1513H8.5515C3.87329 16.378 -0.0740529 12.6158 0.0225378 8.01498C0.119129 3.4142 3.80568 0 8.35188 0H27.6346C27.6346 0 27.6443 0.00316422 27.6443 0.00949267V2.79717C27.6443 2.79717 27.6411 2.80667 27.6346 2.80667H8.35188C5.46704 2.80667 3.08125 4.96783 2.84621 7.73969C2.57253 10.9672 5.22234 13.622 8.51931 13.622H17.1062" fill="white"/>
<path d="M35.3135 8.78425V21.2157C35.3135 24.5039 38.1044 27.2063 41.5388 27.2063H60.1667V30H41.5388C36.5489 30 32.5225 26.0378 32.5225 21.2157V8.78425C32.5225 3.92126 36.5489 0 41.5388 0H60.1667V2.74646H41.5388C38.1044 2.74646 35.3135 5.44882 35.3135 8.7811V8.78425Z" fill="white"/>
<path d="M132 8.91472V10.4458H134.877V8.91472C134.877 5.53694 137.706 2.79034 141.185 2.79034H160.061V0H141.185C136.129 0 132.003 4.00897 132.003 8.91472H132Z" fill="white"/>
<path d="M134.876 19.5949H131.999V21.0823C131.999 25.9911 136.128 29.997 141.181 29.997H160.057V27.2035H141.181C137.702 27.2035 134.873 24.4569 134.873 21.0791V19.5918L134.876 19.5949Z" fill="white"/>
<path fill-rule="evenodd" clip-rule="evenodd" d="M160.06 13.6516L108.341 13.6547V16.3815L160.06 16.4451V13.6516Z" fill="white"/>
<path d="M128.465 0V2.75079H109.837C106.402 2.75079 103.611 5.45741 103.611 8.79495V21.2019C103.611 24.4953 106.402 27.2019 109.837 27.2019H128.465V30H109.837C104.847 30 100.82 26.0315 100.82 21.2019V8.79811C100.82 3.92744 104.847 0 109.837 0H128.465Z" fill="white"/>
<path d="M236.802 1.02087e-06C238.264 4.5706e-07 239.448 1.18458 239.448 2.64583V30H236.602V2.79757L223.417 28.7473C223.026 29.5158 222.237 30 221.375 30C220.513 30 219.725 29.5163 219.334 28.7484L206.112 2.76211V30H203.267V2.64593C203.267 1.18464 204.451 3.46861e-05 205.912 3.41706e-05C206.908 3.38194e-05 207.819 0.558967 208.271 1.44642L221.357 27.1761L234.444 1.44636C234.895 0.558923 235.807 1.40502e-06 236.802 1.02087e-06Z" fill="white"/>
<path fill-rule="evenodd" clip-rule="evenodd" d="M271.764 30H274.813L264.332 3.37784V3.33375C263.513 1.30842 261.553 0.0440973 259.367 0V2.74788C260.495 2.77504 261.365 3.34996 261.776 4.34214L271.764 30Z" fill="white"/>
<path fill-rule="evenodd" clip-rule="evenodd" d="M246.973 30H243.923L254.404 3.37784V3.33375C255.223 1.30842 257.183 0.0440973 259.369 0V2.74788C258.242 2.77504 257.372 3.34996 256.961 4.34214L246.973 30Z" fill="white"/>
<rect x="256.319" y="19.1448" width="6.098" height="2.76316" fill="white"/>
<path d="M274.206 2.72812V0H303.883V2.725H274.206V2.72812ZM287.419 30V5.92105H290.265V30H287.419Z" fill="white"/>
<path d="M335.797 0.168701V2.8937H317.046C313.589 2.8937 310.779 5.57495 310.779 8.8812V21.1718C310.779 24.4343 313.589 27.1156 317.046 27.1156H335.797V29.8874H317.046C312.023 29.8874 307.97 25.9562 307.97 21.1718V8.88432C307.97 4.05933 312.023 0.168701 317.046 0.168701H335.797ZM315.831 16.3906V13.6187H335.797V16.3906H315.831Z" fill="white"/>
<path fill-rule="evenodd" clip-rule="evenodd" d="M94.182 29.976C94.182 29.976 92.4476 29.976 91.3362 29.976C91.3362 21.5816 90.4541 16.3891 86.1855 16.3891C84.0186 16.3891 79.2744 16.3891 79.2744 16.3891H69.4814V30H66.6719V5C66.6719 2.23858 68.9105 0 71.6719 0H85.1945C90.6574 0 94.3162 3.19787 94.3162 7.99467C94.3162 11.6149 92.69 12.9913 92.69 12.9913C91.9313 13.8967 91.4505 14.3438 90.4541 14.99C90.4541 14.99 91.071 15.4848 91.5395 15.9853C92.9624 17.5054 94.182 20.7821 94.182 29.976ZM91.4704 7.99467C91.4704 13.1529 86.1855 13.5909 86.1855 13.5909H79.2744H69.4717V2.77532H85.1849C88.642 2.77532 91.4704 5.00733 91.4704 7.99467Z" fill="white"/>
<path d="M94.182 29.976C94.182 29.976 92.4476 29.976 91.3362 29.976C91.3362 29.9776 91.3362 29.98 91.3362 29.98H94.182V29.976Z" fill="white"/>
<path fill-rule="evenodd" clip-rule="evenodd" d="M169.492 29.9755V2.75982V0C167.938 0 166.679 1.25963 166.679 2.81346V29.9755H169.492Z" fill="white"/>
<path d="M193.9 30C195.481 30 196.762 28.7187 196.762 27.1381V0H193.9V27.1819L171.896 1.11653C171.298 0.408503 170.419 0 169.492 0V2.75982L191.645 28.9538C192.207 29.6173 193.031 30 193.9 30Z" fill="white"/>
</svg>
