<svg width="12" height="32" viewBox="0 0 12 32" fill="none" xmlns="http://www.w3.org/2000/svg">
<path d="M10.1871 18.3883C10.2996 18.4903 10.4364 18.5461 10.5908 18.5457C10.7527 18.5453 10.8968 18.4858 11.0145 18.3748M10.1871 18.3883L11.0145 18.3748L10.878 18.2301L11.0145 18.3748M10.1871 18.3883L10.1851 18.3873L10.1628 18.3655L5.92741 14.236L1.69286 18.3647C1.57605 18.4811 1.43078 18.5453 1.26541 18.5453C1.09957 18.5453 0.953964 18.4807 0.836985 18.3637C0.720006 18.2468 0.655469 18.1012 0.655469 17.9353C0.655469 17.7765 0.710547 17.6333 0.823423 17.5205L0.82341 17.5205L0.825325 17.5186L5.48645 12.9804C5.60675 12.8606 5.75801 12.7999 5.92785 12.7999C6.09763 12.7999 6.24885 12.8606 6.36913 12.9803L11.0302 17.5048L11.0354 17.5099L11.0403 17.5154C11.1472 17.6355 11.2002 17.7814 11.2002 17.9423C11.2002 18.1107 11.1371 18.2592 11.0145 18.3748M10.1871 18.3883L11.0145 18.3748" fill="#B9B9B9" stroke="#B9B9B9" stroke-width="0.4"/>
</svg>
