<svg width="12" height="32" viewBox="0 0 12 32" fill="none" xmlns="http://www.w3.org/2000/svg">
<path d="M1.66858 12.9574C1.55611 12.8554 1.41929 12.7996 1.2649 12.8C1.10303 12.8004 0.958922 12.8599 0.841212 12.9709M1.66858 12.9574L0.841213 12.9709L0.977723 13.1156L0.841212 12.9709M1.66858 12.9574L1.67061 12.9584L1.69293 12.9802L5.92831 17.1097L10.1629 12.981C10.2797 12.8646 10.4249 12.8004 10.5903 12.8004C10.7561 12.8004 10.9017 12.865 11.0187 12.982C11.1357 13.0989 11.2002 13.2445 11.2002 13.4104C11.2002 13.5692 11.1452 13.7124 11.0323 13.8252L11.0323 13.8252L11.0304 13.8271L6.36926 18.3653C6.24896 18.4851 6.0977 18.5458 5.92787 18.5458C5.75809 18.5458 5.60687 18.4852 5.48658 18.3654L0.825563 13.8409L0.82031 13.8358L0.815444 13.8303C0.708563 13.7102 0.655493 13.5643 0.655493 13.4034C0.655493 13.235 0.718629 13.0865 0.841212 12.9709M1.66858 12.9574L0.841212 12.9709" fill="black" stroke="black" stroke-width="0.4"/>
</svg>
