<svg width="40" height="24" viewBox="0 0 40 24" fill="none" xmlns="http://www.w3.org/2000/svg">
<rect width="40" height="24" rx="6" fill="#151515"/>
<path d="M25.1078 7.27701C25.0972 7.19944 25.0297 7.1564 24.9736 7.15172C24.918 7.14703 23.8284 7.13042 23.8284 7.13042C23.8284 7.13042 22.9171 6.24234 22.8271 6.152C22.7371 6.06166 22.5613 6.08893 22.4929 6.10939C22.4921 6.10982 22.3218 6.16266 22.0352 6.25172C21.9872 6.09575 21.9167 5.90399 21.8161 5.71137C21.4917 5.09006 21.0165 4.76151 20.4424 4.76066C20.4415 4.76066 20.4411 4.76066 20.4403 4.76066C20.4003 4.76066 20.3608 4.7645 20.3209 4.7679C20.304 4.74745 20.287 4.72742 20.2691 4.70782C20.019 4.43935 19.6984 4.30853 19.3141 4.32003C18.5727 4.34134 17.8343 4.8787 17.2356 5.83325C16.8143 6.50484 16.4937 7.34861 16.4029 8.00187C15.5515 8.2665 14.9562 8.45143 14.943 8.45571C14.5133 8.59121 14.4997 8.60442 14.4436 9.01097C14.402 9.3182 13.2776 18.0438 13.2776 18.0438L22.7006 19.6793L26.7847 18.6604C26.7847 18.6604 25.1184 7.35457 25.1078 7.27701ZM21.5634 6.39831C21.3464 6.46564 21.0997 6.54235 20.8322 6.62544C20.8267 6.24874 20.7821 5.72459 20.6071 5.2716C21.1698 5.37856 21.4466 6.01734 21.5634 6.39831ZM20.3392 6.77885C19.8453 6.93225 19.3065 7.09973 18.7659 7.26764C18.918 6.6834 19.2063 6.10172 19.5604 5.72032C19.6921 5.57842 19.8763 5.42032 20.0946 5.32998C20.2997 5.75953 20.3443 6.36763 20.3392 6.77885ZM19.329 4.81521C19.5031 4.81137 19.6496 4.84972 19.7749 4.93239C19.5744 5.0368 19.3808 5.1868 19.1991 5.3824C18.7281 5.8895 18.3672 6.67658 18.2233 7.43596C17.7744 7.5753 17.3353 7.7121 16.9311 7.83739C17.1863 6.64206 18.1846 4.84844 19.329 4.81521Z" fill="#BABABA"/>
<path d="M24.9747 7.15283C24.9191 7.14814 23.8295 7.13153 23.8295 7.13153C23.8295 7.13153 22.9182 6.24345 22.8282 6.15311C22.7947 6.11944 22.7492 6.10197 22.7017 6.09473L22.7021 19.6796L26.7858 18.6611C26.7858 18.6611 25.1195 7.35568 25.1089 7.27811C25.0983 7.20054 25.0303 7.15751 24.9747 7.15283Z" fill="#BABABA"/>
<path d="M20.4414 9.25995L19.9671 11.0408C19.9671 11.0408 19.438 10.7992 18.8108 10.8388C17.8911 10.8972 17.8813 11.4793 17.8907 11.6254C17.9408 12.4219 20.0286 12.5958 20.1459 14.4614C20.238 15.929 19.37 16.933 18.1195 17.0122C16.6184 17.1073 15.7921 16.2188 15.7921 16.2188L16.1102 14.8611C16.1102 14.8611 16.942 15.4909 17.6078 15.4488C18.0427 15.4211 18.1981 15.0661 18.1824 14.8151C18.117 13.7761 16.4167 13.8375 16.3093 12.1304C16.2189 10.6939 17.159 9.23822 19.2333 9.10697C20.0325 9.05541 20.4414 9.25995 20.4414 9.25995Z" fill="#151515"/>
</svg>
