<svg width="32" height="20" viewBox="0 0 32 20" fill="none" xmlns="http://www.w3.org/2000/svg">
<rect width="32" height="20" rx="4" fill="#151515"/>
<path d="M7.13873 5.60059C5.63519 5.60059 4.88524 6.11147 4.28324 6.52043L4.26506 6.53256C4.23407 6.5538 4.21223 6.58599 4.20395 6.62266C4.19555 6.65934 4.20136 6.69779 4.22019 6.73036L4.81488 7.75455C4.82596 7.77372 4.84124 7.79019 4.85942 7.80277C4.87771 7.81536 4.89848 7.82376 4.92043 7.82737C4.94184 7.83123 4.96379 7.83029 4.98477 7.82462C5.00575 7.81895 5.02523 7.80872 5.04179 7.79459L5.08903 7.75577C5.39848 7.49608 5.89482 7.14901 7.09623 7.05436C7.76483 7.00098 8.34251 7.17571 8.76849 7.57374C9.23685 8.00576 9.51725 8.70352 9.51725 9.44012C9.51725 10.7956 8.71867 11.6475 7.43602 11.6645C6.379 11.6584 5.66908 11.1075 5.66908 10.2932C5.66908 9.8612 5.86447 9.57967 6.24558 9.29814C6.27463 9.27733 6.29518 9.2467 6.30346 9.2119C6.31175 9.1771 6.30712 9.14049 6.29045 9.10883L5.75655 8.09919C5.74666 8.08112 5.73331 8.06518 5.71728 8.05226C5.70125 8.03935 5.68285 8.02973 5.66305 8.02396C5.64283 8.01794 5.62163 8.01624 5.60076 8.01894C5.57977 8.02166 5.55965 8.02874 5.54169 8.03974C4.94227 8.39529 4.20685 9.04573 4.24688 10.2956C4.2954 11.8865 5.61819 13.1013 7.33768 13.151H7.42386H7.54157C9.58503 13.0843 11.0607 11.5674 11.0607 9.51051C11.0607 7.62228 9.68456 5.60059 7.13873 5.60059Z" fill="#BABABA"/>
<path fill-rule="evenodd" clip-rule="evenodd" d="M16.005 10.8658H14.6816C14.6521 10.8658 14.624 10.8775 14.6029 10.8983C14.5821 10.9192 14.5703 10.9475 14.5703 10.977V12.8614C14.5703 12.8909 14.5586 12.9192 14.5378 12.94C14.5169 12.9609 14.4886 12.9726 14.4591 12.9726H13.5272C13.498 12.9723 13.4697 12.9604 13.4489 12.9396C13.4281 12.9189 13.4165 12.8908 13.416 12.8614V6.06439C13.416 6.0349 13.4277 6.00659 13.4488 5.98571C13.4696 5.96485 13.4977 5.95312 13.5272 5.95312H16.005C17.4087 5.95312 18.4131 6.97541 18.4131 8.41018C18.4131 9.84495 17.4161 10.8687 16.0127 10.8687L16.005 10.8658ZM22.9786 12.8599C22.9789 12.8746 22.9763 12.8892 22.9706 12.9029C22.9651 12.9166 22.9569 12.929 22.9467 12.9395C22.9361 12.95 22.9239 12.9584 22.9102 12.964C22.8968 12.9697 22.8821 12.9726 22.8673 12.9726H21.9875C21.9728 12.9726 21.9582 12.9697 21.9446 12.964C21.9309 12.9584 21.9186 12.95 21.9083 12.9395C21.898 12.929 21.8897 12.9166 21.8844 12.9029C21.8788 12.8892 21.8761 12.8746 21.8763 12.8599V12.6566C21.8776 12.6388 21.8734 12.6209 21.8638 12.6058C21.8545 12.5906 21.8404 12.5789 21.8236 12.5724C21.807 12.5659 21.7887 12.5649 21.7715 12.5697C21.754 12.5744 21.7389 12.5846 21.7279 12.5988C21.4652 12.8851 21.0379 13.0928 20.3569 13.0928C19.354 13.0928 18.6906 12.5706 18.6906 11.6684C18.681 11.4485 18.7264 11.2296 18.8228 11.0316C18.9191 10.8337 19.0635 10.6629 19.2427 10.5349C19.6046 10.2634 20.1655 10.1224 20.9978 10.0898L21.8805 10.0601V9.8019C21.8805 9.28112 21.5305 9.06005 20.9681 9.06005C20.4058 9.06005 20.0511 9.25887 19.9683 9.58381C19.9615 9.60675 19.9475 9.62683 19.928 9.64081C19.9088 9.65481 19.8852 9.66189 19.8613 9.66095H18.9904C18.9744 9.66136 18.9584 9.65823 18.9437 9.65184C18.9292 9.64542 18.9159 9.63587 18.9053 9.62384C18.8948 9.61181 18.8869 9.59764 18.8824 9.58225C18.8778 9.56687 18.8766 9.5507 18.8791 9.53485C19.0097 8.7633 19.6477 8.17722 21.0083 8.17722C22.4535 8.17722 22.9742 8.84936 22.9742 10.1328L22.9786 12.8599ZM28.4596 8.45023L26.5012 13.6745C26.056 14.8881 25.2769 15.1997 24.4238 15.1997C24.2631 15.2036 24.1026 15.1842 23.9475 15.1419C23.9233 15.1354 23.9021 15.1211 23.8866 15.1012C23.8715 15.0814 23.8632 15.0571 23.8629 15.0321V14.2383C23.8629 14.2217 23.8665 14.2052 23.8735 14.1902C23.8806 14.1751 23.8907 14.1618 23.9035 14.1512C23.9164 14.1406 23.9312 14.1329 23.9473 14.1287C23.9633 14.1245 23.9802 14.1239 23.9965 14.127C24.1311 14.1525 24.2676 14.1654 24.4046 14.1656C24.6404 14.1774 24.8736 14.1097 25.0665 13.9733C25.2593 13.8369 25.4008 13.6397 25.4683 13.4133L25.5263 13.2308C25.5353 13.2064 25.5353 13.1796 25.5263 13.1551L23.6952 8.45173C23.6897 8.43491 23.6881 8.41699 23.6907 8.39947C23.6935 8.38194 23.7002 8.36527 23.7102 8.35082C23.7206 8.33638 23.7342 8.32455 23.7498 8.31629C23.7655 8.30804 23.783 8.30359 23.8006 8.30334H24.691C24.7137 8.30357 24.7358 8.31059 24.7546 8.32356C24.7734 8.33651 24.7879 8.3548 24.7962 8.37605L26.0397 11.6937C26.0479 11.7153 26.0624 11.734 26.0815 11.7472C26.1007 11.7604 26.1232 11.7674 26.1465 11.7674C26.1695 11.7674 26.1924 11.7604 26.2113 11.7472C26.2304 11.734 26.2451 11.7153 26.2532 11.6937L27.3321 8.38496C27.3392 8.3624 27.3535 8.34275 27.3727 8.32887C27.3919 8.31497 27.4149 8.30759 27.4386 8.3078H28.3513C28.3688 8.30773 28.3862 8.31183 28.4021 8.3197C28.4178 8.32759 28.4316 8.33906 28.4421 8.3532C28.4526 8.36735 28.4596 8.38375 28.4626 8.40113C28.4658 8.41848 28.4647 8.43632 28.4596 8.4532V8.45023ZM15.942 6.98242H14.6896C14.6604 6.9828 14.6323 6.99466 14.6115 7.01543C14.5906 7.03621 14.5787 7.0643 14.5786 7.0937V9.72138C14.5787 9.75065 14.5907 9.77855 14.6116 9.7991C14.6324 9.81965 14.6604 9.83118 14.6896 9.83118H15.942C16.7047 9.83118 17.2671 9.23027 17.2671 8.4068C17.2671 7.58333 16.7047 6.98242 15.942 6.98242ZM20.6752 12.2208C20.1144 12.2208 19.7925 12.0087 19.7925 11.6274C19.7925 11.206 20.144 10.9552 20.7465 10.9256L21.8888 10.8662V11.0769C21.8888 11.8084 21.4378 12.2208 20.6752 12.2208Z" fill="#BABABA"/>
</svg>
