<svg width="10" height="40" viewBox="0 0 10 40" fill="none" xmlns="http://www.w3.org/2000/svg">
<g clip-path="url(#clip0_5169_4945)">
<path d="M0.668331 16.9574C0.555866 16.8554 0.419043 16.7996 0.264652 16.8C0.102781 16.8004 -0.0413218 16.8599 -0.159032 16.9709M0.668331 16.9574L-0.159031 16.9709L-0.022521 17.1156L-0.159032 16.9709M0.668331 16.9574L0.670369 16.9584L0.692681 16.9802L4.92806 21.1097L9.16261 16.981C9.27942 16.8646 9.42469 16.8004 9.59006 16.8004C9.7559 16.8004 9.9015 16.865 10.0185 16.982C10.1355 17.0989 10.2 17.2445 10.2 17.4104C10.2 17.5692 10.1449 17.7124 10.032 17.8252L10.0321 17.8252L10.0301 17.8271L5.36902 22.3653C5.24872 22.4851 5.09746 22.5458 4.92762 22.5458C4.75784 22.5458 4.60662 22.4852 4.48634 22.3654L-0.174682 17.8409L-0.179934 17.8358L-0.1848 17.8303C-0.291681 17.7102 -0.344751 17.5643 -0.344751 17.4034C-0.344751 17.235 -0.281615 17.0865 -0.159032 16.9709M0.668331 16.9574L-0.159032 16.9709" fill="black" stroke="black" stroke-width="0.4"/>
</g>
<defs>
<clipPath id="clip0_5169_4945">
<rect width="10" height="40" fill="white"/>
</clipPath>
</defs>
</svg>
