<svg width="36" height="40" viewBox="0 0 36 40" fill="none" xmlns="http://www.w3.org/2000/svg">
<rect width="36" height="40" fill="white"/>
<rect y="2" width="36" height="36" rx="8" fill="#E7EDFE"/>
<path d="M7.8502 17.8601L7.85047 17.8601L18.1959 17.8531C18.1959 17.8531 18.196 17.8531 18.196 17.8531C18.7482 17.8532 19.1959 18.3009 19.1959 18.8531V22.7269C19.1959 23.0366 19.1359 23.3432 19.0194 23.6302L19.0193 23.6302L19.0167 23.6371L18.128 25.9468C18.0226 26.2058 17.9378 26.3669 17.8426 26.4672C17.7676 26.546 17.6762 26.5989 17.4987 26.6002L8.5 26.6001L8.49767 26.6002C8.31815 26.6012 8.25831 26.5528 8.20902 26.4934C8.12588 26.3932 8.06199 26.2374 7.94538 25.9455C7.94538 25.9455 7.94538 25.9455 7.94538 25.9455L7.02145 23.6327L7.02145 23.6327C6.90832 23.3495 6.8502 23.0473 6.8502 22.7423V18.8601C6.8502 18.3079 7.29792 17.8601 7.8502 17.8601Z" stroke="#1657FC" stroke-width="0.8"/>
<path d="M27.1 11.6001H22.9C22.1268 11.6001 21.5 12.2269 21.5 13.0001V25.6001C21.5 26.3733 22.1268 27.0001 22.9 27.0001H27.1C27.8732 27.0001 28.5 26.3733 28.5 25.6001V13.0001C28.5 12.2269 27.8732 11.6001 27.1 11.6001Z" fill="#1657FC"/>
<path d="M23.5999 13.35C23.5999 13.1567 23.4432 13 23.2499 13C23.0566 13 22.8999 13.1567 22.8999 13.35V25.25C22.8999 25.4433 23.0566 25.6 23.2499 25.6C23.4432 25.6 23.5999 25.4433 23.5999 25.25V13.35Z" fill="#E7EDFE"/>
<path d="M25.3499 13.35C25.3499 13.1567 25.1932 13 24.9999 13C24.8066 13 24.6499 13.1567 24.6499 13.35V25.25C24.6499 25.4433 24.8066 25.6 24.9999 25.6C25.1932 25.6 25.3499 25.4433 25.3499 25.25V13.35Z" fill="#E7EDFE"/>
<path d="M27.0999 13.35C27.0999 13.1567 26.9432 13 26.7499 13C26.5566 13 26.3999 13.1567 26.3999 13.35V25.25C26.3999 25.4433 26.5566 25.6 26.7499 25.6C26.9432 25.6 27.0999 25.4433 27.0999 25.25V13.35Z" fill="#E7EDFE"/>
</svg>
