<svg width="64" height="80" viewBox="0 0 64 80" fill="none" xmlns="http://www.w3.org/2000/svg">
<rect y="8" width="64" height="64" rx="12" fill="#E7EDFE"/>
<path d="M11.7 37.6207L11.7005 37.6207L32.3914 37.6067C32.3914 37.6067 32.3915 37.6067 32.3916 37.6067C33.5513 37.6068 34.4914 38.5471 34.4914 39.7067V47.4543C34.4914 48.0865 34.369 48.7126 34.1311 49.2985L34.131 49.2985L34.1263 49.3105L32.3487 53.9308C32.1375 54.4499 31.962 54.7881 31.7572 55.0037C31.588 55.1818 31.3789 55.2981 30.9975 55.3008L12.9996 55.3008L12.9955 55.3008C12.6094 55.3031 12.4602 55.1951 12.3407 55.0511C12.162 54.8357 12.0283 54.5062 11.7975 53.9286L9.94968 49.3029L9.94967 49.3029C9.71869 48.7247 9.60002 48.1078 9.60002 47.4851V39.7207C9.60002 38.561 10.5402 37.6207 11.7 37.6207Z" stroke="#1657FC" stroke-width="1.4"/>
<path d="M50.2 25.2002H41.8C40.2536 25.2002 39 26.4538 39 28.0002V53.2002C39 54.7466 40.2536 56.0002 41.8 56.0002H50.2C51.7464 56.0002 53 54.7466 53 53.2002V28.0002C53 26.4538 51.7464 25.2002 50.2 25.2002Z" fill="#1657FC"/>
<path d="M43.1998 28.7C43.1998 28.3134 42.8864 28 42.4998 28C42.1132 28 41.7998 28.3134 41.7998 28.7V52.5C41.7998 52.8866 42.1132 53.2 42.4998 53.2C42.8864 53.2 43.1998 52.8866 43.1998 52.5V28.7Z" fill="#E7EDFE"/>
<path d="M46.6998 28.7C46.6998 28.3134 46.3864 28 45.9998 28C45.6132 28 45.2998 28.3134 45.2998 28.7V52.5C45.2998 52.8866 45.6132 53.2 45.9998 53.2C46.3864 53.2 46.6998 52.8866 46.6998 52.5V28.7Z" fill="#E7EDFE"/>
<path d="M50.1998 28.7C50.1998 28.3134 49.8864 28 49.4998 28C49.1132 28 48.7998 28.3134 48.7998 28.7V52.5C48.7998 52.8866 49.1132 53.2 49.4998 53.2C49.8864 53.2 50.1998 52.8866 50.1998 52.5V28.7Z" fill="#E7EDFE"/>
</svg>
