<svg width="36" height="40" viewBox="0 0 36 40" fill="none" xmlns="http://www.w3.org/2000/svg">
<rect width="36" height="40" fill="white"/>
<rect y="2" width="36" height="36" rx="8" fill="#F6F6F6"/>
<g clip-path="url(#clip0_5271_3972)">
<path d="M20.8017 19.5424L17.7041 22.6037C17.6691 22.6363 17.6385 22.675 17.6253 22.7239L17.0002 24.4082C16.9491 24.5388 16.9899 24.7055 17.1051 24.7937C17.2247 24.8863 17.3906 24.8863 17.5102 24.8075L18.997 23.8001C19.0348 23.7718 19.0729 23.7397 19.0946 23.6973L21.3351 19.9605C21.4224 19.8132 21.3846 19.6283 21.2462 19.5159C21.1137 19.4127 20.9226 19.4208 20.8017 19.5424Z" fill="#090909"/>
<path d="M26.0097 16.5327L23.3525 19.1878C24.217 20.1973 24.7694 21.4699 24.8918 22.8633H28.6336C28.5026 20.4414 27.5376 18.2375 26.0097 16.5327Z" fill="#090909"/>
<path d="M18.8936 13.1353L18.9022 16.8764C20.2973 16.9988 21.5625 17.5411 22.5682 18.4041L25.2227 15.7467C23.5305 14.2302 21.3279 13.2673 18.8936 13.1353Z" fill="#090909"/>
<path d="M17.7858 13.1353C15.3616 13.2673 13.1592 14.2432 11.4639 15.7467L14.1227 18.4041C15.1313 17.5411 16.4025 16.9988 17.7974 16.8764L17.7858 13.1353Z" fill="#090909"/>
<path d="M8.05615 22.8633H11.8213C11.9307 21.4699 12.4846 20.1973 13.3357 19.1878L10.6813 16.5327C9.15374 18.2375 8.19001 20.4414 8.05615 22.8633Z" fill="#090909"/>
</g>
<defs>
<clipPath id="clip0_5271_3972">
<rect width="20.6897" height="12" fill="white" transform="translate(8 13)"/>
</clipPath>
</defs>
</svg>
