<svg width="64" height="80" viewBox="0 0 64 80" fill="none" xmlns="http://www.w3.org/2000/svg">
<rect y="8" width="64" height="64" rx="12" fill="#E7EDFE"/>
<path d="M20.4736 44.1551C20.5175 44.0886 20.4698 44 20.3902 44C19.2838 44 18.2401 44 17.1918 44C17.156 44.0001 17.1208 44.0078 17.089 44.0225C17.0571 44.0372 17.0296 44.0585 17.0087 44.0846C16.5351 44.769 16.1052 45.5283 16.0196 46.48C15.9387 47.2383 16.1094 48.0011 16.51 48.6722C16.9215 49.346 17.8824 49.9252 18.3006 50.593C18.875 51.51 18.8817 52.3711 18.319 53.3124C17.9831 53.8728 17.1112 54.3895 16.7669 54.9425C16.5976 55.2073 16.4502 55.5069 16.266 55.8515C16.2302 55.9185 16.2785 56 16.3545 56H16.9348C17.7477 56 18.5589 56 19.3702 56C19.4248 55.9998 19.4787 55.9881 19.5274 55.9658C19.5761 55.9435 19.6507 55.8716 19.6507 55.8716C19.6507 55.8716 20.9996 54.5814 21.4061 53.9182C22.1955 52.637 22.2005 51.3665 21.4061 50.0944C20.9963 49.4342 20.0371 48.8701 19.6323 48.2038C19.3698 47.7849 19.2318 47.3122 19.2318 46.8313C19.2318 46.3504 19.3698 45.8777 19.6323 45.4588C19.8889 45.0392 20.1725 44.6105 20.4736 44.1551Z" fill="#1657FC"/>
<path d="M46.4736 44.1551C46.5175 44.0886 46.4698 44 46.3902 44C45.2838 44 44.2401 44 43.1918 44C43.156 44.0001 43.1208 44.0078 43.089 44.0225C43.0571 44.0372 43.0296 44.0585 43.0087 44.0846C42.5351 44.769 42.1052 45.5283 42.0196 46.48C41.9387 47.2383 42.1094 48.0011 42.51 48.6722C42.9215 49.346 43.8824 49.9252 44.3006 50.593C44.875 51.51 44.8817 52.3711 44.319 53.3124C43.9831 53.8728 43.1112 54.3895 42.7669 54.9425C42.5976 55.2073 42.4502 55.5069 42.266 55.8515C42.2302 55.9185 42.2785 56 42.3545 56H42.9348C43.7477 56 44.5589 56 45.3702 56C45.4248 55.9998 45.4787 55.9881 45.5274 55.9658C45.5761 55.9435 45.6507 55.8716 45.6507 55.8716C45.6507 55.8716 46.9996 54.5814 47.4061 53.9182C48.1955 52.637 48.2005 51.3665 47.4061 50.0944C46.9963 49.4342 46.0371 48.8701 45.6323 48.2038C45.3698 47.7849 45.2318 47.3122 45.2318 46.8313C45.2318 46.3504 45.3698 45.8777 45.6323 45.4588C45.8889 45.0392 46.1725 44.6105 46.4736 44.1551Z" fill="#1657FC"/>
<path d="M42.852 40.5655C42.852 40.5655 41.5881 40.5525 39.7116 40.6572C33.4573 41.0058 27.3814 40.9604 21.4837 40.5209C20.6145 40.4561 20.5015 40.4992 20.5015 40.4992C20.5015 40.4992 20.4564 41.5491 20.3474 41.8359C20.1688 42.3052 19.8604 42.6175 19.422 42.7727C19.2471 42.8347 18.9822 42.8638 18.6271 42.8599C18.2731 42.8566 17.8811 42.8957 17.5627 42.7851C17.0506 42.6067 16.7195 42.2437 16.5694 41.6963C16.3378 40.8526 16.2304 39.8676 16.164 38.8851C16.0217 36.8021 15.9135 34.6767 16.0968 32.5929C16.159 31.8914 16.2485 31.3935 16.3655 31.0992C16.7962 30.0112 18.213 29.3562 19.1866 28.9606C19.2113 28.9506 19.2113 28.9401 19.1866 28.929C18.9305 28.817 18.7593 28.7625 18.6729 28.7652C17.9325 28.7868 16.1324 29.0744 16.3876 27.6722C16.5433 26.8194 17.972 26.7196 18.5963 26.7329C18.6226 26.7335 18.6475 26.7445 18.6658 26.7637C18.9282 27.0413 19.0483 27.7337 19.1305 28.1127C19.1327 28.1231 19.1371 28.1328 19.1434 28.1411C19.1497 28.1495 19.1577 28.1562 19.1668 28.1609L19.6133 28.3945C19.6475 28.4128 19.6702 28.4023 19.6812 28.3629C20.3355 25.979 21.8852 23.5519 24.3862 23.0815C24.6801 23.0266 25.2051 22.9995 25.9611 23C29.7283 23.0028 33.4953 23.0028 37.262 23C38.0006 22.9995 38.5255 23.0316 38.8369 23.0964C41.2636 23.6018 42.8559 26.053 43.5758 28.3554C43.5842 28.3826 43.6016 28.3926 43.6279 28.3854C43.8698 28.3164 44.1487 28.1884 44.2103 27.934C44.2965 27.5774 44.3644 27.1585 44.5399 26.8385C44.5577 26.8059 44.5833 26.7788 44.6143 26.76C44.6452 26.7412 44.6803 26.7313 44.7161 26.7313C45.3174 26.7304 47.0243 26.8526 46.886 27.8966C46.8354 28.2831 46.5707 28.6896 46.1717 28.7129C45.7391 28.7378 45.1926 28.7533 44.532 28.7594C44.3223 28.7611 44.1163 28.8179 43.914 28.9298C43.8882 28.9448 43.8892 28.9575 43.9172 28.968C44.601 29.2252 45.2539 29.5798 45.8761 30.032C46.3431 30.3711 46.6624 30.7917 46.8046 31.3669C47.0219 32.243 47.1207 33.1731 47.165 34.1606C47.2377 35.772 47.2382 37.3826 47.1665 38.9923C47.1254 39.9017 46.9982 40.875 46.788 41.673C46.6521 42.1905 46.3579 42.5457 45.9053 42.7386C45.722 42.8167 45.4602 42.8572 45.1199 42.8599C44.43 42.8649 43.9227 42.9347 43.417 42.5125C42.8994 42.0794 42.9041 41.5009 42.852 40.8692C42.8493 40.8371 42.852 40.5655 42.852 40.5655ZM39.1229 24.0864C38.711 23.8947 38.2092 23.7988 37.6176 23.7988C33.4953 23.7971 29.373 23.7905 25.2507 23.7788C23.37 23.7739 22.217 25.4604 21.5801 27.0987C21.4403 27.4586 21.4197 27.8251 21.7532 28.0388C21.8622 28.1086 22.0269 28.1388 22.2471 28.1294C27.0595 27.9224 31.7273 27.9299 36.7088 28.0088C38.1812 28.0321 39.5201 28.0756 40.7255 28.1393C40.9267 28.1499 41.0782 28.1319 41.1799 28.0853C41.5931 27.8958 41.5718 27.4777 41.4327 27.0638C41.0345 25.8776 40.2435 24.6084 39.1229 24.0864ZM41.1174 33.6402C41.1174 33.6402 43.9053 33.8231 44.3012 33.6594C44.6908 33.4973 45.2115 33.3468 45.3901 32.9562C45.643 32.4017 45.511 31.711 45.4565 31.1175C45.4539 31.0898 45.4396 31.0763 45.4138 31.0768C43.4707 31.0901 40.8416 31.534 39.4074 33.0758C39.403 33.0808 39.3995 33.0866 39.3973 33.0929C39.3951 33.0993 39.3941 33.1061 39.3945 33.1128C39.3948 33.1195 39.3965 33.126 39.3994 33.132C39.4023 33.1379 39.4064 33.1432 39.4114 33.1473C39.9034 33.5696 41.1174 33.6402 41.1174 33.6402ZM18.9479 33.7009C18.9479 33.7009 20.4377 33.8465 21.4916 33.8866C21.8849 33.9016 22.4507 33.7455 22.654 33.7084C23.0007 33.6458 23.3147 33.4881 23.596 33.2354C23.6181 33.2155 23.6194 33.1939 23.5999 33.1706C23.0894 32.5555 22.1894 32.0792 21.4916 31.829C20.252 31.3857 18.9532 31.1666 17.5951 31.1716C17.5703 31.1716 17.5577 31.1846 17.5571 31.2106C17.5477 31.8515 17.4623 32.6095 17.7658 33.0617C17.9791 33.3809 18.9479 33.7009 18.9479 33.7009Z" fill="#1657FC"/>
</svg>
