<svg width="64" height="80" viewBox="0 0 64 80" fill="none" xmlns="http://www.w3.org/2000/svg">
<rect y="8" width="64" height="64" rx="12" fill="#E7EDFE"/>
<path d="M27.2413 51.9187C26.6392 52.7076 25.9235 53.3773 25.0942 53.9278C25.0126 53.9817 24.9148 54.0067 24.8177 53.9984C24.7206 53.9902 24.6304 53.9492 24.5626 53.8825C24.2908 53.6206 23.9777 53.4394 23.6233 53.3387C23.4185 53.2791 23.2461 53.1431 23.1436 52.9601C23.0412 52.7771 23.0169 52.5621 23.0762 52.3618L23.8091 49.8894C23.8607 49.7082 23.8005 49.5739 23.6284 49.4866C22.6581 49.0032 21.994 48.6306 21.6362 48.3688C20.394 47.4523 20.5489 46.9219 22.1007 46.7776C23.422 46.6567 24.9136 46.6064 25.951 45.6497C26.7046 44.9598 27.8865 44.1894 27.5252 43.0061C26.88 40.9164 24.7639 42.0141 23.3549 42.3968C23.1897 42.4404 23.0504 42.526 22.9368 42.6536L20.4284 45.5338C20.3531 45.6206 20.2505 45.6805 20.1365 45.7041C20.0226 45.7278 19.9038 45.714 19.7988 45.6648C19.3239 45.4365 19.1175 45.0051 19.1794 44.3707C19.2482 43.6859 19.3016 42.9926 19.3394 42.2911C19.3463 42.1299 19.2723 42.0292 19.1175 41.9889L16.3872 41.2487C16.2745 41.2186 16.1754 41.1527 16.1053 41.0616C16.0352 40.9704 15.9982 40.8591 16.0001 40.7452L16.0156 39.2598C16.0154 39.1299 16.0592 39.0034 16.1403 38.8998C16.2214 38.7961 16.3353 38.7209 16.4646 38.6857L18.9988 38.0009C19.2052 37.9438 19.3084 37.8096 19.3084 37.5981L19.2878 35.594C19.274 33.8988 19.8263 33.699 20.9446 34.9948L22.8955 37.2557C23.0091 37.3866 23.1502 37.4806 23.3188 37.5377C24.4801 37.9153 27.5665 39.0231 27.6233 36.6917C27.6491 35.6343 26.6633 34.9595 25.9097 34.2445C24.5523 32.9555 22.0955 33.7057 21.151 32.9101C20.6211 32.467 20.6573 32.081 21.2594 31.752L23.6336 30.4529C23.7953 30.3622 23.8504 30.2297 23.7988 30.0551L23.0555 27.5575C23.0074 27.3998 23.0401 27.2571 23.1536 27.1295C23.5734 26.6562 24.0981 26.2937 24.7278 26.0419C24.9033 25.9714 25.0702 25.9899 25.2284 26.0973C25.982 26.6042 26.6151 27.2319 27.1278 27.9805C27.1931 28.0783 27.2946 28.1479 27.4116 28.175C27.5286 28.2021 27.6523 28.1848 27.7575 28.1265L29.5742 27.1044C30.8783 26.3692 31.3256 26.7082 30.9162 28.1215C30.5652 29.325 29.7342 30.4126 29.9097 31.7772C30.0301 32.7104 30.2469 33.4389 30.56 33.9625C31.1329 34.9243 32.9549 35.161 33.4297 33.9525C33.7566 33.1233 34.0164 32.2723 34.2091 31.3995C34.2435 31.2384 34.2314 31.0823 34.1729 30.9312L33.0839 28.0963C33.0171 27.9252 33.0069 27.738 33.0548 27.5609C33.1027 27.3838 33.2062 27.2259 33.3509 27.1092C33.4956 26.9925 33.6741 26.923 33.8613 26.9104C34.0486 26.8978 34.2351 26.9427 34.3949 27.0389L36.1394 28.0812C36.2584 28.153 36.3993 28.1817 36.5371 28.1623C36.675 28.143 36.801 28.0768 36.8929 27.9755L38.4258 26.2886C38.5013 26.205 38.5933 26.137 38.6964 26.0888C38.7994 26.0405 38.9113 26.013 39.0254 26.0079C39.1395 26.0027 39.2536 26.02 39.3607 26.0587C39.4678 26.0974 39.5659 26.1568 39.649 26.2332C39.8452 26.4145 40.0637 26.5354 40.3045 26.5958C40.4158 26.625 40.5201 26.6754 40.6112 26.7442C40.7023 26.8129 40.7785 26.8985 40.8352 26.9961C40.8919 27.0936 40.928 27.201 40.9415 27.3121C40.9549 27.4232 40.9454 27.5358 40.9136 27.6431L40.2116 30.0299C40.16 30.2078 40.2151 30.3421 40.3768 30.4327L42.9884 31.9131C43.2499 32.0608 43.305 32.2639 43.1536 32.5224C42.9781 32.8111 42.6357 32.9907 42.1265 33.0612C40.6865 33.2626 38.9626 33.3885 37.8787 34.4409C37.2955 35.0099 36.4697 35.6091 36.3974 36.4349C36.1703 39.0634 39.489 37.9556 40.702 37.5175C40.8637 37.4605 40.9996 37.3681 41.1097 37.2406L43.6336 34.3603C43.6985 34.2837 43.7892 34.2318 43.89 34.2134C43.9908 34.195 44.0954 34.2114 44.1858 34.2596C45.0632 34.738 44.6452 36.5205 44.7174 37.6887C44.7277 37.8364 44.8052 37.9304 44.9497 37.9707L47.6439 38.726C47.8778 38.7898 47.9948 38.9392 47.9948 39.1742L48 40.7855C48.0002 40.8868 47.966 40.9855 47.9026 41.0664C47.8392 41.1474 47.7501 41.2061 47.649 41.2336L45.0168 41.9688C44.7897 42.0292 44.6779 42.1752 44.6813 42.4069L44.7174 44.3958C44.7484 46.0844 44.2065 46.2841 43.0916 44.9951L41.151 42.7493C41.0374 42.6184 40.8981 42.521 40.7329 42.4572C39.5183 41.9973 38.6271 41.7674 38.0594 41.7674C36.96 41.7724 36.1497 42.6989 36.4181 43.7463C36.5833 44.416 37.5381 45.1965 38.0697 45.6799C39.1278 46.6366 40.8826 46.7121 42.2813 46.8179C43.0452 46.8783 43.3015 47.261 43.0503 47.9659C43.0056 48.0968 42.7475 48.2781 42.2761 48.5097C41.6258 48.8287 40.9841 49.1677 40.351 49.5269C40.203 49.6108 40.1531 49.735 40.2013 49.8995L40.9342 52.3517C40.9641 52.4499 40.9735 52.5529 40.9621 52.6547C40.9507 52.7565 40.9185 52.8551 40.8676 52.9447C40.8167 53.0342 40.7479 53.113 40.6654 53.1763C40.5829 53.2396 40.4883 53.2863 40.3871 53.3135C40.105 53.3907 39.8486 53.5267 39.6181 53.7214C39.4425 53.8689 39.2143 53.9426 38.9832 53.9266C38.7521 53.9106 38.5369 53.806 38.3845 53.6358L36.9497 52.0395C36.8525 51.9302 36.7187 51.8577 36.5716 51.8348C36.4245 51.8118 36.2734 51.8397 36.1445 51.9137L34.4103 52.8905C32.9342 53.7264 32.4972 53.3638 33.0994 51.8029L34.2091 48.9377C34.2676 48.7867 34.2727 48.6339 34.2245 48.4795C33.8633 47.3214 33.5329 44.3052 31.3497 45.3173C30.2658 45.8209 30.0542 47.4624 29.7858 48.5601C29.7487 48.7175 29.7613 48.8825 29.822 49.0334C30.2418 50.0707 30.6443 51.103 31.0297 52.1302C31.157 52.4659 31.176 52.7227 31.0865 52.9006C30.9867 53.0953 30.7957 53.2094 30.5136 53.243C30.3656 53.2631 30.228 53.2363 30.1007 53.1624L27.7575 51.818C27.5545 51.7005 27.3824 51.7341 27.2413 51.9187Z" fill="#1657FC"/>
</svg>
