<svg width="36" height="40" viewBox="0 0 36 40" fill="none" xmlns="http://www.w3.org/2000/svg">
<rect width="36" height="40" fill="white"/>
<rect y="2" width="36" height="36" rx="8" fill="#F6F6F6"/>
<path d="M15.6207 25.9593C15.3196 26.3538 14.9617 26.6886 14.5471 26.9639C14.5063 26.9909 14.4574 27.0034 14.4088 26.9992C14.3603 26.9951 14.3152 26.9746 14.2813 26.9412C14.1454 26.8103 13.9888 26.7197 13.8116 26.6693C13.7092 26.6396 13.623 26.5715 13.5718 26.4801C13.5206 26.3886 13.5085 26.2811 13.5381 26.1809L13.9045 24.9447C13.9303 24.8541 13.9002 24.7869 13.8142 24.7433C13.3291 24.5016 12.997 24.3153 12.8181 24.1844C12.197 23.7262 12.2744 23.461 13.0503 23.3888C13.711 23.3284 14.4568 23.3032 14.9755 22.8248C15.3523 22.4799 15.9432 22.0947 15.7626 21.503C15.44 20.4582 14.382 21.0071 13.6774 21.1984C13.5949 21.2202 13.5252 21.263 13.4684 21.3268L12.2142 22.7669C12.1766 22.8103 12.1252 22.8402 12.0683 22.8521C12.0113 22.8639 11.9519 22.857 11.8994 22.8324C11.662 22.7182 11.5587 22.5026 11.5897 22.1853C11.6241 21.8429 11.6508 21.4963 11.6697 21.1455C11.6731 21.065 11.6362 21.0146 11.5587 20.9945L10.1936 20.6244C10.1373 20.6093 10.0877 20.5764 10.0526 20.5308C10.0176 20.4852 9.9991 20.4296 10 20.3726L10.0078 19.6299C10.0077 19.5649 10.0296 19.5017 10.0702 19.4499C10.1107 19.398 10.1677 19.3605 10.2323 19.3429L11.4994 19.0005C11.6026 18.9719 11.6542 18.9048 11.6542 18.799L11.6439 17.797C11.637 16.9494 11.9131 16.8495 12.4723 17.4974L13.4478 18.6278C13.5045 18.6933 13.5751 18.7403 13.6594 18.7688C14.24 18.9577 15.7832 19.5115 15.8116 18.3459C15.8245 17.8171 15.3316 17.4798 14.9549 17.1223C14.2762 16.4777 13.0478 16.8529 12.5755 16.4551C12.3106 16.2335 12.3286 16.0405 12.6297 15.876L13.8168 15.2264C13.8977 15.1811 13.9252 15.1148 13.8994 15.0275L13.5278 13.7788C13.5037 13.6999 13.52 13.6286 13.5768 13.5648C13.7867 13.3281 14.0491 13.1468 14.3639 13.0209C14.4516 12.9857 14.5351 12.9949 14.6142 13.0486C14.991 13.3021 15.3075 13.616 15.5639 13.9903C15.5965 14.0392 15.6473 14.0739 15.7058 14.0875C15.7643 14.1011 15.8262 14.0924 15.8787 14.0633L16.7871 13.5522C17.4392 13.1846 17.6628 13.3541 17.4581 14.0608C17.2826 14.6625 16.8671 15.2063 16.9549 15.8886C17.0151 16.3552 17.1235 16.7194 17.28 16.9813C17.5665 17.4622 18.4774 17.5805 18.7149 16.9762C18.8783 16.5617 19.0082 16.1362 19.1045 15.6998C19.1217 15.6192 19.1157 15.5412 19.0865 15.4656L18.542 14.0482C18.5085 13.9626 18.5035 13.869 18.5274 13.7805C18.5513 13.6919 18.6031 13.6129 18.6755 13.5546C18.7478 13.4963 18.837 13.4615 18.9307 13.4552C19.0243 13.4489 19.1176 13.4714 19.1974 13.5195L20.0697 14.0406C20.1292 14.0765 20.1996 14.0908 20.2686 14.0812C20.3375 14.0715 20.4005 14.0384 20.4465 13.9877L21.2129 13.1443C21.2507 13.1025 21.2967 13.0685 21.3482 13.0444C21.3997 13.0203 21.4556 13.0065 21.5127 13.0039C21.5698 13.0013 21.6268 13.01 21.6804 13.0293C21.7339 13.0487 21.783 13.0784 21.8245 13.1166C21.9226 13.2073 22.0318 13.2677 22.1523 13.2979C22.2079 13.3125 22.2601 13.3377 22.3056 13.3721C22.3512 13.4065 22.3892 13.4493 22.4176 13.498C22.4459 13.5468 22.464 13.6005 22.4707 13.6561C22.4775 13.7116 22.4727 13.7679 22.4568 13.8216L22.1058 15.015C22.08 15.1039 22.1075 15.1711 22.1884 15.2164L23.4942 15.9566C23.625 16.0304 23.6525 16.132 23.5768 16.2612C23.489 16.4056 23.3179 16.4954 23.0632 16.5306C22.3432 16.6313 21.4813 16.6943 20.9394 17.2205C20.6478 17.505 20.2349 17.8046 20.1987 18.2175C20.0852 19.5317 21.7445 18.9778 22.351 18.7588C22.4318 18.7302 22.4998 18.6841 22.5548 18.6203L23.8168 17.1802C23.8493 17.1419 23.8946 17.1159 23.945 17.1067C23.9954 17.0975 24.0477 17.1057 24.0929 17.1298C24.5316 17.369 24.3226 18.2603 24.3587 18.8444C24.3639 18.9182 24.4026 18.9652 24.4748 18.9854L25.8219 19.363C25.9389 19.3949 25.9974 19.4696 25.9974 19.5871L26 20.3927C26.0001 20.4434 25.983 20.4928 25.9513 20.5332C25.9196 20.5737 25.8751 20.6031 25.8245 20.6168L24.5084 20.9844C24.3948 21.0146 24.3389 21.0876 24.3406 21.2034L24.3587 22.1979C24.3742 23.0422 24.1032 23.1421 23.5458 22.4975L22.5755 21.3746C22.5187 21.3092 22.449 21.2605 22.3665 21.2286C21.7591 20.9987 21.3136 20.8837 21.0297 20.8837C20.48 20.8862 20.0749 21.3495 20.209 21.8731C20.2916 22.208 20.769 22.5982 21.0348 22.8399C21.5639 23.3183 22.4413 23.3561 23.1407 23.4089C23.5226 23.4391 23.6508 23.6305 23.5252 23.983C23.5028 24.0484 23.3738 24.1391 23.1381 24.2549C22.8129 24.4143 22.4921 24.5838 22.1755 24.7634C22.1015 24.8054 22.0766 24.8675 22.1007 24.9498L22.4671 26.1759C22.482 26.225 22.4868 26.2765 22.4811 26.3274C22.4753 26.3783 22.4593 26.4276 22.4338 26.4723C22.4083 26.5171 22.374 26.5565 22.3327 26.5881C22.2915 26.6198 22.2442 26.6431 22.1936 26.6567C22.0525 26.6954 21.9243 26.7633 21.809 26.8607C21.7213 26.9344 21.6072 26.9713 21.4916 26.9633C21.3761 26.9553 21.2685 26.903 21.1923 26.8179L20.4748 26.0198C20.4262 25.9651 20.3594 25.9289 20.2858 25.9174C20.2123 25.9059 20.1367 25.9198 20.0723 25.9568L19.2052 26.4453C18.4671 26.8632 18.2486 26.6819 18.5497 25.9014L19.1045 24.4689C19.1338 24.3933 19.1364 24.317 19.1123 24.2398C18.9316 23.6607 18.7665 22.1526 17.6749 22.6587C17.1329 22.9104 17.0271 23.7312 16.8929 24.28C16.8744 24.3588 16.8807 24.4413 16.911 24.5167C17.1209 25.0354 17.3222 25.5515 17.5149 26.0651C17.5785 26.2329 17.588 26.3613 17.5432 26.4503C17.4934 26.5476 17.3979 26.6047 17.2568 26.6215C17.1828 26.6316 17.114 26.6181 17.0503 26.5812L15.8787 25.909C15.7772 25.8502 15.6912 25.867 15.6207 25.9593Z" fill="#090909"/>
</svg>
