<svg width="36" height="40" viewBox="0 0 36 40" fill="none" xmlns="http://www.w3.org/2000/svg">
<rect width="36" height="40" fill="white"/>
<rect y="2" width="36" height="36" rx="8" fill="#F6F6F6"/>
<path fill-rule="evenodd" clip-rule="evenodd" d="M23.9981 16.9214L23.4116 17.7442C26.3165 20.4165 28.0004 24.1774 28.0004 28.1551L29.0031 28.1551C29.0031 23.8543 27.1629 19.7878 23.9981 16.9214Z" fill="black"/>
<path fill-rule="evenodd" clip-rule="evenodd" d="M20.3522 21.8989L19.7583 22.7075C21.3517 24.018 22.3011 26.0153 22.3011 28.1528L23.3048 28.1528C23.3051 25.7002 22.205 23.4016 20.3522 21.8989Z" fill="black"/>
<path fill-rule="evenodd" clip-rule="evenodd" d="M22.2298 19.3486L21.6343 20.1602C23.8941 22.1435 25.2169 25.057 25.2169 28.1483L26.2196 28.1483C26.2196 24.7409 24.7517 21.5263 22.2298 19.3486Z" fill="black"/>
<path d="M8.64295 27.129C8.93347 27.367 9.24959 27.5715 9.58287 27.7443C9.91573 27.917 10.2675 28.0514 10.6283 28.1526C10.9914 28.2544 11.367 28.3184 11.7429 28.3474C11.9325 28.362 12.1227 28.3662 12.3125 28.3535C12.4925 28.3414 12.6827 28.3185 12.8469 28.2392C13.0167 28.1572 13.1428 28.0191 13.2688 27.8828C13.4049 27.7355 13.5354 27.5831 13.6676 27.4322C13.9356 27.1263 14.1976 26.8149 14.4624 26.5062C14.7214 26.2044 14.987 25.907 15.2113 25.5779C15.3229 25.4141 15.4173 25.2396 15.5266 25.0744C15.6355 24.91 15.7584 24.7574 15.8847 24.6061C15.9496 24.5284 16.0145 24.4507 16.0794 24.3729C16.0952 24.354 16.111 24.3351 16.1268 24.3162C16.1356 24.3057 16.1528 24.2757 16.1648 24.2708C16.1751 24.2664 16.1998 24.2756 16.2111 24.2777C16.2354 24.2821 16.2597 24.2862 16.2841 24.2898C16.3774 24.3034 16.4711 24.315 16.5653 24.3207C16.6497 24.3257 16.7349 24.3324 16.8194 24.3241C16.8961 24.3165 16.9643 24.2948 17.0277 24.2511C17.0966 24.2036 17.1643 24.141 17.2177 24.0763C17.2384 24.0513 17.27 24.0102 17.2572 23.9753C17.2437 23.9386 17.1921 23.9236 17.1591 23.9128C17.0675 23.883 16.9741 23.8591 16.881 23.8346C16.7867 23.8098 16.6923 23.7854 16.5979 23.7608C16.6353 23.712 16.6813 23.6676 16.7226 23.6219C16.7674 23.5722 16.8122 23.5225 16.8571 23.4728C16.9459 23.3743 17.0348 23.2758 17.1236 23.1773C17.3009 22.9808 17.4796 22.7855 17.6548 22.5872C18.0073 22.1883 18.3595 21.7892 18.7078 21.3866C19.0494 20.9916 19.3923 20.5967 19.7202 20.1901C20.0519 19.7785 20.3766 19.3604 20.7165 18.9555C20.7969 18.8597 20.8785 18.7646 20.9647 18.6739C21.0536 18.5805 21.1464 18.4911 21.2387 18.401C21.4219 18.222 21.5932 18.0346 21.7637 17.8428C21.939 17.6454 22.1085 17.4425 22.2765 17.2389C22.4478 17.0312 22.6203 16.8244 22.7903 16.6157C22.9591 16.4086 23.1269 16.2006 23.2902 15.9892C23.3698 15.8861 23.449 15.7809 23.5062 15.6634C23.5608 15.5511 23.5935 15.4302 23.6261 15.3103C23.6963 15.0525 23.7629 14.7938 23.8372 14.5372C23.8719 14.4173 23.9066 14.2982 23.9404 14.1782C23.9715 14.0679 24.0047 13.955 23.994 13.8391C23.9834 13.7234 23.9425 13.613 23.9012 13.5054C23.8552 13.3857 23.8023 13.2688 23.746 13.1536C23.6304 12.9169 23.498 12.6889 23.3551 12.4676C23.0735 12.0313 22.7444 11.6136 22.361 11.2623C22.1631 11.081 21.9574 10.9084 21.7434 10.7464C21.5324 10.5867 21.3073 10.4474 21.0754 10.3205C20.6169 10.0696 20.133 9.86365 19.6298 9.72126C19.5061 9.68628 19.381 9.6566 19.2547 9.63284C19.1417 9.61158 19.0197 9.59166 18.9053 9.61347C18.7869 9.63604 18.6784 9.69361 18.5709 9.74595C18.4589 9.8005 18.3468 9.85566 18.2345 9.91048C18.0038 10.023 17.7699 10.1285 17.5379 10.2383C17.4404 10.2844 17.3426 10.3317 17.2541 10.3939C17.1586 10.461 17.0756 10.5435 16.9965 10.629C16.6359 11.0187 16.2953 11.4269 15.9507 11.8307C15.6141 12.225 15.2735 12.6229 14.9801 13.0495C14.8333 13.2628 14.688 13.4748 14.5225 13.6742C14.3498 13.8822 14.1696 14.0839 13.9916 14.2872C13.8136 14.4904 13.6357 14.6937 13.4578 14.8969C13.281 15.0989 13.1106 15.3064 12.9378 15.5118C12.5964 15.9177 12.2631 16.3312 11.9327 16.7461C11.5963 17.1684 11.2616 17.5918 10.9296 18.0177C10.8507 18.1187 10.7719 18.2198 10.6931 18.3209C10.6541 18.371 10.615 18.4211 10.5759 18.4712C10.5556 18.4973 10.5353 18.5233 10.515 18.5494C10.5049 18.5624 10.4947 18.5754 10.4845 18.5884C10.4792 18.5953 10.4718 18.6107 10.4636 18.6129C10.4201 18.5179 10.3768 18.4227 10.333 18.3279C10.2927 18.2407 10.2537 18.1525 10.2063 18.069C10.1898 18.0399 10.1639 17.9977 10.1248 18.0019C10.0939 18.0052 10.0675 18.0339 10.0489 18.056C9.98954 18.1266 9.935 18.2078 9.89876 18.2927C9.83174 18.4497 9.88956 18.6328 9.92996 18.7894C9.95463 18.885 9.98385 18.9796 10.0177 19.0723C10.0216 19.083 10.0256 19.0936 10.0294 19.1042C10.0357 19.1215 10.0405 19.1249 10.0283 19.1394C10.0111 19.1598 9.99383 19.1803 9.97658 19.2007C9.94324 19.2403 9.9099 19.2798 9.87656 19.3193C9.74698 19.473 9.62076 19.631 9.48057 19.7753C9.34335 19.9165 9.19244 20.0415 9.04639 20.1732C8.74932 20.441 8.4963 20.7488 8.24297 21.0571C7.98578 21.3701 7.72969 21.684 7.47383 21.9981C7.34633 22.1546 7.21754 22.3101 7.09176 22.468C6.97542 22.614 6.8525 22.7632 6.76679 22.9301C6.67981 23.0994 6.66462 23.2855 6.67267 23.473C6.6809 23.6648 6.71339 23.8554 6.7542 24.0427C6.8336 24.4071 6.95674 24.7673 7.10743 25.1082C7.26072 25.4551 7.45011 25.7866 7.6711 26.0948C7.89293 26.4041 8.14783 26.6944 8.43174 26.9482C8.50085 27.01 8.57123 27.0703 8.64295 27.129ZM12.1893 18.2791C12.6464 17.8499 13.0996 17.4161 13.5308 16.9606C13.9615 16.5056 14.3814 16.0399 14.806 15.5792C15.2308 15.1181 15.6557 14.657 16.0806 14.1959C16.2932 13.9652 16.5058 13.7345 16.7184 13.5038C16.9314 13.2726 17.1488 13.0455 17.3656 12.8177C17.581 12.5914 17.7993 12.3679 18.0227 12.1494C18.1337 12.0409 18.2448 11.932 18.36 11.8279C18.4693 11.7291 18.5852 11.6355 18.716 11.5666C18.9588 11.4385 19.2319 11.4055 19.5 11.4593C19.7866 11.5167 20.0632 11.6425 20.313 11.7915C20.5815 11.9516 20.8272 12.1471 21.065 12.3491C21.3003 12.5488 21.5264 12.7655 21.7155 13.0102C21.8887 13.2343 22.0485 13.4892 22.1227 13.7651C22.1933 14.0274 22.1632 14.3037 22.0509 14.5498C21.9882 14.6873 21.9056 14.8145 21.8226 14.9403C21.7358 15.0719 21.6474 15.2023 21.5572 15.3315C21.3779 15.5881 21.1937 15.8407 21.0079 16.0926C20.6348 16.5983 20.2524 17.0966 19.8712 17.5962C19.4904 18.0954 19.1095 18.5946 18.7287 19.0938C18.5392 19.3422 18.3496 19.5906 18.1601 19.8391C17.9707 20.0873 17.7792 20.3341 17.5955 20.5867C17.2279 21.0921 16.8833 21.6132 16.5412 22.1361C16.3706 22.3967 16.1968 22.6555 16.03 22.9187C15.8614 23.1849 15.6927 23.451 15.5241 23.7172C15.3553 23.9836 15.1891 24.2518 15.0064 24.509C14.9177 24.6338 14.8256 24.7567 14.725 24.8722C14.7119 24.8873 14.6987 24.9021 14.6854 24.9169C14.673 24.9306 14.6601 24.9503 14.6451 24.961C14.6432 24.9622 14.64 24.9679 14.6379 24.9687C14.6318 24.9709 14.6157 24.9663 14.6092 24.9656C14.5869 24.9632 14.5645 24.9608 14.5422 24.9583C14.4689 24.95 14.3957 24.9408 14.3231 24.9281C14.0249 24.8763 13.7325 24.7791 13.4477 24.6785C13.1593 24.5767 12.877 24.4626 12.6075 24.3173C12.0587 24.0216 11.5483 23.6521 11.1115 23.2067C10.8946 22.9856 10.6883 22.7523 10.5041 22.503C10.3215 22.2557 10.1659 21.9888 10.0206 21.7183C9.87703 21.4509 9.741 21.1786 9.65352 20.887C9.64306 20.8522 9.63306 20.8172 9.62304 20.7822C9.61634 20.7589 9.61256 20.7565 9.62722 20.7372C9.6394 20.7212 9.65168 20.7053 9.66412 20.6895C9.71364 20.6264 9.76584 20.5656 9.81944 20.506C9.92415 20.3896 10.0345 20.2783 10.1467 20.1692C10.3696 19.9526 10.6028 19.7464 10.8325 19.537C11.0653 19.3246 11.3005 19.1144 11.53 18.8985C11.7496 18.6918 11.9695 18.4855 12.1893 18.2791ZM12.8405 27.7225C12.7323 27.8412 12.6192 27.9617 12.4688 28.0257C12.3333 28.0834 12.1842 28.1025 12.0385 28.1132C11.7167 28.137 11.3886 28.0991 11.0839 27.9911C10.9969 27.9603 10.9104 27.9242 10.8299 27.8788C10.8057 27.8651 10.7546 27.8403 10.7573 27.8063C10.7583 27.794 10.7673 27.7845 10.7765 27.7771C10.7831 27.7717 10.8098 27.752 10.8169 27.7572C10.8148 27.7536 10.9137 27.7225 10.9287 27.7177C10.9775 27.7021 11.0267 27.6876 11.0762 27.6744C11.1727 27.6487 11.2706 27.628 11.3697 27.6153C11.4721 27.6021 11.5747 27.6027 11.6775 27.5967C11.7785 27.5907 11.875 27.569 11.9697 27.5337C12.1726 27.4582 12.3614 27.3482 12.555 27.2525C12.6452 27.2079 12.7371 27.1612 12.8339 27.1323C12.9099 27.1095 13.0372 27.0829 13.0969 27.1537C13.1612 27.23 13.1001 27.3595 13.0594 27.432C12.9999 27.5381 12.9221 27.6329 12.8405 27.7225ZM20.6034 18.0793C20.2386 18.6249 19.8634 19.1635 19.4718 19.6903C19.0824 20.214 18.6786 20.7264 18.2713 21.2362C17.8614 21.7493 17.4396 22.2537 17.0083 22.7489C16.7195 23.0805 16.4232 23.4051 16.1262 23.7292C16.0553 23.8066 15.9846 23.8842 15.9128 23.9608C15.9044 23.9697 15.8728 24.014 15.8615 24.0134C15.853 24.013 15.8327 23.9892 15.8262 23.9838C15.8154 23.9748 15.8046 23.9657 15.7939 23.9567C15.785 23.9492 15.7761 23.9418 15.7673 23.9344C15.7598 23.9281 15.7324 23.9123 15.7297 23.9029C15.7278 23.8958 15.75 23.8666 15.7542 23.8594C15.7624 23.845 15.7707 23.8306 15.7789 23.8162C15.8004 23.7787 15.8218 23.7413 15.8434 23.7039C16.1696 23.1385 16.5261 22.5903 16.8881 22.0474C17.2474 21.5086 17.6157 20.976 17.9929 20.4495C18.3753 19.9157 18.7587 19.3827 19.1597 18.8625C19.5637 18.3383 19.9844 17.8269 20.3995 17.3114C20.8091 16.8028 21.2192 16.2947 21.6317 15.7885C21.7281 15.6702 21.8245 15.5519 21.9209 15.4336C21.8881 15.6186 21.8513 15.8022 21.7869 15.9792C21.7216 16.1589 21.6384 16.3321 21.5519 16.5025C21.3743 16.8519 21.1739 17.1894 20.9659 17.5213C20.8481 17.7093 20.7267 17.8949 20.6034 18.0793ZM23.7773 14.0767C23.7946 14.192 23.7966 14.3023 23.7594 14.4142C23.7214 14.5285 23.6613 14.6379 23.5951 14.738C23.5273 14.8406 23.4452 14.9297 23.3547 15.0126C23.3107 15.053 23.2653 15.0916 23.2186 15.1288C23.2011 15.1427 23.1809 15.1628 23.1591 15.1692C23.1174 15.1813 23.1652 15.1096 23.172 15.0979C23.2039 15.0434 23.2349 14.9881 23.264 14.932C23.3197 14.8249 23.3697 14.7148 23.4126 14.602C23.4546 14.4919 23.4946 14.3779 23.5129 14.2611C23.5308 14.1473 23.5184 14.0345 23.4942 13.9226C23.4366 13.6564 23.3526 13.3924 23.2575 13.1373C23.2598 13.1434 23.2621 13.1494 23.2645 13.1554C23.2522 13.1195 23.2387 13.084 23.2237 13.0491C23.23 13.0654 23.2362 13.0817 23.2424 13.098C23.1911 12.9648 23.1271 12.8373 23.074 12.7049C23.0718 12.6995 23.0567 12.67 23.0668 12.6672C23.0782 12.6641 23.1151 12.7268 23.1192 12.7327C23.1599 12.7917 23.1985 12.8521 23.2361 12.9131C23.3837 13.1527 23.5279 13.3978 23.6438 13.6545C23.7047 13.7893 23.7552 13.93 23.7773 14.0767ZM17.8153 10.5949C17.922 10.3922 18.0585 10.21 18.2379 10.0664C18.3235 9.99793 18.4162 9.93106 18.5209 9.89538C18.6173 9.86248 18.7245 9.85883 18.8255 9.86231C19.0368 9.8696 19.2429 9.92882 19.443 9.99307C19.6598 10.0627 19.8747 10.1417 20.0847 10.2297C20.1409 10.2532 20.1992 10.2761 20.2522 10.3063C20.269 10.3159 20.2672 10.3222 20.2478 10.3203C20.2282 10.3184 20.2081 10.3125 20.1889 10.3083C20.0623 10.2804 19.9383 10.2436 19.811 10.2187C19.8281 10.222 19.8453 10.2253 19.8624 10.2287C19.8254 10.2199 19.7881 10.2129 19.7506 10.207C19.757 10.2082 19.7633 10.2095 19.7697 10.2107C19.6104 10.1813 19.4494 10.1592 19.2884 10.1411C19.1338 10.1237 18.9747 10.1048 18.819 10.1148C18.6657 10.1247 18.5299 10.1845 18.3967 10.2572C18.2554 10.3342 18.1209 10.4235 17.9935 10.5218C17.9566 10.5503 17.9207 10.58 17.8848 10.6098C17.8689 10.6229 17.8531 10.6359 17.8376 10.6495C17.8279 10.6581 17.8097 10.6775 17.7951 10.6765C17.7669 10.6745 17.8085 10.6077 17.8153 10.5949ZM15.0026 14.0329C15.3307 13.7113 15.6629 13.3942 16.0064 13.089C16.3452 12.7879 16.6971 12.4925 17.0771 12.2444C17.1797 12.1774 17.2855 12.1152 17.3965 12.0634C17.5085 12.0112 17.6244 11.9681 17.7404 11.9257C17.3257 12.406 16.9107 12.8859 16.4931 13.3637C16.0714 13.8461 15.6497 14.3285 15.2279 14.811C14.8058 15.2939 14.3659 15.7627 13.9176 16.2214C13.4759 16.6732 13.0337 17.1243 12.5818 17.566C12.1243 18.0132 11.6597 18.453 11.1847 18.8815C11.0685 18.9863 10.9516 19.0902 10.8331 19.1923C10.7728 19.2443 10.7121 19.2959 10.651 19.347C10.6231 19.3705 10.595 19.3939 10.567 19.4173C10.5517 19.43 10.5364 19.4428 10.5211 19.4555C10.5134 19.4619 10.4837 19.4944 10.4749 19.4935C10.4671 19.4928 10.4506 19.4732 10.445 19.4685C10.4337 19.459 10.4224 19.4495 10.411 19.44C10.402 19.4324 10.393 19.4248 10.384 19.4173C10.3791 19.4131 10.3501 19.3951 10.3496 19.3884C10.3493 19.3844 10.3602 19.3735 10.3627 19.3702C10.3755 19.353 10.3882 19.3359 10.4009 19.3188C10.5621 19.1023 10.7214 18.8843 10.8864 18.6707C11.276 18.1664 11.6792 17.6728 12.0917 17.1871C12.5077 16.6972 12.9312 16.213 13.3629 15.7369C13.7889 15.2669 14.2247 14.8058 14.673 14.357C14.7819 14.248 14.8926 14.1408 15.0026 14.0329ZM7.38737 24.9803C7.17832 24.704 7.04926 24.3659 6.9918 24.0258C6.96491 23.8666 6.9474 23.7002 6.96228 23.5389C6.96947 23.461 6.98571 23.3835 7.01592 23.3111C7.04937 23.2309 7.09982 23.1576 7.15065 23.0876C7.25396 22.9454 7.36854 22.7943 7.51688 22.696C7.57247 22.6592 7.65731 22.6151 7.72429 22.6475C7.79579 22.6822 7.80336 22.7858 7.80125 22.8547C7.79877 22.9359 7.7785 23.0154 7.75774 23.0934C7.73386 23.1832 7.70661 23.272 7.6792 23.3608C7.62612 23.5326 7.56719 23.7064 7.54271 23.8851C7.53108 23.9701 7.53193 24.0541 7.54249 24.1391C7.55314 24.2248 7.56817 24.3096 7.57391 24.3958C7.58538 24.5684 7.57027 24.7398 7.54794 24.9108C7.54625 24.9237 7.53682 25.0027 7.5322 25.001C7.53888 25.0074 7.52256 25.0394 7.51827 25.0466C7.51148 25.0581 7.50186 25.0687 7.48761 25.0692C7.44658 25.0705 7.40892 25.008 7.38737 24.9803Z" fill="black"/>
</svg>
