<svg width="64" height="80" viewBox="0 0 64 80" fill="none" xmlns="http://www.w3.org/2000/svg">
<rect y="8" width="64" height="64" rx="12" fill="#E7EDFE"/>
<path d="M23.4641 49.1823H43.8396C44.3699 49.1823 44.7996 49.6123 44.7996 50.1423C44.7996 50.6726 44.3699 51.1023 43.8396 51.1023H23.4641C23.1046 51.8591 22.3332 52.3823 21.4396 52.3823C20.2025 52.3823 19.1996 51.3795 19.1996 50.1423C19.1996 48.9054 20.2025 47.9023 21.4396 47.9023C22.3332 47.9023 23.1046 48.4257 23.4641 49.1823Z" fill="#1657FC"/>
<path d="M25.7581 44.1593C25.3774 44.5284 25.368 45.1361 25.7371 45.5168C26.1062 45.8974 26.7139 45.9068 27.0945 45.5377L25.7581 44.1593ZM27.0945 32.7377C27.4752 32.3686 27.4846 31.7608 27.1155 31.3803C26.7464 30.9996 26.1385 30.9902 25.7581 31.3593L27.0945 32.7377ZM31.3315 44.1593C30.9509 44.5284 30.9414 45.1361 31.3105 45.5168C31.6797 45.8974 32.2873 45.9068 32.668 45.5377L31.3315 44.1593ZM32.668 32.7377C33.0486 32.3686 33.0581 31.7608 32.6889 31.3803C32.3198 30.9996 31.712 30.9902 31.3315 31.3593L32.668 32.7377ZM36.9048 44.1593C36.5243 44.5284 36.5149 45.1361 36.884 45.5168C37.2531 45.8974 37.8608 45.9068 38.2414 45.5377L36.9048 44.1593ZM38.2414 32.7377C38.6221 32.3686 38.6315 31.7608 38.2624 31.3803C37.8933 30.9996 37.2854 30.9902 36.9048 31.3593L38.2414 32.7377ZM19.151 45.6499C19.3993 46.1184 19.9803 46.2969 20.4488 46.0488C20.9173 45.8006 21.096 45.2195 20.8477 44.751L19.151 45.6499ZM43.151 44.751C42.9029 45.2195 43.0814 45.8006 43.5499 46.0488C44.0185 46.2969 44.5995 46.1184 44.8477 45.6499L43.151 44.751ZM27.0945 45.5377C28.0398 44.6211 28.5603 43.6542 28.7587 42.6924C28.9557 41.7374 28.8205 40.86 28.5717 40.1364C28.3245 39.4172 27.959 38.8307 27.6633 38.4291C27.5139 38.2264 27.3782 38.0654 27.2774 37.9524C27.2269 37.896 27.1846 37.851 27.1534 37.8187C27.1377 37.8025 27.1248 37.7894 27.115 37.7795C27.1101 37.7745 27.1057 37.7704 27.1024 37.767C27.1006 37.7652 27.0992 37.7638 27.0979 37.7625C27.0973 37.7619 27.0966 37.7612 27.096 37.7608C27.0958 37.7604 27.096 37.7609 27.096 37.7608C27.0955 37.7604 27.0945 37.7593 26.4262 38.4484C25.7581 39.1377 25.7577 39.1374 25.7574 39.1371C25.7573 39.1369 25.7576 39.1372 25.7574 39.1371C25.7571 39.1366 25.7561 39.136 25.7558 39.1356C25.7553 39.1352 25.756 39.1358 25.7558 39.1356C25.7561 39.136 25.7571 39.1366 25.7574 39.1371C25.7598 39.1395 25.764 39.1438 25.7717 39.1518C25.7872 39.1678 25.8126 39.1948 25.8459 39.232C25.9126 39.3065 26.0089 39.4206 26.1174 39.5678C26.3373 39.8664 26.5907 40.2796 26.756 40.7606C26.9198 41.2371 26.9907 41.7595 26.8784 42.3046C26.7673 42.8428 26.4627 43.476 25.7581 44.1593L27.0945 45.5377ZM26.4262 38.4484C27.0945 37.7593 27.0955 37.7604 27.096 37.7608C27.0937 37.7584 27.0886 37.7532 27.0809 37.7452C27.0654 37.7292 27.04 37.7022 27.0067 37.6649C26.94 37.5904 26.8435 37.4763 26.7352 37.3291C26.5153 37.0307 26.2619 36.6172 26.0966 36.1364C25.9328 35.66 25.8617 35.1374 25.9742 34.5924C26.0853 34.0542 26.3897 33.4211 27.0945 32.7377L25.7581 31.3593C24.8126 32.276 24.2921 33.2428 24.0937 34.2046C23.8968 35.1595 24.0321 36.0371 24.2809 36.7606C24.5281 37.4796 24.8934 38.0664 25.1893 38.4678C25.3387 38.6707 25.4742 38.8316 25.5752 38.9444C25.6257 39.0011 25.6678 39.0459 25.6992 39.0784C25.7147 39.0945 25.7277 39.1076 25.7376 39.1176C25.7425 39.1225 25.7467 39.1267 25.7502 39.13C25.7518 39.1316 25.7545 39.1344 25.7558 39.1356C25.7561 39.136 25.7571 39.1366 25.7574 39.1371C25.7573 39.1369 25.7576 39.1372 25.7574 39.1371C25.7577 39.1374 25.7581 39.1377 26.4262 38.4484ZM32.668 45.5377C33.6133 44.6211 34.1337 43.6542 34.3321 42.6924C34.5291 41.7374 34.3939 40.86 34.1451 40.1364C33.8979 39.4172 33.5325 38.8307 33.2368 38.4291C33.0873 38.2264 32.9517 38.0654 32.8509 37.9524C32.8003 37.896 32.7581 37.851 32.7269 37.8187C32.7112 37.8025 32.6982 37.7894 32.6885 37.7795C32.6835 37.7745 32.6792 37.7704 32.6758 37.767C32.6741 37.7652 32.6726 37.7638 32.6713 37.7625C32.6707 37.7619 32.6701 37.7612 32.6694 37.7608C32.6693 37.7604 32.6694 37.7609 32.6694 37.7608C32.6689 37.7604 32.668 37.7593 31.9997 38.4484C31.3315 39.1377 31.331 39.1374 31.3309 39.1371C31.3307 39.1369 31.331 39.1372 31.3309 39.1371C31.3305 39.1366 31.3296 39.136 31.3293 39.1356C31.3288 39.1352 31.3294 39.1358 31.3293 39.1356C31.3296 39.136 31.3305 39.1366 31.3309 39.1371C31.3333 39.1395 31.3374 39.1438 31.3451 39.1518C31.3606 39.1678 31.3861 39.1948 31.4193 39.232C31.4861 39.3065 31.5824 39.4206 31.6909 39.5678C31.9107 39.8664 32.1641 40.2796 32.3294 40.7606C32.4933 41.2371 32.5641 41.7595 32.4518 42.3046C32.3408 42.8428 32.0361 43.476 31.3315 44.1593L32.668 45.5377ZM31.9997 38.4484C32.668 37.7593 32.6689 37.7604 32.6694 37.7608C32.6672 37.7584 32.6621 37.7532 32.6544 37.7452C32.6389 37.7292 32.6134 37.7022 32.5801 37.6649C32.5134 37.5904 32.4169 37.4763 32.3086 37.3291C32.0888 37.0307 31.8353 36.6172 31.6701 36.1364C31.5062 35.66 31.4352 35.1374 31.5477 34.5924C31.6587 34.0542 31.9632 33.4211 32.668 32.7377L31.3315 31.3593C30.3861 32.276 29.8656 33.2428 29.6672 34.2046C29.4702 35.1595 29.6056 36.0371 29.8544 36.7606C30.1016 37.4796 30.4669 38.0664 30.7627 38.4678C30.9121 38.6707 31.0477 38.8316 31.1486 38.9444C31.1992 39.0011 31.2413 39.0459 31.2726 39.0784C31.2881 39.0945 31.3011 39.1076 31.311 39.1176C31.316 39.1225 31.3201 39.1267 31.3237 39.13C31.3253 39.1316 31.328 39.1344 31.3293 39.1356C31.3296 39.136 31.3305 39.1366 31.3309 39.1371C31.3307 39.1369 31.331 39.1372 31.3309 39.1371C31.331 39.1374 31.3315 39.1377 31.9997 38.4484ZM38.2414 45.5377C39.1867 44.6211 39.7072 43.6542 39.9056 42.6924C40.1025 41.7374 39.9673 40.86 39.7185 40.1364C39.4713 39.4172 39.1059 38.8307 38.8102 38.4291C38.6608 38.2264 38.5251 38.0654 38.4243 37.9524C38.3737 37.896 38.3315 37.851 38.3003 37.8187C38.2846 37.8025 38.2717 37.7894 38.2619 37.7795C38.2569 37.7745 38.2526 37.7704 38.2493 37.767C38.2475 37.7652 38.2461 37.7638 38.2448 37.7625C38.2441 37.7619 38.2435 37.7612 38.2429 37.7608C38.2427 37.7604 38.2429 37.7609 38.2429 37.7608C38.2424 37.7604 38.2414 37.7593 37.5731 38.4484C36.9048 39.1377 36.9045 39.1374 36.9043 39.1371C36.9041 39.1369 36.9045 39.1372 36.9043 39.1371C36.904 39.1366 36.903 39.136 36.9027 39.1356C36.9022 39.1352 36.9029 39.1358 36.9027 39.1356C36.903 39.136 36.904 39.1366 36.9043 39.1371C36.9067 39.1395 36.9107 39.1438 36.9185 39.1518C36.9341 39.1678 36.9595 39.1948 36.9928 39.232C37.0593 39.3065 37.1558 39.4206 37.2643 39.5678C37.4841 39.8664 37.7376 40.2796 37.9029 40.7606C38.0667 41.2371 38.1376 41.7595 38.0253 42.3046C37.9142 42.8428 37.6096 43.476 36.9048 44.1593L38.2414 45.5377ZM37.5731 38.4484C38.2414 37.7593 38.2424 37.7604 38.2429 37.7608C38.2406 37.7584 38.2355 37.7532 38.2278 37.7452C38.2123 37.7292 38.1869 37.7022 38.1536 37.6649C38.0869 37.5904 37.9904 37.4763 37.8821 37.3291C37.6622 37.0307 37.4088 36.6172 37.2435 36.1364C37.0797 35.66 37.0086 35.1374 37.1211 34.5924C37.2321 34.0542 37.5366 33.4211 38.2414 32.7377L36.9048 31.3593C35.9595 32.276 35.439 33.2428 35.2406 34.2046C35.0437 35.1595 35.179 36.0371 35.4277 36.7606C35.6749 37.4796 36.0403 38.0664 36.3361 38.4678C36.4854 38.6707 36.6211 38.8316 36.7221 38.9444C36.7726 39.0011 36.8147 39.0459 36.8461 39.0784C36.8616 39.0945 36.8745 39.1076 36.8845 39.1176C36.8894 39.1225 36.8936 39.1267 36.8971 39.13C36.8987 39.1316 36.9014 39.1344 36.9027 39.1356C36.903 39.136 36.904 39.1366 36.9043 39.1371C36.9041 39.1369 36.9045 39.1372 36.9043 39.1371C36.9045 39.1374 36.9048 39.1377 37.5731 38.4484ZM20.8477 44.751L14.9463 33.6121L13.2497 34.511L19.151 45.6499L20.8477 44.751ZM49.0525 33.6123L43.151 44.751L44.8477 45.6499L50.7491 34.511L49.0525 33.6123ZM15.627 31.184C18.372 29.9707 23.7011 28.2667 31.9993 28.2667V26.3467C23.4293 26.3467 17.8361 28.1083 14.8508 29.428L15.627 31.184ZM31.9993 28.2667C40.2976 28.2667 45.6267 29.9707 48.3717 31.184L49.148 29.428C46.1625 28.1083 40.5694 26.3467 31.9993 26.3467V28.2667ZM50.7491 34.511C51.7069 32.7033 51.203 30.3364 49.148 29.428L48.3717 31.184C49.2286 31.5628 49.5851 32.6067 49.0525 33.6123L50.7491 34.511ZM14.9463 33.6121C14.4136 32.6067 14.7702 31.5628 15.627 31.184L14.8508 29.428C12.7957 30.3364 12.292 32.7033 13.2497 34.511L14.9463 33.6121Z" fill="#1657FC"/>
</svg>
