<svg width="36" height="40" viewBox="0 0 36 40" fill="none" xmlns="http://www.w3.org/2000/svg">
<rect width="36" height="40" fill="white"/>
<rect y="2" width="36" height="36" rx="8" fill="#F6F6F6"/>
<path d="M18.2542 25.9006L18.6248 26.0511L18.2542 25.9006C18.1019 26.2757 17.7385 26.5218 17.3337 26.5242L8.87999 26.5744C8.87998 26.5744 8.87997 26.5744 8.87995 26.5744C8.4687 26.5768 8.09793 26.3272 7.94538 25.9454C7.94538 25.9454 7.94538 25.9454 7.94538 25.9454L7.02145 23.6325L7.02145 23.6325C6.90832 23.3493 6.8502 23.0471 6.8502 22.7422V18.86C6.8502 18.3077 7.29792 17.86 7.8502 17.86H18.3502C18.9025 17.86 19.3502 18.3077 19.3502 18.86V22.7338C19.3502 23.0434 19.2903 23.3501 19.1737 23.637L18.2542 25.9006Z" stroke="black" stroke-width="0.8"/>
<path d="M27.1 11.2998H22.9C22.1268 11.2998 21.5 11.9266 21.5 12.6998V25.2998C21.5 26.073 22.1268 26.6998 22.9 26.6998H27.1C27.8732 26.6998 28.5 26.073 28.5 25.2998V12.6998C28.5 11.9266 27.8732 11.2998 27.1 11.2998Z" fill="#090909"/>
<path d="M23.5999 13.0502C23.5999 12.8569 23.4432 12.7002 23.2499 12.7002C23.0566 12.7002 22.8999 12.8569 22.8999 13.0502V24.9502C22.8999 25.1435 23.0566 25.3002 23.2499 25.3002C23.4432 25.3002 23.5999 25.1435 23.5999 24.9502V13.0502Z" fill="#F6F6F6"/>
<path d="M25.3499 13.0502C25.3499 12.8569 25.1932 12.7002 24.9999 12.7002C24.8066 12.7002 24.6499 12.8569 24.6499 13.0502V24.9502C24.6499 25.1435 24.8066 25.3002 24.9999 25.3002C25.1932 25.3002 25.3499 25.1435 25.3499 24.9502V13.0502Z" fill="#F6F6F6"/>
<path d="M27.0999 13.0502C27.0999 12.8569 26.9432 12.7002 26.7499 12.7002C26.5566 12.7002 26.3999 12.8569 26.3999 13.0502V24.9502C26.3999 25.1435 26.5566 25.3002 26.7499 25.3002C26.9432 25.3002 27.0999 25.1435 27.0999 24.9502V13.0502Z" fill="#F6F6F6"/>
</svg>
