<svg width="36" height="40" viewBox="0 0 36 40" fill="none" xmlns="http://www.w3.org/2000/svg">
<rect width="36" height="40" fill="white"/>
<rect y="2" width="36" height="36" rx="8" fill="#F6F6F6"/>
<path d="M12.1855 22.6551C12.2295 22.5886 12.1818 22.5 12.1021 22.5C11.5833 22.5 11.0906 22.5 10.5959 22.5C10.578 22.5001 10.5604 22.5039 10.5445 22.5113C10.5286 22.5186 10.5148 22.5293 10.5044 22.5423C10.2675 22.8845 10.0526 23.2641 10.0098 23.74C9.96937 24.1191 10.0547 24.5005 10.255 24.8361C10.4608 25.173 10.9412 25.4626 11.1503 25.7965C11.4375 26.255 11.4408 26.6856 11.1595 27.1562C10.9916 27.4364 10.5556 27.6948 10.3834 27.9712C10.3112 28.0842 10.247 28.2098 10.1725 28.3512C10.1371 28.4184 10.1857 28.5 10.2616 28.5H10.4674C10.8739 28.5 11.2795 28.5 11.6851 28.5C11.7124 28.4999 11.7393 28.4941 11.7637 28.4829C11.7881 28.4718 11.8253 28.4358 11.8253 28.4358C11.8253 28.4358 12.4998 27.7907 12.703 27.4591C13.0977 26.8185 13.1002 26.1832 12.703 25.5472C12.4981 25.2171 12.0185 24.935 11.8162 24.6019C11.6849 24.3925 11.6159 24.1561 11.6159 23.9156C11.6159 23.6752 11.6849 23.4388 11.8162 23.2294C11.9298 23.0436 12.054 22.8542 12.1855 22.6551Z" fill="#090909"/>
<path d="M25.1855 22.6551C25.2295 22.5886 25.1818 22.5 25.1021 22.5C24.5833 22.5 24.0906 22.5 23.5959 22.5C23.578 22.5001 23.5604 22.5039 23.5445 22.5113C23.5286 22.5186 23.5148 22.5293 23.5044 22.5423C23.2675 22.8845 23.0526 23.2641 23.0098 23.74C22.9694 24.1191 23.0547 24.5005 23.255 24.8361C23.4608 25.173 23.9412 25.4626 24.1503 25.7965C24.4375 26.255 24.4408 26.6856 24.1595 27.1562C23.9916 27.4364 23.5556 27.6948 23.3834 27.9712C23.3112 28.0842 23.247 28.2098 23.1725 28.3512C23.1371 28.4184 23.1857 28.5 23.2616 28.5H23.4674C23.8739 28.5 24.2795 28.5 24.6851 28.5C24.7124 28.4999 24.7393 28.4941 24.7637 28.4829C24.7881 28.4718 24.8253 28.4358 24.8253 28.4358C24.8253 28.4358 25.4998 27.7907 25.703 27.4591C26.0977 26.8185 26.1002 26.1832 25.703 25.5472C25.4981 25.2171 25.0185 24.935 24.8162 24.6019C24.6849 24.3925 24.6159 24.1561 24.6159 23.9156C24.6159 23.6752 24.6849 23.4388 24.8162 23.2294C24.9298 23.0436 25.054 22.8542 25.1855 22.6551Z" fill="#090909"/>
<path d="M23.426 20.7827C23.426 20.7827 22.7941 20.7763 21.8558 20.8286C18.7287 21.0029 15.6907 20.9802 12.7419 20.7605C12.3072 20.728 12.2507 20.7496 12.2507 20.7496C12.2507 20.7496 12.2282 21.2746 12.1737 21.4179C12.0844 21.6526 11.9302 21.8088 11.711 21.8863C11.6236 21.9174 11.4911 21.9319 11.3135 21.93C11.1365 21.9283 10.9406 21.9478 10.7813 21.8926C10.5253 21.8033 10.3598 21.6219 10.2847 21.3481C10.1689 20.9263 10.1152 20.4338 10.082 19.9426C10.0109 18.9011 9.95674 17.8384 10.0484 16.7965C10.0795 16.4457 10.1243 16.1967 10.1827 16.0496C10.3981 15.5056 11.1065 15.1781 11.5933 14.9803C11.6057 14.9753 11.6057 14.97 11.5933 14.9645C11.4653 14.9085 11.3797 14.8812 11.3365 14.8826C10.9662 14.8934 10.0662 15.0372 10.1938 14.3361C10.2716 13.9097 10.986 13.8598 11.2981 13.8665C11.3113 13.8668 11.3238 13.8723 11.3329 13.8818C11.4641 14.0207 11.5241 14.3669 11.5652 14.5564C11.5663 14.5615 11.5685 14.5664 11.5717 14.5706C11.5748 14.5747 11.5788 14.5781 11.5834 14.5805L11.8066 14.6973C11.8238 14.7064 11.8351 14.7011 11.8406 14.6815C12.1678 13.4895 12.9426 12.276 14.1931 12.0407C14.3401 12.0133 14.6026 11.9997 14.9805 12C16.8642 12.0014 18.7476 12.0014 20.631 12C21.0003 11.9997 21.2628 12.0158 21.4184 12.0482C22.6318 12.3009 23.428 13.5265 23.7879 14.6777C23.7921 14.6913 23.8008 14.6963 23.814 14.6927C23.9349 14.6582 24.0743 14.5942 24.1052 14.467C24.1482 14.2887 24.1822 14.0793 24.2699 13.9193C24.2788 13.9029 24.2917 13.8894 24.3071 13.88C24.3226 13.8706 24.3402 13.8656 24.358 13.8656C24.6587 13.8652 25.5121 13.9263 25.443 14.4483C25.4177 14.6416 25.2854 14.8448 25.0858 14.8564C24.8696 14.8689 24.5963 14.8767 24.266 14.8797C24.1611 14.8805 24.0581 14.9089 23.957 14.9649C23.9441 14.9724 23.9446 14.9788 23.9586 14.984C24.3005 15.1126 24.627 15.2899 24.9381 15.516C25.1716 15.6856 25.3312 15.8959 25.4023 16.1834C25.511 16.6215 25.5604 17.0865 25.5825 17.5803C25.6188 18.386 25.6191 19.1913 25.5833 19.9962C25.5627 20.4508 25.4991 20.9375 25.394 21.3365C25.3261 21.5953 25.1789 21.7729 24.9527 21.8693C24.861 21.9084 24.7301 21.9286 24.5599 21.93C24.215 21.9325 23.9613 21.9674 23.7085 21.7562C23.4497 21.5397 23.4521 21.2505 23.426 20.9346C23.4247 20.9185 23.426 20.7827 23.426 20.7827ZM21.5615 12.5432C21.3555 12.4473 21.1046 12.3994 20.8088 12.3994C18.7476 12.3986 16.6865 12.3952 14.6253 12.3894C13.685 12.3869 13.1085 13.2302 12.7901 14.0493C12.7201 14.2293 12.7099 14.4126 12.8766 14.5194C12.9311 14.5543 13.0134 14.5694 13.1235 14.5647C15.5297 14.4612 17.8636 14.4649 20.3544 14.5044C21.0906 14.5161 21.7601 14.5378 22.3627 14.5697C22.4634 14.5749 22.5391 14.5659 22.5899 14.5427C22.7966 14.4479 22.7859 14.2388 22.7164 14.0319C22.5172 13.4388 22.1217 12.8042 21.5615 12.5432ZM22.5587 17.3201C22.5587 17.3201 23.9527 17.4115 24.1506 17.3297C24.3454 17.2486 24.6058 17.1734 24.6951 16.9781C24.8215 16.7009 24.7555 16.3555 24.7283 16.0588C24.7269 16.0449 24.7198 16.0381 24.7069 16.0384C23.7353 16.0451 22.4208 16.267 21.7037 17.0379C21.7015 17.0404 21.6998 17.0433 21.6986 17.0465C21.6975 17.0496 21.697 17.053 21.6972 17.0564C21.6974 17.0597 21.6983 17.063 21.6997 17.066C21.7012 17.069 21.7032 17.0716 21.7057 17.0737C21.9517 17.2848 22.5587 17.3201 22.5587 17.3201ZM11.474 17.3505C11.474 17.3505 12.2189 17.4233 12.7458 17.4433C12.9424 17.4508 13.2253 17.3728 13.327 17.3542C13.5003 17.3229 13.6573 17.2441 13.798 17.1177C13.809 17.1077 13.8097 17.0969 13.8 17.0853C13.5447 16.7778 13.0947 16.5396 12.7458 16.4145C12.126 16.1929 11.4766 16.0833 10.7975 16.0858C10.7852 16.0858 10.7788 16.0923 10.7786 16.1053C10.7738 16.4257 10.7312 16.8048 10.8829 17.0309C10.9896 17.1904 11.474 17.3505 11.474 17.3505Z" fill="#090909"/>
</svg>
