<svg width="64" height="80" viewBox="0 0 64 80" fill="none" xmlns="http://www.w3.org/2000/svg">
<rect y="8" width="64" height="64" rx="12" fill="#E7EDFE"/>
<g clip-path="url(#clip0_5273_4265)">
<path d="M36.6035 39.0843L30.4082 45.2068C30.3382 45.2722 30.277 45.3496 30.2505 45.4472L29.0005 48.8159C28.8982 49.077 28.9798 49.4105 29.2102 49.5868C29.4494 49.7722 29.7813 49.7722 30.0205 49.6145L32.994 47.5998C33.0697 47.5431 33.1458 47.479 33.1893 47.3941L37.6702 39.9206C37.8449 39.626 37.7691 39.2561 37.4923 39.0314C37.2275 38.8249 36.8451 38.841 36.6035 39.0843Z" fill="#1657FC"/>
<path d="M47.0195 33.0645L41.7052 38.3747C43.434 40.3936 44.5389 42.9388 44.7838 45.7257H52.2673C52.0053 40.8818 50.0754 36.4741 47.0195 33.0645Z" fill="#1657FC"/>
<path d="M32.7871 26.27L32.8045 33.7522C35.5947 33.9972 38.125 35.0817 40.1365 36.8077L45.4455 31.4929C42.061 28.4598 37.6558 26.534 32.7871 26.27Z" fill="#1657FC"/>
<path d="M30.5716 26.27C25.7232 26.534 21.3184 28.4859 17.9277 31.4929L23.2454 36.8077C25.2626 35.0817 27.805 33.9972 30.5948 33.7522L30.5716 26.27Z" fill="#1657FC"/>
<path d="M11.1122 45.7257H18.6424C18.8613 42.9388 19.969 40.3936 21.6714 38.3747L16.3624 33.0645C13.3074 36.4741 11.3799 40.8818 11.1122 45.7257Z" fill="#1657FC"/>
</g>
<defs>
<clipPath id="clip0_5273_4265">
<rect width="41.3793" height="24" fill="white" transform="translate(11 26)"/>
</clipPath>
</defs>
</svg>
