<svg width="36" height="40" viewBox="0 0 36 40" fill="none" xmlns="http://www.w3.org/2000/svg">
<rect width="36" height="40" fill="white"/>
<rect y="2" width="36" height="36" rx="8" fill="#F6F6F6"/>
<path d="M25.3938 16H9.43923C8.87439 16 8.4165 16.4975 8.4165 17.1111V22.8889C8.4165 23.5025 8.87439 24 9.43923 24H25.3938C25.9586 24 26.4165 23.5025 26.4165 22.8889V17.1111C26.4165 16.4975 25.9586 16 25.3938 16Z" fill="#090909"/>
<path d="M27 18.5275C27 18.3467 27.1433 18.2002 27.32 18.2002C27.6293 18.2002 27.88 18.4566 27.88 18.7729V21.2275C27.88 21.5438 27.6293 21.8002 27.32 21.8002C27.1433 21.8002 27 21.6537 27 21.4729V18.5275Z" fill="#090909"/>
<path d="M14.0667 20.1999C16.4667 17.9999 14.0667 15.7999 14.0667 15.7999C14.0667 15.7999 11.6667 13.5999 14.0667 11.3999" stroke="#F6F6F6" stroke-miterlimit="10" stroke-linecap="round" stroke-linejoin="round"/>
<path d="M17.4002 20.1999C19.8002 17.9999 17.4002 15.7999 17.4002 15.7999C17.4002 15.7999 15.0002 13.5999 17.4002 11.3999" stroke="#F6F6F6" stroke-miterlimit="10" stroke-linecap="round" stroke-linejoin="round"/>
<path d="M20.7337 20.1999C23.1337 17.9999 20.7337 15.7999 20.7337 15.7999C20.7337 15.7999 18.3337 13.5999 20.7337 11.3999" stroke="#F6F6F6" stroke-miterlimit="10" stroke-linecap="round" stroke-linejoin="round"/>
<g clip-path="url(#clip0_5263_3829)">
<path d="M14.0667 20.1999C16.4667 17.9999 14.0667 15.7999 14.0667 15.7999C14.0667 15.7999 11.6667 13.5999 14.0667 11.3999" stroke="#090909" stroke-miterlimit="10" stroke-linecap="round" stroke-linejoin="round"/>
<path d="M17.4002 20.1999C19.8002 17.9999 17.4002 15.7999 17.4002 15.7999C17.4002 15.7999 15.0002 13.5999 17.4002 11.3999" stroke="#090909" stroke-miterlimit="10" stroke-linecap="round" stroke-linejoin="round"/>
<path d="M20.7337 20.1999C23.1337 17.9999 20.7337 15.7999 20.7337 15.7999C20.7337 15.7999 18.3337 13.5999 20.7337 11.3999" stroke="#090909" stroke-miterlimit="10" stroke-linecap="round" stroke-linejoin="round"/>
</g>
<defs>
<clipPath id="clip0_5263_3829">
<rect width="11" height="6" fill="white" transform="translate(12 10)"/>
</clipPath>
</defs>
</svg>
