<svg width="10" height="40" viewBox="0 0 10 40" fill="none" xmlns="http://www.w3.org/2000/svg">
<g clip-path="url(#clip0_5259_3573)">
<path d="M9.18714 22.3883C9.2996 22.4903 9.43643 22.5461 9.59082 22.5457C9.75269 22.5453 9.89679 22.4858 10.0145 22.3748M9.18714 22.3883L10.0145 22.3748L9.87799 22.2301L10.0145 22.3748M9.18714 22.3883L9.1851 22.3873L9.16279 22.3655L4.92741 18.236L0.69286 22.3647C0.576046 22.4811 0.430784 22.5453 0.265406 22.5453C0.0995718 22.5453 -0.046036 22.4807 -0.163015 22.3637C-0.279994 22.2468 -0.344531 22.1012 -0.344531 21.9353C-0.344531 21.7765 -0.289453 21.6333 -0.176577 21.5205L-0.17659 21.5205L-0.174675 21.5186L4.48645 16.9804C4.60675 16.8606 4.75801 16.7999 4.92785 16.7999C5.09763 16.7999 5.24885 16.8606 5.36913 16.9803L10.0302 21.5048L10.0354 21.5099L10.0403 21.5154C10.1472 21.6355 10.2002 21.7814 10.2002 21.9423C10.2002 22.1107 10.1371 22.2592 10.0145 22.3748M9.18714 22.3883L10.0145 22.3748" fill="black" stroke="black" stroke-width="0.4"/>
</g>
<defs>
<clipPath id="clip0_5259_3573">
<rect width="10" height="40" fill="white"/>
</clipPath>
</defs>
</svg>
