<svg width="60" height="60" viewBox="0 0 60 60" fill="none" xmlns="http://www.w3.org/2000/svg">
<g clip-path="url(#clip0_4898_1503)">
<path d="M30 57.5C45.1878 57.5 57.5 45.1878 57.5 30C57.5 14.8122 45.1878 2.5 30 2.5C14.8122 2.5 2.5 14.8122 2.5 30C2.5 45.1878 14.8122 57.5 30 57.5Z" fill="white" stroke="#FC3E30" stroke-width="4"/>
<path d="M20.8447 41.6895C17.7685 41.6895 15.2636 40.1952 13.8427 37.4854C12.8466 35.7569 12.334 33.5449 12.334 30.9229C12.334 23.877 15.6006 19.6729 20.9619 19.6729C24.8291 19.6729 27.832 21.9726 28.4619 25.3857H24.7119C24.2285 23.789 22.749 22.749 20.9326 22.749C17.7685 22.749 15.9082 25.6787 15.9375 30.7764H16.0107C16.9042 28.711 19.0722 27.334 21.7382 27.334C25.752 27.334 28.7402 30.293 28.7402 34.3066C28.7402 38.5986 25.4297 41.6895 20.8447 41.6895ZM20.8154 38.5986C23.1591 38.5986 25.0195 36.7529 25.0195 34.4239C25.0195 32.0361 23.2617 30.293 20.8447 30.293C18.4131 30.293 16.6114 32.0361 16.6114 34.3799C16.6114 36.7382 18.457 38.5986 20.8154 38.5986ZM39.419 41.6747C34.2334 41.6747 31.1426 37.4414 31.1426 30.6591C31.1426 23.9062 34.2627 19.6875 39.419 19.6875C44.5605 19.6875 47.666 23.877 47.666 30.6445C47.666 37.4121 44.5899 41.6747 39.419 41.6747ZM39.419 38.584C42.2167 38.584 43.8427 35.6396 43.8427 30.6591C43.8427 25.7226 42.1875 22.7784 39.419 22.7784C36.6357 22.7784 34.9511 25.752 34.9511 30.6445C34.9511 35.625 36.6065 38.584 39.419 38.584Z" fill="black"/>
</g>
<defs>
<clipPath id="clip0_4898_1503">
<rect width="60" height="60" fill="white"/>
</clipPath>
</defs>
</svg>
