<svg width="60" height="72" viewBox="0 0 60 72" fill="none" xmlns="http://www.w3.org/2000/svg">
<path d="M53.75 0H6.25C4.86929 0 3.75 1.11157 3.75 2.48276V69.5172C3.75 70.8884 4.86929 72 6.25 72H53.75C55.1307 72 56.25 70.8884 56.25 69.5172V2.48276C56.25 1.11157 55.1307 0 53.75 0Z" fill="white"/>
<path d="M11.3843 16.1597H12.9101C13.0078 16.9659 13.8196 17.4932 14.8938 17.4932C15.9558 17.4932 16.6944 16.972 16.6944 16.2445C16.6944 15.6141 16.2426 15.2505 15.1319 14.9898L13.9905 14.7232C12.3669 14.3534 11.5979 13.5775 11.5979 12.3289C11.5979 10.7771 12.959 9.72852 14.8755 9.72852C16.8164 9.72852 18.0981 10.7711 18.1348 12.3107H16.6333C16.56 11.4924 15.8704 11.0014 14.8633 11.0014C13.8684 11.0014 13.197 11.4863 13.197 12.2137C13.197 12.7956 13.6426 13.1351 14.7229 13.3896L15.7361 13.62C17.5244 14.026 18.2813 14.7594 18.2813 16.0628C18.2813 17.7235 16.9385 18.7661 14.8084 18.7661C12.782 18.7661 11.4514 17.772 11.3843 16.1597ZM19.4714 9.87399H22.8955C24.6473 9.87399 25.8619 11.056 25.8619 12.8017C25.8619 14.5474 24.6106 15.7293 22.8284 15.7293H21.0461V18.6206H19.4714V9.87399ZM21.0461 11.153V14.4686H22.4744C23.6035 14.4686 24.2628 13.8624 24.2628 12.8017C24.2628 11.753 23.6096 11.153 22.4805 11.153H21.0461ZM32.7161 17.2992V18.6206H27.0154V9.87399H32.7161V11.1954H28.5901V13.5594H32.4903V14.8019H28.5901V17.2992H32.7161ZM39.7839 17.2992V18.6206H34.0833V9.87399H39.7839V11.1954H35.658V13.5594H39.5581V14.8019H35.658V17.2992H39.7839ZM41.1511 9.87399H44.3676C46.9982 9.87399 48.5548 11.456 48.5548 14.2261C48.5548 16.9962 47.0044 18.6206 44.3676 18.6206H41.1511V9.87399ZM42.7259 11.1954V17.2992H44.2029C45.9729 17.2992 46.9495 16.2264 46.9495 14.2321C46.9495 12.2743 45.9608 11.1954 44.2029 11.1954H42.7259ZM20.8325 29.713V31.0344H15.26V22.2878H16.8348V29.713H20.8325ZM23.5364 31.0344H21.9616V22.2878H23.5364V31.0344ZM34.1748 31.0344H32.7588V24.8275H32.7161L30.1709 30.9617H29.0966L26.5515 24.8275H26.5088V31.0344H25.0866V22.2878H26.9116L29.6094 28.8887H29.6583L32.356 22.2878H34.1748V31.0344ZM37.3059 31.0344H35.7313V22.2878H37.3059V31.0344ZM42.5794 31.0344H41.0108V23.6092H38.374V22.2878H45.21V23.6092H42.5794V31.0344Z" fill="black"/>
<path d="M13.8611 62.0688L23.9062 42.7317V42.6529H12.0044V39.3276H27.937V42.716L18.1457 62.0688H13.8611ZM39.4104 62.5259C34.6814 62.5259 31.2536 59.7049 31.0791 55.6704H34.9194C35.1734 57.7822 37.03 59.232 39.4421 59.232C42.1716 59.232 44.0442 57.3409 44.0442 54.6618C44.0442 51.9353 42.1557 50.0127 39.4739 50.0127C37.6014 50.0127 35.9826 50.8636 35.1416 52.282H31.4282L32.6184 39.3276H46.6467V42.6529H35.8557L35.2685 49.3035H35.3637C36.3159 47.8378 38.1885 46.9238 40.4577 46.9238C44.8376 46.9238 47.9956 50.123 47.9956 54.5514C47.9956 59.2793 44.4885 62.5259 39.4104 62.5259Z" fill="black"/>
</svg>
