<svg width="30" height="30" viewBox="0 0 30 30" fill="none" xmlns="http://www.w3.org/2000/svg">
<g clip-path="url(#clip0_3442_8872)">
<path d="M16.4488 1.55569L19.8324 8.41176C20.0677 8.8886 20.5226 9.21902 21.0489 9.29536L28.6153 10.3949C29.9407 10.5876 30.4694 12.2159 29.5107 13.1502L24.0358 18.4869C23.6553 18.8579 23.4813 19.393 23.5714 19.9168L24.8637 27.4524C25.0902 28.7722 23.7047 29.7785 22.5195 29.1558L15.7523 25.5982C15.2817 25.3511 14.7191 25.3511 14.2485 25.5982L7.48133 29.1558C6.2961 29.7791 4.91062 28.7722 5.13715 27.4524L6.42939 19.9168C6.51951 19.393 6.34554 18.8579 5.96506 18.4869L0.490095 13.1502C-0.468604 12.2153 0.060182 10.587 1.38559 10.3949L8.95192 9.29536C9.47821 9.21902 9.93315 8.8886 10.1684 8.41176L13.552 1.55569C14.144 0.35481 15.8562 0.35481 16.4488 1.55569Z" fill="#3374FB"/>
</g>
<defs>
<clipPath id="clip0_3442_8872">
<rect width="30" height="30" fill="white"/>
</clipPath>
</defs>
</svg>
