<svg width="22" height="20" viewBox="0 0 22 20" fill="none" xmlns="http://www.w3.org/2000/svg">
<path d="M10.1033 0.813081C10.4701 0.0698352 11.5299 0.0698339 11.8967 0.81308L14.294 5.67055C14.4397 5.96569 14.7213 6.17026 15.047 6.21759L20.4075 6.99652C21.2277 7.11571 21.5552 8.12368 20.9617 8.70222L17.0828 12.4832C16.8471 12.713 16.7396 13.044 16.7952 13.3684L17.7109 18.7072C17.851 19.5241 16.9936 20.1471 16.26 19.7614L11.4653 17.2407C11.174 17.0876 10.826 17.0876 10.5347 17.2407L5.74005 19.7614C5.00642 20.1471 4.14899 19.5241 4.2891 18.7072L5.20479 13.3684C5.26043 13.044 5.15288 12.713 4.91719 12.4832L1.03827 8.70222C0.444756 8.12368 0.772265 7.11571 1.59249 6.99652L6.95302 6.21759C7.27873 6.17026 7.5603 5.96569 7.70596 5.67055L10.1033 0.813081Z" fill="#D9D9D9"/>
<path d="M10.1033 0.813081C10.4701 0.0698352 11.5299 0.0698339 11.8967 0.81308L14.294 5.67055C14.4397 5.96569 14.7213 6.17026 15.047 6.21759L20.4075 6.99652C21.2277 7.11571 21.5552 8.12368 20.9617 8.70222L17.0828 12.4832C16.8471 12.713 16.7396 13.044 16.7952 13.3684L17.7109 18.7072C17.851 19.5241 16.9936 20.1471 16.26 19.7614L11.4653 17.2407C11.174 17.0876 10.826 17.0876 10.5347 17.2407L5.74005 19.7614C5.00642 20.1471 4.14899 19.5241 4.2891 18.7072L5.20479 13.3684C5.26043 13.044 5.15288 12.713 4.91719 12.4832L1.03827 8.70222C0.444756 8.12368 0.772265 7.11571 1.59249 6.99652L6.95302 6.21759C7.27873 6.17026 7.5603 5.96569 7.70596 5.67055L10.1033 0.813081Z" fill="url(#paint0_linear_6423_3555)"/>
<defs>
<linearGradient id="paint0_linear_6423_3555" x1="0.514563" y1="2.32943" x2="34.8325" y2="10.3259" gradientUnits="userSpaceOnUse">
<stop stop-color="#437DF6"/>
<stop offset="1" stop-color="#2823F9"/>
</linearGradient>
</defs>
</svg>
