<svg width="30" height="30" viewBox="0 0 30 30" fill="none" xmlns="http://www.w3.org/2000/svg">
<g clip-path="url(#clip0_3442_8880)">
<path d="M15.552 1.99822L15.5521 1.99824L18.9356 8.85426C18.9356 8.85428 18.9356 8.8543 18.9357 8.85431C19.3167 9.6264 20.0532 10.1613 20.9051 10.285C20.9052 10.285 20.9053 10.285 20.9054 10.285L28.4713 11.3845C28.9769 11.458 29.1777 12.0784 28.8128 12.434L28.8127 12.4341L23.3378 17.7708L23.3376 17.771C22.7218 18.3716 22.4399 19.2376 22.5859 20.0863L23.8781 27.6215L23.8781 27.6216C23.9643 28.1239 23.4368 28.5081 22.9846 28.2705L16.2176 24.7131L16.2173 24.7129C15.4556 24.3128 14.5453 24.3128 13.7835 24.7129L13.7832 24.7131L7.01601 28.2707L7.0159 28.2707C6.56456 28.5081 6.0364 28.1246 6.12274 27.6216L6.12277 27.6215L7.41492 20.0863C7.41493 20.0862 7.41494 20.0862 7.41496 20.0861C7.41497 20.086 7.41499 20.0859 7.41501 20.0858C7.56081 19.2372 7.27895 18.3714 6.66329 17.771L6.66307 17.7708L1.18827 12.4343C1.18824 12.4342 1.18821 12.4342 1.18818 12.4342C1.18815 12.4341 1.18813 12.4341 1.1881 12.4341C0.822421 12.0772 1.02491 11.4576 1.52904 11.3845L1.52939 11.3845L9.09549 10.285C9.94748 10.1614 10.6841 9.62647 11.0652 8.85431C11.0652 8.8543 11.0652 8.85428 11.0652 8.85426L14.4488 1.99825L14.449 1.99785C14.6741 1.54115 15.326 1.54024 15.552 1.99822Z" stroke="#3374FB" stroke-width="2"/>
</g>
<defs>
<clipPath id="clip0_3442_8880">
<rect width="30" height="30" fill="white"/>
</clipPath>
</defs>
</svg>
