<svg width="20" height="21" viewBox="0 0 20 21" fill="none" xmlns="http://www.w3.org/2000/svg">
<path d="M10.9658 1.53721L13.2215 6.10792C13.3784 6.42582 13.6817 6.64609 14.0325 6.69699L19.0768 7.42999C19.9604 7.55848 20.3129 8.64401 19.6738 9.26687L16.0238 12.8246C15.7701 13.072 15.6541 13.4287 15.7142 13.7779L16.5757 18.8017C16.7267 19.6816 15.8031 20.3524 15.0129 19.9373L10.5015 17.5656C10.1877 17.4008 9.81267 17.4008 9.49895 17.5656L4.98747 19.9373C4.19732 20.3528 3.27367 19.6816 3.42469 18.8017L4.28618 13.7779C4.34626 13.4287 4.23028 13.072 3.97663 12.8246L0.326648 9.26687C-0.312484 8.64359 0.04004 7.55807 0.923645 7.42999L5.96787 6.69699C6.31872 6.64609 6.62202 6.42582 6.77888 6.10792L9.03462 1.53721C9.42928 0.736622 10.5707 0.736622 10.9658 1.53721Z" fill="#3374FB"/>
</svg>
