<svg width="30" height="28" viewBox="0 0 30 28" fill="none" xmlns="http://www.w3.org/2000/svg">
<path d="M14.1033 0.813077C14.4701 0.0698316 15.5299 0.0698339 15.8967 0.81308L19.4696 8.05252C19.6153 8.34766 19.8968 8.55223 20.2225 8.59956L28.2117 9.76046C29.032 9.87964 29.3595 10.8876 28.766 11.4661L22.9849 17.1013C22.7492 17.331 22.6417 17.662 22.6973 17.9864L24.062 25.9433C24.2022 26.7602 23.3447 27.3832 22.6111 26.9975L15.4653 23.2407C15.174 23.0876 14.826 23.0876 14.5347 23.2407L7.38891 26.9975C6.65528 27.3832 5.79785 26.7602 5.93796 25.9433L7.30268 17.9864C7.35831 17.662 7.25077 17.331 7.01508 17.1013L1.23404 11.4661C0.640526 10.8876 0.968038 9.87964 1.78826 9.76045L9.77745 8.59956C10.1032 8.55223 10.3847 8.34766 10.5304 8.05252L14.1033 0.813077Z" fill="#D9D9D9"/>
<path d="M14.1033 0.813077C14.4701 0.0698316 15.5299 0.0698339 15.8967 0.81308L19.4696 8.05252C19.6153 8.34766 19.8968 8.55223 20.2225 8.59956L28.2117 9.76046C29.032 9.87964 29.3595 10.8876 28.766 11.4661L22.9849 17.1013C22.7492 17.331 22.6417 17.662 22.6973 17.9864L24.062 25.9433C24.2022 26.7602 23.3447 27.3832 22.6111 26.9975L15.4653 23.2407C15.174 23.0876 14.826 23.0876 14.5347 23.2407L7.38891 26.9975C6.65528 27.3832 5.79785 26.7602 5.93796 25.9433L7.30268 17.9864C7.35831 17.662 7.25077 17.331 7.01508 17.1013L1.23404 11.4661C0.640526 10.8876 0.968038 9.87964 1.78826 9.76045L9.77745 8.59956C10.1032 8.55223 10.3847 8.34766 10.5304 8.05252L14.1033 0.813077Z" fill="url(#paint0_linear_6423_3648)"/>
<path d="M14.1033 0.813077C14.4701 0.0698316 15.5299 0.0698339 15.8967 0.81308L19.4696 8.05252C19.6153 8.34766 19.8968 8.55223 20.2225 8.59956L28.2117 9.76046C29.032 9.87964 29.3595 10.8876 28.766 11.4661L22.9849 17.1013C22.7492 17.331 22.6417 17.662 22.6973 17.9864L24.062 25.9433C24.2022 26.7602 23.3447 27.3832 22.6111 26.9975L15.4653 23.2407C15.174 23.0876 14.826 23.0876 14.5347 23.2407L7.38891 26.9975C6.65528 27.3832 5.79785 26.7602 5.93796 25.9433L7.30268 17.9864C7.35831 17.662 7.25077 17.331 7.01508 17.1013L1.23404 11.4661C0.640526 10.8876 0.968038 9.87964 1.78826 9.76045L9.77745 8.59956C10.1032 8.55223 10.3847 8.34766 10.5304 8.05252L14.1033 0.813077Z" fill="white"/>
<defs>
<linearGradient id="paint0_linear_6423_3648" x1="1.01942" y1="3.44054" x2="46.7767" y2="14.1024" gradientUnits="userSpaceOnUse">
<stop stop-color="#437DF6"/>
<stop offset="1" stop-color="#2823F9"/>
</linearGradient>
</defs>
</svg>
