<svg width="40" height="40" viewBox="0 0 40 40" fill="none" xmlns="http://www.w3.org/2000/svg">
<path d="M18.2065 3.63397C18.9402 2.14748 21.0598 2.14748 21.7935 3.63397L25.4125 10.9669C25.7038 11.5572 26.267 11.9664 26.9184 12.061L35.0108 13.2369C36.6512 13.4753 37.3063 15.4912 36.1192 16.6483L30.2635 22.3562C29.7921 22.8157 29.577 23.4777 29.6883 24.1265L31.0707 32.1862C31.3509 33.82 29.636 35.066 28.1688 34.2946L20.9307 30.4893C20.348 30.183 19.652 30.183 19.0693 30.4893L11.8312 34.2946C10.364 35.066 8.64912 33.82 8.92934 32.1862L10.3117 24.1265C10.423 23.4777 10.2079 22.8157 9.7365 22.3562L3.88077 16.6483C2.69373 15.4912 3.34876 13.4753 4.9892 13.2369L13.0816 12.061C13.733 11.9664 14.2962 11.5572 14.5875 10.9669L18.2065 3.63397Z" fill="#D9D9D9"/>
<path d="M18.2065 3.63397C18.9402 2.14748 21.0598 2.14748 21.7935 3.63397L25.4125 10.9669C25.7038 11.5572 26.267 11.9664 26.9184 12.061L35.0108 13.2369C36.6512 13.4753 37.3063 15.4912 36.1192 16.6483L30.2635 22.3562C29.7921 22.8157 29.577 23.4777 29.6883 24.1265L31.0707 32.1862C31.3509 33.82 29.636 35.066 28.1688 34.2946L20.9307 30.4893C20.348 30.183 19.652 30.183 19.0693 30.4893L11.8312 34.2946C10.364 35.066 8.64912 33.82 8.92934 32.1862L10.3117 24.1265C10.423 23.4777 10.2079 22.8157 9.7365 22.3562L3.88077 16.6483C2.69373 15.4912 3.34876 13.4753 4.9892 13.2369L13.0816 12.061C13.733 11.9664 14.2962 11.5572 14.5875 10.9669L18.2065 3.63397Z" fill="url(#paint0_linear_5088_3593)"/>
<defs>
<linearGradient id="paint0_linear_5088_3593" x1="2.52427" y1="5.55556" x2="59.7209" y2="18.8829" gradientUnits="userSpaceOnUse">
<stop stop-color="#437DF6"/>
<stop offset="1" stop-color="#2823F9"/>
</linearGradient>
</defs>
</svg>
