<svg width="64" height="64" viewBox="0 0 64 64" fill="none" xmlns="http://www.w3.org/2000/svg">
<g clip-path="url(#clip0_4898_1244)">
<path d="M30.2065 5.63397C30.9402 4.14748 33.0598 4.14748 33.7935 5.63397L40.9392 20.1128C41.2305 20.7031 41.7937 21.1123 42.4451 21.2069L58.4235 23.5287C60.0639 23.7671 60.7189 25.783 59.5319 26.9401L47.9698 38.2103C47.4985 38.6698 47.2834 39.3318 47.3946 39.9806L50.1241 55.8944C50.4043 57.5282 48.6894 58.7742 47.2222 58.0028L32.9307 50.4893C32.348 50.183 31.652 50.183 31.0693 50.4893L16.7778 58.0028C15.3106 58.7742 13.5957 57.5282 13.8759 55.8944L16.6054 39.9806C16.7166 39.3318 16.5015 38.6698 16.0302 38.2103L4.46809 26.9401C3.28105 25.783 3.93608 23.7671 5.57652 23.5287L21.5549 21.2069C22.2063 21.1123 22.7695 20.7031 23.0608 20.1128L30.2065 5.63397Z" fill="#CADAFC"/>
</g>
<defs>
<clipPath id="clip0_4898_1244">
<rect width="64" height="64" fill="white"/>
</clipPath>
</defs>
</svg>
