<svg width="40" height="24" viewBox="0 0 40 24" fill="none" xmlns="http://www.w3.org/2000/svg">
<rect width="40" height="24" rx="6" fill="#151515"/>
<path fill-rule="evenodd" clip-rule="evenodd" d="M35.3839 12.143C35.3839 9.96155 34.324 8.24023 32.2984 8.24023C30.2642 8.24023 29.0334 9.96155 29.0334 12.126C29.0334 14.6909 30.4864 15.9861 32.5719 15.9861C33.589 15.9861 34.3582 15.7561 34.9394 15.4323V13.728C34.3582 14.0177 33.6916 14.1967 32.8454 14.1967C32.0164 14.1967 31.2813 13.9069 31.1873 12.9014H35.3668C35.3668 12.7906 35.3839 12.3475 35.3839 12.143ZM31.1617 11.3335C31.1617 10.3706 31.7514 9.97007 32.2899 9.97007C32.8112 9.97007 33.3668 10.3706 33.3668 11.3335H31.1617Z" fill="#BABABA"/>
<path fill-rule="evenodd" clip-rule="evenodd" d="M25.7361 8.24023C24.8985 8.24023 24.3601 8.63222 24.0609 8.9049L23.9498 8.37658H22.0695V18.3125L24.2062 17.8608L24.2148 15.4493C24.5224 15.6708 24.9754 15.9861 25.7276 15.9861C27.2575 15.9861 28.6507 14.7591 28.6507 12.0578C28.6421 9.58661 27.2319 8.24023 25.7361 8.24023ZM25.2233 14.1114C24.719 14.1114 24.4199 13.9325 24.2148 13.7109L24.2062 10.5495C24.4284 10.3024 24.7361 10.132 25.2233 10.132C26.0011 10.132 26.5395 11.0012 26.5395 12.1174C26.5395 13.2593 26.0096 14.1114 25.2233 14.1114Z" fill="#BABABA"/>
<path fill-rule="evenodd" clip-rule="evenodd" d="M19.1279 7.73686L21.2732 7.27671V5.54688L19.1279 5.99851V7.73686Z" fill="#BABABA"/>
<path d="M21.2732 8.38574H19.1279V15.8419H21.2732V8.38574Z" fill="#BABABA"/>
<path fill-rule="evenodd" clip-rule="evenodd" d="M16.8303 9.01651L16.6936 8.38593H14.8474V15.8421H16.9842V10.789C17.4884 10.1328 18.3431 10.2521 18.6081 10.3458V8.38593C18.3346 8.28368 17.3346 8.09621 16.8303 9.01651Z" fill="#BABABA"/>
<path fill-rule="evenodd" clip-rule="evenodd" d="M12.5537 6.53613L10.4683 6.97924L10.4597 13.8048C10.4597 15.066 11.4084 15.9948 12.6734 15.9948C13.3742 15.9948 13.8871 15.867 14.1691 15.7136V13.9838C13.8956 14.0946 12.5452 14.4866 12.5452 13.2254V10.2003H14.1691V8.38527H12.5452L12.5537 6.53613Z" fill="#BABABA"/>
<path fill-rule="evenodd" clip-rule="evenodd" d="M6.77543 10.5495C6.77543 10.2172 7.04894 10.0894 7.50193 10.0894C8.1515 10.0894 8.97201 10.2854 9.62159 10.6347V8.63222C8.91218 8.35101 8.21133 8.24023 7.50193 8.24023C5.76688 8.24023 4.61304 9.1435 4.61304 10.6518C4.61304 13.0037 7.8609 12.6287 7.8609 13.6428C7.8609 14.0348 7.51902 14.1626 7.04039 14.1626C6.33099 14.1626 5.425 13.8728 4.70705 13.4809V15.5089C5.50193 15.8498 6.30535 15.9947 7.04039 15.9947C8.81817 15.9947 10.0404 15.117 10.0404 13.5916C10.0318 11.0523 6.77543 11.5039 6.77543 10.5495Z" fill="#BABABA"/>
</svg>
