<svg width="40" height="24" viewBox="0 0 40 24" fill="none" xmlns="http://www.w3.org/2000/svg">
<rect width="40" height="24" rx="6" fill="#151515"/>
<path d="M18.0052 16.6622H15.5814L17.0974 7.36914H19.521L18.0052 16.6622Z" fill="#BABABA"/>
<path d="M26.7909 7.59584C26.3128 7.40781 25.5545 7.2002 24.617 7.2002C22.2234 7.2002 20.538 8.46557 20.5276 10.2747C20.5077 11.6094 21.7344 12.3508 22.6518 12.7958C23.5895 13.2506 23.9083 13.5474 23.9083 13.9528C23.8987 14.5754 23.1506 14.8623 22.4527 14.8623C21.4851 14.8623 20.9666 14.7144 20.1786 14.368L19.8595 14.2195L19.5203 16.3056C20.0888 16.5624 21.1361 16.7902 22.2234 16.8002C24.7666 16.8002 26.4223 15.5544 26.4419 13.6265C26.4516 12.5686 25.8038 11.758 24.4074 11.0956C23.5597 10.6704 23.0405 10.3837 23.0405 9.94867C23.0505 9.55316 23.4796 9.14805 24.4366 9.14805C25.2245 9.12821 25.8034 9.31598 26.242 9.50388L26.4612 9.60256L26.7909 7.59584Z" fill="#BABABA"/>
<path d="M30.0126 13.37C30.2122 12.8361 30.9803 10.7699 30.9803 10.7699C30.9702 10.7897 31.1795 10.2261 31.2992 9.88017L31.4685 10.6809C31.4685 10.6809 31.9275 12.9054 32.0272 13.37C31.6484 13.37 30.4913 13.37 30.0126 13.37ZM33.0044 7.36914H31.1296C30.5515 7.36914 30.1123 7.53707 29.8628 8.14019L26.2627 16.6621H28.8058C28.8058 16.6621 29.2245 15.5151 29.3145 15.2681C29.5935 15.2681 32.0675 15.2681 32.4264 15.2681C32.496 15.5943 32.7156 16.6621 32.7156 16.6621H34.9597L33.0044 7.36914Z" fill="#BABABA"/>
<path d="M13.5584 7.36914L11.1848 13.7061L10.9254 12.4209C10.4866 10.9379 9.11032 9.32672 7.57446 8.52558L9.74862 16.6523H12.3117L16.1213 7.36914H13.5584Z" fill="#BABABA"/>
<path d="M8.97759 7.36914H5.07804L5.03815 7.55691C8.08004 8.32809 10.0946 10.187 10.9223 12.4213L10.0746 8.15031C9.93504 7.55678 9.50615 7.38872 8.97759 7.36914Z" fill="#BABABA"/>
</svg>
