<svg width="32" height="20" viewBox="0 0 32 20" fill="none" xmlns="http://www.w3.org/2000/svg">
<rect width="32" height="20" rx="4" fill="#151515"/>
<path d="M14.4038 13.8848H12.4648L13.6776 6.14062H15.6165L14.4038 13.8848Z" fill="#BABABA"/>
<path d="M21.4326 6.3297C21.0502 6.17301 20.4436 6 19.6935 6C17.7787 6 16.4303 7.05448 16.422 8.56206C16.4061 9.67435 17.3875 10.2921 18.1214 10.663C18.8716 11.042 19.1266 11.2894 19.1266 11.6272C19.1189 12.146 18.5204 12.3851 17.9621 12.3851C17.188 12.3851 16.7732 12.2618 16.1429 11.9732L15.8875 11.8494L15.6162 13.5878C16.071 13.8018 16.9088 13.9917 17.7787 14C19.8132 14 21.1378 12.9618 21.1535 11.3553C21.1612 10.4737 20.643 9.79819 19.5259 9.24621C18.8477 8.89187 18.4324 8.65294 18.4324 8.29039C18.4403 7.9608 18.7837 7.62321 19.5492 7.62321C20.1796 7.60668 20.6427 7.76315 20.9936 7.91974L21.1689 8.00197L21.4326 6.3297Z" fill="#BABABA"/>
<path d="M24.0102 11.1413C24.1699 10.6964 24.7843 8.97457 24.7843 8.97457C24.7763 8.9911 24.9437 8.52146 25.0394 8.23315L25.1749 8.90044C25.1749 8.90044 25.5421 10.7541 25.6218 11.1413C25.3188 11.1413 24.3932 11.1413 24.0102 11.1413ZM26.4036 6.14062H24.9038C24.4413 6.14062 24.0899 6.28056 23.8904 6.78317L21.0103 13.8847H23.0448C23.0448 13.8847 23.3797 12.9289 23.4517 12.7231C23.6749 12.7231 25.6541 12.7231 25.9412 12.7231C25.9969 12.9949 26.1726 13.8847 26.1726 13.8847H27.9679L26.4036 6.14062Z" fill="#BABABA"/>
<path d="M10.8468 6.14062L8.94785 11.4214L8.74035 10.3504C8.38928 9.11462 7.28825 7.77194 6.05957 7.10433L7.7989 13.8766H9.84932L12.8971 6.14062H10.8468Z" fill="#BABABA"/>
<path d="M7.18231 6.14062H4.06268L4.03076 6.2971C6.46427 6.93975 8.07594 8.48883 8.7381 10.3508L8.05993 6.7916C7.94828 6.29699 7.60516 6.15694 7.18231 6.14062Z" fill="#BABABA"/>
</svg>
