<svg width="74" height="52" viewBox="0 0 74 52" fill="none" xmlns="http://www.w3.org/2000/svg">
<path d="M72.1342 8.07105C71.2853 4.89247 68.7924 2.39457 65.6206 1.54371C59.8775 4.62089e-07 36.8373 0 36.8373 0C36.8373 0 13.7973 4.62089e-07 8.05399 1.54371C4.88214 2.39457 2.38952 4.89247 1.54045 8.07105C4.61114e-07 13.8265 0 25.8419 0 25.8419C0 25.8419 4.61114e-07 37.8574 1.54045 43.6129C2.38952 46.7914 4.88214 49.2893 8.05399 50.14C13.7973 51.6838 36.8373 51.6838 36.8373 51.6838C36.8373 51.6838 59.8775 51.6838 65.6206 50.14C68.7924 49.2893 71.2853 46.7914 72.1342 43.6129C73.6748 37.8574 73.6748 25.8419 73.6748 25.8419C73.6748 25.8419 73.6686 13.8265 72.1342 8.07105Z" fill="#FF0000"/>
<path d="M29.4628 36.9162L48.6032 25.843L29.4628 14.7695V36.9162Z" fill="white"/>
</svg>
