<svg width="32" height="14" viewBox="0 0 32 14" fill="none" xmlns="http://www.w3.org/2000/svg">
<path d="M0.75 4.75C0.75 4.19772 1.19772 3.75 1.75 3.75H9.5C9.63807 3.75 9.75 3.63807 9.75 3.5V1C9.75 0.861929 9.86193 0.75 10 0.75H15.75H21.5C21.6381 0.75 21.75 0.861929 21.75 1V3.5C21.75 3.63807 21.8619 3.75 22 3.75H29.75C30.3023 3.75 30.75 4.19772 30.75 4.75V11.75C30.75 12.3023 30.3023 12.75 29.75 12.75H1.75C1.19772 12.75 0.75 12.3023 0.75 11.75V4.75Z" stroke="#999999" stroke-width="1.5"/>
<circle cx="5.75" cy="8.25" r="1" fill="#999999"/>
<circle cx="10.75" cy="8.25" r="1" fill="#999999"/>
<circle cx="15.75" cy="8.25" r="1" fill="#999999"/>
<circle cx="20.75" cy="8.25" r="1" fill="#999999"/>
<circle cx="25.75" cy="8.25" r="1" fill="#999999"/>
</svg>
